<svg data-name="Group 16" xmlns="http://www.w3.org/2000/svg" width="105.84" height="71.407" viewBox="0 0 105.84 71.407">
    <g data-name="Group 12">
        <path data-name="Path 45" d="m102.168 31.537-1.507 3.9h-2.038l5.193-13.384h2.468l5.416 13.381h-2.156l-1.564-3.9zm5.243-1.693c-1.394-3.511-2.109-5.306-2.411-6.294h-.018c-.307 1.035-1.127 3.28-2.264 6.294z" transform="translate(-98.623 35.725)" style="fill:#161615"/>
        <path data-name="Path 46" d="M104.109 26.054c0-.828 0-1.708-.018-2.442h1.85c.045.3.071 1.182.073 1.622a3.275 3.275 0 0 1 3.225-1.868c2.046 0 3.477 1.266 3.477 3.857V33.3h-1.91v-5.792c0-1.462-.561-2.544-2.141-2.544-1.826 0-2.649 1.37-2.649 3.4V33.3h-1.907z" transform="translate(-89.764 37.857)" style="fill:#161615"/>
        <path data-name="Path 47" d="M107.751 25.281h1.766v-2.945h1.9v2.945h2.283v1.5h-2.282v5.35c0 .985.246 1.452 1.192 1.452a3.989 3.989 0 0 0 .87-.076V34.9a4.851 4.851 0 0 1-1.53.181c-1.792 0-2.437-.859-2.437-2.612v-5.687h-1.766z" transform="translate(-83.835 36.188)" style="fill:#161615"/>
        <path data-name="Path 48" d="M110.535 21.76h1.9v2.175h-1.9zm0 4.452h1.9V35.9h-1.9z" transform="translate(-79.324 35.255)" style="fill:#161615"/>
        <path data-name="Path 49" d="M121.616 28.445c0 2.777-1.7 5.1-4.921 5.1-3.05 0-4.805-2.277-4.805-5.08a4.764 4.764 0 0 1 4.91-5.1c3.042 0 4.816 2.277 4.816 5.08m-7.776.016c0 1.949 1.072 3.537 2.924 3.537 1.907 0 2.893-1.5 2.893-3.521s-1.024-3.561-2.932-3.561-2.885 1.5-2.885 3.545" transform="translate(-77.129 37.855)" style="fill:#161615"/>
        <path data-name="Path 50" d="M117.92 23.46c1.473 2.02 2.225 3.031 2.591 3.548h.024c.456-.634 1.36-1.879 2.612-3.548h2.117l-3.652 4.666 3.755 5.023h-2.23c-1.307-1.824-2.243-3.113-2.683-3.723h-.029c-.354.516-1.221 1.761-2.644 3.723h-2.122l3.658-4.86-3.608-4.829z" transform="translate(-71.023 38.009)" style="fill:#161615"/>
        <path data-name="Path 51" d="M119.768 21.76h1.9v2.175h-1.9zm0 4.452h1.9V35.9h-1.9z" transform="translate(-64.366 35.255)" style="fill:#161615"/>
        <path data-name="Path 52" d="M130.609 21.761V33.14c0 .917 0 1.834.018 2.762h-1.842c-.047-.32-.073-.962-.081-1.37-.487.9-1.378 1.619-3.244 1.619-2.625 0-4.336-2.046-4.336-5 0-3.087 2.017-5.183 4.619-5.183 1.923 0 2.7.807 2.961 1.3v-5.5zm-7.517 9.339c0 2.033 1.059 3.466 2.8 3.466 2.2 0 2.882-1.541 2.882-3.59 0-2.075-.571-3.432-2.79-3.432-1.873 0-2.893 1.509-2.893 3.556" transform="translate(-62.169 35.257)" style="fill:#161615"/>
        <path data-name="Path 53" d="M133.969 31.006a21.289 21.289 0 0 0 .113 2.3h-1.813a6.9 6.9 0 0 1-.139-1.292c-.419.8-1.339 1.541-3.27 1.541-2.492 0-3.487-1.569-3.487-3.042 0-2.319 1.96-3.17 4.79-3.17h1.937v-.65c0-.917-.348-1.884-2.19-1.884-1.659 0-2 .762-2.169 1.551h-1.871c.12-1.328.977-2.995 4.064-2.99 2.976.005 4.032 1.347 4.032 3.275zm-1.86-2.366h-1.86c-2 0-2.974.5-2.974 1.769 0 .941.668 1.677 2 1.677 2.335 0 2.83-1.454 2.83-3.1z" transform="translate(-55.286 37.857)" style="fill:#161615"/>
        <path data-name="Path 54" d="M129.58 26.054c0-.828 0-1.708-.018-2.442h1.85c.045.3.071 1.182.073 1.622a3.272 3.272 0 0 1 3.225-1.868c2.046 0 3.477 1.266 3.477 3.857V33.3h-1.91v-5.792c0-1.462-.561-2.544-2.141-2.544-1.826 0-2.649 1.37-2.649 3.4V33.3h-1.907z" transform="translate(-48.498 37.857)" style="fill:#161615"/>
        <path data-name="Path 55" d="M133.223 25.281h1.766v-2.945h1.9v2.945h2.282v1.5h-2.282v5.35c0 .985.246 1.452 1.192 1.452a3.989 3.989 0 0 0 .87-.076V34.9a4.851 4.851 0 0 1-1.53.181c-1.792 0-2.437-.859-2.437-2.612v-5.687h-1.766z" transform="translate(-42.567 36.188)" style="fill:#161615"/>
        <path data-name="Path 56" d="M137.655 30.445a2.371 2.371 0 0 0 2.6 1.661c1.559 0 2.128-.6 2.128-1.417s-.461-1.271-2.523-1.638c-3.113-.571-3.7-1.6-3.7-2.866 0-1.336 1.011-2.819 3.836-2.819 2.929 0 3.935 1.58 4.048 2.859h-1.874c-.136-.579-.561-1.441-2.272-1.441-1.48 0-1.852.668-1.852 1.237 0 .681.406 1.051 2.345 1.41 3.307.613 3.917 1.682 3.917 3.113 0 1.714-1.331 3.011-4.145 3.011-2.67 0-4.127-1.239-4.41-3.107z" transform="translate(-38.468 37.855)" style="fill:#161615"/>
        <path data-name="Path 57" d="m134.907 3.672-.115.06a13.928 13.928 0 0 0-7.321-2.638C109.588-.489 107 17.747 108.3 25.764c2.007 12.448 9.181 17.78 17.788 19.373 57.666 10.68 42.113-61.987 8.822-41.466m.9 29.62c-18.323-13.612-5.518-24.108 0-15.87 5.518-8.238 18.322 2.259 0 15.87" transform="translate(-83.411)" style="fill:#161615"/>
    </g>
</svg>
