<svg xmlns="http://www.w3.org/2000/svg" width="133.558" height="171.747" viewBox="0 0 133.558 171.747">
    <g data-name="Group 973">
        <path data-name="Path 297" d="M112.722 78.8c0 43.518-25.234 78.8-56.361 78.8S0 122.314 0 78.8 25.234 0 56.361 0s56.361 35.278 56.361 78.8" transform="rotate(8 10.966 156.828)" style="fill:#fff"/>
        <g data-name="Group 937">
            <path data-name="Path 298" d="m36.166 121.613 1.149-3.919a4.692 4.692 0 0 1 6.142-3.432 4.906 4.906 0 0 1 3.572 6.338l-1.129 3.865zm8.811.649.555-1.9c.631-2.151-.494-3.611-2.589-4.225a3.13 3.13 0 0 0-4.251 2.18l-.566 1.932z" transform="rotate(8 523.8 32.775)" style="fill:#f9b413"/>
            <path data-name="Path 299" d="m52.184 94.317 3.755 1.883-.823 1.637-9.06-4.553 2.1-4.174c.977-1.945 2.538-2.561 4.028-1.813a2.343 2.343 0 0 1 1.381 2.6c.441-.456 1.29-1 2.891-.193l.422.212a8.17 8.17 0 0 0 1.835.774l-.826 1.644a7.055 7.055 0 0 1-2.013-.813l-.228-.114c-1.132-.568-1.775-.438-2.529 1.062zm-1.317-.662 1.071-2.131c.62-1.234.44-2-.463-2.456-.85-.427-1.6-.093-2.176 1.05l-1.1 2.195z" transform="rotate(8 407.92 -19.062)" style="fill:#f9b413"/>
            <path data-name="Rectangle 266" transform="rotate(-47.23 58.03 -29.921)" style="fill:#f9b413" d="M0 0h1.857v10.141H0z"/>
            <path data-name="Path 300" d="m75.554 63.2-7.16-7.184 1.619-1.616c3.5.769 7.9 1.68 9.089 2.074l.018-.018c-.908-.768-2.112-1.99-3.283-3.166l-2.348-2.35 1.211-1.209 7.16 7.184-1.525 1.52c-2.23-.51-8.18-1.864-9.435-2.254l-.018.018c.862.757 2.053 1.943 3.332 3.226l2.556 2.565z" transform="rotate(8 250.834 -128.812)" style="fill:#f9b413"/>
            <path data-name="Path 301" d="m94.949 35.8 1.641-.848 2.172 4.2c.486-1.426 1.445-4.234 2.18-6.452l2.032-1.051-2.082 5.913 6.943 2.987-2.035 1.056-5.572-2.448-.637 1.6 1.654 3.2-1.64.848z" transform="rotate(8 179.454 -251.215)" style="fill:#f9b413"/>
            <path data-name="Path 302" d="m136.889 27.094 4.675.106c2.3.052 3.3 1.219 3.264 2.646A2.228 2.228 0 0 1 143.309 32a2.454 2.454 0 0 1 1.765 2.426c-.043 1.89-1.549 2.963-3.679 2.915l-4.736-.107zm1.629 8.73 2.6.059c1.153.026 2-.395 2.025-1.546.023-.982-.644-1.573-2.047-1.605l-2.506-.057zm2.612-4.541c1.266.029 1.79-.461 1.809-1.286.02-.885-.644-1.327-1.659-1.35l-2.6-.059-.06 2.639z" transform="rotate(8 172.235 -436.149)" style="fill:#f9b413"/>
            <path data-name="Path 303" d="m169.054 37.67-5.046-1.862-1.037 2.811 5.572 2.056-.743 1.359-7.078-2.612 3.51-9.512 7.016 2.589-.53 1.437-5.3-1.955-.882 2.39 5.046 1.862z" transform="rotate(8 192.024 -541.152)" style="fill:#f9b413"/>
            <path data-name="Path 304" d="m187.534 42.061 5.91 4.419-.915 1.224-4.438-3.319-1.7 2.278 4.149 3.1-.919 1.229-4.149-3.1-2.535 3.391-1.472-1.1z" transform="rotate(8 251.879 -628.68)" style="fill:#f9b413"/>
            <path data-name="Path 305" d="M210.973 73.124a4.951 4.951 0 0 1-7.339-.764c-1.989-2.521-1.291-5.395 1.013-7.213a4.972 4.972 0 0 1 7.293.793 4.883 4.883 0 0 1-.967 7.183m-5.091-6.475c-1.623 1.281-2.314 3.185-1.009 4.838 1.364 1.729 3.341 1.337 4.876.126 1.572-1.24 2.3-3.094.956-4.8-1.309-1.659-3.255-1.407-4.823-.169" transform="rotate(8 354.499 -714.383)" style="fill:#f9b413"/>
            <path data-name="Path 306" d="m220.132 91.928-3.781 1.834-.8-1.648 9.122-4.426 2.039 4.2c.95 1.959.49 3.572-1.009 4.3a2.342 2.342 0 0 1-2.9-.482c.094.628.009 1.631-1.6 2.413l-.424.206a8.157 8.157 0 0 0-1.729.986l-.8-1.655a7.078 7.078 0 0 1 1.87-1.1l.229-.111c1.139-.552 1.427-1.143.694-2.653zm1.326-.643 1.042 2.145c.6 1.242 1.323 1.567 2.232 1.126.856-.415 1.047-1.215.489-2.366l-1.072-2.21z" transform="rotate(8 463.125 -764.638)" style="fill:#f9b413"/>
            <path data-name="Path 307" d="m232.316 122.95-1.514-5.162-2.874.843 1.671 5.7-1.534.213-2.123-7.24 9.73-2.853 2.1 7.177-1.47.431-1.589-5.418-2.444.717 1.513 5.162z" transform="rotate(8 584.077 -802.118)" style="fill:#f9b413"/>
            <path data-name="Path 308" d="m60.336 330.336-2.73.888-1.172-1.465 10.322-3.326 1.453 1.815-5.4 9.476-1.242-1.551L63 333.667zm3.558 1.991c1.334-2.3 2.052-3.52 2.522-4.2l-.009-.012c-.792.333-2.439.908-4.579 1.626z" transform="rotate(8 1464.666 8.953)" style="fill:#f9b413"/>
            <path data-name="Path 309" d="m84.3 339.766 1.429 1.181-5.484 6.633 4.248 3.511-1.165 1.028-5.489-4.538z" transform="rotate(8 1529.917 -81.144)" style="fill:#f9b413"/>
            <path data-name="Path 310" d="M109.34 364.146c-1.175 1.423-3 2.162-5.464 1.029-3-1.379-3.511-4.209-2.317-6.8 1.169-2.543 3.8-4.064 6.783-2.69 2.514 1.157 3.117 3.149 2.691 4.811l-1.7-.783a2.473 2.473 0 0 0-1.65-2.7c-1.875-.862-3.488.281-4.329 2.11-.819 1.78-.743 3.839 1.22 4.741a2.49 2.49 0 0 0 3.071-.5z" transform="rotate(8 1604.781 -178.135)" style="fill:#f9b413"/>
            <path data-name="Path 311" d="M139.287 367.619a4.95 4.95 0 0 1-5.426 5c-3.205-.176-4.9-2.6-4.739-5.53a4.971 4.971 0 0 1 5.418-4.945 4.883 4.883 0 0 1 4.748 5.476m-8.223-.463c-.113 2.064.859 3.841 2.961 3.956 2.2.121 3.212-1.621 3.319-3.573.11-2-.8-3.77-2.963-3.889-2.11-.115-3.208 1.51-3.317 3.506" transform="rotate(8 1644.11 -299.852)" style="fill:#f9b413"/>
            <path data-name="Path 312" d="m157.28 358.1 1.75-.619 1.344 3.8 4.723-1.671-1.344-3.8 1.751-.619 3.382 9.561-1.75.619-1.529-4.32-4.723 1.671 1.529 4.32-1.751.619z" transform="rotate(8 1622.23 -425.933)" style="fill:#f9b413"/>
            <path data-name="Path 313" d="M194.309 344.9a4.952 4.952 0 0 1-.757 7.342c-2.519 1.991-5.394 1.3-7.214-1.007a4.973 4.973 0 0 1 .787-7.3 4.884 4.884 0 0 1 7.185.96m-6.471 5.1c1.282 1.622 3.187 2.311 4.84 1 1.728-1.365 1.334-3.342.122-4.876-1.241-1.571-3.1-2.3-4.8-.953-1.659 1.311-1.4 3.257-.165 4.825" transform="rotate(8 1576.155 -552.169)" style="fill:#f9b413"/>
            <path data-name="Path 314" d="m202.244 333.475 1.166-1.441 6.689 5.414 3.467-4.283 1.04 1.155-4.48 5.535z" transform="rotate(8 1534.17 -630.9)" style="fill:#f9b413"/>
            <path data-name="Path 315" d="M136.273 300.924c0 2.421-7.657 4.384-17.1 4.384s-17.1-1.963-17.1-4.384 7.657-4.384 17.1-4.384 17.1 1.963 17.1 4.384" transform="rotate(8 1347.174 -201.049)" style="fill:#f9b413"/>
            <path data-name="Rectangle 267" transform="rotate(8 -543.75 507.66)" style="fill:#f9b413" d="M0 0h4.271v44.655H0z"/>
            <path data-name="Path 316" d="M132.351 164.223a23.639 23.639 0 0 1-47.278 0" transform="rotate(8 759.738 -166.97)" style="fill:#f9b413"/>
            <path data-name="Path 317" d="M129.528 103a6.925 6.925 0 0 1 .938-3.368c1.511-2.622 5.6-9.247 5.6-9.247s4.7 7.652 5.635 9.3a6.338 6.338 0 0 1 .563 5.324 6.517 6.517 0 0 1-12.628-.992c-.058-.334-.073-.676-.109-1.015" transform="rotate(8 448.523 -385.297)" style="fill:#f9b413"/>
        </g>
    </g>
</svg>
