<svg data-name="Group 65" xmlns="http://www.w3.org/2000/svg" width="170.894" height="139.792" viewBox="0 0 170.894 139.792">
    <defs>
        <clipPath id="zvxfu2y74a">
            <path data-name="Rectangle 17" style="fill:#1d1e1c" d="M0 0h170.894v139.792H0z"/>
        </clipPath>
    </defs>
    <g data-name="Group 64" style="clip-path:url(#zvxfu2y74a)">
        <path data-name="Path 137" d="M20.74 63.09c1.263.475 3.881.629 8.078.6 2.865-.017 5.976.042 8.6-.8 1.383-.442 2.153-1.748 2.164-3.682.067-5.606.263-11.188.612-16.783.169-2.39 1-3.984 2.37-4.506 3.273-1.25 7.6-.676 11.118-.42a12.55 12.55 0 0 0 7.231-1.3 9.594 9.594 0 0 0 4.047-3.9 11.49 11.49 0 0 0 1.276-4.458c.315-4.208.68-8.4 1.25-12.584C69 4.832 56.545 3.244 49.082 3.24a55.225 55.225 0 0 0-11.037 1.622 10.917 10.917 0 0 0-4.626 1.976 8.619 8.619 0 0 0-2.977 3.524C22.906 25.9 19.969 42.6 18.881 59.717c-.026 1.793.6 2.9 1.859 3.373m21.354-37.369a132.556 132.556 0 0 1 4.121-13.284c.11-.4.512-.615 1.214-.629s1 .188.9.59a185.33 185.33 0 0 0-4.054 13.283c-.069.437-.473.657-1.2.67s-1.051-.194-.98-.63" style="fill:#1d1e1c"/>
        <path data-name="Path 138" d="M70.23 64.444c2.582 1.4 6.36 1.294 8.956 1.288 3.961-.009 6.16-.32 8.631-1.915a4.489 4.489 0 0 0 1.959-4.369c-.163-4.72-.327-6.459-.488-11.178-.029-.445.324-.789 1.058-1.022s1.552-.255 1.583.193c.33 4.709.663 8.226.986 12.935.134 1.963.946 3.031 2.422 3.253a65.762 65.762 0 0 0 7.97.256 17.5 17.5 0 0 0 9.269-2.672c1.281-.736 1.876-2.228 1.72-4.247-.428-5.284-.913-9.069-1.453-14.344a7.621 7.621 0 0 0-3.429-5.726c-2.665-1.755-6.76-1.839-9.34-1.678a9.826 9.826 0 0 0-2.257.479c-.7.2-1.067-.108-1.1-.553s.3-.884.992-1.081c.835-.236 1.25-.35 2.078-.569 2.968-.735 6.15-1.929 8.186-4.265a7.543 7.543 0 0 0 1.985-6.073 57.841 57.841 0 0 0-3.684-13.946C102.752.646 92.417 5.171 86.491 8.06c-2.264 1.261-5.986 4.592-8.346 1.854a10.96 10.96 0 0 0-1.415-1.073c-2.171-1.184-3.707-1.586-4.6-1.518-1.036.079-1.739.951-2.02 2.616-2.637 17.171-2.589 33.038-2.14 50.361a4.514 4.514 0 0 0 2.26 4.143M88.351 15.5c.655-.291.986-.234 1 .158.383 4.218.857 8.425 1.349 12.631.023.428-.313.766-1.011 1.026s-1.06.182-1.08-.244c-.459-4.176-.9-8.354-1.232-12.543-.005-.39.323-.737.979-1.028" style="fill:#1d1e1c"/>
        <path data-name="Path 139" d="M116.737 56.585c.158 2.018.859 3.225 2.105 3.646s2.49.528 6 .123c7.561-.8 15.075-1.27 22.678-1.347a9.618 9.618 0 0 0 2.838-.356 6.17 6.17 0 0 0 1.68-.74 2.143 2.143 0 0 0 .738-1.425 8.142 8.142 0 0 0 .172-1.59c-.01-.368-.064-1.025-.172-1.97a126.816 126.816 0 0 0-.915-6.682 4.818 4.818 0 0 0-2.169-3.672c-1.151-.664-2.382-1.121-5.83-1.4s-5.792-.047-6.867.5-1.487 1.8-1.242 3.745c.23 1.826.338 2.742.535 4.576.048.443-.232.672-.84.693s-.94-.189-.987-.634q-1.493-10.177-3.61-20.2c-.035-.183-.016-.17.387-.171.058 0 1.306 0 1.394.006a1.108 1.108 0 0 1 .424.178.7.7 0 0 1 .353.491l.117.639c.4 2.177 1.166 3.61 2.327 4.278s3.332 1.059 6.374 1.356 5.248.357 6.086-.061 1.022-1.622.524-3.613c-.77-2.6-1.18-3.891-2.042-6.423a6.418 6.418 0 0 0-2.355-3.6 16.222 16.222 0 0 0-5.839-2.1c-2.66-.535-4.529-.513-5.516-.1s-1.3 1.527-.924 3.31c.1.5.157.748.26 1.248.086.418-.458.607-1.037.574-.195-.011-.985-.043-1.767-.1a20.493 20.493 0 0 1-.123-.579c.028.145.194.265.421.363q-1.962-8.714-4.4-17.336c-.1-.378.122-.538.656-.471s.848.295.95.671c.754.973 1.133 1.465 1.893 2.455a5.4 5.4 0 0 0 2.452 3.524 33.075 33.075 0 0 0 6.582 2.024c3.14.787 5.019 1.257 5.79 1.142s.842-.918.212-2.415a232.015 232.015 0 0 0-2.659-4.31 23.252 23.252 0 0 0-3.676-5.032 17.4 17.4 0 0 0-5.14-2.846A58.385 58.385 0 0 0 116.083 0c-2.883 0-3.846.37-4.762.941s-1.263 1.688-1 3.361c2.681 17.365 4.965 34.77 6.417 52.283" style="fill:#1d1e1c"/>
        <path data-name="Path 140" d="M40.056 78.95c-.494-10.583-13.868-12.642-22.087-12.314-3.593.09-7.184.217-10.774.36-3.057.121-4.952.463-5.891.989s-1.382 1.6-1.292 3.177a78.512 78.512 0 0 0 17.624 45.773c1.085 1.222 2.216 2.331 3.344 3.4a53.308 53.308 0 0 0 5.6 4.736c2.679 1.959 4.432 2.829 5.091 2.913s.58-.643-.252-2.205a135.181 135.181 0 0 1-6.431-14.794c-.809-2.3-.765-3.7.1-4.079s3.465-.1 8.085.667a6.191 6.191 0 0 0 5.592-1.422 9.025 9.025 0 0 0 2.737-4.887 17.528 17.528 0 0 0 .206-5.7c-.69-5.506-1.465-11.065-1.657-16.617m-18.889 15.07a1.136 1.136 0 0 1-1.074-.915 141.969 141.969 0 0 1-2.475-16.08c-.037-.4.257-.6.887-.564s.965.256 1 .666a146.484 146.484 0 0 0 2.42 16.243c.1.525-.15.741-.759.65" style="fill:#1d1e1c"/>
        <path data-name="Path 141" d="M91.125 122.536c-2.56-.713-5.63-.24-8.336-.578-2.667-.333-5.851-.555-8.383.2-1.275.379-3.618 1.6-3.379 3.6.224 1.885.335 2.808.556 4.613.053.436-.018.777-.72.713s-1.356-.484-1.413-.921c-.651-7.207-1.3-14.438-1.828-21.679a2.046 2.046 0 0 1 1.528-.343c.074.008.765.017.877.029a1.433 1.433 0 0 1 .524.251.814.814 0 0 1 .393.621l.077.777c.264 2.633 1.1 4.332 2.489 5.184s4.03 1.462 7.82 1.819 6.281-.243 7.51-1.116 1.778-2.572 1.628-5.167q-.249-4.311-.529-8.619c-.152-2.357-.917-3.81-2.309-4.276s-4.083-.436-7.992-1.033c-3.62-.553-6.188-.522-7.615.036s-2.051 2.057-1.838 4.405l.149 1.631c.05.541-.9.767-1.649.681a3.611 3.611 0 0 1-1.445-.45c-.5-7.806-.833-15.618-.854-23.418-.02-.481.351-.672 1.108-.562s1.142.411 1.163.892l.125 2.859a5.759 5.759 0 0 0 2.459 4.8 21.285 21.285 0 0 0 8.954 2.582c3.352.223 6.5-.071 8.894-1.725 1.4-.968 2.042-2.784 1.944-4.9-.148-3.167-.235-3.9-.429-7.218-.111-1.908-2.984-4.66-7.278-5.593s-11.647-3.167-22.5-2c-4.472.172-11.183.525-15.492 2.891-1.268.7-2.056 3.457-1.994 5.608.518 20.151 2.317 35.225 7.346 54.76a5.9 5.9 0 0 0 2.412 3.7c1.124.7 3.743 1.444 7.632 2.043a204.051 204.051 0 0 0 26.1 2.163 10.881 10.881 0 0 0 3.122-.374 7.566 7.566 0 0 0 1.912-.8 2.591 2.591 0 0 0 .97-1.471 8.562 8.562 0 0 0 .384-1.633c.034-.376.055-1.046.056-2.027 0-2.788-.013-4.232-.076-7.212-.043-2-.786-3.382-2.075-3.741" style="fill:#1d1e1c"/>
        <path data-name="Path 142" d="M135.809 75.188a10.116 10.116 0 0 0-5.57-9.449c-4.662-2.31-10.294-2.081-15.225-1.406a36.058 36.058 0 0 0-15.952 6.415 13.812 13.812 0 0 0-5.847 11.066c.8 17.815 2.294 35.6 1.886 53.448-.042 1.815.514 2.925 1.647 3.4s3.415.588 6.7.179c3.339-.416 5.468-1.078 6.589-1.821s1.242-1.941 1.561-3.89a230.134 230.134 0 0 0 2.21-23.194c.021-.521 1.1-.972 1.719-1.083s.917.1.89.615a215.52 215.52 0 0 1-2.581 23.215c-.359 1.952-.116 3.067.732 3.4s2.772.144 5.627-.714c2.761-.829 2.316-1 3.372-2.039 3.255-3.2 5.909-8.542 7.114-13.148 3.809-14.554 4.78-29.84 5.128-44.988m-19.973 17.33c-.658.108-.991-.119-1-.686-.05-4.737-.2-9.472-.281-14.209-.012-.515.321-.828 1-.933s1.02.1 1.031.621c.068 4.733.2 9.465.228 14.2q0 .849-.981 1.008" style="fill:#1d1e1c"/>
        <path data-name="Path 143" d="M155.312 61.926a176.3 176.3 0 0 0-8.635-.021c-3.087.06-5.215.5-6.253 1.228s-1.506 2.249-1.441 4.52c.139 20.446-1.568 40.85-8.474 60.221-.7 1.895-.765 2.911-.18 3.093s1.647-.062 4.036-1.3a23.946 23.946 0 0 0 5.026-3.324 25.044 25.044 0 0 0 4.3-5.149c3.031-5.683 6.153-11.581 7.611-20.274a1.151 1.151 0 0 1 .9-.894c.464-.138 1.721-.357 1.611.251-1.23 6.65-3.8 14.384-6.323 18.147a1.071 1.071 0 0 0-.054 1.16c.268.379.948.626 1.218.367.658-.628 1.278-1.277 1.717-1.7.987-.945 2.194-2.112 3.5-3.577a70.346 70.346 0 0 0 8.671-12.318c.691-1.266 1.388-2.306.911-3.482s-1.536-1.263-4.4-.794a4.586 4.586 0 0 1-1.513.151c-.463-.073-.446-1-.322-1.446a1.144 1.144 0 0 1 .868-.848c.546-.143.817-.215 1.355-.358 2.508-.669 4.509-2.826 6.117-4.566a13.008 13.008 0 0 0 3.236-5.638 88.437 88.437 0 0 0 2.065-11.612c.64-8.781-8.347-11.616-15.549-11.838m.1 26.645c-.074.478-.96.862-1.462.948s-.719-.112-.649-.6c.664-5.135 1.12-10.265 1.318-15.44.017-.477.29-.729.82-.751s1.414.183 1.4.655c-.213 5.094-.712 10.139-1.422 15.187" style="fill:#1d1e1c"/>
    </g>
</svg>
