<svg data-name="Group 14" xmlns="http://www.w3.org/2000/svg" width="98.21" height="71.406" viewBox="0 0 98.21 71.406">
    <path data-name="Path 29" d="M12.477 35.578h-1.52a10.852 10.852 0 0 1-.168-1.813c-.736 1.15-1.978 2.046-4.452 2.046C2.3 35.811 0 32.937 0 28.98c0-3.972 2.424-7.019 6.7-7.019 3.574 0 5.432 1.889 5.853 4.074h-2.028c-.453-1.3-1.517-2.442-3.854-2.442-3.152 0-4.564 2.379-4.564 5.287 0 2.874 1.436 5.285 4.517 5.285 2.83 0 3.909-1.69 3.909-3.98v-.246h-3.9v-1.677h5.845z" transform="translate(0 35.579)" style="fill:#161615"/>
    <path data-name="Rectangle 5" transform="translate(14.78 57.014)" style="fill:#161615" d="M0 0h1.905v14.141H0z"/>
    <path data-name="Path 30" d="M15.7 30.327c0 .941 0 2.059.016 2.822h-1.85c-.039-.259-.06-.873-.068-1.475-.485 1.051-1.373 1.724-3.152 1.724-1.847 0-3.406-.985-3.406-3.744V23.46h1.9v5.822c0 1.334.472 2.507 2.075 2.507 1.839 0 2.583-1.048 2.583-3.576V23.46h1.9z" transform="translate(11.722 38.007)" style="fill:#161615"/>
    <path data-name="Path 31" d="M10.979 25.281h1.766v-2.945h1.9v2.945h2.282v1.5H14.65v5.35c0 .985.246 1.452 1.192 1.452a3.989 3.989 0 0 0 .87-.076V34.9a4.851 4.851 0 0 1-1.53.181c-1.792 0-2.437-.859-2.437-2.612v-5.687h-1.766z" transform="translate(17.787 36.186)" style="fill:#161615"/>
    <path data-name="Path 32" d="M15.364 28.86c.05 1.816 1.111 3.149 2.843 3.149a2.451 2.451 0 0 0 2.481-1.449H22.6a4.309 4.309 0 0 1-4.462 2.99c-3.291 0-4.687-2.507-4.687-5.023 0-2.9 1.682-5.162 4.727-5.162 3.4 0 4.58 2.581 4.58 4.821 0 .241 0 .435-.018.673zm5.442-1.307a2.537 2.537 0 0 0-2.649-2.725c-1.776 0-2.586 1.166-2.746 2.725z" transform="translate(21.789 37.855)" style="fill:#161615"/>
    <path data-name="Path 33" d="M17.64 26.054c0-.828 0-1.708-.018-2.442h1.85c.045.3.071 1.179.073 1.622a3.272 3.272 0 0 1 3.225-1.868c2.046 0 3.477 1.266 3.477 3.859V33.3h-1.91v-5.792c0-1.462-.561-2.544-2.141-2.544-1.826 0-2.649 1.37-2.649 3.4V33.3H17.64z" transform="translate(28.55 37.855)" style="fill:#161615"/>
    <path data-name="Path 34" d="M23.675 22.05h9.453v1.685h-7.467v4.182h6.98v1.69h-6.98v5.827h-1.986z" transform="translate(38.356 35.723)" style="fill:#161615"/>
    <path data-name="Path 35" d="M27.741 26.244c0-1.106-.005-1.931-.021-2.633h1.86c.031.28.065 1.176.065 2.036a3.647 3.647 0 0 1 3.545-2.28v1.842c-2.1.013-3.545 1.121-3.545 3.768V33.3h-1.9z" transform="translate(44.91 37.857)" style="fill:#161615"/>
    <path data-name="Path 36" d="M31.886 28.86c.05 1.816 1.111 3.149 2.843 3.149a2.451 2.451 0 0 0 2.481-1.449h1.91a4.309 4.309 0 0 1-4.462 2.99c-3.291 0-4.687-2.507-4.687-5.023 0-2.9 1.682-5.162 4.727-5.162 3.4 0 4.58 2.581 4.58 4.821 0 .241 0 .435-.018.673zm5.442-1.307a2.537 2.537 0 0 0-2.649-2.725c-1.776 0-2.586 1.166-2.746 2.725z" transform="translate(48.557 37.855)" style="fill:#161615"/>
    <path data-name="Path 37" d="M35.846 28.86c.05 1.816 1.111 3.149 2.843 3.149a2.451 2.451 0 0 0 2.481-1.449h1.91a4.309 4.309 0 0 1-4.462 2.99c-3.291 0-4.687-2.507-4.687-5.023 0-2.9 1.682-5.162 4.727-5.162 3.4 0 4.58 2.581 4.58 4.821 0 .241 0 .435-.018.673zm5.442-1.307a2.537 2.537 0 0 0-2.649-2.725c-1.776 0-2.586 1.166-2.746 2.725z" transform="translate(54.972 37.855)" style="fill:#161615"/>
    <path data-name="Path 38" d="m34.657 3.673-.115.06a13.928 13.928 0 0 0-7.321-2.638C9.338-.488 6.752 17.748 8.044 25.766c2.01 12.448 9.184 17.78 17.791 19.373C83.5 55.819 67.945-16.85 34.657 3.673M28.036 32c4.365 0 6.029-2.6 6.029-6.142v-.38h-6.021v-2.584h9.024v11.285H34.72a17.379 17.379 0 0 1-.257-2.8c-1.135 1.776-3.052 3.155-6.87 3.155-6.236 0-9.778-4.433-9.778-10.533 0-6.131 3.742-10.834 10.334-10.834 5.515 0 8.382 2.916 9.034 6.288h-3.129c-.7-2-2.34-3.768-5.945-3.768-4.863 0-7.045 3.671-7.045 8.156 0 4.436 2.217 8.154 6.972 8.154m27.8-15.873H44.317v6.456h10.771v2.61H44.317v8.99h-3.063V13.53H55.84z" transform="translate(12.574)" style="fill:#161615"/>
</svg>
