<svg xmlns="http://www.w3.org/2000/svg" width="49.575" height="108.636" viewBox="0 0 49.575 108.636">
    <g data-name="Group 47">
        <g data-name="Group 46">
            <path data-name="Path 104" d="M76.58 135.793v-.123c0-2.361 1.44-4.542 4.731-6.788 2.493-1.7 3.176-2.254 3.176-3.81a2.38 2.38 0 0 0-2.682-2.5c-1.777 0-2.691.971-3 2.789h-2.159a4.83 4.83 0 0 1 5.192-4.6c3.374 0 4.9 2.065 4.9 4.279 0 2.329-1.119 3.234-3.867 5.118-2.057 1.415-3.291 2.584-3.67 3.744h8.146l-.313 1.884H76.58z" transform="translate(-57.532 -48.435)" style="fill:#1d1e1c"/>
            <path data-name="Path 105" d="M53.43 148.92h5.661c2.789 0 4.131 1.374 4.131 3.242a2.811 2.811 0 0 1-1.934 2.781 3.148 3.148 0 0 1 2.4 3.086c0 2.477-1.95 3.785-4.493 3.785h-5.76V148.92zm5.25 5.307c1.794 0 2.559-.683 2.559-1.876 0-1.251-.954-1.868-2.394-1.868h-3.506v3.744zm-3.349 6.031h3.53c1.539 0 2.806-.6 2.806-2.246 0-1.407-1-2.238-3.02-2.238h-3.308v4.484z" transform="translate(-53.43 -53.425)" style="fill:#1d1e1c"/>
            <path data-name="Path 106" d="M76.684 157.846c0 2.674-1.637 4.912-4.739 4.912-2.937 0-4.624-2.2-4.624-4.9a4.687 4.687 0 1 1 9.364-.016zm-7.488.016c0 1.876 1.029 3.406 2.814 3.406 1.835 0 2.781-1.448 2.781-3.39s-.987-3.431-2.822-3.431-2.769 1.453-2.769 3.415z" transform="translate(-55.891 -54.139)" style="fill:#1d1e1c"/>
            <path data-name="Path 107" d="M89.274 157.846c0 2.674-1.637 4.912-4.739 4.912-2.937 0-4.624-2.2-4.624-4.9a4.585 4.585 0 0 1 4.731-4.912c2.928.012 4.632 2.201 4.632 4.9zm-7.488.016c0 1.876 1.029 3.406 2.814 3.406 1.835 0 2.781-1.448 2.781-3.39s-.987-3.431-2.822-3.431-2.773 1.453-2.773 3.415z" transform="translate(-58.122 -54.139)" style="fill:#1d1e1c"/>
            <path data-name="Path 108" d="m92.07 161.164 5.751-6.426h-5.447v-1.5h7.66v1.462l-5.661 6.377h6.007l-.28 1.5h-8.022v-1.407z" transform="translate(-60.276 -54.19)" style="fill:#1d1e1c"/>
            <path data-name="Path 109" d="M104.641 158.252c.049 1.753 1.07 3.036 2.74 3.036a2.351 2.351 0 0 0 2.386-1.391h1.833a4.149 4.149 0 0 1-4.3 2.88c-3.168 0-4.517-2.411-4.517-4.838 0-2.789 1.621-4.97 4.55-4.97 3.275 0 4.41 2.485 4.41 4.641 0 .23 0 .42-.016.65h-7.093zm5.241-1.259a2.445 2.445 0 0 0-2.551-2.625 2.537 2.537 0 0 0-2.641 2.625z" transform="translate(-62.176 -54.142)" style="fill:#1d1e1c"/>
        </g>
    </g>
    <path data-name="Path 110" d="m98.776 32.86-40.976.091a20.47 20.47 0 0 0 18.678 20.356l.058 23.746c-7.307.247-12.968 1.86-12.959 3.793.008 2.1 6.648 3.785 14.827 3.768s14.819-1.736 14.811-3.834c-.008-1.934-5.669-3.522-12.984-3.736l-.05-23.744a20.487 20.487 0 0 0 18.595-20.44z" transform="translate(-54.204 -32.86)" style="fill:#1d1e1c"/>
</svg>
