<svg xmlns="http://www.w3.org/2000/svg" width="79.418" height="131.823" viewBox="0 0 79.418 131.823">
    <g data-name="Group 49">
        <g data-name="Group 48">
            <path data-name="Path 111" d="M77.567 104.5c.247-1.769 1.572-3.917 5.052-3.917 3.357 0 4.822 1.925 4.822 3.917a3.04 3.04 0 0 1-2.082 3.028v.049a3.668 3.668 0 0 1 2.715 3.7c0 2.51-1.744 4.624-5.455 4.624-3.612 0-5.151-2.131-5.439-4.221h2.213a3.119 3.119 0 0 0 3.324 2.411 2.738 2.738 0 0 0 3.069-2.855c0-1.761-1.127-2.682-3.234-2.682h-1.126v-1.818h.922c2.065 0 2.83-.749 2.83-2.156 0-1.234-.839-2.205-2.625-2.205a2.551 2.551 0 0 0-2.822 2.106h-2.164z" transform="translate(-42.91 -21.656)" style="fill:#1d1e1c"/>
            <path data-name="Path 112" d="M42.656 130.369H38.18v-1.629h10.878v1.629H44.59v11.264h-1.942v-11.264z" transform="translate(-36 -26.646)" style="fill:#1d1e1c"/>
            <path data-name="Path 113" d="M54.465 127.86v5.74a3.275 3.275 0 0 1 3.118-1.7c1.818 0 3.332 1.061 3.332 3.76v5.809h-1.834v-5.529c0-1.522-.584-2.5-2.073-2.5-1.761 0-2.542 1.284-2.542 3.184v4.846H52.63v-13.61z" transform="translate(-38.56 -26.49)" style="fill:#1d1e1c"/>
            <path data-name="Path 114" d="M72.838 140.146a21.373 21.373 0 0 0 .107 2.213H71.2a6.926 6.926 0 0 1-.132-1.242c-.4.765-1.292 1.481-3.151 1.481-2.4 0-3.357-1.506-3.357-2.929 0-2.23 1.884-3.053 4.616-3.053h1.868v-.625c0-.88-.337-1.818-2.115-1.818-1.6 0-1.917.732-2.09 1.5h-1.8c.115-1.275.938-2.88 3.917-2.88 2.863.008 3.884 1.3 3.884 3.151v4.2zm-1.786-2.279h-1.794c-1.925 0-2.863.485-2.863 1.7 0 .905.642 1.613 1.925 1.613 2.246 0 2.724-1.407 2.724-3v-.321z" transform="translate(-40.674 -27.363)" style="fill:#1d1e1c"/>
            <path data-name="Path 115" d="M77.426 135.372c0-.8 0-1.646-.016-2.353h1.79c.041.288.066 1.135.066 1.563a3.157 3.157 0 0 1 3.11-1.8c1.975 0 3.349 1.218 3.349 3.719v5.85h-1.848v-5.579c0-1.407-.543-2.452-2.057-2.452-1.761 0-2.551 1.316-2.551 3.275v4.756h-1.834v-6.977z" transform="translate(-42.951 -27.361)" style="fill:#1d1e1c"/>
            <path data-name="Path 116" d="M92.075 136.539c.872-.913 3.11-3.061 4.443-4.394h2.222l-3.843 3.62 4.262 5.71h-2.213l-3.341-4.608-1.53 1.349v3.25H90.24V127.85h1.835z" transform="translate(-45.224 -26.488)" style="fill:#1d1e1c"/>
            <path data-name="Path 117" d="M115.494 139.685c0 .905 0 1.983.016 2.715h-1.786c-.033-.255-.058-.839-.066-1.423a2.932 2.932 0 0 1-3.036 1.662c-1.777 0-3.283-.946-3.283-3.6v-5.969h1.827v5.6c0 1.284.453 2.411 2 2.411 1.769 0 2.485-1 2.485-3.439v-4.572h1.835v6.615z" transform="translate(-48.254 -27.413)" style="fill:#1d1e1c"/>
            <path data-name="Path 118" d="M120.733 139.6a2.282 2.282 0 0 0 2.5 1.6c1.5 0 2.049-.576 2.049-1.366s-.444-1.226-2.427-1.58c-3-.551-3.571-1.539-3.571-2.756 0-1.284.979-2.715 3.694-2.715 2.822 0 3.793 1.522 3.9 2.756h-1.8c-.132-.56-.535-1.391-2.189-1.391-1.423 0-1.786.642-1.786 1.185 0 .658.395 1.012 2.255 1.358 3.184.592 3.768 1.621 3.768 3 0 1.654-1.284 2.9-3.991 2.9-2.575 0-3.974-1.193-4.246-3h1.843z" transform="translate(-50.3 -27.361)" style="fill:#1d1e1c"/>
            <path data-name="Path 119" d="M35.53 152.639h1.7V149.8h1.835v2.839h2.2v1.448h-2.2v5.151c0 .946.239 1.4 1.152 1.4a3.7 3.7 0 0 0 .839-.074v1.336a4.733 4.733 0 0 1-1.473.173c-1.728 0-2.345-.831-2.345-2.518v-5.48h-1.7v-1.44z" transform="translate(-35.53 -30.377)" style="fill:#1d1e1c"/>
            <path data-name="Path 120" d="M52.474 157.846c0 2.674-1.637 4.912-4.739 4.912-2.937 0-4.624-2.2-4.624-4.9a4.585 4.585 0 0 1 4.731-4.912c2.928.012 4.632 2.201 4.632 4.9zm-7.488.016c0 1.876 1.029 3.406 2.814 3.406 1.835 0 2.781-1.448 2.781-3.39s-.987-3.431-2.822-3.431-2.773 1.453-2.773 3.415z" transform="translate(-36.873 -30.935)" style="fill:#1d1e1c"/>
            <path data-name="Path 121" d="M56.426 155.6c0-.806 0-1.621-.016-2.411h1.761c.033.321.066.913.066 1.374a3.075 3.075 0 0 1 2.83-1.613 2.659 2.659 0 0 1 2.7 1.687 3.331 3.331 0 0 1 3.069-1.687c1.687 0 3.143.987 3.143 3.62v5.949h-1.81v-5.809c0-1.045-.362-2.238-1.851-2.238-1.44 0-2.205 1.029-2.205 2.8v5.25H62.3v-5.812c0-1.127-.354-2.23-1.835-2.23-1.547 0-2.222 1.21-2.222 2.946v5.093h-1.817V155.6z" transform="translate(-39.23 -30.935)" style="fill:#1d1e1c"/>
            <path data-name="Path 122" d="M84.2 157.846c0 2.674-1.637 4.912-4.739 4.912-2.937 0-4.624-2.2-4.624-4.9a4.585 4.585 0 0 1 4.731-4.912c2.932.012 4.632 2.201 4.632 4.9zm-7.488.016c0 1.876 1.029 3.406 2.814 3.406 1.835 0 2.781-1.448 2.781-3.39s-.987-3.431-2.822-3.431-2.769 1.453-2.769 3.415z" transform="translate(-42.495 -30.935)" style="fill:#1d1e1c"/>
            <path data-name="Path 123" d="M88.166 155.733c0-1.061-.008-1.86-.016-2.534h1.794c.033.272.058 1.135.058 1.958a3.509 3.509 0 0 1 3.415-2.2v1.777c-2.017.012-3.417 1.081-3.417 3.632v4.163h-1.834z" transform="translate(-44.854 -30.937)" style="fill:#1d1e1c"/>
            <path data-name="Path 124" d="M95.9 155.733c0-1.061-.008-1.86-.016-2.534h1.794c.033.272.058 1.135.058 1.958a3.509 3.509 0 0 1 3.415-2.2v1.777c-2.016.008-3.415 1.078-3.415 3.629v4.163H95.9z" transform="translate(-46.223 -30.937)" style="fill:#1d1e1c"/>
            <path data-name="Path 125" d="M112.144 157.846c0 2.674-1.637 4.912-4.739 4.912-2.937 0-4.624-2.2-4.624-4.9a4.687 4.687 0 1 1 9.364-.016zm-7.488.016c0 1.876 1.029 3.406 2.814 3.406 1.835 0 2.781-1.448 2.781-3.39s-.987-3.431-2.822-3.431-2.773 1.453-2.773 3.415z" transform="translate(-47.446 -30.935)" style="fill:#1d1e1c"/>
            <path data-name="Path 126" d="M116.8 153.25c1.349 4.772 1.851 6.7 2.041 7.693h.025c.206-.938.716-2.7 2.255-7.693h1.761c1.588 5.291 2.016 6.739 2.172 7.562h.016c.214-.954.658-2.592 2.106-7.562h1.835l-3.012 9.331h-1.95c-.979-3.349-1.876-6.229-2.131-7.3h-.018c-.206.979-1.045 3.719-2.172 7.3h-2.008l-2.847-9.331z" transform="translate(-49.588 -30.988)" style="fill:#1d1e1c"/>
        </g>
    </g>
    <g data-name="Group 51">
        <g data-name="Group 50">
            <g data-name="Group 951">
                <path data-name="Line 13" transform="translate(39.512)" style="fill:none;stroke:#1d1e1c;stroke-miterlimit:10;stroke-width:3.165px" d="M0 11.544V0"/>
                <path data-name="Line 14" transform="translate(39.512 47.6)" style="fill:none;stroke:#1d1e1c;stroke-miterlimit:10;stroke-width:3.165px" d="M0 0v11.544"/>
                <path data-name="Line 15" transform="translate(18.604 8.664)" style="fill:none;stroke:#1d1e1c;stroke-miterlimit:10;stroke-width:3.165px" d="M8.162 8.162 0 0"/>
                <path data-name="Line 16" transform="translate(52.257 42.317)" style="fill:none;stroke:#1d1e1c;stroke-miterlimit:10;stroke-width:3.165px" d="m0 0 8.162 8.162"/>
                <path data-name="Line 17" transform="translate(9.94 29.572)" style="fill:none;stroke:#1d1e1c;stroke-miterlimit:10;stroke-width:3.165px" d="M11.544 0H0"/>
                <path data-name="Line 18" transform="translate(57.54 29.572)" style="fill:none;stroke:#1d1e1c;stroke-miterlimit:10;stroke-width:3.165px" d="M0 0h11.544"/>
                <path data-name="Line 19" transform="translate(18.604 42.317)" style="fill:none;stroke:#1d1e1c;stroke-miterlimit:10;stroke-width:3.165px" d="M8.162 0 0 8.162"/>
                <path data-name="Line 20" transform="translate(52.257 8.664)" style="fill:none;stroke:#1d1e1c;stroke-miterlimit:10;stroke-width:3.165px" d="M0 8.162 8.162 0"/>
            </g>
        </g>
        <path data-name="Path 127" d="m80.124 29.49-.049.025a6.337 6.337 0 0 0-3.332-1.2c-8.138-.724-9.314 7.578-8.73 11.231.913 5.669 4.18 8.1 8.1 8.821 26.252 4.861 19.168-28.224 4.011-18.877z" transform="translate(-41.262 -8.763)" style="fill:#1d1e1c"/>
    </g>
</svg>
