<svg xmlns="http://www.w3.org/2000/svg" width="20.421" height="20.42" viewBox="0 0 20.421 20.42">
    <path data-name="instagram-[#167]" d="M289.993 7279.125a5.629 5.629 0 0 0-5.91 5.9c-.047 1.026-.32 8.782.472 10.816a5.146 5.146 0 0 0 2.972 2.963 7.418 7.418 0 0 0 2.466.472c9.047.409 12.4.187 13.815-3.435a7.391 7.391 0 0 0 .471-2.461c.413-9.07-.067-11.036-1.644-12.611-1.251-1.247-2.722-2.1-12.643-1.64m.083 18.322a5.64 5.64 0 0 1-1.887-.349 3.323 3.323 0 0 1-1.928-1.922c-.6-1.546-.4-8.887-.349-10.074a4.336 4.336 0 0 1 1.109-3.048c1.016-1.013 2.329-1.51 11.266-1.106a4.362 4.362 0 0 1 3.055 1.106c1.016 1.014 1.52 2.337 1.109 11.24a5.6 5.6 0 0 1-.349 1.882c-.919 2.355-3.035 2.683-12.026 2.271m8.31-13.659a1.22 1.22 0 1 0 1.219-1.216 1.218 1.218 0 0 0-1.219 1.216m-9.421 5.409a5.217 5.217 0 1 0 5.217-5.2 5.211 5.211 0 0 0-5.217 5.2m1.831 0a3.386 3.386 0 1 1 3.386 3.38 3.382 3.382 0 0 1-3.386-3.38" transform="translate(-284 -7279)" style="fill:#1d1e1c;fill-rule:evenodd"/>
</svg>
