<svg data-name="Group 63" xmlns="http://www.w3.org/2000/svg" width="151.866" height="123.978" viewBox="0 0 151.866 123.978">
    <defs>
        <clipPath id="2ba0cmus1a">
            <path data-name="Rectangle 16" style="fill:#1d1e1c" d="M0 0h151.866v123.978H0z"/>
        </clipPath>
    </defs>
    <g data-name="Group 63" style="clip-path:url(#2ba0cmus1a)">
        <path data-name="Path 129" d="m72 9.918-.306.161a37.331 37.331 0 0 0-19.648-7.027C4.09-1.081-2.732 47.828.784 69.318c5.461 33.365 24.734 47.615 47.819 51.836C203.284 149.433 161.131-45.313 72 9.918" style="fill:#f9b413"/>
        <g data-name="Group 912">
            <path data-name="Path 130" d="M26.453 58.645c1.035.389 3.181.515 6.62.5a24.346 24.346 0 0 0 7.046-.653c1.133-.362 1.764-1.433 1.773-3.017.055-4.594.216-9.169.5-13.754.139-1.959.824-3.265 1.942-3.693 2.682-1.024 6.228-.554 9.112-.344a10.285 10.285 0 0 0 5.926-1.064 7.863 7.863 0 0 0 3.317-3.2 9.417 9.417 0 0 0 1.046-3.653c.258-3.449.557-6.886 1.024-10.313C66.008 10.9 55.8 9.6 49.68 9.6a45.258 45.258 0 0 0-9.045 1.329 8.947 8.947 0 0 0-3.791 1.619 7.063 7.063 0 0 0-2.44 2.888c-6.176 12.732-8.582 26.412-9.474 40.444-.021 1.469.488 2.374 1.524 2.764m17.5-30.625a108.633 108.633 0 0 1 3.377-10.887c.09-.329.42-.5.995-.515s.823.154.736.484a152.204 152.204 0 0 0-3.322 10.886c-.057.358-.388.538-.983.549s-.861-.159-.8-.516" transform="translate(-4.499 -1.732)" style="fill:#fff"/>
            <path data-name="Path 131" d="M75.829 59.937c2.116 1.144 5.212 1.06 7.34 1.056 3.246-.007 5.048-.262 7.073-1.569a3.679 3.679 0 0 0 1.605-3.581c-.134-3.868-.268-5.293-.4-9.161-.024-.365.266-.647.867-.838s1.272-.209 1.3.158c.27 3.859.543 6.741.808 10.6.11 1.609.775 2.484 1.985 2.666a53.893 53.893 0 0 0 6.532.21 14.341 14.341 0 0 0 7.6-2.19c1.05-.6 1.537-1.826 1.41-3.481-.35-4.33-.748-7.432-1.191-11.755a6.246 6.246 0 0 0-2.81-4.693c-2.184-1.438-5.54-1.507-7.654-1.375a8.053 8.053 0 0 0-1.85.393c-.573.161-.874-.089-.9-.453s.243-.724.813-.886a90.956 90.956 0 0 1 1.7-.466c2.432-.6 5.04-1.581 6.709-3.5a6.182 6.182 0 0 0 1.627-4.977 47.4 47.4 0 0 0-3.018-11.429c-2.886-7.018-11.356-3.31-16.213-.942-1.855 1.033-4.906 3.763-6.84 1.519a8.981 8.981 0 0 0-1.16-.879 7.764 7.764 0 0 0-3.771-1.244c-.849.065-1.425.779-1.655 2.144-2.159 14.072-2.12 27.076-1.752 41.273a3.7 3.7 0 0 0 1.852 3.4M90.68 19.824c.537-.238.808-.192.815.129.314 3.457.7 6.9 1.106 10.351.019.351-.257.628-.829.841s-.869.149-.885-.2c-.376-3.422-.735-6.846-1.01-10.279 0-.32.265-.6.8-.842" transform="translate(-13.316 -1.914)" style="fill:#fff"/>
            <path data-name="Path 132" d="M121.613 52.729c.129 1.654.7 2.643 1.725 2.988s2.041.433 4.92.1c6.2-.656 12.354-1.041 18.585-1.1a7.886 7.886 0 0 0 2.326-.292 5.056 5.056 0 0 0 1.377-.606 1.756 1.756 0 0 0 .6-1.168 6.672 6.672 0 0 0 .141-1.3 21.1 21.1 0 0 0-.141-1.614c-.252-2.2-.4-3.3-.75-5.476a3.949 3.949 0 0 0-1.778-3.009c-.943-.544-1.952-.919-4.778-1.146s-4.747-.039-5.628.41-1.212 1.471-1.012 3.062c.188 1.5.277 2.247.438 3.75.039.363-.19.551-.688.568s-.77-.155-.809-.52q-1.223-8.341-2.958-16.555c-.029-.15-.013-.139.317-.14h1.142a.908.908 0 0 1 .347.146.57.57 0 0 1 .289.4c.039.209.057.314.1.524.325 1.784.956 2.958 1.907 3.506a14.9 14.9 0 0 0 5.224 1.111c2.493.243 4.3.293 4.988-.05s.838-1.329.429-2.961a114.222 114.222 0 0 0-1.673-5.264 5.26 5.26 0 0 0-1.93-2.952 13.3 13.3 0 0 0-4.785-1.718 8.7 8.7 0 0 0-4.521-.079c-.809.343-1.065 1.251-.757 2.713.086.408.129.613.213 1.023.07.343-.375.5-.85.47-.16-.009-.807-.035-1.448-.079a15.555 15.555 0 0 1-.1-.475c.023.119.159.217.345.3q-1.608-7.141-3.607-14.207c-.079-.31.1-.441.538-.386s.695.242.779.55c.618.8.929 1.2 1.551 2.012a4.423 4.423 0 0 0 2.009 2.888 27.105 27.105 0 0 0 5.394 1.659c2.573.645 4.113 1.03 4.745.936s.69-.752.174-1.979c-.864-1.429-1.3-2.137-2.179-3.532a19.056 19.056 0 0 0-3.014-4.13 14.259 14.259 0 0 0-4.212-2.332 47.848 47.848 0 0 0-13.516-2.423c-2.363 0-3.152.3-3.9.771s-1.035 1.383-.82 2.754c2.2 14.231 4.069 28.495 5.259 42.847" transform="translate(-20.986 -1.147)" style="fill:#fff"/>
            <path data-name="Path 133" d="M38.875 83.078c-.4-8.673-11.365-10.36-18.1-10.092-2.944.074-5.887.178-8.829.3a12.289 12.289 0 0 0-4.828.811 2.558 2.558 0 0 0-1.059 2.6A64.343 64.343 0 0 0 20.5 114.208c.889 1 1.816 1.91 2.74 2.79a43.571 43.571 0 0 0 4.593 3.881 13.4 13.4 0 0 0 4.173 2.387c.54.07.475-.527-.207-1.807a111.1 111.1 0 0 1-5.27-12.124c-.663-1.888-.627-3.029.082-3.343s2.839-.084 6.626.547a5.074 5.074 0 0 0 4.583-1.165 7.4 7.4 0 0 0 2.243-4.005 14.387 14.387 0 0 0 .169-4.673c-.565-4.512-1.2-9.068-1.359-13.618M23.392 95.426a.931.931 0 0 1-.88-.75A116.347 116.347 0 0 1 20.483 81.5c-.03-.331.211-.488.727-.462s.791.21.82.546a119.855 119.855 0 0 0 1.983 13.312c.086.43-.124.607-.622.533" transform="translate(-1.092 -13.167)" style="fill:#fff"/>
            <path data-name="Path 134" d="M88.55 119.1c-2.1-.584-4.614-.2-6.832-.474a17.838 17.838 0 0 0-6.87.161c-1.045.311-2.965 1.31-2.769 2.952.184 1.545.275 2.3.456 3.78.043.357-.015.637-.59.584s-1.111-.4-1.158-.755c-.534-5.906-1.063-11.832-1.5-17.767a1.677 1.677 0 0 1 1.252-.281c.061.007.627.014.719.024a1.174 1.174 0 0 1 .429.206.667.667 0 0 1 .322.509l.063.637c.216 2.158.906 3.55 2.04 4.248s3.3 1.2 6.409 1.491 5.147-.2 6.155-.915 1.457-2.108 1.334-4.234q-.2-3.533-.434-7.064c-.125-1.932-.752-3.122-1.892-3.5s-3.346-.357-6.55-.847c-2.967-.453-5.071-.428-6.241.03s-1.681 1.686-1.506 3.61c.048.538.073.8.122 1.337.041.443-.734.629-1.351.558a2.959 2.959 0 0 1-1.184-.369c-.41-6.4-.683-12.8-.7-19.192-.016-.394.288-.551.909-.461s.936.337.953.731c.042.947.062 1.416.1 2.343a4.72 4.72 0 0 0 2.015 3.93 17.443 17.443 0 0 0 7.338 2.116c2.747.183 5.327-.058 7.289-1.414a4.434 4.434 0 0 0 1.593-4.012c-.121-2.6-.193-3.2-.352-5.915-.091-1.564-2.445-3.819-5.965-4.584s-9.545-2.6-18.439-1.643c-3.664.141-9.165.43-12.7 2.369-1.039.57-1.685 2.833-1.634 4.6.425 16.514 1.9 28.868 6.02 44.877a4.831 4.831 0 0 0 1.977 3.035c.921.575 3.067 1.183 6.255 1.674a167.225 167.225 0 0 0 21.39 1.773 8.917 8.917 0 0 0 2.559-.307 6.2 6.2 0 0 0 1.567-.654 2.123 2.123 0 0 0 .795-1.206 7.016 7.016 0 0 0 .315-1.338c.028-.308.045-.857.046-1.661 0-2.285-.011-3.468-.062-5.91-.035-1.643-.644-2.772-1.7-3.066" transform="translate(-8.913 -13.473)" style="fill:#fff"/>
            <path data-name="Path 135" d="M134.17 79.5a8.29 8.29 0 0 0-4.565-7.744c-3.821-1.893-8.436-1.705-12.477-1.152a29.551 29.551 0 0 0-13.073 5.257 11.32 11.32 0 0 0-4.792 9.069c.652 14.6 1.88 29.174 1.546 43.8-.034 1.487.421 2.4 1.35 2.782s2.8.482 5.491.147a13.531 13.531 0 0 0 5.4-1.492c.919-.609 1.018-1.591 1.279-3.188a188.606 188.606 0 0 0 1.811-19.008c.017-.427.9-.8 1.409-.888s.752.078.729.5a176.624 176.624 0 0 1-2.115 19.025c-.294 1.6-.1 2.513.6 2.786s2.272.118 4.611-.585c2.263-.679 1.9-.82 2.763-1.671a25.071 25.071 0 0 0 5.83-10.775c3.122-11.927 3.917-24.455 4.2-36.869M117.8 93.7c-.539.089-.812-.1-.816-.562-.041-3.882-.166-7.763-.23-11.645-.01-.422.263-.679.819-.765s.836.086.845.509c.056 3.879.166 7.757.187 11.636q0 .7-.8.826" transform="translate(-17.914 -12.674)" style="fill:#fff"/>
            <path data-name="Path 136" d="M156.781 68.27a143.94 143.94 0 0 0-7.077-.017c-2.53.049-4.274.41-5.124 1.006s-1.234 1.843-1.181 3.7c.114 16.756-1.285 33.478-6.945 49.353-.572 1.553-.627 2.386-.148 2.535s1.35-.051 3.308-1.066a19.624 19.624 0 0 0 4.119-2.724 20.525 20.525 0 0 0 3.523-4.22c2.484-4.657 5.043-9.491 6.237-16.615a.943.943 0 0 1 .733-.733c.38-.113 1.41-.293 1.32.206-1.008 5.45-3.111 11.788-5.182 14.872a.878.878 0 0 0-.044.951c.22.311.777.513 1 .3.539-.515 1.047-1.047 1.407-1.392.809-.774 1.8-1.731 2.872-2.931a57.65 57.65 0 0 0 7.106-10.095c.566-1.038 1.138-1.89.747-2.854s-1.259-1.035-3.6-.651a3.758 3.758 0 0 1-1.24.124c-.379-.06-.366-.82-.264-1.185a.937.937 0 0 1 .711-.695l1.11-.293c2.055-.548 3.7-2.316 5.013-3.742a10.661 10.661 0 0 0 2.652-4.62 72.48 72.48 0 0 0 1.692-9.516c.524-7.2-6.841-9.52-12.743-9.7m.085 21.836c-.061.392-.787.706-1.2.777s-.589-.092-.532-.491a140.26 140.26 0 0 0 1.08-12.654c.014-.391.238-.6.672-.615s1.159.15 1.143.537c-.175 4.175-.583 8.309-1.165 12.446" transform="translate(-24.541 -12.312)" style="fill:#fff"/>
        </g>
    </g>
</svg>
