<svg xmlns="http://www.w3.org/2000/svg" width="25.531" height="20.425" viewBox="0 0 25.531 20.425">
    <defs>
        <clipPath id="7h0i70nyka">
            <path data-name="Rectangle 271" style="fill:#1d1e1c" d="M0 0h25.531v20.425H0z"/>
        </clipPath>
    </defs>
    <g data-name="Group 884" style="clip-path:url(#7h0i70nyka)">
        <path data-name="Path 3304" d="M21.7 0H3.83A3.834 3.834 0 0 0 0 3.83V16.6a3.834 3.834 0 0 0 3.83 3.83H21.7a3.834 3.834 0 0 0 3.83-3.83V3.83A3.834 3.834 0 0 0 21.7 0m0 2.553a1.268 1.268 0 0 1 .638.172 1.285 1.285 0 0 0-.127.084L14.3 8.744a2.566 2.566 0 0 1-3.064 0L3.319 2.808a1.285 1.285 0 0 0-.127-.084 1.269 1.269 0 0 1 .638-.172zm0 15.319H3.83A1.278 1.278 0 0 1 2.553 16.6V5.425L9.7 10.787a5.106 5.106 0 0 0 6.127 0l7.149-5.361V16.6a1.278 1.278 0 0 1-1.276 1.272" style="fill:#1d1e1c"/>
    </g>
</svg>
