<svg xmlns="http://www.w3.org/2000/svg" width="169.088" height="122.505" viewBox="0 0 169.088 122.505">
    <defs>
        <clipPath id="4fqgvo3p8a">
            <path data-name="Rectangle 264" style="fill:none" d="M0 0h153.806v94.901H0z"/>
        </clipPath>
    </defs>
    <g data-name="Group 867">
        <g data-name="Group 866" style="clip-path:url(#4fqgvo3p8a)" transform="rotate(-11 152.395 14.674)">
            <path data-name="Path 264" d="M153.806 47.451c0 26.206-34.431 47.451-76.9 47.451S0 73.657 0 47.451 34.431 0 76.9 0s76.9 21.245 76.9 47.451" style="fill:#f9b413"/>
            <path data-name="Path 265" d="M63.685 82.875q.024-1.425.036-2.85t.012-2.8q0-3.332-.024-5.047t-.072-3.429h7.1a6.815 6.815 0 0 1 4.7 1.461 5.243 5.243 0 0 1 1.63 4.117 6.161 6.161 0 0 1-.749 3.175 4.617 4.617 0 0 1-2.258 1.908 9.649 9.649 0 0 1-3.755.64h-3.746q.024 1.038.024 2.1.024 1.642.072 3.5h-3.018l.048-2.777m9.333-6.037A2.091 2.091 0 0 0 73.8 75a2.415 2.415 0 0 0-.338-1.34 1.9 1.9 0 0 0-.942-.749 3.936 3.936 0 0 0-1.4-.23h-4.585v4.709h4.226a3.877 3.877 0 0 0 2.258-.555" transform="translate(-39.27 -42.424)" style="fill:#fff"/>
            <path data-name="Path 266" d="M104.024 84.082q.024-1.521.048-3.272t.024-3.61q0-5.289-.1-8.452h7.413a6.919 6.919 0 0 1 4.685 1.413 5.052 5.052 0 0 1 1.618 4.021 6.131 6.131 0 0 1-.278 1.956 3.5 3.5 0 0 1-.833 1.377 4.067 4.067 0 0 1-1.424.894v.048a3.558 3.558 0 0 1 1.859 1.594 6.568 6.568 0 0 1 .629 3.188v2.415h-2.9q.024-.748.024-2.657a3.4 3.4 0 0 0-.507-1.98 2.613 2.613 0 0 0-1.316-1 5.862 5.862 0 0 0-1.9-.277H106.9q0 .821.025 1.424 0 1.16.011 2.306t.036 2.186H104q.024-.8.024-1.57m9.623-7.4a2.069 2.069 0 0 0 .785-1.8 2.127 2.127 0 0 0-.736-1.727 2.974 2.974 0 0 0-1.969-.615h-4.878v4.709h4.685a3.537 3.537 0 0 0 2.113-.567" transform="translate(-64.178 -42.424)" style="fill:#fff"/>
            <path data-name="Path 267" d="M146.429 82.682q.048-2 .048-5.433-.024-3.6-.048-6.279 0-1.3-.024-2.222h11.833v4.226h-8.959v2.8h7.873v2.487h-7.873v3.164h9.221v4.226h-12.119q.048-1.835.048-2.97" transform="translate(-90.331 -42.424)" style="fill:#fff"/>
            <path data-name="Path 268" d="M184.331 82.875q.024-1.425.036-2.85t.012-2.8q0-3.332-.024-5.047t-.072-3.429h7.1a6.815 6.815 0 0 1 4.7 1.461 5.243 5.243 0 0 1 1.63 4.117 6.161 6.161 0 0 1-.749 3.175 4.617 4.617 0 0 1-2.264 1.908 9.649 9.649 0 0 1-3.755.64H187.2q.024 1.038.024 2.1.024 1.642.072 3.5h-3.018l.048-2.777m9.333-6.037A2.091 2.091 0 0 0 194.45 75a2.415 2.415 0 0 0-.338-1.34 1.9 1.9 0 0 0-.942-.749 3.936 3.936 0 0 0-1.4-.23h-4.588v4.709h4.226a3.877 3.877 0 0 0 2.258-.555" transform="translate(-113.72 -42.424)" style="fill:#fff"/>
            <path data-name="Path 269" d="M224.7 82.682q.048-2 .048-5.433-.024-3.6-.048-6.279 0-1.3-.024-2.222H236.5v4.226h-8.959v2.8h7.873v2.487h-7.873v3.164h9.225v4.226h-12.119q.048-1.835.048-2.97" transform="translate(-138.628 -42.424)" style="fill:#fff"/>
            <path data-name="Path 270" d="M260.691 80.255q.785-2.355 1.8-5.446.555-1.714.978-3.031t.978-3.03h4.371q1.57 4.878 2.777 8.573 1.328 4.057 2.777 8.331h-3.163l-3.96-12.727h-1.256l-3.96 12.727h-3.139l1.8-5.4m1.751-2.282h8.355l.048 4.009h-8.478z" transform="translate(-159.76 -42.424)" style="fill:#fff"/>
            <path data-name="Path 271" d="M304.135 84.082q.024-1.521.049-3.272t.024-3.61q0-5.289-.1-8.452h7.414a6.92 6.92 0 0 1 4.685 1.413 5.053 5.053 0 0 1 1.618 4.021 6.13 6.13 0 0 1-.278 1.956 3.5 3.5 0 0 1-.833 1.377 4.065 4.065 0 0 1-1.425.894v.048a3.558 3.558 0 0 1 1.859 1.594 6.569 6.569 0 0 1 .628 3.188v2.415h-2.9q.024-.748.024-2.657a3.4 3.4 0 0 0-.507-1.98 2.612 2.612 0 0 0-1.316-1 5.862 5.862 0 0 0-1.9-.277h-4.178q0 .821.024 1.424 0 1.16.012 2.306t.036 2.186h-2.97q.024-.8.024-1.57m9.624-7.4a2.07 2.07 0 0 0 .785-1.8 2.128 2.128 0 0 0-.737-1.727 2.972 2.972 0 0 0-1.968-.615h-4.869v4.709h4.685a3.537 3.537 0 0 0 2.113-.567" transform="translate(-187.664 -42.424)" style="fill:#fff"/>
            <path data-name="Path 272" d="M50 139.682a14.288 14.288 0 0 1-2.74-.712v-3.888a.975.975 0 0 1 .193.073 24.93 24.93 0 0 0 2.813.664 15.4 15.4 0 0 0 2.668.253 4.947 4.947 0 0 0 3.272-.966 3.857 3.857 0 0 0 1.147-3.115v-2a4.341 4.341 0 0 1-1.05 1.847 4.882 4.882 0 0 1-1.691 1.147 5.075 5.075 0 0 1-1.92.386 6.5 6.5 0 0 1-3.6-.87 4.744 4.744 0 0 1-1.9-2.62 15.084 15.084 0 0 1-.568-4.552q0-1.063-.048-2.632h2.971q-.025 1.135-.024 2.608a6.463 6.463 0 0 0 .362 2.33 2.682 2.682 0 0 0 1.183 1.4 4.349 4.349 0 0 0 2.173.471 4.2 4.2 0 0 0 2.043-.506 3.788 3.788 0 0 0 1.5-1.522 4.978 4.978 0 0 0 .567-2.463v-2.318h2.946q-.072 5.892-.072 9.249a11.268 11.268 0 0 1-.76 4.444 5.385 5.385 0 0 1-2.367 2.656 8.415 8.415 0 0 1-4.117.893 18.3 18.3 0 0 1-2.981-.257" transform="translate(-28.743 -75.713)" style="fill:#fff"/>
            <path data-name="Path 273" d="M89.39 137.259q-1.944-2.21-1.944-6.629 0-4.3 1.944-6.5a7.255 7.255 0 0 1 5.735-2.2 7.263 7.263 0 0 1 5.723 2.2q1.956 2.2 1.956 6.5 0 4.419-1.944 6.629a7.236 7.236 0 0 1-5.736 2.209 7.234 7.234 0 0 1-5.735-2.209m8.355-2.512a3.123 3.123 0 0 0 1.557-1.461 5.727 5.727 0 0 0 .531-2.656 5.323 5.323 0 0 0-.531-2.548 3.154 3.154 0 0 0-1.569-1.425 6.633 6.633 0 0 0-2.608-.447 6.54 6.54 0 0 0-2.6.447 3.22 3.22 0 0 0-1.57 1.425 5.224 5.224 0 0 0-.543 2.548 5.714 5.714 0 0 0 .531 2.668 3.133 3.133 0 0 0 1.558 1.449 7.912 7.912 0 0 0 5.24 0" transform="translate(-53.962 -75.246)" style="fill:#fff"/>
            <path data-name="Path 274" d="M135.254 138.946a4.785 4.785 0 0 1-2.053-2.511 11.839 11.839 0 0 1-.592-4.033v-2.1q.024-4.757-.073-7.606h2.971q-.072 3.67-.072 8.887a5.773 5.773 0 0 0 .35 2.149 2.744 2.744 0 0 0 1.184 1.364 5.506 5.506 0 0 0 4.564 0 2.746 2.746 0 0 0 1.183-1.364 5.772 5.772 0 0 0 .35-2.149q0-4.66-.072-8.887h2.97q-.049 1.787-.061 3.622t-.012 3.839v2.222a12.188 12.188 0 0 1-.579 4.045 4.712 4.712 0 0 1-2.053 2.523 9.41 9.41 0 0 1-8.005 0" transform="translate(-81.788 -75.713)" style="fill:#fff"/>
            <path data-name="Path 275" d="M174.817 138.028q.024-1.521.049-3.272t.024-3.61q0-5.289-.1-8.452h7.413a6.92 6.92 0 0 1 4.685 1.413 5.052 5.052 0 0 1 1.618 4.021 6.131 6.131 0 0 1-.278 1.956 3.5 3.5 0 0 1-.833 1.377 4.069 4.069 0 0 1-1.425.894v.048a3.558 3.558 0 0 1 1.863 1.597 6.573 6.573 0 0 1 .628 3.188v2.412h-2.9q.024-.748.023-2.657a3.4 3.4 0 0 0-.507-1.98 2.613 2.613 0 0 0-1.316-1 5.858 5.858 0 0 0-1.9-.277h-4.178q0 .821.024 1.424 0 1.16.011 2.306t.036 2.186h-2.97q.023-.8.024-1.57m9.624-7.4a2.07 2.07 0 0 0 .785-1.8 2.128 2.128 0 0 0-.737-1.727 2.972 2.972 0 0 0-1.968-.615h-4.878v4.709h4.685a3.538 3.538 0 0 0 2.113-.567" transform="translate(-107.863 -75.713)" style="fill:#fff"/>
            <path data-name="Path 276" d="M218.039 139.134a21.65 21.65 0 0 1-2.982-.785l-.121-3.936.29.1a29.087 29.087 0 0 0 2.85.6 19.216 19.216 0 0 0 2.994.217 6.371 6.371 0 0 0 1.823-.217 2.145 2.145 0 0 0 1.039-.6 1.413 1.413 0 0 0 .326-.942 1.106 1.106 0 0 0-.29-.76 2.388 2.388 0 0 0-1.074-.568 12 12 0 0 0-2.185-.386 14.314 14.314 0 0 1-3.212-.628 3.918 3.918 0 0 1-1.956-1.4 4.354 4.354 0 0 1-.7-2.608 5.1 5.1 0 0 1 .676-2.6 4.87 4.87 0 0 1 2.137-1.9 8.207 8.207 0 0 1 3.659-.724 15.706 15.706 0 0 1 2.885.278 16.359 16.359 0 0 1 2.548.664l.145 3.985-.338-.121a15.474 15.474 0 0 0-2.355-.531 20.328 20.328 0 0 0-3.127-.217 6.154 6.154 0 0 0-1.618.181 1.976 1.976 0 0 0-.965.531 1.234 1.234 0 0 0-.314.857 1.094 1.094 0 0 0 .217.677 1.919 1.919 0 0 0 .881.531 9.736 9.736 0 0 0 1.944.41 17.491 17.491 0 0 1 3.574.688 4.212 4.212 0 0 1 2.089 1.461 4.672 4.672 0 0 1 .76 2.85 4.38 4.38 0 0 1-1.871 3.912 8.345 8.345 0 0 1-4.746 1.256 16.213 16.213 0 0 1-2.982-.278" transform="translate(-132.575 -75.285)" style="fill:#fff"/>
            <path data-name="Path 277" d="M254.305 136.627q.048-2 .048-5.433-.024-3.6-.048-6.279 0-1.3-.024-2.222h11.833v4.226h-8.959v2.8h7.873v2.487h-7.873v3.164h9.225v4.23h-12.123q.048-1.835.048-2.97" transform="translate(-156.9 -75.713)" style="fill:#fff"/>
            <path data-name="Path 278" d="M292.208 136.627q.048-2 .048-5.433-.024-3.6-.048-6.279 0-1.3-.024-2.222h2.946q-.024 2.173-.036 4.625t-.036 4.938v3.164h8.259v4.18H292.16q.048-1.835.048-2.97" transform="translate(-180.29 -75.713)" style="fill:#fff"/>
            <path data-name="Path 279" d="M326.39 136.627q.048-2 .048-5.433-.024-3.6-.048-6.279 0-1.3-.024-2.222h11.76v4.2h-8.886v3.381h7.776v2.632h-7.776q.024 1.811.048 3.188l.048 3.5h-2.994q.048-1.835.048-2.97" transform="translate(-201.383 -75.713)" style="fill:#fff"/>
        </g>
    </g>
</svg>
