<svg data-name="Group 891" xmlns="http://www.w3.org/2000/svg" width="219.051" height="103.056" viewBox="0 0 219.051 103.056">
    <defs>
        <clipPath id="4g0yimcrma">
            <path data-name="Rectangle 284" style="fill:none" d="M0 0h219.051v103.056H0z"/>
        </clipPath>
    </defs>
    <g data-name="Group 890" style="clip-path:url(#4g0yimcrma)">
        <path data-name="Path 3314" d="M13.42 4.44h22.175v4.135h-8.717v23.261h-4.8V8.575H13.4V4.44zM34.65 12h4.1v3.826h.077a4.493 4.493 0 0 1 .756-1.563 6.9 6.9 0 0 1 1.331-1.391 7.14 7.14 0 0 1 1.743-1.026 5.257 5.257 0 0 1 1.949-.386c.5 0 .872.017 1.065.039s.386.056.6.077v4.212a15.39 15.39 0 0 0-.949-.133 8.1 8.1 0 0 0-.949-.06 5.089 5.089 0 0 0-2.087.447 4.8 4.8 0 0 0-1.7 1.3 6.5 6.5 0 0 0-1.159 2.126A8.954 8.954 0 0 0 39 22.38v9.434h-4.371V12zm31.707 19.836h-4.294V29.07h-.077a5.984 5.984 0 0 1-2.4 2.4 6.551 6.551 0 0 1-3.251.91c-2.606 0-4.5-.64-5.664-1.937s-1.739-3.246-1.739-5.857V12h4.371v12.158a5.339 5.339 0 0 0 1 3.693 3.629 3.629 0 0 0 2.8 1.082 5.33 5.33 0 0 0 2.3-.425 3.866 3.866 0 0 0 1.49-1.142 4.409 4.409 0 0 0 .833-1.7 8.466 8.466 0 0 0 .249-2.147v-11.5h4.371zm7.443-6.364a3.373 3.373 0 0 0 1.45 2.688 5.849 5.849 0 0 0 3.036.773 13.579 13.579 0 0 0 1.391-.094 5.843 5.843 0 0 0 1.469-.369 2.774 2.774 0 0 0 1.142-.794 1.917 1.917 0 0 0 .4-1.353 1.858 1.858 0 0 0-.618-1.37 4.3 4.3 0 0 0-1.469-.872 15.118 15.118 0 0 0-2.048-.563c-.773-.155-1.546-.326-2.34-.5a21.088 21.088 0 0 1-2.357-.657 7.044 7.044 0 0 1-2.031-1.043 4.551 4.551 0 0 1-1.43-1.662 5.178 5.178 0 0 1-.541-2.512 4.555 4.555 0 0 1 .79-2.71 5.984 5.984 0 0 1 1.992-1.756 9.157 9.157 0 0 1 2.688-.949 16.123 16.123 0 0 1 2.821-.271 13.335 13.335 0 0 1 2.941.326 7.589 7.589 0 0 1 2.529 1.065 6.265 6.265 0 0 1 1.885 1.892 6.631 6.631 0 0 1 .949 2.825H81.88a2.713 2.713 0 0 0-1.43-2.108 5.834 5.834 0 0 0-2.589-.541 7.823 7.823 0 0 0-1.1.077 6.026 6.026 0 0 0-1.2.288 2.571 2.571 0 0 0-.949.623 1.5 1.5 0 0 0-.386 1.061 1.655 1.655 0 0 0 .563 1.3 4.715 4.715 0 0 0 1.447.829 14.583 14.583 0 0 0 2.053.563c.773.155 1.563.331 2.379.5.79.176 1.563.408 2.336.657a7.219 7.219 0 0 1 2.053 1.043A5.168 5.168 0 0 1 86.5 23.5a4.994 4.994 0 0 1 .563 2.456 5.356 5.356 0 0 1-.812 3 6.389 6.389 0 0 1-2.091 1.988 9.819 9.819 0 0 1-2.86 1.125 14.353 14.353 0 0 1-3.113.348 13.287 13.287 0 0 1-3.478-.425 8.464 8.464 0 0 1-2.765-1.28 6.347 6.347 0 0 1-1.838-2.143 7.084 7.084 0 0 1-.713-3.057H73.8zM88.222 12h3.306V6.042H95.9V12h3.946v3.268H95.9v10.591a10.757 10.757 0 0 0 .06 1.2 2.2 2.2 0 0 0 .271.855 1.224 1.224 0 0 0 .64.52 3.1 3.1 0 0 0 1.159.176c.309 0 .618 0 .928-.021a4.929 4.929 0 0 0 .928-.133v3.384c-.485.056-.966.094-1.413.155a11.709 11.709 0 0 1-1.408.077 9.7 9.7 0 0 1-2.787-.331 3.622 3.622 0 0 1-1.64-.966 3.35 3.35 0 0 1-.816-1.584A11.97 11.97 0 0 1 91.567 27V15.3h-3.306V12zm14.711 0h4.139v2.688h.077a5.39 5.39 0 0 1 2.572-2.473 8.4 8.4 0 0 1 3.577-.756 9.239 9.239 0 0 1 4.079.833 7.964 7.964 0 0 1 2.9 2.259A9.917 9.917 0 0 1 122 17.915a14.1 14.1 0 0 1 .58 4.1 14.261 14.261 0 0 1-.524 3.869 10.361 10.361 0 0 1-1.563 3.324 7.743 7.743 0 0 1-2.671 2.3 7.919 7.919 0 0 1-3.809.872 10.654 10.654 0 0 1-1.913-.18 8.293 8.293 0 0 1-1.838-.563 6.581 6.581 0 0 1-1.623-.983 6.121 6.121 0 0 1-1.258-1.391h-.081v9.9h-4.371zm15.274 9.936a9.91 9.91 0 0 0-.348-2.611 7.035 7.035 0 0 0-1.043-2.241 5.357 5.357 0 0 0-1.722-1.567 5.311 5.311 0 0 0-6.531 1.318 8.46 8.46 0 0 0-1.4 5.1 9.746 9.746 0 0 0 .369 2.787 6.113 6.113 0 0 0 1.1 2.2 5.179 5.179 0 0 0 1.739 1.451 5.454 5.454 0 0 0 4.891-.077 5.336 5.336 0 0 0 1.7-1.589 6.549 6.549 0 0 0 .966-2.22 12.316 12.316 0 0 0 .271-2.555m7.725-17.492h4.376v4.139h-4.371zm0 7.557h4.376v19.839h-4.371zM134.2 4.44h4.371v27.4H134.2zm17.769 27.937a10.757 10.757 0 0 1-4.234-.794 8.871 8.871 0 0 1-5.106-5.471 12.714 12.714 0 0 1-.678-4.217 12.549 12.549 0 0 1 .678-4.174 9.4 9.4 0 0 1 1.954-3.306 8.842 8.842 0 0 1 3.152-2.164 11.68 11.68 0 0 1 8.468 0 8.88 8.88 0 0 1 5.1 5.471 12.549 12.549 0 0 1 .678 4.174 12.715 12.715 0 0 1-.678 4.217 9.342 9.342 0 0 1-1.954 3.306 8.919 8.919 0 0 1-3.148 2.164 10.787 10.787 0 0 1-4.234.794m0-3.461a5.072 5.072 0 0 0 2.533-.616 5.4 5.4 0 0 0 1.761-1.606 7.227 7.227 0 0 0 1.026-2.241 10.081 10.081 0 0 0 0-5.088 6.656 6.656 0 0 0-1.026-2.241 5.34 5.34 0 0 0-1.761-1.584 5.49 5.49 0 0 0-5.063 0 5.585 5.585 0 0 0-1.761 1.584 7.006 7.006 0 0 0-1.026 2.241 10.08 10.08 0 0 0 0 5.088 6.854 6.854 0 0 0 1.026 2.241 5.4 5.4 0 0 0 1.761 1.606 4.862 4.862 0 0 0 2.533.618M163.256 12h3.306V6.042h4.367V12h3.946v3.268h-3.946v10.591a10.753 10.753 0 0 0 .06 1.2 2.2 2.2 0 0 0 .27.855 1.241 1.241 0 0 0 .64.52 3.1 3.1 0 0 0 1.159.176c.309 0 .618 0 .928-.021a4.929 4.929 0 0 0 .928-.133v3.384c-.485.056-.966.094-1.413.155a11.709 11.709 0 0 1-1.408.077 9.7 9.7 0 0 1-2.787-.331 3.622 3.622 0 0 1-1.64-.966 3.35 3.35 0 0 1-.816-1.584A11.973 11.973 0 0 1 166.6 27V15.3h-3.306V12z" transform="translate(44.137 14.625)" style="fill:#fff"/>
        <path data-name="Path 3315" d="M52.452 19.062H32.42L26.237 0l-6.209 19.062L0 19.04l16.219 11.8-6.2 19.044 16.218-11.778 16.2 11.774-6.187-19.044z" transform="translate(.001 .001)" style="fill:#fff"/>
        <path data-name="Path 3316" d="m17.515 11.493-1.391-4.311L6.11 14.451z" transform="translate(20.127 23.656)" style="fill:#f9b413"/>
        <path data-name="Rectangle 279" transform="translate(0 61.993)" style="fill:#fff" d="M0 0h41.064v41.064H0z"/>
        <path data-name="Rectangle 280" transform="translate(44.482 61.993)" style="fill:#fff" d="M0 0h41.064v41.064H0z"/>
        <path data-name="Rectangle 281" transform="translate(88.968 61.993)" style="fill:#fff" d="M0 0h41.064v41.064H0z"/>
        <path data-name="Rectangle 282" transform="translate(133.449 61.993)" style="fill:#fff" d="M0 0h41.064v41.064H0z"/>
        <path data-name="Rectangle 283" transform="translate(177.936 61.993)" style="fill:#dcdce6" d="M0 0h41.064v41.064H0z"/>
        <path data-name="Path 3317" d="M41.437 14.438h20.53L61.9 55.5H41.437z" transform="translate(136.496 47.557)" style="fill:#fff"/>
        <path data-name="Path 3318" d="m15.806 36.8 6.243-1.584 2.611 8.043zm14.372-10.4H19.185l-3.379-10.349L12.427 26.4H1.434l8.9 6.415-3.382 10.357 8.9-6.415 5.475-3.938z" transform="translate(4.724 52.872)" style="fill:#f9b413"/>
        <path data-name="Path 3319" d="m26.165 36.8 6.243-1.584 2.611 8.043zm14.372-10.4H29.544l-3.379-10.349L22.786 26.4H11.793l8.9 6.415-3.382 10.357 8.9-6.415 5.475-3.938z" transform="translate(38.846 52.872)" style="fill:#f9b413"/>
        <path data-name="Path 3320" d="m36.525 36.8 6.244-1.584 2.611 8.043zM50.9 26.4h-11l-3.375-10.349L33.146 26.4H22.153l8.9 6.415-3.382 10.357 8.9-6.415 5.475-3.938z" transform="translate(72.972 52.872)" style="fill:#f9b413"/>
        <path data-name="Path 3321" d="m46.884 36.8 6.244-1.584 2.611 8.043zm14.372-10.4H50.263l-3.379-10.349L43.5 26.4H32.512l8.9 6.415-3.382 10.357 8.9-6.415 5.47-3.938z" transform="translate(107.095 52.872)" style="fill:#f9b413"/>
        <path data-name="Path 3322" d="m57.244 36.8 6.243-1.584 2.613 8.042zm14.372-10.4H60.623l-3.379-10.349L53.865 26.4H42.872l8.9 6.415-3.382 10.357 8.9-6.415 5.475-3.938z" transform="translate(141.221 52.872)" style="fill:#f9b413"/>
    </g>
</svg>
