<svg xmlns="http://www.w3.org/2000/svg" width="143.575" height="124.552" viewBox="0 0 143.575 124.552">
    <defs>
        <clipPath id="4wvciqy7ca">
            <path data-name="Rectangle 265" style="fill:#f9b413" d="M0 0h127.452v104H0z"/>
        </clipPath>
    </defs>
    <g data-name="Group 873">
        <g data-name="Group 868" style="clip-path:url(#4wvciqy7ca)" transform="matrix(.985 .174 -.174 .985 18.059 0)">
            <path data-name="Path 280" d="m60.519 8.264-.256.135a31.327 31.327 0 0 0-16.476-5.936C3.548-1.1-2.272 39.935.638 57.978 5.157 85.99 21.3 97.987 40.671 101.574c129.761 24.032 94.76-139.491 19.848-93.31" style="fill:#f9b413"/>
            <path data-name="Path 281" d="M37.428 89.541q.019-1.05.03-2.111t.01-2.131v-1.328q0-2.418-.08-5.629h4.837a9.314 9.314 0 0 1 3.677.644 4.7 4.7 0 0 1 2.319 2.181 8.781 8.781 0 0 1 .823 4.133 9.143 9.143 0 0 1-.753 4.024 4.578 4.578 0 0 1-2.249 2.21 9.112 9.112 0 0 1-3.777.684h-4.877q.021-1.05.04-2.676m7.314-1.051a2.491 2.491 0 0 0 1.367-1.031 3.931 3.931 0 0 0 .5-2.161 3.876 3.876 0 0 0-.535-2.22 2.555 2.555 0 0 0-1.408-1.031 8.006 8.006 0 0 0-2.22-.257h-2.66v6.977h2.756a7.373 7.373 0 0 0 2.2-.277" transform="translate(-20.302 -42.54)" style="fill:#fff"/>
            <path data-name="Path 282" d="M67.309 85.28q0-4.36-.079-6.938h2.438q-.059 2.479-.06 6.938 0 4.441.06 6.938H67.23q.079-2.6.079-6.938" transform="translate(-36.506 -42.54)" style="fill:#fff"/>
            <path data-name="Path 283" d="M79.926 85.2v-3.449h-3.8v-3.409h9.95v3.409h-3.811V85.2q0 4.559.059 7.017h-2.457q.059-2.913.059-7.017" transform="translate(-41.334 -42.54)" style="fill:#fff"/>
            <path data-name="Path 284" d="M102.716 91.353a5.248 5.248 0 0 1-2.161-2.389 9.06 9.06 0 0 1-.753-3.9 9.375 9.375 0 0 1 .753-3.974 5.217 5.217 0 0 1 2.171-2.418 6.791 6.791 0 0 1 3.4-.8 12.045 12.045 0 0 1 2.2.179 7.251 7.251 0 0 1 1.785.575v3.449a.452.452 0 0 0-.139-.059 11.061 11.061 0 0 0-1.772-.516 10.438 10.438 0 0 0-1.873-.149 5.23 5.23 0 0 0-2.1.4 3.161 3.161 0 0 0-1.437 1.219 3.786 3.786 0 0 0-.525 2.072 3.605 3.605 0 0 0 .525 2.012 3.239 3.239 0 0 0 1.457 1.209 5.256 5.256 0 0 0 2.121.406 10.461 10.461 0 0 0 1.675-.119 12.911 12.911 0 0 0 1.635-.4c.185-.065.363-.125.536-.178l-.02 3.449a8.948 8.948 0 0 1-1.854.555 12.306 12.306 0 0 1-2.23.179 6.728 6.728 0 0 1-3.389-.8" transform="translate(-54.193 -42.28)" style="fill:#fff"/>
            <path data-name="Path 285" d="M126.95 89.6q.018-1.07.029-2.16t.01-2.161V84.21c0-.33-.007-.68-.02-1.05q0-2.874-.06-4.817h2.439l-.04 2.6q-.02 1.111-.02 2.2v4.272q0 1.08.02 2.19.02 1.031.04 2.617h-2.438q.04-1.566.04-2.617m1.724-6.541h7.531v3.386h-7.531zm7 6.184q.018-1.407.02-3.964 0-1.308-.01-2.7t-.03-2.835l-.02-1.407h2.458q-.02 1.348-.039 2.4-.02 1.09-.021 2.23v4.608q0 1.13.021 2.22l.039 2.418h-2.458z" transform="translate(-68.913 -42.541)" style="fill:#fff"/>
            <path data-name="Path 286" d="M170.1 85.2v-3.449h-3.806v-3.409h9.95v3.409h-3.806V85.2q0 4.559.06 7.017h-2.458q.06-2.913.06-7.017" transform="translate(-90.298 -42.54)" style="fill:#fff"/>
            <path data-name="Path 287" d="M191.013 89.6q.02-1.07.029-2.16t.01-2.161V84.21q0-.495-.02-1.05 0-2.874-.059-4.817h2.438l-.039 2.6q-.02 1.111-.021 2.2v4.272q0 1.08.021 2.19.019 1.031.039 2.617h-2.438q.039-1.566.039-2.617m1.724-6.541h7.532v3.386h-7.532zm7 6.184q.02-1.407.02-3.964 0-1.308-.01-2.7t-.029-2.835l-.02-1.407h2.457q-.018 1.348-.039 2.4-.02 1.09-.02 2.23v4.608q0 1.13.02 2.22.02 1.07.039 2.418H199.7z" transform="translate(-103.7 -42.541)" style="fill:#fff"/>
            <path data-name="Path 288" d="M221.288 89.779q.039-1.644.039-4.46-.02-2.953-.039-5.153 0-1.071-.021-1.824h9.713v3.469h-7.354v2.3h6.462v2.042h-6.462v2.6h7.574v3.469h-9.951q.04-1.505.04-2.438" transform="translate(-120.139 -42.54)" style="fill:#fff"/>
            <path data-name="Path 289" d="M27.691 126.7q.02-1.07.029-2.16t.01-2.161v-1.07q0-.495-.02-1.05 0-2.874-.059-4.817h2.439l-.039 2.6q-.02 1.111-.021 2.2v4.272q0 1.08.021 2.19.019 1.031.039 2.617h-2.438q.039-1.566.039-2.617m1.724-6.541h7.532v3.389h-7.531zm7 6.184q.02-1.407.02-3.964 0-1.308-.01-2.7t-.029-2.835l-.02-1.407h2.457q-.019 1.348-.039 2.4-.02 1.09-.02 2.23v4.608q0 1.13.02 2.22.02 1.07.039 2.418h-2.46z" transform="translate(-15.015 -62.686)" style="fill:#fff"/>
            <path data-name="Path 290" d="M56.887 124.888q.643-1.933 1.477-4.47.455-1.407.8-2.487t.8-2.487h3.587q1.288 4 2.28 7.036 1.09 3.33 2.28 6.838h-2.6l-3.251-10.446h-1.022l-3.251 10.446H55.41l1.477-4.43m1.437-1.873h6.858l.04 3.29h-6.958z" transform="translate(-30.088 -62.686)" style="fill:#fff"/>
            <path data-name="Path 291" d="M86.529 126.82q.039-2.537.039-4.956 0-2.952-.059-6.422H90.2l4.817 10.267h.475V124.5q.02-1.684.01-3.8t-.069-5.262h2.536q-.02.793-.02 1.863-.04 1.268-.039 2.547v5.8l.039 3.667h-3.67l-4.837-10.265h-.476v3.172l.03 3.588.03 3.508h-2.517z" transform="translate(-46.975 -62.686)" style="fill:#fff"/>
            <path data-name="Path 292" d="M118.572 128.514a4.927 4.927 0 0 1-1.953-2.329 9.965 9.965 0 0 1-.7-4.023 7.877 7.877 0 0 1 1.615-5.362 5.79 5.79 0 0 1 4.589-1.833 12.688 12.688 0 0 1 2.666.248 8.357 8.357 0 0 1 2.031.7l.02 3.33a9.411 9.411 0 0 0-1.982-.565 13.824 13.824 0 0 0-2.557-.228 5.022 5.022 0 0 0-2.031.387 3.014 3.014 0 0 0-1.388 1.209 3.986 3.986 0 0 0-.505 2.111 3.871 3.871 0 0 0 .962 2.824 3.925 3.925 0 0 0 2.923.981 4.19 4.19 0 0 0 1.646-.287 2.107 2.107 0 0 0 1.02-.872 2.772 2.772 0 0 0 .347-1.437h-2.538v-2.138h4.639q-.08 4.123 0 7.829h-2.141l.08-1.823h-.039a3.216 3.216 0 0 1-1.378 1.506 4.863 4.863 0 0 1-2.388.516 5.63 5.63 0 0 1-2.934-.743" transform="translate(-62.943 -62.427)" style="fill:#fff"/>
            <path data-name="Path 293" d="M145.53 127.5a8.034 8.034 0 0 1-1.595-5.441 7.823 7.823 0 0 1 1.595-5.331 7.032 7.032 0 0 1 9.406 0 7.792 7.792 0 0 1 1.6 5.331 8.039 8.039 0 0 1-1.595 5.441 7.018 7.018 0 0 1-9.416 0m6.859-2.061a2.566 2.566 0 0 0 1.278-1.2 4.7 4.7 0 0 0 .436-2.181 4.367 4.367 0 0 0-.436-2.091 2.589 2.589 0 0 0-1.288-1.169 5.441 5.441 0 0 0-2.141-.367 5.36 5.36 0 0 0-2.13.367 2.642 2.642 0 0 0-1.288 1.169 4.294 4.294 0 0 0-.446 2.091 4.683 4.683 0 0 0 .436 2.19 2.569 2.569 0 0 0 1.278 1.19 6.493 6.493 0 0 0 4.3 0" transform="translate(-78.157 -62.403)" style="fill:#fff"/>
            <path data-name="Path 294" d="M174.638 122.618q-1.13-3.944-2.121-7.175h2.616q.774 2.933 1.269 4.737.694 2.558 1.486 5.372h1.19q.356-1.228.614-2.17t.615-2.19q.931-3.429 1.525-5.748h2.577q-.991 3.231-2 6.838-.932 3.409-1.9 7.036h-4.044q-.971-3.667-1.823-6.7" transform="translate(-93.677 -62.686)" style="fill:#fff"/>
            <path data-name="Path 295" d="M201.877 126.88q.039-1.644.039-4.46-.02-2.953-.039-5.154 0-1.071-.021-1.823h9.713v3.468h-7.354v2.3h6.462v2.041h-6.462v2.6h7.572v3.469h-9.951q.04-1.506.04-2.438" transform="translate(-109.598 -62.686)" style="fill:#fff"/>
            <path data-name="Path 296" d="m227.926 128.03.039-2.686q.02-1.438.02-2.963 0-4.341-.079-6.938h6.084a5.679 5.679 0 0 1 3.845 1.159 4.146 4.146 0 0 1 1.328 3.3 5.036 5.036 0 0 1-.228 1.605 2.86 2.86 0 0 1-.684 1.13 3.341 3.341 0 0 1-1.169.734v.039a2.927 2.927 0 0 1 1.526 1.308 5.4 5.4 0 0 1 .515 2.616v1.982h-2.379q.02-.614.02-2.18a2.792 2.792 0 0 0-.416-1.626 2.146 2.146 0 0 0-1.08-.823 4.808 4.808 0 0 0-1.557-.228h-3.429q0 .675.021 1.17 0 .951.01 1.893t.03 1.794h-2.438c.012-.436.02-.865.02-1.288m7.9-6.075a1.7 1.7 0 0 0 .644-1.477 1.746 1.746 0 0 0-.6-1.417 2.44 2.44 0 0 0-1.615-.505h-4v3.865h3.845a2.9 2.9 0 0 0 1.734-.466" transform="translate(-123.754 -62.686)" style="fill:#fff"/>
        </g>
    </g>
</svg>
