<svg data-name="Group 15" xmlns="http://www.w3.org/2000/svg" width="56.638" height="75.375" viewBox="0 0 56.638 75.375">
    <path data-name="Path 43" d="M75.475 26.054c0-.828 0-1.708-.018-2.442h1.85c.045.3.071 1.179.073 1.622a3.275 3.275 0 0 1 3.225-1.868c2.046 0 3.477 1.266 3.477 3.859V33.3h-1.91v-5.792c0-1.462-.561-2.544-2.141-2.544-1.826 0-2.649 1.37-2.649 3.4V33.3h-1.907z" transform="translate(-29.449 37.855)" style="fill:#161615"/>
    <g data-name="Group 13">
        <path data-name="Path 39" d="M63.7 35.434 58.409 22.05h2.18l2.6 6.8c.87 2.261 1.425 3.859 1.7 4.879h.039c.244-.907.886-2.578 1.7-4.745l2.72-6.938h2.1l-5.414 13.388z" transform="translate(-57.069 35.723)" style="fill:#161615"/>
        <path data-name="Path 40" d="M64.986 28.86c.05 1.816 1.111 3.149 2.843 3.149a2.451 2.451 0 0 0 2.481-1.449h1.91a4.309 4.309 0 0 1-4.462 2.99c-3.291 0-4.687-2.507-4.687-5.023 0-2.9 1.682-5.162 4.727-5.162 3.4 0 4.58 2.581 4.58 4.821 0 .241 0 .435-.018.673zm5.442-1.307a2.537 2.537 0 0 0-2.649-2.725c-1.776 0-2.586 1.166-2.746 2.725z" transform="translate(-49.516 37.855)" style="fill:#161615"/>
        <path data-name="Path 41" d="M76.494 32.239c0 3.346-1.263 5.282-4.852 5.282-3.419 0-4.25-1.934-4.425-3.147h1.942a2.322 2.322 0 0 0 2.573 1.651c2.4 0 2.9-1.53 2.9-3.76v-.634a3.243 3.243 0 0 1-3.267 1.716c-2.562 0-4.3-2.054-4.3-4.826 0-3.121 2.025-5.156 4.512-5.156 1.991 0 2.809.912 3.058 1.577.01-.43.042-1.1.068-1.331h1.821c-.013.757-.026 1.873-.026 2.809zm-7.467-3.8c0 1.947 1.124 3.32 2.8 3.32 1.994 0 2.845-1.294 2.845-3.435 0-2.125-.8-3.377-2.769-3.377-1.918 0-2.88 1.556-2.88 3.493" transform="translate(-43.05 37.853)" style="fill:#161615"/>
        <path data-name="Path 42" d="M79.866 31.006a21.288 21.288 0 0 0 .113 2.3h-1.814a6.9 6.9 0 0 1-.139-1.292c-.419.8-1.339 1.541-3.27 1.541-2.492 0-3.487-1.569-3.487-3.042 0-2.319 1.96-3.17 4.79-3.17H78v-.65c0-.917-.348-1.884-2.193-1.884-1.656 0-1.994.762-2.167 1.551h-1.871c.121-1.328.977-2.995 4.064-2.99 2.976.005 4.032 1.347 4.032 3.275zm-1.86-2.366h-1.86c-2 0-2.974.5-2.974 1.769 0 .941.668 1.677 2 1.677 2.335 0 2.83-1.454 2.83-3.1z" transform="translate(-36.234 37.855)" style="fill:#161615"/>
        <path data-name="Path 44" d="m84.792 3.673-.115.06a13.905 13.905 0 0 0-7.321-2.638C59.473-.488 56.887 17.748 58.182 25.766c2.007 12.448 9.181 17.78 17.788 19.373 57.666 10.68 42.113-61.989 8.822-41.466m-5.61 30.506h-3.595L67.418 13.53h3.362l4.019 10.5c1.339 3.487 2.2 5.956 2.623 7.525h.058c.38-1.4 1.368-3.975 2.631-7.318L84.3 13.53h3.244zm25.5 0H89.71V13.53h14.8v2.6H92.77v5.927h11.175v2.6H92.77v6.917h12.312z" transform="translate(-57.898)" style="fill:#161615"/>
    </g>
</svg>
