<svg xmlns="http://www.w3.org/2000/svg" width="138.21" height="138.21" viewBox="0 0 138.21 138.21">
    <g data-name="Group 875">
        <path data-name="Path 318" d="M119.305 59.653A59.653 59.653 0 1 1 59.653 0a59.652 59.652 0 0 1 59.652 59.652" transform="rotate(10.02 10.362 118.155)" style="fill:#f9b413"/>
        <g data-name="Group 872">
            <path data-name="Path 319" d="M48.4 94.958 42 91.611a5.852 5.852 0 0 1-.406 1.968l-1.061-.555a4.805 4.805 0 0 0-.052-2.735l.563-1.074 8.131 4.254z" transform="rotate(10.02 331.403 4.988)" style="fill:#fff"/>
            <path data-name="Path 320" d="M55.892 72.483c1.949 1.475 3.305 3.635 1.691 5.77-1.532 2.026-3.941 1.5-5.953-.02-1.934-1.463-3.155-3.7-1.605-5.745 1.5-1.986 3.866-1.519 5.867-.005m-3.255 4.4c1.331 1.007 3.006 1.742 3.9.565.91-1.2-.225-2.533-1.651-3.612-1.3-.986-2.909-1.737-3.8-.553s.016 2.432 1.56 3.6" transform="rotate(10.02 271.6 -31.046)" style="fill:#fff"/>
            <path data-name="Path 321" d="M72.514 55.67c1.613 1.835 2.507 4.224.5 5.99-1.907 1.677-4.161.68-5.826-1.214-1.6-1.821-2.348-4.253-.419-5.948 1.87-1.644 4.092-.712 5.748 1.173m-4.07 3.652c1.1 1.253 2.595 2.309 3.7 1.335 1.133-1 .287-2.526-.893-3.869-1.079-1.227-2.5-2.285-3.615-1.306s-.472 2.385.805 3.839" transform="rotate(10.02 215.888 -92.75)" style="fill:#fff"/>
            <path data-name="Path 322" d="M88.445 39.845a2.282 2.282 0 0 1-.944 3.319A2.235 2.235 0 0 1 84.288 42a2.289 2.289 0 0 1 .934-3.294 2.234 2.234 0 0 1 3.223 1.144M85.4 41.408c.414.8 1.015 1.142 1.647.816s.724-.995.3-1.815c-.443-.861-1.015-1.109-1.656-.779-.583.3-.721.945-.292 1.778m3.72 5.292 1.042-10.361 1.091-.562-1.046 10.362zm7-6.247a2.281 2.281 0 0 1-.944 3.318 2.235 2.235 0 0 1-3.216-1.171 2.287 2.287 0 0 1 .934-3.294 2.231 2.231 0 0 1 3.222 1.144m-3.042 1.563c.417.809 1.015 1.142 1.647.816s.724-.995.3-1.815c-.444-.862-1.015-1.109-1.657-.779-.578.3-.716.954-.292 1.778" transform="rotate(10.02 159.572 -161.6)" style="fill:#fff"/>
            <path data-name="Path 323" d="m126.239 25.493 1.657-.221.568 4.244c.85-1.066 2.524-3.167 3.828-4.832l2.053-.274-3.58 4.4 5 4.666-2.056.275-4-3.788-1.032 1.171.432 3.232-1.657.222z" transform="rotate(10.02 133.004 -311.422)" style="fill:#fff"/>
            <path data-name="Path 324" d="M160.322 30.162a4.483 4.483 0 0 1-5.1 4.317 4.42 4.42 0 0 1-4.078-5.182 4.5 4.5 0 0 1 5.09-4.269 4.422 4.422 0 0 1 4.088 5.134m-7.422-.732c-.18 1.863.631 3.508 2.53 3.692 1.984.192 2.967-1.345 3.138-3.107.175-1.8-.581-3.442-2.534-3.631-1.9-.184-2.96 1.245-3.134 3.046" transform="rotate(10.02 142.576 -397.347)" style="fill:#fff"/>
            <path data-name="Path 325" d="m179.919 34.571-1.247 3.595-1.567-.544 3.009-8.673 4 1.386c1.862.646 2.6 1.973 2.106 3.4a2.119 2.119 0 0 1-2.165 1.548c.462.342 1.049 1.039.517 2.572l-.14.4A7.389 7.389 0 0 0 183.95 40l-1.574-.546a6.4 6.4 0 0 1 .49-1.9l.075-.218c.376-1.083.182-1.646-1.254-2.144zm.438-1.261 2.039.708c1.181.41 1.85.156 2.15-.708.282-.814-.107-1.448-1.2-1.828l-2.1-.729z" transform="rotate(10.02 164.095 -486.118)" style="fill:#fff"/>
            <path data-name="Path 326" d="m206.186 46.991-4.149-2.549-1.42 2.311 4.582 2.814-.9 1.074-5.82-3.575 4.8-7.821 5.769 3.544-.726 1.182-4.352-2.671-1.207 1.965 4.149 2.549z" transform="rotate(10.02 206.2 -556.98)" style="fill:#fff"/>
            <path data-name="Path 327" d="m218.59 63-2.358 1.1-1.213-1.2 8.916-4.117 1.5 1.473-3.82 9.108-1.285-1.259 1.017-2.409zm3.416 1.4c.948-2.209 1.461-3.388 1.81-4.048l-.01-.009c-.675.386-2.093 1.083-3.939 1.961z" transform="rotate(10.02 278.832 -608.33)" style="fill:#fff"/>
            <path data-name="Path 328" d="m233.227 80.233 7.783-4.867 1.1 1.754c-1.385 2.931-3.077 6.635-3.664 7.6l.013.02c.861-.646 2.182-1.461 3.455-2.257l2.552-1.6.822 1.315-7.788 4.869-1.034-1.653c.9-1.864 3.3-6.841 3.893-7.869l-.013-.02c-.84.608-2.128 1.42-3.518 2.289l-2.777 1.737z" transform="rotate(10.02 341.73 -666.342)" style="fill:#fff"/>
            <path data-name="Path 329" d="m61.7 223.059 2.787 2.955c1.39 1.473 1.463 3.13.234 4.289-1.357 1.281-3 .985-4.353-.445l-1.609-1.706-2.576 2.431-1.157-1.227zm-1.956 4.164 1.5 1.585c.75.8 1.525 1 2.291.281.7-.662.61-1.473-.145-2.273l-1.512-1.6z" transform="rotate(10.02 799.079 -4.87)" style="fill:#fff"/>
            <path data-name="Path 330" d="m81.337 246.162-3.989-2.793-1.556 2.221 4.4 3.085-.964 1.018-5.595-3.918 5.266-7.519 5.546 3.884-.8 1.136-4.187-2.933-1.323 1.89 3.989 2.793z" transform="rotate(10.02 857.306 -64.709)" style="fill:#fff"/>
            <path data-name="Path 331" d="m96.731 258.354-1.772 1.9-1.571-.646 6.717-7.161 1.946.8-.121 9.874-1.664-.684.038-2.614zm3.691.016c.05-2.4.082-3.688.157-4.43h-.012c-.481.611-1.533 1.789-2.914 3.3z" transform="rotate(10.02 912.396 -128.784)" style="fill:#fff"/>
            <path data-name="Path 332" d="m124.133 263.756-.643 3.749-1.635-.281 1.552-9.046 4.168.715c1.942.333 2.887 1.522 2.631 3.009a2.119 2.119 0 0 1-1.884 1.88c.512.263 1.2.854.93 2.453l-.072.421a7.4 7.4 0 0 0-.186 1.793l-1.642-.282a6.387 6.387 0 0 1 .173-1.958l.039-.227c.194-1.13-.089-1.653-1.586-1.91zm.226-1.315 2.128.365c1.232.211 1.85-.148 2.005-1.049.145-.849-.342-1.411-1.484-1.607l-2.192-.376z" transform="rotate(10.02 940.838 -225.582)" style="fill:#fff"/>
            <path data-name="Path 333" d="M159.805 266.586c.185 2.233-.6 3.221-2.534 3.382a6.256 6.256 0 0 1-1.192 0l-.112-1.355a6.635 6.635 0 0 0 .966-.013c1.057-.087 1.283-.8 1.2-1.78l-.519-6.245 1.678-.139z" transform="rotate(10.02 958.945 -342.98)" style="fill:#fff"/>
            <path data-name="Path 334" d="m170.463 256.566 1.406 5.17c.542 1.992 1.777 2.241 2.9 1.935 1.293-.351 1.968-1.2 1.445-3.117l-1.406-5.171 1.624-.442 1.4 5.143c.78 2.87-.547 4.3-2.747 4.9-2.178.592-4.072.033-4.833-2.766l-1.416-5.209z" transform="rotate(10.02 943.838 -389.178)" style="fill:#fff"/>
            <path data-name="Rectangle 269" transform="rotate(-14.88 463.456 -242.853)" style="fill:#fff" d="M0 0h1.681v9.179H0z"/>
            <path data-name="Path 335" d="M213.149 244.622a3.829 3.829 0 0 1-1.753 4.717c-2.469 1.681-4.9.758-6.358-1.379a4.456 4.456 0 0 1 1.081-6.515c2.071-1.41 3.9-.947 4.986.16l-1.4.954a2.237 2.237 0 0 0-2.861.02c-1.544 1.051-1.41 2.836-.385 4.342 1 1.466 2.629 2.368 4.246 1.267a2.253 2.253 0 0 0 1.047-2.614z" transform="rotate(10.02 904.74 -515.55)" style="fill:#fff"/>
            <path data-name="Path 336" d="m228.036 226.525-3.357 3.529 1.965 1.869 3.707-3.9.863 1.105-4.708 4.949-6.65-6.328 4.667-4.906 1 .956-3.524 3.7 1.671 1.59 3.357-3.528z" transform="rotate(10.02 848.176 -575.478)" style="fill:#fff"/>
        </g>
        <path data-name="Path 337" d="m105.837 95.7-.116.061a14.155 14.155 0 0 0-7.445-2.682c-18.183-1.609-20.814 16.933-19.5 25.087 2.042 12.659 9.339 18.08 18.091 19.7 58.638 10.86 42.822-63.035 8.969-42.166" transform="rotate(10.02 352.418 -125.716)" style="fill:#fff"/>
        <path data-name="Rectangle 270" transform="matrix(.985 .174 -.174 .985 20.717 0)" style="fill:none" d="M0 0h119.305v119.305H0z"/>
    </g>
</svg>
