<?xml version="1.0" standalone="no"?>
<!DOCTYPE svg PUBLIC "-//W3C//DTD SVG 1.1//EN" "http://www.w3.org/Graphics/SVG/1.1/DTD/svg11.dtd" >
<svg xmlns="http://www.w3.org/2000/svg" xmlns:xlink="http://www.w3.org/1999/xlink" version="1.1">
<metadata>
Created by FontForge 20190801 at Tue Apr  5 12:41:21 2016
 By www-data
(c) 2014 Adobe Systems Incorporated. All Rights Reserved.
</metadata>
<defs>
<font id="AcuminProMedium" horiz-adv-x="400" >
  <font-face 
    font-family="AcuminProMedium"
    font-weight="500"
    font-stretch="normal"
    units-per-em="1000"
    panose-1="2 11 6 4 2 2 2 2 2 4"
    ascent="735"
    descent="-265"
    x-height="509"
    cap-height="695"
    bbox="-188 -262 1238 1044"
    underline-thickness="50"
    underline-position="-100"
    unicode-range="U+0020-FB02"
  />
<missing-glyph horiz-adv-x="500" 
d="M0 0v700h500v-700h-500zM250 395l170 255h-340zM280 350l170 -255v510zM80 50h340l-170 255zM50 605v-510l170 255z" />
    <glyph glyph-name="f_f" unicode="ff" horiz-adv-x="569" 
d="M367 431h-180v-431h-98v431h-80v78h80v57q0 177 151 177q34 0 51 -7v-80q-16 5 -40 5q-35 0 -49.5 -22.5t-14.5 -70.5v-59h180v57q0 177 150 177q34 0 52 -7v-80q-16 5 -40 5q-35 0 -49.5 -22.5t-14.5 -70.5v-59h98v-78h-98v-431h-98v431z" />
    <glyph glyph-name=".notdef" horiz-adv-x="500" 
d="M0 0v700h500v-700h-500zM250 395l170 255h-340zM280 350l170 -255v510zM80 50h340l-170 255zM50 605v-510l170 255z" />
    <glyph glyph-name=".null" horiz-adv-x="0" 
 />
    <glyph glyph-name="nonmarkingreturn" horiz-adv-x="333" 
 />
    <glyph glyph-name="space" unicode=" " horiz-adv-x="251" 
 />
    <glyph glyph-name="exclam" unicode="!" horiz-adv-x="307" 
d="M222 237h-81l-12 336v122h105v-123zM229 -1h-97v144h97v-144z" />
    <glyph glyph-name="quotedbl" unicode="&#x22;" horiz-adv-x="361" 
d="M131 460h-71l-10 187v86h91v-86zM301 460h-72l-9 187v86h91v-86z" />
    <glyph glyph-name="numbersign" unicode="#" horiz-adv-x="599" 
d="M281 0l47 194l-128 -1l-46 -193h-74l47 193h-85v80h105l36 148h-92v80h112l42 173h71l-42 -173h129l42 173h70l-41 -173h80l-1 -80h-98l-36 -148h89v-79h-108l-46 -194h-73zM347 273l36 148h-128l-35 -148h127z" />
    <glyph glyph-name="dollar" unicode="$" horiz-adv-x="526" 
d="M136 498q0 -36 20 -59t71 -41v191q-91 -10 -91 -91zM386 171q0 40 -22 66t-78 46v-213q100 11 100 101zM286 -96h-59v90q-89 7 -141.5 55.5t-60.5 122.5h98q18 -85 104 -100v229q-103 31 -145.5 74t-42.5 112q0 75 53 123t135 54v67h59v-68q92 -9 135.5 -57t49.5 -107
h-96q-19 73 -89 88v-207q110 -31 155 -79.5t45 -118.5q0 -84 -53 -132.5t-147 -55.5v-90z" />
    <glyph glyph-name="percent" unicode="%" horiz-adv-x="888" 
d="M207 670q78 0 124 -50t46 -137q0 -84 -45 -137t-126 -53q-79 0 -123.5 50.5t-44.5 138.5q0 80 44.5 134t124.5 54zM207 601q-40 0 -63.5 -30.5t-23.5 -87.5q0 -56 22.5 -88t65.5 -32q42 0 65.5 31.5t23.5 88.5t-23.5 87.5t-66.5 30.5zM276 0h-81l424 658h81zM688 364
q78 0 123.5 -50t45.5 -138q0 -83 -44.5 -135.5t-126.5 -53.5q-78 0 -122.5 51.5t-44.5 136.5q0 81 44 135t125 54zM687 294q-39 0 -63 -31.5t-24 -86.5t23 -87.5t66 -32.5q42 0 65 31.5t23 88.5t-23.5 87.5t-66.5 30.5z" />
    <glyph glyph-name="ampersand" unicode="&#x26;" horiz-adv-x="752" 
d="M260 76q45 0 78.5 19t73.5 68l-165 162q-55 -37 -75.5 -67.5t-20.5 -71.5q0 -45 31 -77.5t78 -32.5zM600 439h104l-178 -258l185 -181h-132l-108 106q-48 -60 -97 -88t-122 -28q-95 0 -149 55.5t-54 129.5q0 61 32.5 106.5t114.5 96.5q-41 44 -60.5 77.5t-19.5 77.5
q0 73 48.5 122.5t130.5 49.5q78 0 125.5 -47t47.5 -115q0 -51 -31.5 -90t-103.5 -83l134 -131zM294 631q-39 0 -62 -24.5t-23 -67.5q0 -28 17.5 -54.5t56.5 -64.5q55 35 74.5 61.5t19.5 60.5q0 37 -21.5 63t-61.5 26z" />
    <glyph glyph-name="quotesingle" unicode="'" horiz-adv-x="185" 
d="M132 460h-80l-9 187v86h99v-86z" />
    <glyph glyph-name="parenleft" unicode="(" horiz-adv-x="344" 
d="M207 733h98q-158 -208 -158 -447q0 -247 158 -459h-98q-150 201 -150 460q0 246 150 446z" />
    <glyph glyph-name="parenright" unicode=")" horiz-adv-x="344" 
d="M137 -173h-98q157 206 157 447q0 250 -157 459h98q150 -201 150 -460q0 -246 -150 -446z" />
    <glyph glyph-name="asterisk" unicode="*" horiz-adv-x="408" 
d="M165 695h77l-14 -149l114 93l42 -70l-142 -62l141 -64l-41 -70l-115 95l15 -151h-78l15 150l-113 -94l-41 70l141 64l-142 62l42 70l112 -93z" />
    <glyph glyph-name="plus" unicode="+" horiz-adv-x="701" 
d="M308 558h86v-234h231v-85h-231v-239h-86v239h-232v85h232v234z" />
    <glyph glyph-name="comma" unicode="," horiz-adv-x="221" 
d="M83 -115h-79q62 135 72 268h100q-16 -160 -93 -268z" />
    <glyph glyph-name="hyphen" unicode="-" horiz-adv-x="379" 
d="M57 300h265v-88h-265v88z" />
    <glyph glyph-name="period" unicode="." horiz-adv-x="212" 
d="M158 0h-104v153h104v-153z" />
    <glyph glyph-name="slash" unicode="/" horiz-adv-x="451" 
d="M129 -51h-86l279 756h86z" />
    <glyph glyph-name="zero" unicode="0" horiz-adv-x="565" 
d="M285 670q64 0 111 -28t72.5 -77t37 -106t11.5 -125q0 -53 -6.5 -100t-23 -93.5t-42.5 -79t-67.5 -53t-95.5 -20.5q-66 0 -113 28.5t-72.5 78.5t-37 107.5t-11.5 126.5q0 68 12 126t38.5 108t74 78.5t112.5 28.5zM286 588q-53 0 -84 -36.5t-41 -89.5t-10 -133
q0 -259 132 -259q40 0 67 21t40 61t18 82t5 99q0 255 -127 255z" />
    <glyph glyph-name="one" unicode="1" horiz-adv-x="371" 
d="M274 0h-100v542q-23 -16 -64 -31.5t-69 -20.5v78q40 10 83.5 35.5t76.5 57.5h73v-661z" />
    <glyph glyph-name="two" unicode="2" horiz-adv-x="531" 
d="M486 0h-442v6q0 150 198 299q82 62 106.5 93t24.5 80q0 51 -27 81t-81 30q-56 0 -85 -29t-39 -88h-96q9 88 65 143t155 55q106 0 157.5 -55.5t51.5 -133.5q0 -71 -33 -114.5t-130 -117.5q-129 -99 -150 -164h339z" />
    <glyph glyph-name="three" unicode="3" horiz-adv-x="552" 
d="M154 499h-95q9 70 61 120.5t152 50.5q99 0 151 -50t52 -122q0 -55 -26 -88.5t-61 -47.5v-2q114 -39 114 -165q0 -87 -57 -147t-175 -60q-107 0 -163.5 54.5t-64.5 130.5h97q10 -46 44 -75.5t91 -29.5q63 0 95 36t32 91q0 122 -136 122h-49v79h42q61 0 89.5 24t28.5 74
q0 43 -28 69t-79 26q-95 0 -115 -90z" />
    <glyph glyph-name="four" unicode="4" horiz-adv-x="543" 
d="M436 0h-94v165h-307v88l295 405h106v-410h84l-11 -83h-73v-165zM342 248v157q0 93 3 158q-22 -42 -216 -315h213z" />
    <glyph glyph-name="five" unicode="5" horiz-adv-x="550" 
d="M486 658l-14 -84h-273q-5 -53 -27 -176q47 50 134 50q91 0 145 -59.5t54 -159.5q0 -104 -57.5 -172.5t-172.5 -68.5q-91 0 -151 47t-73 131h99q26 -98 128 -98q62 0 94.5 41t32.5 113q0 143 -122 143q-54 0 -82.5 -20.5t-46.5 -61.5l-91 16q26 117 55 359h368z" />
    <glyph glyph-name="six" unicode="6" horiz-adv-x="555" 
d="M492 511h-97q-21 80 -106 80q-138 0 -143 -229q53 86 163 86q94 0 148.5 -61t54.5 -158q0 -104 -60 -172.5t-166 -68.5q-238 0 -238 332q0 71 12.5 131t40 111t77 79.5t116.5 28.5q92 0 141.5 -48t56.5 -111zM285 70q64 0 95.5 43t31.5 108q0 62 -29 104t-96 42
q-60 0 -95.5 -37t-35.5 -107q0 -23 6 -47t19.5 -49t40.5 -41t63 -16z" />
    <glyph glyph-name="seven" unicode="7" horiz-adv-x="479" 
d="M20 658h437v-79q-87 -118 -157.5 -278t-93.5 -301h-101q21 136 94.5 301.5t154.5 272.5h-334v84z" />
    <glyph glyph-name="eight" unicode="8" horiz-adv-x="558" 
d="M274 -12q-99 0 -164.5 54t-65.5 145q0 63 34.5 105t82.5 61q-89 46 -89 139q0 80 55.5 129t156.5 49q94 0 149 -48.5t55 -127.5q0 -101 -90 -136q48 -16 81.5 -61t33.5 -107q0 -94 -66 -148t-173 -54zM280 68q60 0 96.5 31.5t36.5 91.5q0 59 -35.5 90t-98.5 31
q-66 0 -100 -33.5t-34 -87.5t36.5 -88.5t98.5 -34.5zM281 590q-113 0 -113 -99q0 -42 29 -69.5t85 -27.5q110 0 110 95q0 44 -28.5 72.5t-82.5 28.5z" />
    <glyph glyph-name="nine" unicode="9" horiz-adv-x="547" 
d="M52 148h100q14 -40 40 -59.5t72 -19.5q126 0 135 243q-43 -74 -153 -74q-93 0 -148.5 59t-55.5 151q0 95 60.5 158.5t164.5 63.5q119 0 174.5 -82.5t55.5 -221.5q0 -377 -237 -377q-94 0 -144.5 46t-63.5 113zM266 589q-61 0 -92 -38t-31 -99t32.5 -97t88.5 -36
q126 0 126 129q0 19 -4.5 40t-16.5 45.5t-38.5 40t-64.5 15.5z" />
    <glyph glyph-name="colon" unicode=":" horiz-adv-x="259" 
d="M180 0h-101v149h101v-149zM180 358h-101v149h101v-149z" />
    <glyph glyph-name="semicolon" unicode=";" horiz-adv-x="261" 
d="M92 -115h-79q64 137 71 268h100q-5 -74 -32 -148t-60 -120zM185 354h-103v153h103v-153z" />
    <glyph glyph-name="less" unicode="&#x3c;" horiz-adv-x="615" 
d="M82 241v80l451 241v-94l-356 -186l356 -192v-95z" />
    <glyph glyph-name="equal" unicode="=" horiz-adv-x="713" 
d="M82 201h549v-86h-549v86zM82 451h549v-86h-549v86z" />
    <glyph glyph-name="greater" unicode="&#x3e;" horiz-adv-x="615" 
d="M533 317v-81l-451 -241v95l356 186l-356 192v94z" />
    <glyph glyph-name="question" unicode="?" horiz-adv-x="503" 
d="M303 211h-102v16q0 45 20.5 85t75.5 90q38 34 51.5 63t13.5 63q0 39 -25.5 68t-74.5 29q-95 0 -112 -110h-96q1 28 11.5 58t32.5 61t65.5 51t100.5 20q102 -1 150 -55.5t48 -123.5q0 -52 -20.5 -91.5t-74.5 -89.5q-36 -32 -50 -60.5t-14 -64.5v-9zM303 0h-102v143h102
v-143z" />
    <glyph glyph-name="at" unicode="@" horiz-adv-x="936" 
d="M678 -49l20 -67q-90 -59 -244 -59q-172 0 -282 109.5t-110 291.5q0 194 120.5 318.5t316.5 124.5q161 0 269.5 -93t108.5 -257q0 -133 -62.5 -211.5t-163.5 -78.5q-97 0 -103 75q-54 -74 -141 -74q-63 0 -102.5 45t-39.5 129q0 113 60 191t146 78q95 0 117 -74l16 64h88
l-60 -278q-10 -47 -0.5 -64t38.5 -17q55 0 90 58.5t35 152.5q0 129 -82 205.5t-217 76.5q-158 0 -253 -101.5t-95 -270.5q-1 -140 84.5 -232.5t226.5 -92.5q128 0 219 51zM483 400q-56 0 -90 -57t-34 -134q0 -104 73 -104q91 0 123 143q34 152 -72 152z" />
    <glyph glyph-name="A" unicode="A" horiz-adv-x="665" 
d="M464 199h-273l-70 -199h-103l245 695h128l256 -695h-110zM217 287h222q-103 285 -114 326h-1q-9 -33 -107 -326z" />
    <glyph glyph-name="B" unicode="B" horiz-adv-x="652" 
d="M90 0v695h273q108 0 163.5 -49.5t55.5 -125.5q0 -57 -28 -96.5t-70 -54.5q46 -15 83 -56.5t37 -108.5q0 -94 -65 -149t-168 -55h-281zM191 409h155q132 0 132 102q0 45 -31.5 72.5t-88.5 27.5h-167v-202zM191 325v-241h165q66 0 104 30.5t38 90.5q0 120 -157 120h-150z
" />
    <glyph glyph-name="C" unicode="C" horiz-adv-x="691" 
d="M544 200h103q-24 -95 -94.5 -152t-185.5 -57q-151 0 -233 99.5t-82 254.5q0 98 34 177.5t108 131t177 51.5q120 0 190.5 -60t85.5 -153h-103q-41 128 -177 128q-104 0 -155.5 -79t-51.5 -193q0 -52 11.5 -99t35.5 -86.5t66 -63t98 -23.5q125 0 173 124z" />
    <glyph glyph-name="D" unicode="D" horiz-adv-x="724" 
d="M90 0v695h253q148 0 238.5 -93t90.5 -247q0 -156 -91 -255.5t-242 -99.5h-249zM193 608v-522h139q114 0 173 73.5t59 193.5q0 109 -58 182t-173 73h-140z" />
    <glyph glyph-name="E" unicode="E" horiz-adv-x="601" 
d="M534 407v-87h-343v-233h377l-13 -87h-465v695h460v-88h-359v-200h343z" />
    <glyph glyph-name="F" unicode="F" horiz-adv-x="569" 
d="M90 0v695h453v-88h-352v-215h330v-87h-330v-305h-101z" />
    <glyph glyph-name="G" unicode="G" horiz-adv-x="733" 
d="M661 378v-378h-78q-7 21 -10 89q-63 -99 -213 -99q-146 0 -227 98t-81 252q0 161 86 263t241 102q120 0 195.5 -59t90.5 -154h-103q-40 128 -185 128q-111 0 -164 -77t-53 -198q0 -73 21 -132t70.5 -98t122.5 -39q186 0 186 207v7h-187v88h288z" />
    <glyph glyph-name="H" unicode="H" horiz-adv-x="732" 
d="M90 0v695h103v-287h346v287h103v-695h-103v321h-346v-321h-103z" />
    <glyph glyph-name="I" unicode="I" horiz-adv-x="283" 
d="M90 695h103v-695h-103v695z" />
    <glyph glyph-name="J" unicode="J" horiz-adv-x="374" 
d="M289 695v-489q0 -116 -44.5 -166t-138.5 -50q-40 0 -77 7v85q26 -4 65 -4q55 0 73.5 32.5t18.5 91.5v493h103z" />
    <glyph glyph-name="K" unicode="K" horiz-adv-x="646" 
d="M90 0v695h102v-335q6 7 135 138t191 197h127l-295 -293l309 -402h-125l-256 336l-86 -79v-257h-102z" />
    <glyph glyph-name="L" unicode="L" horiz-adv-x="566" 
d="M90 0v695h103v-608h359l-14 -87h-448z" />
    <glyph glyph-name="M" unicode="M" horiz-adv-x="871" 
d="M681 0v289q0 210 5 333h-4q-9 -34 -25.5 -86t-41 -124t-45 -129.5t-53 -148.5t-47.5 -134h-91q-9 27 -64 195.5t-87 270.5t-46 157h-4q8 -107 8 -351v-272h-96v695h154q147 -417 187 -569h1q28 116 201 569h149v-695h-101z" />
    <glyph glyph-name="N" unicode="N" horiz-adv-x="746" 
d="M187 0h-97v695h134q30 -50 116.5 -192.5t147 -243.5t77.5 -134h1q-6 74 -6 311v259h96v-695h-126q-292 486 -347 589h-2q6 -91 6 -324v-265z" />
    <glyph glyph-name="O" unicode="O" horiz-adv-x="754" 
d="M381 705q146 0 233.5 -98t87.5 -256q0 -153 -86 -257t-243 -104q-150 0 -235.5 101t-85.5 256t87.5 256.5t241.5 101.5zM377 618q-108 0 -162.5 -75.5t-54.5 -192.5t57 -195t160 -78q75 0 125 39t71 98.5t21 134.5q0 117 -55.5 193t-161.5 76z" />
    <glyph glyph-name="P" unicode="P" horiz-adv-x="633" 
d="M90 0v695h268q105 0 168 -55t63 -150q0 -101 -65 -155.5t-171 -54.5h-160v-280h-103zM193 609v-243h153q67 0 102.5 31.5t35.5 90.5t-37 90t-98 31h-156z" />
    <glyph glyph-name="Q" unicode="Q" horiz-adv-x="759" 
d="M381 705q146 0 233.5 -98t87.5 -256q0 -89 -30.5 -165.5t-89.5 -125.5l166 -116l-61 -71l-195 136q-55 -19 -119 -19q-150 0 -235.5 101t-85.5 256t87.5 256.5t241.5 101.5zM377 618q-108 0 -162.5 -75.5t-54.5 -192.5t57 -195t160 -78q75 0 125 39t71 98.5t21 134.5
q0 117 -55.5 193t-161.5 76z" />
    <glyph glyph-name="R" unicode="R" horiz-adv-x="646" 
d="M325 301h-133v-301h-102v695h278q105 0 163 -51.5t58 -135.5q0 -65 -32 -107t-83 -57q102 -27 102 -177v-30q0 -110 10 -137h-100q-12 30 -12 151v13q0 75 -30.5 106t-118.5 31zM192 609v-223h146q75 0 110 28t35 85q0 53 -34.5 81.5t-101.5 28.5h-155z" />
    <glyph glyph-name="S" unicode="S" horiz-adv-x="612" 
d="M40 195h104q29 -123 171 -123q74 0 109 30t35 80q0 52 -35.5 82.5t-133.5 53.5q-124 30 -173.5 75.5t-49.5 120.5q0 84 61 137.5t174 53.5q117 0 178 -55.5t70 -134.5h-105q-20 108 -146 108q-60 0 -93 -25.5t-33 -72.5q0 -46 33 -70t124 -46q138 -33 187 -85.5
t49 -129.5q0 -90 -66.5 -146.5t-191.5 -56.5q-123 0 -189.5 57t-78.5 147z" />
    <glyph glyph-name="T" unicode="T" horiz-adv-x="564" 
d="M230 0v607h-222v88h548v-88h-222v-607h-104z" />
    <glyph glyph-name="U" unicode="U" horiz-adv-x="717" 
d="M83 695h104v-418q0 -109 48.5 -155t123.5 -46q82 0 126.5 46t44.5 155v418h103v-412q0 -292 -276 -292q-58 0 -105.5 14.5t-86.5 46.5t-60.5 89t-21.5 136v418z" />
    <glyph glyph-name="V" unicode="V" horiz-adv-x="647" 
d="M380 0h-121l-252 695h111l119 -342q65 -187 84 -265h2q14 60 87 262l124 345h106z" />
    <glyph glyph-name="W" unicode="W" horiz-adv-x="939" 
d="M315 0h-109l-185 695h110q20 -89 54.5 -232.5t54.5 -230t25 -121.5h1q11 53 73 281.5t81 302.5h99q132 -497 147 -580h1q10 57 37.5 164t66 246t46.5 170h101l-200 -695h-109q-13 49 -49 185t-61.5 235t-33.5 139h-1q-7 -37 -27 -115t-37.5 -141.5t-47 -169t-37.5 -133.5
z" />
    <glyph glyph-name="X" unicode="X" horiz-adv-x="584" 
d="M588 0h-120l-178 278h-1l-179 -278h-114l234 351l-226 344h120l169 -263h1l173 263h112l-229 -335z" />
    <glyph glyph-name="Y" unicode="Y" horiz-adv-x="596" 
d="M347 0h-104v253q0 11 -5 19l-244 423h118q177 -325 188 -347q29 59 192 347h110l-251 -424q-4 -8 -4 -18v-253z" />
    <glyph glyph-name="Z" unicode="Z" horiz-adv-x="601" 
d="M30 0v78l415 529h-395v88h514v-86l-407 -522h421l-14 -87h-534z" />
    <glyph glyph-name="bracketleft" unicode="[" horiz-adv-x="345" 
d="M307 -173h-223v906h223v-77h-136v-751h136v-78z" />
    <glyph glyph-name="backslash" unicode="\" horiz-adv-x="451" 
d="M322 -51l-279 756h86l279 -756h-86z" />
    <glyph glyph-name="bracketright" unicode="]" horiz-adv-x="345" 
d="M38 733h223v-906h-223v78h137v750h-137v78z" />
    <glyph glyph-name="asciicircum" unicode="^" horiz-adv-x="484" 
d="M449 311h-81l-128 282l-124 -282h-81l169 358h77z" />
    <glyph glyph-name="underscore" unicode="_" horiz-adv-x="531" 
d="M1 -78h530v-51h-530v51z" />
    <glyph glyph-name="grave" unicode="`" 
d="M20 743h121l125 -152h-91z" />
    <glyph glyph-name="a" unicode="a" horiz-adv-x="534" 
d="M460 353v-238q0 -82 7 -115h-93q-5 15 -9 63q-39 -75 -154 -75q-85 0 -128.5 46t-43.5 110q0 84 62.5 125.5t178.5 41.5h84v41q0 94 -103 94q-55 0 -75 -20.5t-28 -57.5h-95q6 66 53 110t148 43q196 0 196 -168zM365 229v16h-78q-148 0 -148 -95q0 -39 25 -63t69 -24
q42 0 69.5 13t40.5 38t17.5 51.5t4.5 63.5z" />
    <glyph glyph-name="b" unicode="b" horiz-adv-x="576" 
d="M73 170v563h98v-293q45 81 159 81q96 0 152 -71t56 -185q0 -120 -58.5 -198.5t-162.5 -78.5q-105 0 -147 76q0 -36 -4 -64h-94q1 57 1 170zM438 263q0 80 -35 128t-98 48q-74 0 -106.5 -47t-32.5 -139q0 -183 136 -183q64 0 100 51.5t36 141.5z" />
    <glyph glyph-name="c" unicode="c" horiz-adv-x="512" 
d="M385 157h97q-18 -74 -69.5 -121.5t-144.5 -47.5q-107 0 -168 71.5t-61 192.5q0 114 63 191.5t173 77.5q53 0 94.5 -17.5t64 -45t34 -55t14.5 -54.5h-97q-20 91 -112 91q-63 0 -98 -50t-35 -135q0 -86 34 -136.5t96 -50.5q85 0 115 89z" />
    <glyph glyph-name="d" unicode="d" horiz-adv-x="577" 
d="M407 733h98v-590q0 -94 1 -143h-95q-4 28 -4 69q-40 -81 -157 -81q-97 0 -154.5 72t-57.5 189q0 120 62 196t167 76q109 0 140 -62v274zM140 252q0 -86 36.5 -134t95.5 -48q42 0 70 14.5t42.5 42.5t20 59.5t5.5 74.5q0 90 -27 134t-104 44q-66 0 -102.5 -49t-36.5 -138z
" />
    <glyph glyph-name="e" unicode="e" horiz-adv-x="529" 
d="M491 236h-354q1 -74 36 -120.5t96 -46.5q51 0 76.5 20t39.5 54h99q-9 -28 -23 -52.5t-38.5 -49t-65 -39t-91.5 -14.5q-113 0 -170.5 76t-57.5 185q0 120 60.5 196t173.5 76q59 0 104 -22t69.5 -58t36 -77t11.5 -86q0 -28 -2 -42zM140 303h254q-1 63 -32 102.5t-91 39.5
q-117 0 -131 -142z" />
    <glyph glyph-name="f" unicode="f" horiz-adv-x="291" 
d="M187 0h-98v431h-80v78h80v58q0 79 36 127.5t115 48.5q40 0 58 -6v-82q-15 4 -42 4q-37 0 -53 -23t-16 -76v-51h100v-78h-100v-431z" />
    <glyph glyph-name="g" unicode="g" horiz-adv-x="573" 
d="M501 362v-313q0 -127 -56.5 -192.5t-181.5 -65.5q-57 0 -99 14.5t-65 39.5t-34.5 50t-15.5 53h100q22 -81 119 -81q79 0 108 45.5t29 138.5v38q-43 -86 -156 -86q-95 0 -153 70t-58 181q0 121 63 194t158 73q64 0 100 -23.5t46 -53.5q2 46 4 65h93q0 -14 -0.5 -67
t-0.5 -80zM140 258q0 -78 36.5 -125t96.5 -47q75 0 105 45.5t30 132.5q0 88 -28.5 131.5t-103.5 43.5q-65 0 -100.5 -49t-35.5 -132z" />
    <glyph glyph-name="h" unicode="h" horiz-adv-x="572" 
d="M73 733h98v-296q50 84 156 84q73 0 122.5 -46.5t49.5 -149.5v-325h-98v309q0 129 -105 129q-125 0 -125 -161v-277h-98v733z" />
    <glyph glyph-name="i" unicode="i" horiz-adv-x="244" 
d="M73 0v509h98v-509h-98zM171 620h-98v113h98v-113z" />
    <glyph glyph-name="j" unicode="j" horiz-adv-x="244" 
d="M73 509h98v-520q0 -109 -31.5 -153.5t-116.5 -44.5q-18 0 -36 2v82q6 -1 18 -1q42 0 55 21.5t13 75.5v538zM171 620h-98v113h98v-113z" />
    <glyph glyph-name="k" unicode="k" horiz-adv-x="515" 
d="M171 733v-461q24 29 109 122t105 115h116l-189 -197l210 -312h-114l-163 249l-74 -72v-177h-98v733h98z" />
    <glyph glyph-name="l" unicode="l" horiz-adv-x="244" 
d="M171 0h-98v733h98v-733z" />
    <glyph glyph-name="m" unicode="m" horiz-adv-x="851" 
d="M73 0v378q0 89 -1 131h94q4 -30 4 -75q47 87 147 87q52 0 88 -24t51 -64q52 88 161 88q70 0 115.5 -45.5t45.5 -141.5v-334h-96v323q0 49 -22 82t-74 33q-57 0 -84.5 -38.5t-27.5 -107.5v-292h-96v319q0 119 -94 119q-56 0 -85 -41.5t-29 -114.5v-282h-97z" />
    <glyph glyph-name="n" unicode="n" horiz-adv-x="571" 
d="M73 0v381q0 89 -1 128h96q4 -30 4 -80q42 92 157 92q77 0 123.5 -49t46.5 -145v-327h-98v315q0 123 -103 123q-126 0 -126 -166v-272h-99z" />
    <glyph glyph-name="o" unicode="o" horiz-adv-x="555" 
d="M281 521q107 0 171.5 -72.5t64.5 -192.5q0 -116 -64 -192t-178 -76q-109 0 -173 74.5t-64 191.5t65 192t178 75zM277 440q-67 0 -102.5 -49t-35.5 -136q0 -83 38 -134.5t102 -51.5q65 0 101.5 50t36.5 135q0 86 -36.5 136t-103.5 50z" />
    <glyph glyph-name="p" unicode="p" horiz-adv-x="575" 
d="M171 -199h-98v584q0 84 -1 124h95q4 -32 4 -77q47 89 162 89q90 0 147 -69t57 -184q0 -132 -63 -206t-159 -74q-103 0 -144 71v-258zM436 264q0 80 -34.5 127.5t-95.5 47.5q-74 0 -107 -46t-33 -138t30.5 -138.5t102.5 -46.5q67 0 102 51t35 143z" />
    <glyph glyph-name="q" unicode="q" horiz-adv-x="575" 
d="M407 -199v269q-43 -82 -157 -82q-91 0 -151.5 69t-60.5 192q0 124 64.5 198t159.5 74q63 0 98.5 -22t46.5 -51q0 23 4 61h93q-1 -51 -1 -140v-568h-96zM140 253q0 -80 34 -131.5t100 -51.5q75 0 105 47.5t30 139.5t-28.5 137t-103.5 45q-66 0 -101.5 -51t-35.5 -135z" />
    <glyph glyph-name="r" unicode="r" horiz-adv-x="360" 
d="M73 0v371q0 38 -0.5 83t-0.5 55h96q3 -21 3 -101q20 51 64 81.5t106 31.5v-97q-170 -3 -170 -182v-242h-98z" />
    <glyph glyph-name="s" unicode="s" horiz-adv-x="481" 
d="M30 147h98q20 -83 119 -83q97 0 97 72q0 34 -23.5 52.5t-91.5 35.5q-106 25 -142.5 60t-36.5 92q0 60 47 102.5t141 42.5t142 -43.5t53 -104.5h-94q-17 74 -105 74q-46 0 -66.5 -18t-20.5 -45q0 -28 22 -43.5t89 -31.5q111 -26 149 -64.5t38 -100.5q0 -69 -52.5 -112.5
t-149.5 -43.5t-150 43t-63 116z" />
    <glyph glyph-name="t" unicode="t" horiz-adv-x="327" 
d="M11 431v78h86v148h98v-148h110v-78h-110v-289q0 -38 12 -54.5t45 -16.5q29 0 42 4v-73q-26 -9 -79 -9q-62 0 -90 31.5t-28 97.5v309h-86z" />
    <glyph glyph-name="u" unicode="u" horiz-adv-x="562" 
d="M489 509v-361q0 -26 0.5 -79.5t0.5 -68.5h-96q-3 20 -3 73q-40 -85 -151 -85q-75 0 -122 44.5t-47 142.5v334h98v-313q0 -124 100 -124q66 0 94 39.5t28 131.5v266h98z" />
    <glyph glyph-name="v" unicode="v" horiz-adv-x="491" 
d="M11 509h105q107 -331 128 -419h1q10 52 136 419h99l-186 -509h-106z" />
    <glyph glyph-name="w" unicode="w" horiz-adv-x="774" 
d="M23 509h104q94 -363 103 -419h1q16 78 112 419h95q98 -367 106 -410h1q19 87 107 410h99l-156 -509h-106q-102 396 -103 403h-1q-8 -50 -106 -403h-109z" />
    <glyph glyph-name="x" unicode="x" horiz-adv-x="461" 
d="M5 509h111q107 -174 114 -184h1q6 10 45.5 72t72.5 112h110l-171 -244l172 -265h-113q-93 153 -118 195h-1q-5 -8 -23 -38t-43 -71.5t-52 -85.5h-109l168 253z" />
    <glyph glyph-name="y" unicode="y" horiz-adv-x="488" 
d="M9 509h106q116 -347 135 -421h1q24 92 129 421h99l-181 -531q-38 -112 -77.5 -149.5t-120.5 -37.5q-26 0 -57 3v84q20 -3 41 -3q46 0 70 23t45 83z" />
    <glyph glyph-name="z" unicode="z" horiz-adv-x="459" 
d="M26 0v78l285 350h-271v81h383v-81l-281 -347h295l-14 -81h-397z" />
    <glyph glyph-name="braceleft" unicode="{" horiz-adv-x="373" 
d="M27 241v80q66 0 87.5 26.5t21.5 83.5v126q0 86 48 131t127 45h23v-73h-15q-92 0 -92 -108v-120q0 -131 -100 -150q53 -11 76.5 -48t23.5 -104v-119q0 -54 25 -83t69 -29h13v-73h-23q-74 0 -124.5 43t-50.5 133v129q0 55 -21 82t-88 28z" />
    <glyph glyph-name="bar" unicode="|" horiz-adv-x="290" 
d="M101 781h88v-1043h-88v1043z" />
    <glyph glyph-name="braceright" unicode="}" horiz-adv-x="373" 
d="M334 319v-80q-66 0 -87.5 -27t-21.5 -84v-126q0 -86 -47.5 -131t-127.5 -45h-23v73h15q92 0 92 108v120q0 131 100 150q-53 12 -76.5 49t-23.5 103v120q0 53 -25 82t-69 29h-13v73h23q74 0 124.5 -43t50.5 -132v-130q0 -55 21 -82t88 -27z" />
    <glyph glyph-name="asciitilde" unicode="~" horiz-adv-x="674" 
d="M161 201h-74v32q-1 70 31.5 102t84.5 32q55 0 145.5 -45t117.5 -45q25 0 36.5 16t11.5 52v18h74v-22q0 -144 -116 -144q-41 0 -92.5 22.5t-97 44.5t-72.5 22q-49 0 -49 -65v-20z" />
    <glyph glyph-name="uni00A0" unicode="&#xa0;" horiz-adv-x="251" 
 />
    <glyph glyph-name="exclamdown" unicode="&#xa1;" horiz-adv-x="255" 
d="M71 271h81l13 -335v-122h-106v122zM64 509h98v-143h-98v143z" />
    <glyph glyph-name="cent" unicode="&#xa2;" horiz-adv-x="537" 
d="M404 232h97q-13 -63 -62.5 -105.5t-126.5 -49.5v-90h-60v91q-93 10 -148 77t-55 170q0 99 54 168t149 81v70h60v-69q92 -7 137.5 -55t51.5 -100h-97q-21 66 -92 75v-338q68 8 92 75zM149 328q0 -66 26.5 -112t76.5 -58v336q-103 -20 -103 -166z" />
    <glyph glyph-name="sterling" unicode="&#xa3;" horiz-adv-x="520" 
d="M489 0h-454v79q76 39 76 195v24h-89v76h85q-2 44 -2 76q0 100 47.5 159.5t142.5 59.5q91 0 135 -50t50 -117h-95q-16 85 -92 85q-49 0 -69 -32.5t-20 -95.5q0 -33 2 -85h148v-76h-146v-17q0 -133 -51 -195h345z" />
    <glyph glyph-name="currency" unicode="&#xa4;" horiz-adv-x="542" 
d="M273 557q68 0 119 -37l69 71l55 -58l-71 -73q28 -48 28 -113q0 -64 -28 -117l71 -73l-55 -58l-69 70q-51 -37 -120 -37q-67 0 -119 38l-67 -71l-55 58l70 71q-29 53 -29 117t30 116l-71 72l55 58l69 -71q49 36 118 37zM272 481q-56 0 -87 -37t-31 -98q0 -68 34.5 -103.5
t83.5 -35.5q53 0 85 34t32 105q0 61 -30 98t-87 37z" />
    <glyph glyph-name="yen" unicode="&#xa5;" horiz-adv-x="485" 
d="M420 162h-132v-162h-98v162h-130v65h130v62h-130v65h115l-179 304h111q126 -228 137 -258h1q12 27 139 258h103l-183 -304h116v-65h-132v-62h132v-65z" />
    <glyph glyph-name="brokenbar" unicode="&#xa6;" horiz-adv-x="238" 
d="M81 179h83v-358h-83v358zM81 689h83v-356h-83v356z" />
    <glyph glyph-name="section" unicode="&#xa7;" horiz-adv-x="567" 
d="M485 532h-93q-22 80 -112 80q-99 0 -99 -80q0 -39 30 -59.5t112 -52.5q100 -41 145 -86.5t45 -117.5q0 -90 -74 -147q39 -35 39 -104q0 -79 -55.5 -124.5t-152.5 -45.5q-98 0 -155.5 44t-68.5 122h97q22 -90 130 -90q110 0 110 86q0 41 -29.5 66t-121.5 57
q-107 39 -149 82.5t-42 112.5q0 45 24 84t63 63q-40 37 -40 100q0 72 52 118.5t145 46.5q54 0 94 -15.5t61.5 -40.5t32 -49.5t12.5 -49.5zM131 290q0 -38 23.5 -64.5t96.5 -53.5q94 -35 129 -57q41 31 41 86q0 43 -25 71.5t-96 59.5q-66 27 -112 50q-57 -37 -57 -92z" />
    <glyph glyph-name="dieresis" unicode="&#xa8;" 
d="M149 620h-84v113h84v-113zM334 620h-83v113h83v-113z" />
    <glyph glyph-name="copyright" unicode="&#xa9;" horiz-adv-x="789" 
d="M492 279l68 1q-15 -61 -56.5 -96.5t-108.5 -35.5q-80 0 -130.5 55.5t-50.5 144.5q0 87 50 145t132 58q74 0 116 -39.5t49 -93.5h-69q-19 73 -96 73q-49 0 -79.5 -36.5t-30.5 -103.5q0 -66 30.5 -103.5t79.5 -37.5q71 0 96 69zM391 704q147 0 244 -100.5t97 -255.5
t-97 -256.5t-244 -101.5q-150 0 -247 99.5t-97 258.5q0 153 98.5 254.5t245.5 101.5zM390 650q-123 0 -203.5 -82.5t-80.5 -222.5q0 -129 81 -214.5t203 -85.5q123 0 203 82.5t80 220.5q0 132 -80 217t-203 85z" />
    <glyph glyph-name="ordfeminine" unicode="&#xaa;" horiz-adv-x="357" 
d="M310 488v-151q0 -39 2 -77h-72q-1 7 -2 24t-1 20q-29 -48 -101 -48q-54 0 -84 29t-30 74q0 109 152 109h60v24q0 57 -61 57q-53 0 -62 -50h-74q12 103 139 103q134 0 134 -114zM237 408v9h-57q-81 0 -81 -50q0 -51 60 -51q39 0 58.5 24.5t19.5 67.5z" />
    <glyph glyph-name="guillemotleft" unicode="&#xab;" horiz-adv-x="557" 
d="M299 454l-149 -194l150 -196h-91l-153 196l153 194h90zM500 454l-151 -194l152 -196h-93l-152 196l152 194h92z" />
    <glyph glyph-name="logicalnot" unicode="&#xac;" horiz-adv-x="713" 
d="M76 408h549v-326h-87v240h-462v86z" />
    <glyph glyph-name="uni00AD" unicode="&#xad;" horiz-adv-x="379" 
d="M57 300h265v-88h-265v88z" />
    <glyph glyph-name="registered" unicode="&#xae;" horiz-adv-x="352" 
d="M160 454h-42v167h73q67 0 67 -48q0 -30 -28 -39q23 -8 23 -44q0 -24 2 -36h-42q-4 12 -4 35q0 16 -5.5 22.5t-21.5 6.5h-22v-64zM161 591v-42h26q26 0 26 22q0 20 -26 20h-26zM185 705q72 0 118 -49.5t46 -120.5q0 -74 -45.5 -122.5t-118.5 -48.5q-71 0 -118 49t-47 122
q0 72 46.5 121t118.5 49zM185 670q-60 0 -93.5 -39.5t-33.5 -96.5q0 -56 36.5 -95t90.5 -39q60 0 92.5 37t32.5 97q0 59 -34.5 97.5t-90.5 38.5z" />
    <glyph glyph-name="macron" unicode="&#xaf;" 
d="M59 701h282v-77h-282v77z" />
    <glyph glyph-name="degree" unicode="&#xb0;" horiz-adv-x="328" 
d="M168 684q62 0 99.5 -39t37.5 -96q0 -62 -40.5 -100.5t-98.5 -38.5q-60 0 -97.5 38t-37.5 97q0 60 39 99.5t98 39.5zM167 633q-36 0 -56 -25t-20 -62q0 -36 21 -60t55 -24q36 0 57 24t21 62q0 34 -20.5 59.5t-57.5 25.5z" />
    <glyph glyph-name="plusminus" unicode="&#xb1;" horiz-adv-x="713" 
d="M317 672h80v-221h234v-78h-234v-224h-80v224h-235v78h235v221zM632 0h-550v79h550v-79z" />
    <glyph glyph-name="two.sups" unicode="&#xb2;" horiz-adv-x="365" 
d="M332 429h-295v5q0 109 128 188q51 30 66 45.5t15 39.5q0 27 -16.5 43.5t-47.5 16.5q-61 0 -73 -69l-75 1q5 59 46 95.5t105 36.5q73 0 107.5 -37.5t34.5 -83.5t-23 -72t-82 -59q-79 -47 -93 -87h215z" />
    <glyph glyph-name="three.sups" unicode="&#xb3;" horiz-adv-x="375" 
d="M148 605v66h32q65 0 65 46q0 23 -15.5 38t-49.5 15q-57 0 -72 -55h-72q2 17 9 34t22.5 36.5t45.5 32t70 12.5q68 0 104 -31t36 -78q0 -31 -17 -51t-40 -28q30 -9 52 -33.5t22 -61.5q0 -51 -37.5 -87t-117.5 -36q-44 0 -76 13t-48 33.5t-23.5 38.5t-9.5 36h75
q6 -26 28 -43.5t55 -17.5q35 0 54 17t19 45q0 59 -74 59h-37z" />
    <glyph glyph-name="acute" unicode="&#xb4;" 
d="M261 743h120l-155 -152h-91z" />
    <glyph glyph-name="uni00B5" unicode="&#xb5;" horiz-adv-x="558" 
d="M249 -10q-54 0 -86 39q3 -81 5 -233h-97v104v164v111v334h98v-314q0 -122 97 -122q57 0 89.5 38.5t32.5 119.5v278h98v-361q0 -123 2 -148h-95q-5 28 -5 76q-41 -86 -139 -86z" />
    <glyph glyph-name="paragraph" unicode="&#xb6;" horiz-adv-x="608" 
d="M484 -156h-75v293h-124q-117 -1 -179 66t-62 187q0 117 61 184t177 67h127q3 49 4 57h72q-1 -19 -1 -80v-774zM361 216h47v351h-46q-23 0 -39.5 -9.5t-25.5 -23.5t-14 -39t-6.5 -45t-2.5 -53q0 -30 0.5 -42.5t2.5 -39.5t7.5 -40t14.5 -29.5t25 -23t37 -6.5z" />
    <glyph glyph-name="periodcentered" unicode="&#xb7;" horiz-adv-x="212" 
d="M158 200h-104v153h104v-153z" />
    <glyph glyph-name="cedilla" unicode="&#xb8;" 
d="M184 10l67 -10l-41 -50q95 -19 95 -94q0 -38 -21.5 -61.5t-48 -30.5t-57.5 -7q-47 0 -73 12v63q27 -10 63 -10q52 0 52 33q0 41 -100 43v29z" />
    <glyph glyph-name="one.sups" unicode="&#xb9;" horiz-adv-x="252" 
d="M184 428h-80v306q-36 -18 -81 -18v60q62 10 107 55h54v-403z" />
    <glyph glyph-name="ordmasculine" unicode="&#xba;" horiz-adv-x="382" 
d="M193 602q75 0 118.5 -47t43.5 -126q-1 -83 -47 -128t-120 -45q-72 0 -116.5 47t-44.5 125q0 80 46.5 127t119.5 47zM190 544q-41 0 -63.5 -30.5t-22.5 -84.5q0 -52 23.5 -83.5t62.5 -31.5q88 0 88 115q-2 54 -24 84.5t-64 30.5z" />
    <glyph glyph-name="guillemotright" unicode="&#xbb;" horiz-adv-x="557" 
d="M257 64l150 194l-150 196h91l153 -196l-153 -194h-91zM56 64l152 194l-152 196h93l151 -196l-151 -194h-93z" />
    <glyph glyph-name="onequarter" unicode="&#xbc;" horiz-adv-x="787" 
d="M186 1h-75l429 658h74zM194 261h-80v306q-36 -18 -81 -18v60q62 10 107 55h54v-403zM698 0h-74v101h-197v60l177 234h94v-234h60l-6 -60h-54v-101zM503 161h121v76q0 59 3 95q-7 -12 -29 -42.5t-51.5 -69.5t-43.5 -59z" />
    <glyph glyph-name="onehalf" unicode="&#xbd;" horiz-adv-x="821" 
d="M184 0h-75l429 658h74zM197 261h-80v306q-36 -18 -81 -18v60q62 10 107 55h54v-403zM778 0h-295v5q0 109 128 188q51 30 66 45.5t15 39.5q0 27 -16.5 43.5t-47.5 16.5q-61 0 -73 -69l-75 1q5 59 46 95.5t105 36.5q73 0 107.5 -37.5t34.5 -83.5t-23 -72t-82 -59
q-79 -47 -93 -87h215z" />
    <glyph glyph-name="threequarters" unicode="&#xbe;" horiz-adv-x="871" 
d="M295 1h-75l429 658h74zM788 0h-74v101h-197v60l177 234h94v-234h60l-6 -60h-54v-101zM593 161h121v76q0 59 3 95q-7 -12 -29 -42.5t-51.5 -69.5t-43.5 -59zM162 438v66h32q65 0 65 46q0 23 -15.5 38t-49.5 15q-57 0 -72 -55h-72q2 17 9 34t22.5 36.5t45.5 32t70 12.5
q68 0 104 -31t36 -78q0 -31 -17 -51t-40 -28q30 -9 52 -33.5t22 -61.5q0 -51 -37.5 -87t-117.5 -36q-44 0 -76 13t-48 33.5t-23.5 38.5t-9.5 36h75q6 -26 28 -43.5t55 -17.5q35 0 54 17t19 45q0 59 -74 59h-37z" />
    <glyph glyph-name="questiondown" unicode="&#xbf;" horiz-adv-x="453" 
d="M23 -19q0 53 20.5 94.5t73.5 89.5q36 33 50.5 60.5t14.5 62.5v9h102v-17q0 -44 -20.5 -83t-75.5 -89q-40 -36 -54 -64.5t-14 -61.5q0 -40 27 -69.5t77 -29.5q105 0 119 116h88q-1 -34 -11.5 -66t-33 -62t-65.5 -48.5t-102 -18.5q-97 0 -146.5 52t-49.5 125zM182 509h102
v-143h-102v143z" />
    <glyph glyph-name="Agrave" unicode="&#xc0;" horiz-adv-x="665" 
d="M464 199h-273l-70 -199h-103l245 695h128l256 -695h-110zM217 287h222q-103 285 -114 326h-1q-9 -33 -107 -326zM117 894h128l134 -138h-97z" />
    <glyph glyph-name="Aacute" unicode="&#xc1;" horiz-adv-x="665" 
d="M464 199h-273l-70 -199h-103l245 695h128l256 -695h-110zM217 287h222q-103 285 -114 326h-1q-9 -33 -107 -326zM419 894h127l-173 -138h-99z" />
    <glyph glyph-name="Acircumflex" unicode="&#xc2;" horiz-adv-x="665" 
d="M464 199h-273l-70 -199h-103l245 695h128l256 -695h-110zM217 287h222q-103 285 -114 326h-1q-9 -33 -107 -326zM279 888h101l130 -132h-100l-81 80l-85 -80h-100z" />
    <glyph glyph-name="Atilde" unicode="&#xc3;" horiz-adv-x="665" 
d="M464 199h-273l-70 -199h-103l245 695h128l256 -695h-110zM217 287h222q-103 285 -114 326h-1q-9 -33 -107 -326zM224 764h-69v25q0 99 87 99q35 0 90 -25.5t70 -25.5q30 0 30 42v10h67v-21q0 -58 -22 -82.5t-66 -24.5q-31 0 -86 26t-73 26q-28 0 -28 -32v-17z" />
    <glyph glyph-name="Adieresis" unicode="&#xc4;" horiz-adv-x="665" 
d="M464 199h-273l-70 -199h-103l245 695h128l256 -695h-110zM217 287h222q-103 285 -114 326h-1q-9 -33 -107 -326zM271 768h-84v113h84v-113zM467 768h-83v113h83v-113z" />
    <glyph glyph-name="Aring" unicode="&#xc5;" horiz-adv-x="665" 
d="M464 199h-273l-70 -199h-103l245 695h128l256 -695h-110zM217 287h222q-103 285 -114 326h-1q-9 -33 -107 -326zM327 732q-50 0 -79.5 28t-29.5 70t29.5 70.5t79.5 28.5t79.5 -28t29.5 -70q0 -43 -30 -71t-79 -28zM327 780q24 0 37.5 14.5t13.5 35.5t-13 36.5t-38 15.5
t-38 -14.5t-13 -35.5q0 -22 13 -37t38 -15z" />
    <glyph glyph-name="AE" unicode="&#xc6;" horiz-adv-x="972" 
d="M405 695h516v-89h-359v-198h343v-88h-343v-232h377l-13 -88h-465v229h-232l-141 -229h-111zM277 317h184v298h-3z" />
    <glyph glyph-name="Ccedilla" unicode="&#xc7;" horiz-adv-x="691" 
d="M544 200h103q-21 -85 -80.5 -140t-154.5 -67l-36 -43q95 -19 95 -94q0 -38 -21.5 -61.5t-48 -30.5t-57.5 -7q-47 0 -73 12v63q27 -10 63 -10q52 0 52 33q0 41 -100 43v29l50 65q-137 11 -210.5 109t-73.5 244q0 98 34 177.5t108 131t177 51.5q120 0 190.5 -60t85.5 -153
h-103q-41 128 -177 128q-104 0 -155.5 -79t-51.5 -193q0 -52 11.5 -99t35.5 -86.5t66 -63t98 -23.5q125 0 173 124z" />
    <glyph glyph-name="Egrave" unicode="&#xc8;" horiz-adv-x="601" 
d="M534 407v-87h-343v-233h377l-13 -87h-465v695h460v-88h-359v-200h343zM124 903h128l134 -138h-97z" />
    <glyph glyph-name="Eacute" unicode="&#xc9;" horiz-adv-x="601" 
d="M534 407v-87h-343v-233h377l-13 -87h-465v695h460v-88h-359v-200h343zM404 901h127l-173 -138h-99z" />
    <glyph glyph-name="Ecircumflex" unicode="&#xca;" horiz-adv-x="601" 
d="M534 407v-87h-343v-233h377l-13 -87h-465v695h460v-88h-359v-200h343zM272 893h101l130 -132h-100l-81 80l-85 -80h-100z" />
    <glyph glyph-name="Edieresis" unicode="&#xcb;" horiz-adv-x="601" 
d="M534 407v-87h-343v-233h377l-13 -87h-465v695h460v-88h-359v-200h343zM265 772h-84v113h84v-113zM461 772h-83v113h83v-113z" />
    <glyph glyph-name="Igrave" unicode="&#xcc;" horiz-adv-x="283" 
d="M90 695h103v-695h-103v695zM-67 897h128l134 -138h-97z" />
    <glyph glyph-name="Iacute" unicode="&#xcd;" horiz-adv-x="283" 
d="M90 695h103v-695h-103v695zM234 894h127l-173 -138h-99z" />
    <glyph glyph-name="Icircumflex" unicode="&#xce;" horiz-adv-x="283" 
d="M90 695h103v-695h-103v695zM93 888h101l130 -132h-100l-81 80l-85 -80h-100z" />
    <glyph glyph-name="Idieresis" unicode="&#xcf;" horiz-adv-x="283" 
d="M90 695h103v-695h-103v695zM85 768h-84v113h84v-113zM281 768h-83v113h83v-113z" />
    <glyph glyph-name="Eth" unicode="&#xd0;" horiz-adv-x="733" 
d="M18 395h82v300h253q148 0 238.5 -93t90.5 -247q0 -156 -91 -255.5t-242 -99.5h-249v319h-82v76zM203 608v-213h173v-76h-173v-233h139q114 0 173 73.5t59 193.5q0 109 -58 182t-173 73h-140z" />
    <glyph glyph-name="Ntilde" unicode="&#xd1;" horiz-adv-x="746" 
d="M187 0h-97v695h134q30 -50 116.5 -192.5t147 -243.5t77.5 -134h1q-6 74 -6 311v259h96v-695h-126q-292 486 -347 589h-2q6 -91 6 -324v-265zM270 764h-69v25q0 99 87 99q35 0 90 -25.5t70 -25.5q30 0 30 42v10h67v-21q0 -58 -22 -82.5t-66 -24.5q-31 0 -86 26t-73 26
q-28 0 -28 -32v-17z" />
    <glyph glyph-name="Ograve" unicode="&#xd2;" horiz-adv-x="754" 
d="M381 705q146 0 233.5 -98t87.5 -256q0 -153 -86 -257t-243 -104q-150 0 -235.5 101t-85.5 256t87.5 256.5t241.5 101.5zM377 618q-108 0 -162.5 -75.5t-54.5 -192.5t57 -195t160 -78q75 0 125 39t71 98.5t21 134.5q0 117 -55.5 193t-161.5 76zM179 907h128l134 -138h-97z
" />
    <glyph glyph-name="Oacute" unicode="&#xd3;" horiz-adv-x="754" 
d="M381 705q146 0 233.5 -98t87.5 -256q0 -153 -86 -257t-243 -104q-150 0 -235.5 101t-85.5 256t87.5 256.5t241.5 101.5zM377 618q-108 0 -162.5 -75.5t-54.5 -192.5t57 -195t160 -78q75 0 125 39t71 98.5t21 134.5q0 117 -55.5 193t-161.5 76zM463 901h127l-173 -138h-99
z" />
    <glyph glyph-name="Ocircumflex" unicode="&#xd4;" horiz-adv-x="754" 
d="M381 705q146 0 233.5 -98t87.5 -256q0 -153 -86 -257t-243 -104q-150 0 -235.5 101t-85.5 256t87.5 256.5t241.5 101.5zM377 618q-108 0 -162.5 -75.5t-54.5 -192.5t57 -195t160 -78q75 0 125 39t71 98.5t21 134.5q0 117 -55.5 193t-161.5 76zM329 891h101l130 -132h-100
l-81 80l-85 -80h-100z" />
    <glyph glyph-name="Otilde" unicode="&#xd5;" horiz-adv-x="754" 
d="M381 705q146 0 233.5 -98t87.5 -256q0 -153 -86 -257t-243 -104q-150 0 -235.5 101t-85.5 256t87.5 256.5t241.5 101.5zM377 618q-108 0 -162.5 -75.5t-54.5 -192.5t57 -195t160 -78q75 0 125 39t71 98.5t21 134.5q0 117 -55.5 193t-161.5 76zM274 768h-69v25q0 99 87 99
q35 0 90 -25.5t70 -25.5q30 0 30 42v10h67v-21q0 -58 -22 -82.5t-66 -24.5q-31 0 -86 26t-73 26q-28 0 -28 -32v-17z" />
    <glyph glyph-name="Odieresis" unicode="&#xd6;" horiz-adv-x="754" 
d="M381 705q146 0 233.5 -98t87.5 -256q0 -153 -86 -257t-243 -104q-150 0 -235.5 101t-85.5 256t87.5 256.5t241.5 101.5zM377 618q-108 0 -162.5 -75.5t-54.5 -192.5t57 -195t160 -78q75 0 125 39t71 98.5t21 134.5q0 117 -55.5 193t-161.5 76zM321 772h-84v113h84v-113z
M517 772h-83v113h83v-113z" />
    <glyph glyph-name="multiply" unicode="&#xd7;" horiz-adv-x="713" 
d="M628 60l-57 -60l-214 223l-214 -223l-57 60l214 222l-214 224l56 58l215 -223l215 223l56 -58l-214 -224z" />
    <glyph glyph-name="Oslash" unicode="&#xd8;" horiz-adv-x="754" 
d="M381 705q95 0 171 -46l26 36h75l-53 -74q104 -99 104 -270q0 -101 -35.5 -181t-111.5 -130t-184 -50q-106 0 -184 56l-33 -46h-75l62 87q-91 99 -91 260q0 153 89 255.5t240 102.5zM156 350q0 -104 48 -179l295 414q-51 35 -122 35q-105 0 -163 -74.5t-58 -195.5zM377 75
q111 0 166 77t55 197t-55 193l-299 -419q56 -48 133 -48z" />
    <glyph glyph-name="Ugrave" unicode="&#xd9;" horiz-adv-x="717" 
d="M83 695h104v-418q0 -109 48.5 -155t123.5 -46q82 0 126.5 46t44.5 155v418h103v-412q0 -292 -276 -292q-58 0 -105.5 14.5t-86.5 46.5t-60.5 89t-21.5 136v418zM161 894h128l134 -138h-97z" />
    <glyph glyph-name="Uacute" unicode="&#xda;" horiz-adv-x="717" 
d="M83 695h104v-418q0 -109 48.5 -155t123.5 -46q82 0 126.5 46t44.5 155v418h103v-412q0 -292 -276 -292q-58 0 -105.5 14.5t-86.5 46.5t-60.5 89t-21.5 136v418zM442 894h127l-173 -138h-99z" />
    <glyph glyph-name="Ucircumflex" unicode="&#xdb;" horiz-adv-x="717" 
d="M83 695h104v-418q0 -109 48.5 -155t123.5 -46q82 0 126.5 46t44.5 155v418h103v-412q0 -292 -276 -292q-58 0 -105.5 14.5t-86.5 46.5t-60.5 89t-21.5 136v418zM310 895h101l130 -132h-100l-81 80l-85 -80h-100z" />
    <glyph glyph-name="Udieresis" unicode="&#xdc;" horiz-adv-x="717" 
d="M83 695h104v-418q0 -109 48.5 -155t123.5 -46q82 0 126.5 46t44.5 155v418h103v-412q0 -292 -276 -292q-58 0 -105.5 14.5t-86.5 46.5t-60.5 89t-21.5 136v418zM302 768h-84v113h84v-113zM498 768h-83v113h83v-113z" />
    <glyph glyph-name="Yacute" unicode="&#xdd;" horiz-adv-x="596" 
d="M347 0h-104v253q0 11 -5 19l-244 423h118q177 -325 188 -347q29 59 192 347h110l-251 -424q-4 -8 -4 -18v-253zM384 891h127l-173 -138h-99z" />
    <glyph glyph-name="Thorn" unicode="&#xde;" horiz-adv-x="634" 
d="M90 0v695h103v-135h156q116 0 176 -56.5t60 -145.5q0 -99 -65 -154.5t-179 -55.5h-148v-148h-103zM193 474v-240h143q146 0 146 122q0 58 -37.5 88t-105.5 30h-146z" />
    <glyph glyph-name="germandbls" unicode="&#xdf;" horiz-adv-x="594" 
d="M304 744q113 0 169.5 -56t58.5 -133q0 -22 -1 -33l-166 -113v-1l77 -54q67 -48 93 -90t26 -96q0 -79 -51.5 -128t-141.5 -49q-99 0 -152 46v95q61 -62 148 -62q52 0 76 26t24 62q0 33 -17.5 59.5t-63.5 59.5l-89 63q-38 27 -38 58t39 58l137 95q1 43 -28.5 78t-101.5 35
q-63 0 -97.5 -31.5t-34.5 -108.5v-524h-98v530q0 111 63 162.5t169 51.5z" />
    <glyph glyph-name="agrave" unicode="&#xe0;" horiz-adv-x="534" 
d="M460 353v-238q0 -82 7 -115h-93q-5 15 -9 63q-39 -75 -154 -75q-85 0 -128.5 46t-43.5 110q0 84 62.5 125.5t178.5 41.5h84v41q0 94 -103 94q-55 0 -75 -20.5t-28 -57.5h-95q6 66 53 110t148 43q196 0 196 -168zM365 229v16h-78q-148 0 -148 -95q0 -39 25 -63t69 -24
q42 0 69.5 13t40.5 38t17.5 51.5t4.5 63.5zM81 743h121l125 -152h-91z" />
    <glyph glyph-name="aacute" unicode="&#xe1;" horiz-adv-x="534" 
d="M460 353v-238q0 -82 7 -115h-93q-5 15 -9 63q-39 -75 -154 -75q-85 0 -128.5 46t-43.5 110q0 84 62.5 125.5t178.5 41.5h84v41q0 94 -103 94q-55 0 -75 -20.5t-28 -57.5h-95q6 66 53 110t148 43q196 0 196 -168zM365 229v16h-78q-148 0 -148 -95q0 -39 25 -63t69 -24
q42 0 69.5 13t40.5 38t17.5 51.5t4.5 63.5zM329 743h120l-155 -152h-91z" />
    <glyph glyph-name="acircumflex" unicode="&#xe2;" horiz-adv-x="534" 
d="M460 353v-238q0 -82 7 -115h-93q-5 15 -9 63q-39 -75 -154 -75q-85 0 -128.5 46t-43.5 110q0 84 62.5 125.5t178.5 41.5h84v41q0 94 -103 94q-55 0 -75 -20.5t-28 -57.5h-95q6 66 53 110t148 43q196 0 196 -168zM365 229v16h-78q-148 0 -148 -95q0 -39 25 -63t69 -24
q42 0 69.5 13t40.5 38t17.5 51.5t4.5 63.5zM222 733h91l112 -151h-94l-64 96l-63 -96h-93z" />
    <glyph glyph-name="atilde" unicode="&#xe3;" horiz-adv-x="534" 
d="M460 353v-238q0 -82 7 -115h-93q-5 15 -9 63q-39 -75 -154 -75q-85 0 -128.5 46t-43.5 110q0 84 62.5 125.5t178.5 41.5h84v41q0 94 -103 94q-55 0 -75 -20.5t-28 -57.5h-95q6 66 53 110t148 43q196 0 196 -168zM365 229v16h-78q-148 0 -148 -95q0 -39 25 -63t69 -24
q42 0 69.5 13t40.5 38t17.5 51.5t4.5 63.5zM177 602h-68v25q0 99 84 99q31 0 77.5 -24t61.5 -24q28 0 28 40v10h66v-22q0 -105 -86 -105q-31 0 -75 24t-62 24q-26 0 -26 -31v-16z" />
    <glyph glyph-name="adieresis" unicode="&#xe4;" horiz-adv-x="534" 
d="M460 353v-238q0 -82 7 -115h-93q-5 15 -9 63q-39 -75 -154 -75q-85 0 -128.5 46t-43.5 110q0 84 62.5 125.5t178.5 41.5h84v41q0 94 -103 94q-55 0 -75 -20.5t-28 -57.5h-95q6 66 53 110t148 43q196 0 196 -168zM365 229v16h-78q-148 0 -148 -95q0 -39 25 -63t69 -24
q42 0 69.5 13t40.5 38t17.5 51.5t4.5 63.5zM217 620h-84v113h84v-113zM402 620h-83v113h83v-113z" />
    <glyph glyph-name="aring" unicode="&#xe5;" horiz-adv-x="534" 
d="M460 353v-238q0 -82 7 -115h-93q-5 15 -9 63q-39 -75 -154 -75q-85 0 -128.5 46t-43.5 110q0 84 62.5 125.5t178.5 41.5h84v41q0 94 -103 94q-55 0 -75 -20.5t-28 -57.5h-95q6 66 53 110t148 43q196 0 196 -168zM365 229v16h-78q-148 0 -148 -95q0 -39 25 -63t69 -24
q42 0 69.5 13t40.5 38t17.5 51.5t4.5 63.5zM268 567q-50 0 -79.5 28t-29.5 70t29.5 70.5t79.5 28.5t79.5 -28t29.5 -70q0 -43 -30 -71t-79 -28zM268 615q24 0 37.5 14.5t13.5 35.5t-13 36.5t-38 15.5t-38 -14.5t-13 -35.5q0 -22 13 -37t38 -15z" />
    <glyph glyph-name="ae" unicode="&#xe6;" horiz-adv-x="854" 
d="M714 145h98q-44 -155 -220 -155q-134 0 -188 96q-55 -96 -186 -96q-86 0 -132.5 45t-46.5 110q0 51 24 85t67 49.5t85.5 21.5t97.5 6h55v42q0 98 -97 98q-49 0 -72.5 -20.5t-29.5 -59.5h-104q6 72 57.5 112t141.5 40q134 0 168 -77q56 77 170 77q107 0 161.5 -68.5
t54.5 -163.5q0 -8 -0.5 -24.5t-0.5 -23.5h-356q-1 -79 35.5 -125.5t99.5 -46.5q49 0 76 19.5t42 58.5zM368 228v11h-60q-84 0 -127 -19t-43 -70q0 -34 27 -58t71 -24q72 0 102 40.5t30 119.5zM463 307h258q-2 61 -32.5 98t-91.5 38q-59 1 -93.5 -34.5t-40.5 -101.5z" />
    <glyph glyph-name="ccedilla" unicode="&#xe7;" horiz-adv-x="512" 
d="M385 157h97q-34 -143 -166 -165l-34 -42q95 -19 95 -94q0 -38 -21.5 -61.5t-48 -30.5t-57.5 -7q-47 0 -73 12v63q27 -10 63 -10q52 0 52 33q0 41 -100 43v29l48 62q-94 10 -147.5 80t-53.5 183q0 114 63 191.5t173 77.5q53 0 94.5 -17.5t64 -45t34 -55t14.5 -54.5h-97
q-20 91 -112 91q-63 0 -98 -50t-35 -135q0 -86 34 -136.5t96 -50.5q85 0 115 89z" />
    <glyph glyph-name="egrave" unicode="&#xe8;" horiz-adv-x="529" 
d="M491 236h-354q1 -74 36 -120.5t96 -46.5q51 0 76.5 20t39.5 54h99q-9 -28 -23 -52.5t-38.5 -49t-65 -39t-91.5 -14.5q-113 0 -170.5 76t-57.5 185q0 120 60.5 196t173.5 76q59 0 104 -22t69.5 -58t36 -77t11.5 -86q0 -28 -2 -42zM140 303h254q-1 63 -32 102.5t-91 39.5
q-117 0 -131 -142zM85 743h121l125 -152h-91z" />
    <glyph glyph-name="eacute" unicode="&#xe9;" horiz-adv-x="529" 
d="M491 236h-354q1 -74 36 -120.5t96 -46.5q51 0 76.5 20t39.5 54h99q-9 -28 -23 -52.5t-38.5 -49t-65 -39t-91.5 -14.5q-113 0 -170.5 76t-57.5 185q0 120 60.5 196t173.5 76q59 0 104 -22t69.5 -58t36 -77t11.5 -86q0 -28 -2 -42zM140 303h254q-1 63 -32 102.5t-91 39.5
q-117 0 -131 -142zM332 743h120l-155 -152h-91z" />
    <glyph glyph-name="ecircumflex" unicode="&#xea;" horiz-adv-x="529" 
d="M491 236h-354q1 -74 36 -120.5t96 -46.5q51 0 76.5 20t39.5 54h99q-9 -28 -23 -52.5t-38.5 -49t-65 -39t-91.5 -14.5q-113 0 -170.5 76t-57.5 185q0 120 60.5 196t173.5 76q59 0 104 -22t69.5 -58t36 -77t11.5 -86q0 -28 -2 -42zM140 303h254q-1 63 -32 102.5t-91 39.5
q-117 0 -131 -142zM229 733h91l112 -151h-94l-64 96l-63 -96h-93z" />
    <glyph glyph-name="edieresis" unicode="&#xeb;" horiz-adv-x="529" 
d="M491 236h-354q1 -74 36 -120.5t96 -46.5q51 0 76.5 20t39.5 54h99q-9 -28 -23 -52.5t-38.5 -49t-65 -39t-91.5 -14.5q-113 0 -170.5 76t-57.5 185q0 120 60.5 196t173.5 76q59 0 104 -22t69.5 -58t36 -77t11.5 -86q0 -28 -2 -42zM140 303h254q-1 63 -32 102.5t-91 39.5
q-117 0 -131 -142zM218 620h-84v113h84v-113zM403 620h-83v113h83v-113z" />
    <glyph glyph-name="igrave" unicode="&#xec;" horiz-adv-x="244" 
d="M73 0v509h98v-509h-98zM-77 743h121l125 -152h-91z" />
    <glyph glyph-name="iacute" unicode="&#xed;" horiz-adv-x="244" 
d="M73 0v509h98v-509h-98zM199 743h120l-155 -152h-91z" />
    <glyph glyph-name="icircumflex" unicode="&#xee;" horiz-adv-x="244" 
d="M73 0v509h98v-509h-98zM76 733h91l112 -151h-94l-64 96l-63 -96h-93z" />
    <glyph glyph-name="idieresis" unicode="&#xef;" horiz-adv-x="244" 
d="M73 0v509h98v-509h-98zM71 620h-84v113h84v-113zM256 620h-83v113h83v-113z" />
    <glyph glyph-name="eth" unicode="&#xf0;" horiz-adv-x="544" 
d="M103 668v76q107 -13 194 -62l107 74l29 -49l-86 -59q158 -123 158 -358q0 -151 -66 -226.5t-174 -75.5q-107 0 -168 73t-61 186q0 116 67 184.5t171 68.5q58 0 100 -30q-32 78 -100 128l-124 -85l-30 48l101 69q-53 25 -118 38zM275 419q-65 0 -102.5 -49.5t-37.5 -126.5
q0 -73 36 -123.5t99 -50.5q68 0 102 55.5t34 151.5q0 64 -31 103.5t-100 39.5z" />
    <glyph glyph-name="ntilde" unicode="&#xf1;" horiz-adv-x="571" 
d="M73 0v381q0 89 -1 128h96q4 -30 4 -80q42 92 157 92q77 0 123.5 -49t46.5 -145v-327h-98v315q0 123 -103 123q-126 0 -126 -166v-272h-99zM192 606h-68v25q0 99 84 99q31 0 77.5 -24t61.5 -24q28 0 28 40v10h66v-22q0 -105 -86 -105q-31 0 -75 24t-62 24q-26 0 -26 -31
v-16z" />
    <glyph glyph-name="ograve" unicode="&#xf2;" horiz-adv-x="555" 
d="M281 521q107 0 171.5 -72.5t64.5 -192.5q0 -116 -64 -192t-178 -76q-109 0 -173 74.5t-64 191.5t65 192t178 75zM277 440q-67 0 -102.5 -49t-35.5 -136q0 -83 38 -134.5t102 -51.5q65 0 101.5 50t36.5 135q0 86 -36.5 136t-103.5 50zM92 743h121l125 -152h-91z" />
    <glyph glyph-name="oacute" unicode="&#xf3;" horiz-adv-x="555" 
d="M281 521q107 0 171.5 -72.5t64.5 -192.5q0 -116 -64 -192t-178 -76q-109 0 -173 74.5t-64 191.5t65 192t178 75zM277 440q-67 0 -102.5 -49t-35.5 -136q0 -83 38 -134.5t102 -51.5q65 0 101.5 50t36.5 135q0 86 -36.5 136t-103.5 50zM340 743h120l-155 -152h-91z" />
    <glyph glyph-name="ocircumflex" unicode="&#xf4;" horiz-adv-x="555" 
d="M281 521q107 0 171.5 -72.5t64.5 -192.5q0 -116 -64 -192t-178 -76q-109 0 -173 74.5t-64 191.5t65 192t178 75zM277 440q-67 0 -102.5 -49t-35.5 -136q0 -83 38 -134.5t102 -51.5q65 0 101.5 50t36.5 135q0 86 -36.5 136t-103.5 50zM231 733h91l112 -151h-94l-64 96
l-63 -96h-93z" />
    <glyph glyph-name="otilde" unicode="&#xf5;" horiz-adv-x="555" 
d="M281 521q107 0 171.5 -72.5t64.5 -192.5q0 -116 -64 -192t-178 -76q-109 0 -173 74.5t-64 191.5t65 192t178 75zM277 440q-67 0 -102.5 -49t-35.5 -136q0 -83 38 -134.5t102 -51.5q65 0 101.5 50t36.5 135q0 86 -36.5 136t-103.5 50zM186 602h-68v25q0 99 84 99
q31 0 77.5 -24t61.5 -24q28 0 28 40v10h66v-22q0 -105 -86 -105q-31 0 -75 24t-62 24q-26 0 -26 -31v-16z" />
    <glyph glyph-name="odieresis" unicode="&#xf6;" horiz-adv-x="555" 
d="M281 521q107 0 171.5 -72.5t64.5 -192.5q0 -116 -64 -192t-178 -76q-109 0 -173 74.5t-64 191.5t65 192t178 75zM277 440q-67 0 -102.5 -49t-35.5 -136q0 -83 38 -134.5t102 -51.5q65 0 101.5 50t36.5 135q0 86 -36.5 136t-103.5 50zM226 620h-84v113h84v-113zM411 620
h-83v113h83v-113z" />
    <glyph glyph-name="divide" unicode="&#xf7;" horiz-adv-x="713" 
d="M399 0h-86v131h86v-131zM631 239h-549v85h549v-85zM399 428h-86v133h86v-133z" />
    <glyph glyph-name="oslash" unicode="&#xf8;" horiz-adv-x="555" 
d="M282 521q78 0 131 -38l23 32h62l-47 -65q67 -72 67 -196q0 -121 -67 -194t-177 -73q-74 0 -130 37l-24 -34h-62l48 67q-69 74 -69 196q0 123 68.5 195.5t176.5 72.5zM277 445q-69 0 -106 -51t-37 -139q0 -72 27 -121l203 281q-34 30 -87 30zM278 63q66 0 104.5 51
t38.5 139q0 75 -25 121l-202 -281q36 -30 84 -30z" />
    <glyph glyph-name="ugrave" unicode="&#xf9;" horiz-adv-x="562" 
d="M489 509v-361q0 -26 0.5 -79.5t0.5 -68.5h-96q-3 20 -3 73q-40 -85 -151 -85q-75 0 -122 44.5t-47 142.5v334h98v-313q0 -124 100 -124q66 0 94 39.5t28 131.5v266h98zM95 743h121l125 -152h-91z" />
    <glyph glyph-name="uacute" unicode="&#xfa;" horiz-adv-x="562" 
d="M489 509v-361q0 -26 0.5 -79.5t0.5 -68.5h-96q-3 20 -3 73q-40 -85 -151 -85q-75 0 -122 44.5t-47 142.5v334h98v-313q0 -124 100 -124q66 0 94 39.5t28 131.5v266h98zM347 743h120l-155 -152h-91z" />
    <glyph glyph-name="ucircumflex" unicode="&#xfb;" horiz-adv-x="562" 
d="M489 509v-361q0 -26 0.5 -79.5t0.5 -68.5h-96q-3 20 -3 73q-40 -85 -151 -85q-75 0 -122 44.5t-47 142.5v334h98v-313q0 -124 100 -124q66 0 94 39.5t28 131.5v266h98zM235 733h91l112 -151h-94l-64 96l-63 -96h-93z" />
    <glyph glyph-name="udieresis" unicode="&#xfc;" horiz-adv-x="562" 
d="M489 509v-361q0 -26 0.5 -79.5t0.5 -68.5h-96q-3 20 -3 73q-40 -85 -151 -85q-75 0 -122 44.5t-47 142.5v334h98v-313q0 -124 100 -124q66 0 94 39.5t28 131.5v266h98zM230 620h-84v113h84v-113zM415 620h-83v113h83v-113z" />
    <glyph glyph-name="yacute" unicode="&#xfd;" horiz-adv-x="488" 
d="M9 509h106q116 -347 135 -421h1q24 92 129 421h99l-181 -531q-38 -112 -77.5 -149.5t-120.5 -37.5q-26 0 -57 3v84q20 -3 41 -3q46 0 70 23t45 83zM308 743h120l-155 -152h-91z" />
    <glyph glyph-name="thorn" unicode="&#xfe;" horiz-adv-x="575" 
d="M171 -204h-98v937h98v-300q48 86 160 86q90 0 147.5 -68t58.5 -185q0 -129 -64.5 -203t-162.5 -74q-97 0 -139 70v-263zM436 262q0 82 -36 128.5t-96 46.5q-69 0 -103.5 -50.5t-34.5 -131.5q0 -183 132 -183q65 0 101.5 50t36.5 140z" />
    <glyph glyph-name="ydieresis" unicode="&#xff;" horiz-adv-x="488" 
d="M9 509h106q116 -347 135 -421h1q24 92 129 421h99l-181 -531q-38 -112 -77.5 -149.5t-120.5 -37.5q-26 0 -57 3v84q20 -3 41 -3q46 0 70 23t45 83zM193 620h-84v113h84v-113zM378 620h-83v113h83v-113z" />
    <glyph glyph-name="Amacron" unicode="&#x100;" horiz-adv-x="665" 
d="M464 199h-273l-70 -199h-103l245 695h128l256 -695h-110zM217 287h222q-103 285 -114 326h-1q-9 -33 -107 -326zM186 848h286v-75h-286v75z" />
    <glyph glyph-name="amacron" unicode="&#x101;" horiz-adv-x="534" 
d="M460 353v-238q0 -82 7 -115h-93q-5 15 -9 63q-39 -75 -154 -75q-85 0 -128.5 46t-43.5 110q0 84 62.5 125.5t178.5 41.5h84v41q0 94 -103 94q-55 0 -75 -20.5t-28 -57.5h-95q6 66 53 110t148 43q196 0 196 -168zM365 229v16h-78q-148 0 -148 -95q0 -39 25 -63t69 -24
q42 0 69.5 13t40.5 38t17.5 51.5t4.5 63.5zM127 701h282v-77h-282v77z" />
    <glyph glyph-name="Abreve" unicode="&#x102;" horiz-adv-x="665" 
d="M464 199h-273l-70 -199h-103l245 695h128l256 -695h-110zM217 287h222q-103 285 -114 326h-1q-9 -33 -107 -326zM172 884h74q5 -29 27.5 -46.5t56.5 -17.5q72 0 85 64h73q-9 -58 -49 -95.5t-110 -37.5q-74 0 -113 39t-44 94z" />
    <glyph glyph-name="abreve" unicode="&#x103;" horiz-adv-x="534" 
d="M460 353v-238q0 -82 7 -115h-93q-5 15 -9 63q-39 -75 -154 -75q-85 0 -128.5 46t-43.5 110q0 84 62.5 125.5t178.5 41.5h84v41q0 94 -103 94q-55 0 -75 -20.5t-28 -57.5h-95q6 66 53 110t148 43q196 0 196 -168zM365 229v16h-78q-148 0 -148 -95q0 -39 25 -63t69 -24
q42 0 69.5 13t40.5 38t17.5 51.5t4.5 63.5zM120 724h71q16 -66 76 -66q37 0 53.5 17.5t24.5 48.5h70q-8 -61 -45.5 -100t-102.5 -39q-70 0 -106.5 40.5t-40.5 98.5z" />
    <glyph glyph-name="Aogonek" unicode="&#x104;" horiz-adv-x="665" 
d="M464 199h-273l-70 -199h-103l245 695h128l256 -695h-6q-65 -54 -65 -103q0 -24 15.5 -37.5t39.5 -13.5q33 0 55 8v-73q-31 -16 -82 -16q-55 0 -87 29.5t-32 81.5q0 62 60 124h-8zM217 287h222q-103 285 -114 326h-1q-9 -33 -107 -326z" />
    <glyph glyph-name="aogonek" unicode="&#x105;" horiz-adv-x="534" 
d="M460 353v-238q0 -82 7 -115q-65 -54 -65 -103q0 -24 15.5 -37.5t39.5 -13.5q33 0 55 8v-73q-31 -16 -82 -16q-55 0 -87 29.5t-32 81.5q0 64 62 126q-5 19 -8 61q-39 -75 -154 -75q-85 0 -128.5 46t-43.5 110q0 84 62.5 125.5t178.5 41.5h84v41q0 94 -103 94
q-55 0 -75 -20.5t-28 -57.5h-95q6 66 53 110t148 43q196 0 196 -168zM365 229v16h-78q-148 0 -148 -95q0 -39 25 -63t69 -24q42 0 69.5 13t40.5 38t17.5 51.5t4.5 63.5z" />
    <glyph glyph-name="Cacute" unicode="&#x106;" horiz-adv-x="691" 
d="M544 200h103q-24 -95 -94.5 -152t-185.5 -57q-151 0 -233 99.5t-82 254.5q0 98 34 177.5t108 131t177 51.5q120 0 190.5 -60t85.5 -153h-103q-41 128 -177 128q-104 0 -155.5 -79t-51.5 -193q0 -52 11.5 -99t35.5 -86.5t66 -63t98 -23.5q125 0 173 124zM438 899h127
l-173 -138h-99z" />
    <glyph glyph-name="cacute" unicode="&#x107;" horiz-adv-x="512" 
d="M385 157h97q-18 -74 -69.5 -121.5t-144.5 -47.5q-107 0 -168 71.5t-61 192.5q0 114 63 191.5t173 77.5q53 0 94.5 -17.5t64 -45t34 -55t14.5 -54.5h-97q-20 91 -112 91q-63 0 -98 -50t-35 -135q0 -86 34 -136.5t96 -50.5q85 0 115 89zM331 743h120l-155 -152h-91z" />
    <glyph glyph-name="Ccircumflex" unicode="&#x108;" horiz-adv-x="691" 
d="M544 200h103q-24 -95 -94.5 -152t-185.5 -57q-151 0 -233 99.5t-82 254.5q0 98 34 177.5t108 131t177 51.5q120 0 190.5 -60t85.5 -153h-103q-41 128 -177 128q-104 0 -155.5 -79t-51.5 -193q0 -52 11.5 -99t35.5 -86.5t66 -63t98 -23.5q125 0 173 124zM314 890h101
l130 -132h-100l-81 80l-85 -80h-100z" />
    <glyph glyph-name="ccircumflex" unicode="&#x109;" horiz-adv-x="512" 
d="M385 157h97q-18 -74 -69.5 -121.5t-144.5 -47.5q-107 0 -168 71.5t-61 192.5q0 114 63 191.5t173 77.5q53 0 94.5 -17.5t64 -45t34 -55t14.5 -54.5h-97q-20 91 -112 91q-63 0 -98 -50t-35 -135q0 -86 34 -136.5t96 -50.5q85 0 115 89zM225 733h91l112 -151h-94l-64 96
l-63 -96h-93z" />
    <glyph glyph-name="Cdotaccent" unicode="&#x10a;" horiz-adv-x="691" 
d="M544 200h103q-24 -95 -94.5 -152t-185.5 -57q-151 0 -233 99.5t-82 254.5q0 98 34 177.5t108 131t177 51.5q120 0 190.5 -60t85.5 -153h-103q-41 128 -177 128q-104 0 -155.5 -79t-51.5 -193q0 -52 11.5 -99t35.5 -86.5t66 -63t98 -23.5q125 0 173 124zM411 776h-100v112
h100v-112z" />
    <glyph glyph-name="cdotaccent" unicode="&#x10b;" horiz-adv-x="512" 
d="M385 157h97q-18 -74 -69.5 -121.5t-144.5 -47.5q-107 0 -168 71.5t-61 192.5q0 114 63 191.5t173 77.5q53 0 94.5 -17.5t64 -45t34 -55t14.5 -54.5h-97q-20 91 -112 91q-63 0 -98 -50t-35 -135q0 -86 34 -136.5t96 -50.5q85 0 115 89zM320 620h-98v113h98v-113z" />
    <glyph glyph-name="Ccaron" unicode="&#x10c;" horiz-adv-x="691" 
d="M544 200h103q-24 -95 -94.5 -152t-185.5 -57q-151 0 -233 99.5t-82 254.5q0 98 34 177.5t108 131t177 51.5q120 0 190.5 -60t85.5 -153h-103q-41 128 -177 128q-104 0 -155.5 -79t-51.5 -193q0 -52 11.5 -99t35.5 -86.5t66 -63t98 -23.5q125 0 173 124zM415 758h-97
l-132 132h100l81 -80l85 80h100z" />
    <glyph glyph-name="ccaron" unicode="&#x10d;" horiz-adv-x="512" 
d="M385 157h97q-18 -74 -69.5 -121.5t-144.5 -47.5q-107 0 -168 71.5t-61 192.5q0 114 63 191.5t173 77.5q53 0 94.5 -17.5t64 -45t34 -55t14.5 -54.5h-97q-20 91 -112 91q-63 0 -98 -50t-35 -135q0 -86 34 -136.5t96 -50.5q85 0 115 89zM317 582h-92l-111 151h94l64 -95
l62 95h94z" />
    <glyph glyph-name="Dcaron" unicode="&#x10e;" horiz-adv-x="724" 
d="M90 0v695h253q148 0 238.5 -93t90.5 -247q0 -156 -91 -255.5t-242 -99.5h-249zM193 608v-522h139q114 0 173 73.5t59 193.5q0 109 -58 182t-173 73h-140zM372 760h-97l-132 132h100l81 -80l85 80h100z" />
    <glyph glyph-name="dcaron" unicode="&#x10f;" horiz-adv-x="620" 
d="M407 733h98v-590q0 -94 1 -143h-95q-4 28 -4 69q-40 -81 -157 -81q-97 0 -154.5 72t-57.5 189q0 120 62 196t167 76q109 0 140 -62v274zM140 252q0 -86 36.5 -134t95.5 -48q42 0 70 14.5t42.5 42.5t20 59.5t5.5 74.5q0 90 -27 134t-104 44q-66 0 -102.5 -49t-36.5 -138z
M639 480h-70l-4 253h79z" />
    <glyph glyph-name="Dcroat" unicode="&#x110;" horiz-adv-x="733" 
d="M18 395h82v300h253q148 0 238.5 -93t90.5 -247q0 -156 -91 -255.5t-242 -99.5h-249v319h-82v76zM203 608v-213h173v-76h-173v-233h139q114 0 173 73.5t59 193.5q0 109 -58 182t-173 73h-140z" />
    <glyph glyph-name="dcroat" unicode="&#x111;" horiz-adv-x="577" 
d="M407 733h98v-83h68v-64h-68v-443q0 -94 1 -143h-95q-4 28 -4 74q-42 -86 -159 -86q-98 0 -154 74t-56 184q0 115 62.5 192.5t166.5 77.5q109 0 140 -66v136h-225v64h225v83zM140 252q0 -82 37 -131.5t95 -49.5q138 0 138 190q0 172 -130 172q-64 0 -102 -47.5t-38 -133.5
z" />
    <glyph glyph-name="Emacron" unicode="&#x112;" horiz-adv-x="601" 
d="M534 407v-87h-343v-233h377l-13 -87h-465v695h460v-88h-359v-200h343zM179 859h286v-75h-286v75z" />
    <glyph glyph-name="emacron" unicode="&#x113;" horiz-adv-x="529" 
d="M491 236h-354q1 -74 36 -120.5t96 -46.5q51 0 76.5 20t39.5 54h99q-9 -28 -23 -52.5t-38.5 -49t-65 -39t-91.5 -14.5q-113 0 -170.5 76t-57.5 185q0 120 60.5 196t173.5 76q59 0 104 -22t69.5 -58t36 -77t11.5 -86q0 -28 -2 -42zM140 303h254q-1 63 -32 102.5t-91 39.5
q-117 0 -131 -142zM134 701h282v-77h-282v77z" />
    <glyph glyph-name="Ebreve" unicode="&#x114;" horiz-adv-x="601" 
d="M534 407v-87h-343v-233h377l-13 -87h-465v695h460v-88h-359v-200h343zM166 887h74q5 -29 27.5 -46.5t56.5 -17.5q72 0 85 64h73q-9 -58 -49 -95.5t-110 -37.5q-74 0 -113 39t-44 94z" />
    <glyph glyph-name="ebreve" unicode="&#x115;" horiz-adv-x="529" 
d="M491 236h-354q1 -74 36 -120.5t96 -46.5q51 0 76.5 20t39.5 54h99q-9 -28 -23 -52.5t-38.5 -49t-65 -39t-91.5 -14.5q-113 0 -170.5 76t-57.5 185q0 120 60.5 196t173.5 76q59 0 104 -22t69.5 -58t36 -77t11.5 -86q0 -28 -2 -42zM140 303h254q-1 63 -32 102.5t-91 39.5
q-117 0 -131 -142zM127 724h71q16 -66 76 -66q37 0 53.5 17.5t24.5 48.5h70q-8 -61 -45.5 -100t-102.5 -39q-70 0 -106.5 40.5t-40.5 98.5z" />
    <glyph glyph-name="Edotaccent" unicode="&#x116;" horiz-adv-x="601" 
d="M534 407v-87h-343v-233h377l-13 -87h-465v695h460v-88h-359v-200h343zM371 773h-100v112h100v-112z" />
    <glyph glyph-name="edotaccent" unicode="&#x117;" horiz-adv-x="529" 
d="M491 236h-354q1 -74 36 -120.5t96 -46.5q51 0 76.5 20t39.5 54h99q-9 -28 -23 -52.5t-38.5 -49t-65 -39t-91.5 -14.5q-113 0 -170.5 76t-57.5 185q0 120 60.5 196t173.5 76q59 0 104 -22t69.5 -58t36 -77t11.5 -86q0 -28 -2 -42zM140 303h254q-1 63 -32 102.5t-91 39.5
q-117 0 -131 -142zM324 620h-98v113h98v-113z" />
    <glyph glyph-name="Eogonek" unicode="&#x118;" horiz-adv-x="601" 
d="M534 407v-87h-343v-233h377l-13 -87h-34q-65 -54 -65 -103q0 -24 15.5 -37.5t39.5 -13.5q33 0 55 8v-73q-31 -16 -82 -16q-55 0 -87 29.5t-32 81.5q0 62 60 124h-335v695h460v-88h-359v-200h343z" />
    <glyph glyph-name="eogonek" unicode="&#x119;" horiz-adv-x="529" 
d="M491 236h-354q1 -74 36 -120.5t96 -46.5q51 0 76.5 20t39.5 54h99q-32 -102 -120 -138q-62 -51 -62 -100q0 -24 15.5 -37.5t39.5 -13.5q33 0 55 8v-73q-31 -16 -82 -16q-55 0 -87 29.5t-32 81.5q0 54 43 104q-107 5 -161.5 80t-54.5 181q0 120 60.5 196t173.5 76
q59 0 104 -22t69.5 -58t36 -77t11.5 -86q0 -28 -2 -42zM140 303h254q-1 63 -32 102.5t-91 39.5q-117 0 -131 -142z" />
    <glyph glyph-name="Ecaron" unicode="&#x11a;" horiz-adv-x="601" 
d="M534 407v-87h-343v-233h377l-13 -87h-465v695h460v-88h-359v-200h343zM369 756h-97l-132 132h100l81 -80l85 80h100z" />
    <glyph glyph-name="ecaron" unicode="&#x11b;" horiz-adv-x="529" 
d="M491 236h-354q1 -74 36 -120.5t96 -46.5q51 0 76.5 20t39.5 54h99q-9 -28 -23 -52.5t-38.5 -49t-65 -39t-91.5 -14.5q-113 0 -170.5 76t-57.5 185q0 120 60.5 196t173.5 76q59 0 104 -22t69.5 -58t36 -77t11.5 -86q0 -28 -2 -42zM140 303h254q-1 63 -32 102.5t-91 39.5
q-117 0 -131 -142zM321 582h-92l-111 151h94l64 -95l62 95h94z" />
    <glyph glyph-name="Gcircumflex" unicode="&#x11c;" horiz-adv-x="733" 
d="M661 378v-378h-78q-7 21 -10 89q-63 -99 -213 -99q-146 0 -227 98t-81 252q0 161 86 263t241 102q120 0 195.5 -59t90.5 -154h-103q-40 128 -185 128q-111 0 -164 -77t-53 -198q0 -73 21 -132t70.5 -98t122.5 -39q186 0 186 207v7h-187v88h288zM323 888h101l130 -132
h-100l-81 80l-85 -80h-100z" />
    <glyph glyph-name="gcircumflex" unicode="&#x11d;" horiz-adv-x="573" 
d="M501 362v-313q0 -127 -56.5 -192.5t-181.5 -65.5q-57 0 -99 14.5t-65 39.5t-34.5 50t-15.5 53h100q22 -81 119 -81q79 0 108 45.5t29 138.5v38q-43 -86 -156 -86q-95 0 -153 70t-58 181q0 121 63 194t158 73q64 0 100 -23.5t46 -53.5q2 46 4 65h93q0 -14 -0.5 -67
t-0.5 -80zM140 258q0 -78 36.5 -125t96.5 -47q75 0 105 45.5t30 132.5q0 88 -28.5 131.5t-103.5 43.5q-65 0 -100.5 -49t-35.5 -132zM240 733h91l112 -151h-94l-64 96l-63 -96h-93z" />
    <glyph glyph-name="Gbreve" unicode="&#x11e;" horiz-adv-x="733" 
d="M661 378v-378h-78q-7 21 -10 89q-63 -99 -213 -99q-146 0 -227 98t-81 252q0 161 86 263t241 102q120 0 195.5 -59t90.5 -154h-103q-40 128 -185 128q-111 0 -164 -77t-53 -198q0 -73 21 -132t70.5 -98t122.5 -39q186 0 186 207v7h-187v88h288zM214 893h74
q5 -29 27.5 -46.5t56.5 -17.5q72 0 85 64h73q-9 -58 -49 -95.5t-110 -37.5q-74 0 -113 39t-44 94z" />
    <glyph glyph-name="gbreve" unicode="&#x11f;" horiz-adv-x="573" 
d="M501 362v-313q0 -127 -56.5 -192.5t-181.5 -65.5q-57 0 -99 14.5t-65 39.5t-34.5 50t-15.5 53h100q22 -81 119 -81q79 0 108 45.5t29 138.5v38q-43 -86 -156 -86q-95 0 -153 70t-58 181q0 121 63 194t158 73q64 0 100 -23.5t46 -53.5q2 46 4 65h93q0 -14 -0.5 -67
t-0.5 -80zM140 258q0 -78 36.5 -125t96.5 -47q75 0 105 45.5t30 132.5q0 88 -28.5 131.5t-103.5 43.5q-65 0 -100.5 -49t-35.5 -132zM138 724h71q16 -66 76 -66q37 0 53.5 17.5t24.5 48.5h70q-8 -61 -45.5 -100t-102.5 -39q-70 0 -106.5 40.5t-40.5 98.5z" />
    <glyph glyph-name="Gdotaccent" unicode="&#x120;" horiz-adv-x="733" 
d="M661 378v-378h-78q-7 21 -10 89q-63 -99 -213 -99q-146 0 -227 98t-81 252q0 161 86 263t241 102q120 0 195.5 -59t90.5 -154h-103q-40 128 -185 128q-111 0 -164 -77t-53 -198q0 -73 21 -132t70.5 -98t122.5 -39q186 0 186 207v7h-187v88h288zM421 768h-100v112h100
v-112z" />
    <glyph glyph-name="gdotaccent" unicode="&#x121;" horiz-adv-x="573" 
d="M501 362v-313q0 -127 -56.5 -192.5t-181.5 -65.5q-57 0 -99 14.5t-65 39.5t-34.5 50t-15.5 53h100q22 -81 119 -81q79 0 108 45.5t29 138.5v38q-43 -86 -156 -86q-95 0 -153 70t-58 181q0 121 63 194t158 73q64 0 100 -23.5t46 -53.5q2 46 4 65h93q0 -14 -0.5 -67
t-0.5 -80zM140 258q0 -78 36.5 -125t96.5 -47q75 0 105 45.5t30 132.5q0 88 -28.5 131.5t-103.5 43.5q-65 0 -100.5 -49t-35.5 -132zM335 620h-98v113h98v-113z" />
    <glyph glyph-name="uni0122" unicode="&#x122;" horiz-adv-x="733" 
d="M661 378v-378h-78q-7 21 -10 89q-63 -99 -213 -99q-146 0 -227 98t-81 252q0 161 86 263t241 102q120 0 195.5 -59t90.5 -154h-103q-40 128 -185 128q-111 0 -164 -77t-53 -198q0 -73 21 -132t70.5 -98t122.5 -39q186 0 186 207v7h-187v88h288zM364 -254h-81
q48 103 56 201h99q-4 -52 -25.5 -110.5t-48.5 -90.5z" />
    <glyph glyph-name="uni0123" unicode="&#x123;" horiz-adv-x="573" 
d="M294 787h87q-56 -124 -62 -202h-97q4 49 24.5 105t47.5 97zM501 362v-313q0 -127 -56.5 -192.5t-181.5 -65.5q-57 0 -99 14.5t-65 39.5t-34.5 50t-15.5 53h100q22 -81 119 -81q79 0 108 45.5t29 138.5v38q-43 -86 -156 -86q-95 0 -153 70t-58 181q0 121 63 194t158 73
q64 0 100 -23.5t46 -53.5q2 46 4 65h93q0 -14 -0.5 -67t-0.5 -80zM140 258q0 -78 36.5 -125t96.5 -47q75 0 105 45.5t30 132.5q0 88 -28.5 131.5t-103.5 43.5q-65 0 -100.5 -49t-35.5 -132z" />
    <glyph glyph-name="Hcircumflex" unicode="&#x124;" horiz-adv-x="732" 
d="M90 0v695h103v-287h346v287h103v-695h-103v321h-346v-321h-103zM318 888h101l130 -132h-100l-81 80l-85 -80h-100z" />
    <glyph glyph-name="hcircumflex" unicode="&#x125;" horiz-adv-x="572" 
d="M59 896h125l108 -111h-102l-69 63l-67 -63h-102zM73 733h98v-296q50 84 156 84q73 0 122.5 -46.5t49.5 -149.5v-325h-98v309q0 129 -105 129q-125 0 -125 -161v-277h-98v733z" />
    <glyph glyph-name="Hbar" unicode="&#x126;" horiz-adv-x="732" 
d="M25 588h65v107h103v-107h346v107h103v-107h65v-75h-65v-513h-103v320h-346v-320h-103v513h-65v75zM193 408h346v105h-346v-105z" />
    <glyph glyph-name="hbar" unicode="&#x127;" horiz-adv-x="572" 
d="M73 733h98v-83h209v-64h-209v-157q48 87 159 87q72 0 120.5 -46t48.5 -150v-320h-98v304q0 128 -104 128q-62 0 -94 -42t-32 -115v-275h-98v586h-82v64h82v83z" />
    <glyph glyph-name="Itilde" unicode="&#x128;" horiz-adv-x="283" 
d="M90 695h103v-695h-103v695zM38 764h-69v25q0 99 87 99q35 0 90 -25.5t70 -25.5q30 0 30 42v10h67v-21q0 -58 -22 -82.5t-66 -24.5q-31 0 -86 26t-73 26q-28 0 -28 -32v-17z" />
    <glyph glyph-name="itilde" unicode="&#x129;" horiz-adv-x="244" 
d="M73 0v509h98v-509h-98zM31 602h-68v25q0 99 84 99q31 0 77.5 -24t61.5 -24q28 0 28 40v10h66v-22q0 -105 -86 -105q-31 0 -75 24t-62 24q-26 0 -26 -31v-16z" />
    <glyph glyph-name="Imacron" unicode="&#x12a;" horiz-adv-x="283" 
d="M90 695h103v-695h-103v695zM-2 848h286v-75h-286v75z" />
    <glyph glyph-name="imacron" unicode="&#x12b;" horiz-adv-x="244" 
d="M73 0v509h98v-509h-98zM-19 701h282v-77h-282v77z" />
    <glyph glyph-name="Iogonek" unicode="&#x12e;" horiz-adv-x="283" 
d="M90 695h103v-695h-5q-65 -54 -65 -103q0 -24 15.5 -37.5t39.5 -13.5q33 0 55 8v-73q-31 -16 -82 -16q-55 0 -87 29.5t-32 81.5q0 62 60 124h-2v695z" />
    <glyph glyph-name="iogonek" unicode="&#x12f;" horiz-adv-x="244" 
d="M213 -219q-31 -16 -82 -16q-55 0 -87 29.5t-32 81.5q0 64 61 125v508h98v-509h-3q-65 -54 -65 -103q0 -24 15.5 -37.5t39.5 -13.5q33 0 55 8v-73zM171 620h-98v113h98v-113z" />
    <glyph glyph-name="Idotaccent" unicode="&#x130;" horiz-adv-x="283" 
d="M90 695h103v-695h-103v695zM191 768h-100v112h100v-112z" />
    <glyph glyph-name="dotlessi" unicode="&#x131;" horiz-adv-x="244" 
d="M73 0v509h98v-509h-98z" />
    <glyph glyph-name="Jcircumflex" unicode="&#x134;" horiz-adv-x="374" 
d="M289 695v-489q0 -116 -44.5 -166t-138.5 -50q-40 0 -77 7v85q26 -4 65 -4q55 0 73.5 32.5t18.5 91.5v493h103zM189 888h101l130 -132h-100l-81 80l-85 -80h-100z" />
    <glyph glyph-name="jcircumflex" unicode="&#x135;" horiz-adv-x="244" 
d="M73 509h98v-520q0 -109 -31.5 -153.5t-116.5 -44.5q-18 0 -36 2v82q7 -1 20 -1q39 0 52.5 22t13.5 75v538zM76 733h91l112 -151h-94l-64 96l-63 -96h-93z" />
    <glyph glyph-name="uni0136" unicode="&#x136;" horiz-adv-x="646" 
d="M90 0v695h102v-335q6 7 135 138t191 197h127l-295 -293l309 -402h-125l-256 336l-86 -79v-257h-102zM321 -254h-81q48 103 56 201h99q-4 -52 -25.5 -110.5t-48.5 -90.5z" />
    <glyph glyph-name="uni0137" unicode="&#x137;" horiz-adv-x="515" 
d="M171 733v-461q24 29 109 122t105 115h116l-189 -197l210 -312h-114l-163 249l-74 -72v-177h-98v733h98zM253 -254h-81q48 103 56 201h99q-4 -52 -25.5 -110.5t-48.5 -90.5z" />
    <glyph glyph-name="kgreenlandic" unicode="&#x138;" horiz-adv-x="512" 
d="M171 509v-238q7 9 212 238h115q-34 -36 -100.5 -104.5t-94.5 -98.5q37 -51 110.5 -156t105.5 -150h-114q-22 32 -82.5 118.5t-85.5 123.5l-66 -65v-177h-98v509h98z" />
    <glyph glyph-name="Lacute" unicode="&#x139;" horiz-adv-x="566" 
d="M90 0v695h103v-608h359l-14 -87h-448zM234 895h127l-173 -138h-99z" />
    <glyph glyph-name="lacute" unicode="&#x13a;" horiz-adv-x="244" 
d="M193 908h123l-149 -121h-96zM171 0h-98v733h98v-733z" />
    <glyph glyph-name="uni013B" unicode="&#x13b;" horiz-adv-x="566" 
d="M90 0v695h103v-608h359l-14 -87h-448zM302 -254h-81q48 103 56 201h99q-4 -52 -25.5 -110.5t-48.5 -90.5z" />
    <glyph glyph-name="uni013C" unicode="&#x13c;" horiz-adv-x="244" 
d="M171 0h-98v733h98v-733zM98 -254h-81q48 103 56 201h99q-4 -52 -25.5 -110.5t-48.5 -90.5z" />
    <glyph glyph-name="Lcaron" unicode="&#x13d;" horiz-adv-x="566" 
d="M90 0v695h103v-608h359l-14 -87h-448zM427 443h-70l-4 253h79z" />
    <glyph glyph-name="lcaron" unicode="&#x13e;" horiz-adv-x="302" 
d="M171 0h-98v733h98v-733zM313 480h-70l-4 253h79z" />
    <glyph glyph-name="Ldot" unicode="&#x13f;" horiz-adv-x="566" 
d="M454 307h-99v149h99v-149zM90 0v695h103v-608h359l-14 -87h-448z" />
    <glyph glyph-name="ldot" unicode="&#x140;" horiz-adv-x="289" 
d="M308 361h-91v148h91v-148zM171 0h-98v733h98v-733z" />
    <glyph glyph-name="Lslash" unicode="&#x141;" horiz-adv-x="576" 
d="M354 427l-151 -70v-270h359l-14 -87h-448v310l-90 -42v74l90 42v311h103v-262l151 71v-77z" />
    <glyph glyph-name="lslash" unicode="&#x142;" horiz-adv-x="258" 
d="M178 0h-98v340l-63 -34v86l63 34v307h98v-255l72 39v-85l-72 -39v-393z" />
    <glyph glyph-name="Nacute" unicode="&#x143;" horiz-adv-x="746" 
d="M187 0h-97v695h134q30 -50 116.5 -192.5t147 -243.5t77.5 -134h1q-6 74 -6 311v259h96v-695h-126q-292 486 -347 589h-2q6 -91 6 -324v-265zM459 894h127l-173 -138h-99z" />
    <glyph glyph-name="nacute" unicode="&#x144;" horiz-adv-x="571" 
d="M73 0v381q0 89 -1 128h96q4 -30 4 -80q42 92 157 92q77 0 123.5 -49t46.5 -145v-327h-98v315q0 123 -103 123q-126 0 -126 -166v-272h-99zM352 743h120l-155 -152h-91z" />
    <glyph glyph-name="uni0145" unicode="&#x145;" horiz-adv-x="746" 
d="M187 0h-97v695h134q30 -50 116.5 -192.5t147 -243.5t77.5 -134h1q-6 74 -6 311v259h96v-695h-126q-292 486 -347 589h-2q6 -91 6 -324v-265zM363 -254h-81q48 103 56 201h99q-4 -52 -25.5 -110.5t-48.5 -90.5z" />
    <glyph glyph-name="uni0146" unicode="&#x146;" horiz-adv-x="571" 
d="M73 0v381q0 89 -1 128h96q4 -30 4 -80q42 92 157 92q77 0 123.5 -49t46.5 -145v-327h-98v315q0 123 -103 123q-126 0 -126 -166v-272h-99zM264 -254h-81q48 103 56 201h99q-4 -52 -25.5 -110.5t-48.5 -90.5z" />
    <glyph glyph-name="Ncaron" unicode="&#x147;" horiz-adv-x="746" 
d="M187 0h-97v695h134q30 -50 116.5 -192.5t147 -243.5t77.5 -134h1q-6 74 -6 311v259h96v-695h-126q-292 486 -347 589h-2q6 -91 6 -324v-265zM421 755h-97l-132 132h100l81 -80l85 80h100z" />
    <glyph glyph-name="ncaron" unicode="&#x148;" horiz-adv-x="571" 
d="M73 0v381q0 89 -1 128h96q4 -30 4 -80q42 92 157 92q77 0 123.5 -49t46.5 -145v-327h-98v315q0 123 -103 123q-126 0 -126 -166v-272h-99zM331 587h-92l-111 151h94l64 -95l62 95h94z" />
    <glyph glyph-name="napostrophe" unicode="&#x149;" horiz-adv-x="571" 
d="M86 580h-74q29 92 35 203h94q-3 -53 -19 -111t-36 -92zM73 0v381q0 89 -1 128h96q4 -30 4 -80q42 92 157 92q77 0 123.5 -49t46.5 -145v-327h-98v315q0 123 -103 123q-126 0 -126 -166v-272h-99z" />
    <glyph glyph-name="Omacron" unicode="&#x14c;" horiz-adv-x="754" 
d="M381 705q146 0 233.5 -98t87.5 -256q0 -153 -86 -257t-243 -104q-150 0 -235.5 101t-85.5 256t87.5 256.5t241.5 101.5zM377 618q-108 0 -162.5 -75.5t-54.5 -192.5t57 -195t160 -78q75 0 125 39t71 98.5t21 134.5q0 117 -55.5 193t-161.5 76zM234 858h286v-75h-286v75z
" />
    <glyph glyph-name="omacron" unicode="&#x14d;" horiz-adv-x="555" 
d="M281 521q107 0 171.5 -72.5t64.5 -192.5q0 -116 -64 -192t-178 -76q-109 0 -173 74.5t-64 191.5t65 192t178 75zM277 440q-67 0 -102.5 -49t-35.5 -136q0 -83 38 -134.5t102 -51.5q65 0 101.5 50t36.5 135q0 86 -36.5 136t-103.5 50zM136 701h282v-77h-282v77z" />
    <glyph glyph-name="Ohungarumlaut" unicode="&#x150;" horiz-adv-x="754" 
d="M381 705q146 0 233.5 -98t87.5 -256q0 -153 -86 -257t-243 -104q-150 0 -235.5 101t-85.5 256t87.5 256.5t241.5 101.5zM377 618q-108 0 -162.5 -75.5t-54.5 -192.5t57 -195t160 -78q75 0 125 39t71 98.5t21 134.5q0 117 -55.5 193t-161.5 76zM337 895h110l-138 -137h-84
zM524 895h108l-137 -137h-84z" />
    <glyph glyph-name="ohungarumlaut" unicode="&#x151;" horiz-adv-x="555" 
d="M281 521q107 0 171.5 -72.5t64.5 -192.5q0 -116 -64 -192t-178 -76q-109 0 -173 74.5t-64 191.5t65 192t178 75zM277 440q-67 0 -102.5 -49t-35.5 -136q0 -83 38 -134.5t102 -51.5q65 0 101.5 50t36.5 135q0 86 -36.5 136t-103.5 50zM211 580h-79l100 154h102zM397 580
h-79l100 154h102z" />
    <glyph glyph-name="OE" unicode="&#x152;" horiz-adv-x="1021" 
d="M969 695v-90h-339v-197h322v-90h-322v-229h357l-13 -89h-421q-72 -9 -138 -9q-174 0 -268.5 99.5t-94.5 256.5q0 151 100 253t275 102q78 0 134 -7h408zM528 85v522q-28 9 -103 9q-120 0 -192.5 -69.5t-72.5 -196.5t71 -200t190 -73q69 0 107 8z" />
    <glyph glyph-name="oe" unicode="&#x153;" horiz-adv-x="910" 
d="M647 -12q-121 0 -181 100q-65 -100 -191 -100q-109 0 -173 74.5t-64 191.5t65 192t178 75q125 0 187 -100q60 100 184 100q57 0 101.5 -21.5t69.5 -57t37.5 -76.5t12.5 -84q0 -32 -1 -46h-354q0 -74 35.5 -120.5t96.5 -46.5q83 0 116 74h99q-19 -62 -71.5 -108.5
t-146.5 -46.5zM277 440q-67 0 -102.5 -49t-35.5 -136q0 -83 38 -134.5t102 -51.5q65 0 101.5 50t36.5 135q0 86 -36.5 136t-103.5 50zM521 303h253q-1 62 -33 101.5t-90 40.5q-60 1 -92 -37t-38 -105z" />
    <glyph glyph-name="Racute" unicode="&#x154;" horiz-adv-x="646" 
d="M325 301h-133v-301h-102v695h278q105 0 163 -51.5t58 -135.5q0 -65 -32 -107t-83 -57q102 -27 102 -177v-30q0 -110 10 -137h-100q-12 30 -12 151v13q0 75 -30.5 106t-118.5 31zM192 609v-223h146q75 0 110 28t35 85q0 53 -34.5 81.5t-101.5 28.5h-155zM409 894h127
l-173 -138h-99z" />
    <glyph glyph-name="racute" unicode="&#x155;" horiz-adv-x="360" 
d="M73 0v371q0 38 -0.5 83t-0.5 55h96q3 -21 3 -101q20 51 64 81.5t106 31.5v-97q-170 -3 -170 -182v-242h-98zM259 743h120l-155 -152h-91z" />
    <glyph glyph-name="uni0156" unicode="&#x156;" horiz-adv-x="646" 
d="M325 301h-133v-301h-102v695h278q105 0 163 -51.5t58 -135.5q0 -65 -32 -107t-83 -57q102 -27 102 -177v-30q0 -110 10 -137h-100q-12 30 -12 151v13q0 75 -30.5 106t-118.5 31zM192 609v-223h146q75 0 110 28t35 85q0 53 -34.5 81.5t-101.5 28.5h-155zM317 -254h-81
q48 103 56 201h99q-4 -52 -25.5 -110.5t-48.5 -90.5z" />
    <glyph glyph-name="uni0157" unicode="&#x157;" horiz-adv-x="360" 
d="M73 0v371q0 38 -0.5 83t-0.5 55h96q3 -21 3 -101q20 51 64 81.5t106 31.5v-97q-170 -3 -170 -182v-242h-98zM98 -254h-81q48 103 56 201h99q-4 -52 -25.5 -110.5t-48.5 -90.5z" />
    <glyph glyph-name="Rcaron" unicode="&#x158;" horiz-adv-x="646" 
d="M325 301h-133v-301h-102v695h278q105 0 163 -51.5t58 -135.5q0 -65 -32 -107t-83 -57q102 -27 102 -177v-30q0 -110 10 -137h-100q-12 30 -12 151v13q0 75 -30.5 106t-118.5 31zM192 609v-223h146q75 0 110 28t35 85q0 53 -34.5 81.5t-101.5 28.5h-155zM371 756h-97
l-132 132h100l81 -80l85 80h100z" />
    <glyph glyph-name="rcaron" unicode="&#x159;" horiz-adv-x="360" 
d="M73 0v371q0 38 -0.5 83t-0.5 55h96q3 -21 3 -101q20 51 64 81.5t106 31.5v-97q-170 -3 -170 -182v-242h-98zM243 582h-92l-111 151h94l64 -95l62 95h94z" />
    <glyph glyph-name="Sacute" unicode="&#x15a;" horiz-adv-x="612" 
d="M40 195h104q29 -123 171 -123q74 0 109 30t35 80q0 52 -35.5 82.5t-133.5 53.5q-124 30 -173.5 75.5t-49.5 120.5q0 84 61 137.5t174 53.5q117 0 178 -55.5t70 -134.5h-105q-20 108 -146 108q-60 0 -93 -25.5t-33 -72.5q0 -46 33 -70t124 -46q138 -33 187 -85.5
t49 -129.5q0 -90 -66.5 -146.5t-191.5 -56.5q-123 0 -189.5 57t-78.5 147zM391 899h127l-173 -138h-99z" />
    <glyph glyph-name="sacute" unicode="&#x15b;" horiz-adv-x="481" 
d="M30 147h98q20 -83 119 -83q97 0 97 72q0 34 -23.5 52.5t-91.5 35.5q-106 25 -142.5 60t-36.5 92q0 60 47 102.5t141 42.5t142 -43.5t53 -104.5h-94q-17 74 -105 74q-46 0 -66.5 -18t-20.5 -45q0 -28 22 -43.5t89 -31.5q111 -26 149 -64.5t38 -100.5q0 -69 -52.5 -112.5
t-149.5 -43.5t-150 43t-63 116zM302 743h120l-155 -152h-91z" />
    <glyph glyph-name="Scircumflex" unicode="&#x15c;" horiz-adv-x="612" 
d="M40 195h104q29 -123 171 -123q74 0 109 30t35 80q0 52 -35.5 82.5t-133.5 53.5q-124 30 -173.5 75.5t-49.5 120.5q0 84 61 137.5t174 53.5q117 0 178 -55.5t70 -134.5h-105q-20 108 -146 108q-60 0 -93 -25.5t-33 -72.5q0 -46 33 -70t124 -46q138 -33 187 -85.5
t49 -129.5q0 -90 -66.5 -146.5t-191.5 -56.5q-123 0 -189.5 57t-78.5 147zM257 888h101l130 -132h-100l-81 80l-85 -80h-100z" />
    <glyph glyph-name="scircumflex" unicode="&#x15d;" horiz-adv-x="481" 
d="M30 147h98q20 -83 119 -83q97 0 97 72q0 34 -23.5 52.5t-91.5 35.5q-106 25 -142.5 60t-36.5 92q0 60 47 102.5t141 42.5t142 -43.5t53 -104.5h-94q-17 74 -105 74q-46 0 -66.5 -18t-20.5 -45q0 -28 22 -43.5t89 -31.5q111 -26 149 -64.5t38 -100.5q0 -69 -52.5 -112.5
t-149.5 -43.5t-150 43t-63 116zM195 733h91l112 -151h-94l-64 96l-63 -96h-93z" />
    <glyph glyph-name="uni015E" unicode="&#x15e;" horiz-adv-x="612" 
d="M40 195h104q29 -123 171 -123q74 0 109 30t35 80q0 52 -35.5 82.5t-133.5 53.5q-124 30 -173.5 75.5t-49.5 120.5q0 84 61 137.5t174 53.5q117 0 178 -55.5t70 -134.5h-105q-20 108 -146 108q-60 0 -93 -25.5t-33 -72.5q0 -46 33 -70t124 -46q138 -33 187 -85.5
t49 -129.5q0 -82 -55.5 -137t-160.5 -64l-35 -43q95 -19 95 -94q0 -38 -21.5 -61.5t-48 -30.5t-57.5 -7q-47 0 -73 12v63q27 -10 63 -10q52 0 52 33q0 41 -100 43v29l50 65q-108 8 -166 63.5t-69 139.5z" />
    <glyph glyph-name="uni015F" unicode="&#x15f;" horiz-adv-x="481" 
d="M30 147h98q20 -83 119 -83q97 0 97 72q0 34 -23.5 52.5t-91.5 35.5q-106 25 -142.5 60t-36.5 92q0 60 47 102.5t141 42.5t142 -43.5t53 -104.5h-94q-17 74 -105 74q-46 0 -66.5 -18t-20.5 -45q0 -28 22 -43.5t89 -31.5q111 -26 149 -64.5t38 -100.5q0 -61 -41.5 -102.5
t-119.5 -51.5l-33 -40q95 -19 95 -94q0 -38 -21.5 -61.5t-48 -30.5t-57.5 -7q-47 0 -73 12v63q27 -10 63 -10q52 0 52 33q0 41 -100 43v29l48 63q-81 7 -125 49t-54 108z" />
    <glyph glyph-name="Scaron" unicode="&#x160;" horiz-adv-x="612" 
d="M40 195h104q29 -123 171 -123q74 0 109 30t35 80q0 52 -35.5 82.5t-133.5 53.5q-124 30 -173.5 75.5t-49.5 120.5q0 84 61 137.5t174 53.5q117 0 178 -55.5t70 -134.5h-105q-20 108 -146 108q-60 0 -93 -25.5t-33 -72.5q0 -46 33 -70t124 -46q138 -33 187 -85.5
t49 -129.5q0 -90 -66.5 -146.5t-191.5 -56.5q-123 0 -189.5 57t-78.5 147zM351 756h-97l-132 132h100l81 -80l85 80h100z" />
    <glyph glyph-name="scaron" unicode="&#x161;" horiz-adv-x="481" 
d="M30 147h98q20 -83 119 -83q97 0 97 72q0 34 -23.5 52.5t-91.5 35.5q-106 25 -142.5 60t-36.5 92q0 60 47 102.5t141 42.5t142 -43.5t53 -104.5h-94q-17 74 -105 74q-46 0 -66.5 -18t-20.5 -45q0 -28 22 -43.5t89 -31.5q111 -26 149 -64.5t38 -100.5q0 -69 -52.5 -112.5
t-149.5 -43.5t-150 43t-63 116zM287 582h-92l-111 151h94l64 -95l62 95h94z" />
    <glyph glyph-name="uni0162" unicode="&#x162;" horiz-adv-x="564" 
d="M230 0v607h-222v88h548v-88h-222v-607h-9l-41 -50q95 -19 95 -94q0 -38 -21.5 -61.5t-48 -30.5t-57.5 -7q-47 0 -73 12v63q27 -10 63 -10q52 0 52 33q0 41 -100 43v29l56 73h-20z" />
    <glyph glyph-name="uni0163" unicode="&#x163;" horiz-adv-x="327" 
d="M11 431v78h86v148h98v-148h110v-78h-110v-289q0 -38 12 -54.5t45 -16.5q29 0 42 4v-73q-19 -7 -55 -9l-36 -43q95 -19 95 -94q0 -38 -21.5 -61.5t-48 -30.5t-57.5 -7q-47 0 -73 12v63q27 -10 63 -10q52 0 52 33q0 41 -100 43v29l55 72q-71 20 -71 123v309h-86z" />
    <glyph glyph-name="Tcaron" unicode="&#x164;" horiz-adv-x="564" 
d="M230 0v607h-222v88h548v-88h-222v-607h-104zM328 756h-97l-132 132h100l81 -80l85 80h100z" />
    <glyph glyph-name="tcaron" unicode="&#x165;" horiz-adv-x="327" 
d="M336 590h-63l-1 218h80zM11 431v78h86v148h98v-148h110v-78h-110v-289q0 -38 12 -54.5t45 -16.5q29 0 42 4v-73q-26 -9 -79 -9q-62 0 -90 31.5t-28 97.5v309h-86z" />
    <glyph glyph-name="Utilde" unicode="&#x168;" horiz-adv-x="717" 
d="M83 695h104v-418q0 -109 48.5 -155t123.5 -46q82 0 126.5 46t44.5 155v418h103v-412q0 -292 -276 -292q-58 0 -105.5 14.5t-86.5 46.5t-60.5 89t-21.5 136v418zM255 768h-69v25q0 99 87 99q35 0 90 -25.5t70 -25.5q30 0 30 42v10h67v-21q0 -58 -22 -82.5t-66 -24.5
q-31 0 -86 26t-73 26q-28 0 -28 -32v-17z" />
    <glyph glyph-name="utilde" unicode="&#x169;" horiz-adv-x="562" 
d="M489 509v-361q0 -26 0.5 -79.5t0.5 -68.5h-96q-3 20 -3 73q-40 -85 -151 -85q-75 0 -122 44.5t-47 142.5v334h98v-313q0 -124 100 -124q66 0 94 39.5t28 131.5v266h98zM190 602h-68v25q0 99 84 99q31 0 77.5 -24t61.5 -24q28 0 28 40v10h66v-22q0 -105 -86 -105
q-31 0 -75 24t-62 24q-26 0 -26 -31v-16z" />
    <glyph glyph-name="Umacron" unicode="&#x16a;" horiz-adv-x="717" 
d="M83 695h104v-418q0 -109 48.5 -155t123.5 -46q82 0 126.5 46t44.5 155v418h103v-412q0 -292 -276 -292q-58 0 -105.5 14.5t-86.5 46.5t-60.5 89t-21.5 136v418zM215 856h286v-75h-286v75z" />
    <glyph glyph-name="umacron" unicode="&#x16b;" horiz-adv-x="562" 
d="M489 509v-361q0 -26 0.5 -79.5t0.5 -68.5h-96q-3 20 -3 73q-40 -85 -151 -85q-75 0 -122 44.5t-47 142.5v334h98v-313q0 -124 100 -124q66 0 94 39.5t28 131.5v266h98zM140 701h282v-77h-282v77z" />
    <glyph glyph-name="Ubreve" unicode="&#x16c;" horiz-adv-x="717" 
d="M83 695h104v-418q0 -109 48.5 -155t123.5 -46q82 0 126.5 46t44.5 155v418h103v-412q0 -292 -276 -292q-58 0 -105.5 14.5t-86.5 46.5t-60.5 89t-21.5 136v418zM200 888h74q5 -29 27.5 -46.5t56.5 -17.5q72 0 85 64h73q-9 -58 -49 -95.5t-110 -37.5q-74 0 -113 39t-44 94
z" />
    <glyph glyph-name="ubreve" unicode="&#x16d;" horiz-adv-x="562" 
d="M489 509v-361q0 -26 0.5 -79.5t0.5 -68.5h-96q-3 20 -3 73q-40 -85 -151 -85q-75 0 -122 44.5t-47 142.5v334h98v-313q0 -124 100 -124q66 0 94 39.5t28 131.5v266h98zM133 724h71q16 -66 76 -66q37 0 53.5 17.5t24.5 48.5h70q-8 -61 -45.5 -100t-102.5 -39
q-70 0 -106.5 40.5t-40.5 98.5z" />
    <glyph glyph-name="Uring" unicode="&#x16e;" horiz-adv-x="717" 
d="M83 695h104v-418q0 -109 48.5 -155t123.5 -46q82 0 126.5 46t44.5 155v418h103v-412q0 -292 -276 -292q-58 0 -105.5 14.5t-86.5 46.5t-60.5 89t-21.5 136v418zM358 736q-50 0 -79.5 28t-29.5 70t29.5 70.5t79.5 28.5t79.5 -28t29.5 -70q0 -43 -30 -71t-79 -28zM358 784
q24 0 37.5 14.5t13.5 35.5t-13 36.5t-38 15.5t-38 -14.5t-13 -35.5q0 -22 13 -37t38 -15z" />
    <glyph glyph-name="uring" unicode="&#x16f;" horiz-adv-x="562" 
d="M489 509v-361q0 -26 0.5 -79.5t0.5 -68.5h-96q-3 20 -3 73q-40 -85 -151 -85q-75 0 -122 44.5t-47 142.5v334h98v-313q0 -124 100 -124q66 0 94 39.5t28 131.5v266h98zM281 567q-50 0 -79.5 28t-29.5 70t29.5 70.5t79.5 28.5t79.5 -28t29.5 -70q0 -43 -30 -71t-79 -28z
M281 615q24 0 37.5 14.5t13.5 35.5t-13 36.5t-38 15.5t-38 -14.5t-13 -35.5q0 -22 13 -37t38 -15z" />
    <glyph glyph-name="Uhungarumlaut" unicode="&#x170;" horiz-adv-x="717" 
d="M83 695h104v-418q0 -109 48.5 -155t123.5 -46q82 0 126.5 46t44.5 155v418h103v-412q0 -292 -276 -292q-58 0 -105.5 14.5t-86.5 46.5t-60.5 89t-21.5 136v418zM318 898h110l-138 -137h-84zM505 898h108l-137 -137h-84z" />
    <glyph glyph-name="uhungarumlaut" unicode="&#x171;" horiz-adv-x="562" 
d="M489 509v-361q0 -26 0.5 -79.5t0.5 -68.5h-96q-3 20 -3 73q-40 -85 -151 -85q-75 0 -122 44.5t-47 142.5v334h98v-313q0 -124 100 -124q66 0 94 39.5t28 131.5v266h98zM210 580h-79l100 154h102zM396 580h-79l100 154h102z" />
    <glyph glyph-name="Uogonek" unicode="&#x172;" horiz-adv-x="717" 
d="M83 695h104v-418q0 -109 48.5 -155t123.5 -46q82 0 126.5 46t44.5 155v418h103v-412q0 -216 -153 -273q-63 -53 -63 -101q0 -24 15.5 -37.5t39.5 -13.5q33 0 55 8v-73q-31 -16 -82 -16q-55 0 -87 29.5t-32 81.5t42 103h-11q-58 0 -105.5 14.5t-86.5 46.5t-60.5 89
t-21.5 136v418z" />
    <glyph glyph-name="uogonek" unicode="&#x173;" horiz-adv-x="562" 
d="M489 509v-361q0 -26 0.5 -79.5t0.5 -68.5h-2q-65 -54 -65 -103q0 -24 15.5 -37.5t39.5 -13.5q33 0 55 8v-73q-31 -16 -82 -16q-55 0 -87 29.5t-32 81.5q0 63 62 125q-3 21 -3 72q-40 -85 -151 -85q-75 0 -122 44.5t-47 142.5v334h98v-313q0 -124 100 -124q66 0 94 39.5
t28 131.5v266h98z" />
    <glyph glyph-name="Wcircumflex" unicode="&#x174;" horiz-adv-x="939" 
d="M315 0h-109l-185 695h110q20 -89 54.5 -232.5t54.5 -230t25 -121.5h1q11 53 73 281.5t81 302.5h99q132 -497 147 -580h1q10 57 37.5 164t66 246t46.5 170h101l-200 -695h-109q-13 49 -49 185t-61.5 235t-33.5 139h-1q-7 -37 -27 -115t-37.5 -141.5t-47 -169t-37.5 -133.5
zM421 888h101l130 -132h-100l-81 80l-85 -80h-100z" />
    <glyph glyph-name="wcircumflex" unicode="&#x175;" horiz-adv-x="774" 
d="M23 509h104q94 -363 103 -419h1q16 78 112 419h95q98 -367 106 -410h1q19 87 107 410h99l-156 -509h-106q-102 396 -103 403h-1q-8 -50 -106 -403h-109zM341 733h91l112 -151h-94l-64 96l-63 -96h-93z" />
    <glyph glyph-name="Ycircumflex" unicode="&#x176;" horiz-adv-x="596" 
d="M347 0h-104v253q0 11 -5 19l-244 423h118q177 -325 188 -347q29 59 192 347h110l-251 -424q-4 -8 -4 -18v-253zM250 888h101l130 -132h-100l-81 80l-85 -80h-100z" />
    <glyph glyph-name="ycircumflex" unicode="&#x177;" horiz-adv-x="488" 
d="M9 509h106q116 -347 135 -421h1q24 92 129 421h99l-181 -531q-38 -112 -77.5 -149.5t-120.5 -37.5q-26 0 -57 3v84q20 -3 41 -3q46 0 70 23t45 83zM198 733h91l112 -151h-94l-64 96l-63 -96h-93z" />
    <glyph glyph-name="Ydieresis" unicode="&#x178;" horiz-adv-x="596" 
d="M347 0h-104v253q0 11 -5 19l-244 423h118q177 -325 188 -347q29 59 192 347h110l-251 -424q-4 -8 -4 -18v-253zM242 766h-84v113h84v-113zM438 766h-83v113h83v-113z" />
    <glyph glyph-name="Zacute" unicode="&#x179;" horiz-adv-x="601" 
d="M30 0v78l415 529h-395v88h514v-86l-407 -522h421l-14 -87h-534zM382 899h127l-173 -138h-99z" />
    <glyph glyph-name="zacute" unicode="&#x17a;" horiz-adv-x="459" 
d="M26 0v78l285 350h-271v81h383v-81l-281 -347h295l-14 -81h-397zM290 743h120l-155 -152h-91z" />
    <glyph glyph-name="Zdotaccent" unicode="&#x17b;" horiz-adv-x="601" 
d="M30 0v78l415 529h-395v88h514v-86l-407 -522h421l-14 -87h-534zM350 776h-100v112h100v-112z" />
    <glyph glyph-name="zdotaccent" unicode="&#x17c;" horiz-adv-x="459" 
d="M26 0v78l285 350h-271v81h383v-81l-281 -347h295l-14 -81h-397zM278 620h-98v113h98v-113z" />
    <glyph glyph-name="Zcaron" unicode="&#x17d;" horiz-adv-x="601" 
d="M30 0v78l415 529h-395v88h514v-86l-407 -522h421l-14 -87h-534zM346 764h-97l-132 132h100l81 -80l85 80h100z" />
    <glyph glyph-name="zcaron" unicode="&#x17e;" horiz-adv-x="459" 
d="M26 0v78l285 350h-271v81h383v-81l-281 -347h295l-14 -81h-397zM275 582h-92l-111 151h94l64 -95l62 95h94z" />
    <glyph glyph-name="uni018F" unicode="&#x18f;" horiz-adv-x="718" 
d="M666 356q0 -163 -82 -264.5t-233 -101.5q-149 0 -226.5 92.5t-77.5 241.5q0 14 2 50h511q-2 113 -56 178.5t-154 65.5q-140 0 -193 -120h-100q25 86 99.5 146.5t198.5 60.5q151 0 231.5 -101t79.5 -248zM558 294h-404q0 -103 54.5 -161t145.5 -58q89 0 141.5 57t62.5 162
z" />
    <glyph glyph-name="florin" unicode="&#x192;" horiz-adv-x="528" 
d="M508 679l-20 -77q-22 12 -54 12q-43 0 -62.5 -34.5t-29.5 -97.5l-11 -69h117v-76h-128l-36 -231q-8 -52 -19.5 -89.5t-30.5 -69.5t-50 -48t-73 -16q-62 0 -94 21l20 78q26 -15 65 -15q37 0 53 31t29 112l37 227h-95v76h107l9 53q7 46 17.5 81.5t30.5 72t54.5 57
t81.5 20.5q57 0 82 -18z" />
    <glyph glyph-name="Ohorn" unicode="&#x1a0;" horiz-adv-x="754" 
d="M381 705q115 0 194 -62q45 15 45 58q0 29 -11 60h89q8 -21 8 -57q0 -85 -74 -118q70 -95 70 -235q0 -153 -86 -257t-243 -104q-150 0 -235.5 101t-85.5 256t87.5 256.5t241.5 101.5zM377 618q-108 0 -162.5 -75.5t-54.5 -192.5t57 -195t160 -78q75 0 125 39t71 98.5
t21 134.5q0 117 -55.5 193t-161.5 76z" />
    <glyph glyph-name="ohorn" unicode="&#x1a1;" horiz-adv-x="555" 
d="M281 521q89 0 149 -51q52 14 52 60q0 29 -11 60h89q8 -21 8 -57q0 -43 -22.5 -76t-65.5 -47q37 -65 37 -154q0 -116 -64 -192t-178 -76q-109 0 -173 74.5t-64 191.5t65 192t178 75zM277 440q-67 0 -102.5 -49t-35.5 -136q0 -83 38 -134.5t102 -51.5q65 0 101.5 50
t36.5 135q0 86 -36.5 136t-103.5 50z" />
    <glyph glyph-name="Uhorn" unicode="&#x1af;" horiz-adv-x="717" 
d="M83 695h104v-418q0 -109 48.5 -155t123.5 -46q82 0 126.5 46t44.5 155v418h57q57 13 57 61q0 29 -11 60h89q8 -21 8 -57q0 -45 -25 -79.5t-72 -46.5v-350q0 -292 -276 -292q-58 0 -105.5 14.5t-86.5 46.5t-60.5 89t-21.5 136v418z" />
    <glyph glyph-name="uhorn" unicode="&#x1b0;" horiz-adv-x="562" 
d="M391 73q-40 -85 -151 -85q-75 0 -122 44.5t-47 142.5v334h98v-313q0 -124 100 -124q66 0 94 39.5t28 131.5v266h41q67 11 67 63q0 29 -11 60h89q8 -21 8 -57q0 -45 -24.5 -79t-71.5 -46v-302q0 -26 0.5 -79.5t0.5 -68.5h-96q-3 20 -3 73z" />
    <glyph glyph-name="uni01CD" unicode="&#x1cd;" horiz-adv-x="665" 
d="M464 199h-273l-70 -199h-103l245 695h128l256 -695h-110zM217 287h222q-103 285 -114 326h-1q-9 -33 -107 -326zM376 756h-97l-132 132h100l81 -80l85 80h100z" />
    <glyph glyph-name="uni01CE" unicode="&#x1ce;" horiz-adv-x="534" 
d="M460 353v-238q0 -82 7 -115h-93q-5 15 -9 63q-39 -75 -154 -75q-85 0 -128.5 46t-43.5 110q0 84 62.5 125.5t178.5 41.5h84v41q0 94 -103 94q-55 0 -75 -20.5t-28 -57.5h-95q6 66 53 110t148 43q196 0 196 -168zM365 229v16h-78q-148 0 -148 -95q0 -39 25 -63t69 -24
q42 0 69.5 13t40.5 38t17.5 51.5t4.5 63.5zM314 582h-92l-111 151h94l64 -95l62 95h94z" />
    <glyph glyph-name="uni01CF" unicode="&#x1cf;" horiz-adv-x="283" 
d="M90 695h103v-695h-103v695zM190 756h-97l-132 132h100l81 -80l85 80h100z" />
    <glyph glyph-name="uni01D0" unicode="&#x1d0;" horiz-adv-x="244" 
d="M73 0v509h98v-509h-98zM168 582h-92l-111 151h94l64 -95l62 95h94z" />
    <glyph glyph-name="uni01D1" unicode="&#x1d1;" horiz-adv-x="754" 
d="M381 705q146 0 233.5 -98t87.5 -256q0 -153 -86 -257t-243 -104q-150 0 -235.5 101t-85.5 256t87.5 256.5t241.5 101.5zM377 618q-108 0 -162.5 -75.5t-54.5 -192.5t57 -195t160 -78q75 0 125 39t71 98.5t21 134.5q0 117 -55.5 193t-161.5 76zM423 760h-97l-132 132h100
l81 -80l85 80h100z" />
    <glyph glyph-name="uni01D2" unicode="&#x1d2;" horiz-adv-x="555" 
d="M281 521q107 0 171.5 -72.5t64.5 -192.5q0 -116 -64 -192t-178 -76q-109 0 -173 74.5t-64 191.5t65 192t178 75zM277 440q-67 0 -102.5 -49t-35.5 -136q0 -83 38 -134.5t102 -51.5q65 0 101.5 50t36.5 135q0 86 -36.5 136t-103.5 50zM323 582h-92l-111 151h94l64 -95
l62 95h94z" />
    <glyph glyph-name="uni01D3" unicode="&#x1d3;" horiz-adv-x="717" 
d="M83 695h104v-418q0 -109 48.5 -155t123.5 -46q82 0 126.5 46t44.5 155v418h103v-412q0 -292 -276 -292q-58 0 -105.5 14.5t-86.5 46.5t-60.5 89t-21.5 136v418zM404 761h-97l-132 132h100l81 -80l85 80h100z" />
    <glyph glyph-name="uni01D4" unicode="&#x1d4;" horiz-adv-x="562" 
d="M489 509v-361q0 -26 0.5 -79.5t0.5 -68.5h-96q-3 20 -3 73q-40 -85 -151 -85q-75 0 -122 44.5t-47 142.5v334h98v-313q0 -124 100 -124q66 0 94 39.5t28 131.5v266h98zM327 582h-92l-111 151h94l64 -95l62 95h94z" />
    <glyph glyph-name="uni01D5" unicode="&#x1d5;" horiz-adv-x="717" 
d="M83 695h104v-418q0 -109 48.5 -155t123.5 -46q82 0 126.5 46t44.5 155v418h103v-412q0 -292 -276 -292q-58 0 -105.5 14.5t-86.5 46.5t-60.5 89t-21.5 136v418zM297 756h-84v92h84v-92zM492 896h-269v69h269v-69zM503 756h-84v92h84v-92z" />
    <glyph glyph-name="uni01D6" unicode="&#x1d6;" horiz-adv-x="562" 
d="M489 509v-361q0 -26 0.5 -79.5t0.5 -68.5h-96q-3 20 -3 73q-40 -85 -151 -85q-75 0 -122 44.5t-47 142.5v334h98v-313q0 -124 100 -124q66 0 94 39.5t28 131.5v266h98zM227 569h-84v92h84v-92zM415 717h-269v67h269v-67zM419 569h-84v92h84v-92z" />
    <glyph glyph-name="uni01D7" unicode="&#x1d7;" horiz-adv-x="717" 
d="M83 695h104v-418q0 -109 48.5 -155t123.5 -46q82 0 126.5 46t44.5 155v418h103v-412q0 -292 -276 -292q-58 0 -105.5 14.5t-86.5 46.5t-60.5 89t-21.5 136v418zM213 844h84v-91h-84v91zM308 876l98 119h121l-131 -119h-88zM503 753h-84v91h84v-91z" />
    <glyph glyph-name="uni01D8" unicode="&#x1d8;" horiz-adv-x="562" 
d="M489 509v-361q0 -26 0.5 -79.5t0.5 -68.5h-96q-3 20 -3 73q-40 -85 -151 -85q-75 0 -122 44.5t-47 142.5v334h98v-313q0 -124 100 -124q66 0 94 39.5t28 131.5v266h98zM143 661h84v-92h-84v92zM317 692h-88l96 119h117zM419 569h-84v92h84v-92z" />
    <glyph glyph-name="uni01D9" unicode="&#x1d9;" horiz-adv-x="717" 
d="M83 695h104v-418q0 -109 48.5 -155t123.5 -46q82 0 126.5 46t44.5 155v418h103v-412q0 -292 -276 -292q-58 0 -105.5 14.5t-86.5 46.5t-60.5 89t-21.5 136v418zM402 873h-94l-107 119h90l65 -71l66 71h88zM299 752h-84v91h84v-91zM505 752h-84v91h84v-91z" />
    <glyph glyph-name="uni01DA" unicode="&#x1da;" horiz-adv-x="562" 
d="M489 509v-361q0 -26 0.5 -79.5t0.5 -68.5h-96q-3 20 -3 73q-40 -85 -151 -85q-75 0 -122 44.5t-47 142.5v334h98v-313q0 -124 100 -124q66 0 94 39.5t28 131.5v266h98zM328 687h-93l-106 119h88l65 -73l64 73h88zM227 564h-84v92h84v-92zM419 564h-84v92h84v-92z" />
    <glyph glyph-name="uni01DB" unicode="&#x1db;" horiz-adv-x="717" 
d="M83 695h104v-418q0 -109 48.5 -155t123.5 -46q82 0 126.5 46t44.5 155v418h103v-412q0 -292 -276 -292q-58 0 -105.5 14.5t-86.5 46.5t-60.5 89t-21.5 136v418zM213 845h84v-91h-84v91zM406 877h-87l-132 118h117zM503 754h-84v91h84v-91z" />
    <glyph glyph-name="uni01DC" unicode="&#x1dc;" horiz-adv-x="562" 
d="M489 509v-361q0 -26 0.5 -79.5t0.5 -68.5h-96q-3 20 -3 73q-40 -85 -151 -85q-75 0 -122 44.5t-47 142.5v334h98v-313q0 -124 100 -124q66 0 94 39.5t28 131.5v266h98zM143 656h84v-92h-84v92zM119 806h119l95 -119h-86zM419 564h-84v92h84v-92z" />
    <glyph glyph-name="Gcaron" unicode="&#x1e6;" horiz-adv-x="733" 
d="M661 378v-378h-78q-7 21 -10 89q-63 -99 -213 -99q-146 0 -227 98t-81 252q0 161 86 263t241 102q120 0 195.5 -59t90.5 -154h-103q-40 128 -185 128q-111 0 -164 -77t-53 -198q0 -73 21 -132t70.5 -98t122.5 -39q186 0 186 207v7h-187v88h288zM417 761h-97l-132 132h100
l81 -80l85 80h100z" />
    <glyph glyph-name="gcaron" unicode="&#x1e7;" horiz-adv-x="573" 
d="M501 362v-313q0 -127 -56.5 -192.5t-181.5 -65.5q-57 0 -99 14.5t-65 39.5t-34.5 50t-15.5 53h100q22 -81 119 -81q79 0 108 45.5t29 138.5v38q-43 -86 -156 -86q-95 0 -153 70t-58 181q0 121 63 194t158 73q64 0 100 -23.5t46 -53.5q2 46 4 65h93q0 -14 -0.5 -67
t-0.5 -80zM140 258q0 -78 36.5 -125t96.5 -47q75 0 105 45.5t30 132.5q0 88 -28.5 131.5t-103.5 43.5q-65 0 -100.5 -49t-35.5 -132zM331 582h-92l-111 151h94l64 -95l62 95h94z" />
    <glyph glyph-name="uni0218" unicode="&#x218;" horiz-adv-x="612" 
d="M40 195h104q29 -123 171 -123q74 0 109 30t35 80q0 52 -35.5 82.5t-133.5 53.5q-124 30 -173.5 75.5t-49.5 120.5q0 84 61 137.5t174 53.5q117 0 178 -55.5t70 -134.5h-105q-20 108 -146 108q-60 0 -93 -25.5t-33 -72.5q0 -46 33 -70t124 -46q138 -33 187 -85.5
t49 -129.5q0 -90 -66.5 -146.5t-191.5 -56.5q-123 0 -189.5 57t-78.5 147zM295 -257h-81q48 103 56 201h99q-4 -52 -25.5 -110.5t-48.5 -90.5z" />
    <glyph glyph-name="uni0219" unicode="&#x219;" horiz-adv-x="481" 
d="M30 147h98q20 -83 119 -83q97 0 97 72q0 34 -23.5 52.5t-91.5 35.5q-106 25 -142.5 60t-36.5 92q0 60 47 102.5t141 42.5t142 -43.5t53 -104.5h-94q-17 74 -105 74q-46 0 -66.5 -18t-20.5 -45q0 -28 22 -43.5t89 -31.5q111 -26 149 -64.5t38 -100.5q0 -69 -52.5 -112.5
t-149.5 -43.5t-150 43t-63 116zM229 -254h-81q48 103 56 201h99q-4 -52 -25.5 -110.5t-48.5 -90.5z" />
    <glyph glyph-name="uni021A" unicode="&#x21a;" horiz-adv-x="564" 
d="M230 0v607h-222v88h548v-88h-222v-607h-104zM258 -254h-81q48 103 56 201h99q-4 -52 -25.5 -110.5t-48.5 -90.5z" />
    <glyph glyph-name="uni021B" unicode="&#x21b;" horiz-adv-x="327" 
d="M11 431v78h86v148h98v-148h110v-78h-110v-289q0 -38 12 -54.5t45 -16.5q29 0 42 4v-73q-26 -9 -79 -9q-62 0 -90 31.5t-28 97.5v309h-86zM157 -254h-81q48 103 56 201h99q-4 -52 -25.5 -110.5t-48.5 -90.5z" />
    <glyph glyph-name="uni0237" unicode="&#x237;" horiz-adv-x="244" 
d="M73 509h98v-520q0 -109 -31.5 -153.5t-116.5 -44.5q-18 0 -36 2v82q7 -1 20 -1q39 0 52.5 22t13.5 75v538z" />
    <glyph glyph-name="uni0251" unicode="&#x251;" horiz-adv-x="580" 
d="M407 509h98v-383q0 -87 6 -127h-90q-4 21 -8 75q-41 -86 -161 -86q-96 0 -155 72t-59 189q0 116 63 194t166 78q60 0 94 -20t46 -47v55zM140 252q0 -85 37 -133t96 -48q137 0 137 190q0 177 -130 177q-63 0 -101.5 -49.5t-38.5 -136.5z" />
    <glyph glyph-name="uni0259" unicode="&#x259;" horiz-adv-x="523" 
d="M32 273h354q-1 74 -36 120.5t-96 46.5q-51 0 -76.5 -20t-39.5 -54h-99q9 28 23 52.5t38.5 49t65 39t91.5 14.5q113 0 170.5 -76t57.5 -185q0 -120 -60.5 -196t-173.5 -76q-59 0 -104 22t-69.5 58t-36 77t-11.5 86q0 28 2 42zM383 206h-254q1 -63 32 -102.5t91 -39.5
q117 0 131 142z" />
    <glyph glyph-name="uni0261" unicode="&#x261;" horiz-adv-x="573" 
d="M501 362v-313q0 -127 -56.5 -192.5t-181.5 -65.5q-57 0 -99 14.5t-65 39.5t-34.5 50t-15.5 53h100q22 -81 119 -81q79 0 108 45.5t29 138.5v38q-43 -86 -156 -86q-95 0 -153 70t-58 181q0 121 63 194t158 73q64 0 100 -23.5t46 -53.5q2 46 4 65h93q0 -14 -0.5 -67
t-0.5 -80zM140 258q0 -78 36.5 -125t96.5 -47q75 0 105 45.5t30 132.5q0 88 -28.5 131.5t-103.5 43.5q-65 0 -100.5 -49t-35.5 -132z" />
    <glyph glyph-name="uni02BB" unicode="&#x2bb;" horiz-adv-x="349" 
d="M167 733h81q-42 -137 -46 -270h-102q5 65 24 142.5t43 127.5z" />
    <glyph glyph-name="uni02BC" unicode="&#x2bc;" horiz-adv-x="349" 
d="M181 463h-81q42 132 46 270h103q-4 -64 -24 -141.5t-44 -128.5z" />
    <glyph glyph-name="uni02BE" unicode="&#x2be;" horiz-adv-x="315" 
d="M100 616q49 3 49 45q0 39 -49 44v56q49 0 82 -27t33 -72q0 -47 -33.5 -74.5t-81.5 -27.5v56z" />
    <glyph glyph-name="uni02BF" unicode="&#x2bf;" horiz-adv-x="315" 
d="M215 616v-57q-49 0 -82 27.5t-33 72.5q0 46 33 73.5t81 27.5v-56q-48 -3 -48 -45q0 -39 49 -43z" />
    <glyph glyph-name="circumflex" unicode="&#x2c6;" 
d="M154 733h91l112 -151h-94l-64 96l-63 -96h-93z" />
    <glyph glyph-name="caron" unicode="&#x2c7;" 
d="M246 582h-92l-111 151h94l64 -95l62 95h94z" />
    <glyph glyph-name="uni02C8" unicode="&#x2c8;" horiz-adv-x="289" 
d="M189 565h-89v182h89v-182z" />
    <glyph glyph-name="uni02C9" unicode="&#x2c9;" horiz-adv-x="482" 
d="M100 701h282v-77h-282v77z" />
    <glyph glyph-name="uni02CA" unicode="&#x2ca;" horiz-adv-x="430" 
d="M231 743h120l-155 -152h-91z" />
    <glyph glyph-name="uni02CB" unicode="&#x2cb;" horiz-adv-x="430" 
d="M78 743h121l125 -152h-91z" />
    <glyph glyph-name="uni02CC" unicode="&#x2cc;" horiz-adv-x="289" 
d="M189 -235h-89v182h89v-182z" />
    <glyph glyph-name="breve" unicode="&#x2d8;" 
d="M52 724h71q16 -66 76 -66q37 0 53.5 17.5t24.5 48.5h70q-8 -61 -45.5 -100t-102.5 -39q-70 0 -106.5 40.5t-40.5 98.5z" />
    <glyph glyph-name="dotaccent" unicode="&#x2d9;" 
d="M249 620h-98v113h98v-113z" />
    <glyph glyph-name="ring" unicode="&#x2da;" 
d="M200 567q-50 0 -79.5 28t-29.5 70t29.5 70.5t79.5 28.5t79.5 -28t29.5 -70q0 -43 -30 -71t-79 -28zM200 615q24 0 37.5 14.5t13.5 35.5t-13 36.5t-38 15.5t-38 -14.5t-13 -35.5q0 -22 13 -37t38 -15z" />
    <glyph glyph-name="ogonek" unicode="&#x2db;" 
d="M187 14l81 -14q-65 -54 -65 -103q0 -24 15.5 -37.5t39.5 -13.5q33 0 55 8v-73q-31 -16 -82 -16q-55 0 -87 29.5t-32 81.5q0 71 75 138z" />
    <glyph glyph-name="tilde" unicode="&#x2dc;" 
d="M109 602h-68v25q0 99 84 99q31 0 77.5 -24t61.5 -24q28 0 28 40v10h66v-22q0 -105 -86 -105q-31 0 -75 24t-62 24q-26 0 -26 -31v-16z" />
    <glyph glyph-name="hungarumlaut" unicode="&#x2dd;" 
d="M129 580h-79l100 154h102zM315 580h-79l100 154h102z" />
    <glyph glyph-name="uni0300" unicode="&#x300;" horiz-adv-x="0" 
d="M-137 743h121l125 -152h-91z" />
    <glyph glyph-name="uni0301" unicode="&#x301;" horiz-adv-x="0" 
d="M16 743h120l-155 -152h-91z" />
    <glyph glyph-name="uni0302" unicode="&#x302;" horiz-adv-x="0" 
d="M-46 733h91l112 -151h-94l-64 96l-63 -96h-93z" />
    <glyph glyph-name="uni0303" unicode="&#x303;" horiz-adv-x="0" 
d="M-91 602h-68v25q0 99 84 99q31 0 77.5 -24t61.5 -24q28 0 28 40v10h66v-22q0 -105 -86 -105q-31 0 -75 24t-62 24q-26 0 -26 -31v-16z" />
    <glyph glyph-name="uni0304" unicode="&#x304;" horiz-adv-x="0" 
d="M-141 701h282v-77h-282v77z" />
    <glyph glyph-name="uni0306" unicode="&#x306;" horiz-adv-x="0" 
d="M-148 724h71q16 -66 76 -66q37 0 53.5 17.5t24.5 48.5h70q-8 -61 -45.5 -100t-102.5 -39q-70 0 -106.5 40.5t-40.5 98.5z" />
    <glyph glyph-name="uni0307" unicode="&#x307;" horiz-adv-x="0" 
d="M49 620h-98v113h98v-113z" />
    <glyph glyph-name="uni0308" unicode="&#x308;" horiz-adv-x="0" 
d="M-51 620h-84v113h84v-113zM134 620h-83v113h83v-113z" />
    <glyph glyph-name="uni0309" unicode="&#x309;" horiz-adv-x="0" 
d="M43 583h-87q31 27 44 45.5t13 38.5q0 35 -41 35q-28 0 -58 -16l-22 57q46 30 102 30q49 0 76.5 -25.5t27.5 -63.5q0 -53 -55 -101z" />
    <glyph glyph-name="uni030A" unicode="&#x30a;" horiz-adv-x="0" 
d="M0 567q-50 0 -79.5 28t-29.5 70t29.5 70.5t79.5 28.5t79.5 -28t29.5 -70q0 -43 -30 -71t-79 -28zM0 615q24 0 37.5 14.5t13.5 35.5t-13 36.5t-38 15.5t-38 -14.5t-13 -35.5q0 -22 13 -37t38 -15z" />
    <glyph glyph-name="uni030B" unicode="&#x30b;" horiz-adv-x="0" 
d="M-109 580h-79l100 154h102zM77 580h-79l100 154h102z" />
    <glyph glyph-name="uni030C" unicode="&#x30c;" horiz-adv-x="0" 
d="M46 582h-92l-111 151h94l64 -95l62 95h94z" />
    <glyph glyph-name="uni031B" unicode="&#x31b;" horiz-adv-x="0" 
d="M-38 468l-31 64q67 11 67 63q0 29 -11 60h89q8 -21 8 -57q0 -51 -31.5 -87.5t-90.5 -42.5z" />
    <glyph glyph-name="uni0323" unicode="&#x323;" horiz-adv-x="0" 
d="M52 -187h-104v114h104v-114z" />
    <glyph glyph-name="uni0324" unicode="&#x324;" horiz-adv-x="0" 
d="M-51 -190h-84v113h84v-113zM134 -190h-83v113h83v-113z" />
    <glyph glyph-name="uni0326" unicode="&#x326;" horiz-adv-x="0" 
d="M-6 -254h-81q48 103 56 201h99q-4 -52 -25.5 -110.5t-48.5 -90.5z" />
    <glyph glyph-name="uni0327" unicode="&#x327;" horiz-adv-x="0" 
d="M-16 10l67 -10l-41 -50q95 -19 95 -94q0 -38 -21.5 -61.5t-48 -30.5t-57.5 -7q-47 0 -73 12v63q27 -10 63 -10q52 0 52 33q0 41 -100 43v29z" />
    <glyph glyph-name="uni0328" unicode="&#x328;" horiz-adv-x="0" 
d="M-33 14l81 -14q-65 -54 -65 -103q0 -24 15.5 -37.5t39.5 -13.5q33 0 55 8v-73q-31 -16 -82 -16q-55 0 -87 29.5t-32 81.5q0 71 75 138z" />
    <glyph glyph-name="uni032E" unicode="&#x32e;" horiz-adv-x="0" 
d="M-148 -59h71q16 -66 76 -66q37 0 53.5 17.5t24.5 48.5h70q-8 -61 -45.5 -100t-102.5 -39q-70 0 -106.5 40.5t-40.5 98.5z" />
    <glyph glyph-name="uni0331" unicode="&#x331;" horiz-adv-x="0" 
d="M-141 -94h282v-77h-282v77z" />
    <glyph glyph-name="pi" unicode="&#x3c0;" horiz-adv-x="552" 
d="M369 0l1 430h-193v-430h-98v430q-59 0 -84 -3v75q35 7 164 7h390v-79h-82v-430h-98z" />
    <glyph glyph-name="uni1E0C" unicode="&#x1e0c;" horiz-adv-x="724" 
d="M90 0v695h253q148 0 238.5 -93t90.5 -247q0 -156 -91 -255.5t-242 -99.5h-249zM193 608v-522h139q114 0 173 73.5t59 193.5q0 109 -58 182t-173 73h-140zM388 -187h-104v114h104v-114z" />
    <glyph glyph-name="uni1E0D" unicode="&#x1e0d;" horiz-adv-x="577" 
d="M407 733h98v-590q0 -94 1 -143h-95q-4 28 -4 69q-40 -81 -157 -81q-97 0 -154.5 72t-57.5 189q0 120 62 196t167 76q109 0 140 -62v274zM140 252q0 -86 36.5 -134t95.5 -48q42 0 70 14.5t42.5 42.5t20 59.5t5.5 74.5q0 90 -27 134t-104 44q-66 0 -102.5 -49t-36.5 -138z
M340 -187h-104v114h104v-114z" />
    <glyph glyph-name="uni1E0E" unicode="&#x1e0e;" horiz-adv-x="724" 
d="M90 0v695h253q148 0 238.5 -93t90.5 -247q0 -156 -91 -255.5t-242 -99.5h-249zM193 608v-522h139q114 0 173 73.5t59 193.5q0 109 -58 182t-173 73h-140zM195 -94h282v-77h-282v77z" />
    <glyph glyph-name="uni1E0F" unicode="&#x1e0f;" horiz-adv-x="577" 
d="M407 733h98v-590q0 -94 1 -143h-95q-4 28 -4 69q-40 -81 -157 -81q-97 0 -154.5 72t-57.5 189q0 120 62 196t167 76q109 0 140 -62v274zM140 252q0 -86 36.5 -134t95.5 -48q42 0 70 14.5t42.5 42.5t20 59.5t5.5 74.5q0 90 -27 134t-104 44q-66 0 -102.5 -49t-36.5 -138z
M147 -94h282v-77h-282v77z" />
    <glyph glyph-name="uni1E20" unicode="&#x1e20;" horiz-adv-x="733" 
d="M661 378v-378h-78q-7 21 -10 89q-63 -99 -213 -99q-146 0 -227 98t-81 252q0 161 86 263t241 102q120 0 195.5 -59t90.5 -154h-103q-40 128 -185 128q-111 0 -164 -77t-53 -198q0 -73 21 -132t70.5 -98t122.5 -39q186 0 186 207v7h-187v88h288zM228 858h286v-75h-286v75z
" />
    <glyph glyph-name="uni1E21" unicode="&#x1e21;" horiz-adv-x="573" 
d="M501 362v-313q0 -127 -56.5 -192.5t-181.5 -65.5q-57 0 -99 14.5t-65 39.5t-34.5 50t-15.5 53h100q22 -81 119 -81q79 0 108 45.5t29 138.5v38q-43 -86 -156 -86q-95 0 -153 70t-58 181q0 121 63 194t158 73q64 0 100 -23.5t46 -53.5q2 46 4 65h93q0 -14 -0.5 -67
t-0.5 -80zM140 258q0 -78 36.5 -125t96.5 -47q75 0 105 45.5t30 132.5q0 88 -28.5 131.5t-103.5 43.5q-65 0 -100.5 -49t-35.5 -132zM145 701h282v-77h-282v77z" />
    <glyph glyph-name="uni1E24" unicode="&#x1e24;" horiz-adv-x="732" 
d="M90 0v695h103v-287h346v287h103v-695h-103v321h-346v-321h-103zM418 -187h-104v114h104v-114z" />
    <glyph glyph-name="uni1E25" unicode="&#x1e25;" horiz-adv-x="572" 
d="M73 733h98v-296q50 84 156 84q73 0 122.5 -46.5t49.5 -149.5v-325h-98v309q0 129 -105 129q-125 0 -125 -161v-277h-98v733zM338 -187h-104v114h104v-114z" />
    <glyph glyph-name="uni1E2A" unicode="&#x1e2a;" horiz-adv-x="732" 
d="M90 0v695h103v-287h346v287h103v-695h-103v321h-346v-321h-103zM218 -59h71q16 -66 76 -66q37 0 53.5 17.5t24.5 48.5h70q-8 -61 -45.5 -100t-102.5 -39q-70 0 -106.5 40.5t-40.5 98.5z" />
    <glyph glyph-name="uni1E2B" unicode="&#x1e2b;" horiz-adv-x="572" 
d="M73 733h98v-296q50 84 156 84q73 0 122.5 -46.5t49.5 -149.5v-325h-98v309q0 129 -105 129q-125 0 -125 -161v-277h-98v733zM138 -59h71q16 -66 76 -66q37 0 53.5 17.5t24.5 48.5h70q-8 -61 -45.5 -100t-102.5 -39q-70 0 -106.5 40.5t-40.5 98.5z" />
    <glyph glyph-name="uni1E36" unicode="&#x1e36;" horiz-adv-x="566" 
d="M90 0v695h103v-608h359l-14 -87h-448zM369 -187h-104v114h104v-114z" />
    <glyph glyph-name="uni1E37" unicode="&#x1e37;" horiz-adv-x="244" 
d="M171 0h-98v733h98v-733zM174 -187h-104v114h104v-114z" />
    <glyph glyph-name="uni1E38" unicode="&#x1e38;" horiz-adv-x="566" 
d="M90 0v695h103v-608h359l-14 -87h-448zM369 -187h-104v114h104v-114zM4 846h286v-75h-286v75z" />
    <glyph glyph-name="uni1E39" unicode="&#x1e39;" horiz-adv-x="244" 
d="M171 0h-98v733h98v-733zM-19 872h282v-77h-282v77zM175 -187h-104v114h104v-114z" />
    <glyph glyph-name="uni1E3A" unicode="&#x1e3a;" horiz-adv-x="566" 
d="M90 0v695h103v-608h359l-14 -87h-448zM177 -94h282v-77h-282v77z" />
    <glyph glyph-name="uni1E3B" unicode="&#x1e3b;" horiz-adv-x="244" 
d="M171 0h-98v733h98v-733zM-19 -94h282v-77h-282v77z" />
    <glyph glyph-name="uni1E42" unicode="&#x1e42;" horiz-adv-x="871" 
d="M681 0v289q0 210 5 333h-4q-9 -34 -25.5 -86t-41 -124t-45 -129.5t-53 -148.5t-47.5 -134h-91q-9 27 -64 195.5t-87 270.5t-46 157h-4q8 -107 8 -351v-272h-96v695h154q147 -417 187 -569h1q28 116 201 569h149v-695h-101zM478 -187h-104v114h104v-114z" />
    <glyph glyph-name="uni1E43" unicode="&#x1e43;" horiz-adv-x="851" 
d="M73 0v378q0 89 -1 131h94q4 -30 4 -75q47 87 147 87q52 0 88 -24t51 -64q52 88 161 88q70 0 115.5 -45.5t45.5 -141.5v-334h-96v323q0 49 -22 82t-74 33q-57 0 -84.5 -38.5t-27.5 -107.5v-292h-96v319q0 119 -94 119q-56 0 -85 -41.5t-29 -114.5v-282h-97zM477 -187h-104
v114h104v-114z" />
    <glyph glyph-name="uni1E44" unicode="&#x1e44;" horiz-adv-x="746" 
d="M187 0h-97v695h134q30 -50 116.5 -192.5t147 -243.5t77.5 -134h1q-6 74 -6 311v259h96v-695h-126q-292 486 -347 589h-2q6 -91 6 -324v-265zM426 764h-100v112h100v-112z" />
    <glyph glyph-name="uni1E45" unicode="&#x1e45;" horiz-adv-x="571" 
d="M73 0v381q0 89 -1 128h96q4 -30 4 -80q42 92 157 92q77 0 123.5 -49t46.5 -145v-327h-98v315q0 123 -103 123q-126 0 -126 -166v-272h-99zM334 620h-98v113h98v-113z" />
    <glyph glyph-name="uni1E46" unicode="&#x1e46;" horiz-adv-x="746" 
d="M187 0h-97v695h134q30 -50 116.5 -192.5t147 -243.5t77.5 -134h1q-6 74 -6 311v259h96v-695h-126q-292 486 -347 589h-2q6 -91 6 -324v-265zM425 -187h-104v114h104v-114z" />
    <glyph glyph-name="uni1E47" unicode="&#x1e47;" horiz-adv-x="571" 
d="M73 0v381q0 89 -1 128h96q4 -30 4 -80q42 92 157 92q77 0 123.5 -49t46.5 -145v-327h-98v315q0 123 -103 123q-126 0 -126 -166v-272h-99zM337 -187h-104v114h104v-114z" />
    <glyph glyph-name="uni1E48" unicode="&#x1e48;" horiz-adv-x="746" 
d="M187 0h-97v695h134q30 -50 116.5 -192.5t147 -243.5t77.5 -134h1q-6 74 -6 311v259h96v-695h-126q-292 486 -347 589h-2q6 -91 6 -324v-265zM232 -94h282v-77h-282v77z" />
    <glyph glyph-name="uni1E49" unicode="&#x1e49;" horiz-adv-x="571" 
d="M73 0v381q0 89 -1 128h96q4 -30 4 -80q42 92 157 92q77 0 123.5 -49t46.5 -145v-327h-98v315q0 123 -103 123q-126 0 -126 -166v-272h-99zM144 -94h282v-77h-282v77z" />
    <glyph glyph-name="uni1E5A" unicode="&#x1e5a;" horiz-adv-x="646" 
d="M325 301h-133v-301h-102v695h278q105 0 163 -51.5t58 -135.5q0 -65 -32 -107t-83 -57q102 -27 102 -177v-30q0 -110 10 -137h-100q-12 30 -12 151v13q0 75 -30.5 106t-118.5 31zM192 609v-223h146q75 0 110 28t35 85q0 53 -34.5 81.5t-101.5 28.5h-155zM384 -182h-104
v114h104v-114z" />
    <glyph glyph-name="uni1E5B" unicode="&#x1e5b;" horiz-adv-x="360" 
d="M73 0v371q0 38 -0.5 83t-0.5 55h96q3 -21 3 -101q20 51 64 81.5t106 31.5v-97q-170 -3 -170 -182v-242h-98zM175 -187h-104v114h104v-114z" />
    <glyph glyph-name="uni1E5C" unicode="&#x1e5c;" horiz-adv-x="646" 
d="M325 301h-133v-301h-102v695h278q105 0 163 -51.5t58 -135.5q0 -65 -32 -107t-83 -57q102 -27 102 -177v-30q0 -110 10 -137h-100q-12 30 -12 151v13q0 75 -30.5 106t-118.5 31zM192 609v-223h146q75 0 110 28t35 85q0 53 -34.5 81.5t-101.5 28.5h-155zM385 -180h-104
v114h104v-114zM178 851h286v-75h-286v75z" />
    <glyph glyph-name="uni1E5D" unicode="&#x1e5d;" horiz-adv-x="360" 
d="M73 0v371q0 38 -0.5 83t-0.5 55h96q3 -21 3 -101q20 51 64 81.5t106 31.5v-97q-170 -3 -170 -182v-242h-98zM63 701h282v-77h-282v77zM176 -187h-104v114h104v-114z" />
    <glyph glyph-name="uni1E5E" unicode="&#x1e5e;" horiz-adv-x="646" 
d="M325 301h-133v-301h-102v695h278q105 0 163 -51.5t58 -135.5q0 -65 -32 -107t-83 -57q102 -27 102 -177v-30q0 -110 10 -137h-100q-12 30 -12 151v13q0 75 -30.5 106t-118.5 31zM192 609v-223h146q75 0 110 28t35 85q0 53 -34.5 81.5t-101.5 28.5h-155zM192 -90h282v-77
h-282v77z" />
    <glyph glyph-name="uni1E5F" unicode="&#x1e5f;" horiz-adv-x="360" 
d="M73 0v371q0 38 -0.5 83t-0.5 55h96q3 -21 3 -101q20 51 64 81.5t106 31.5v-97q-170 -3 -170 -182v-242h-98zM-6 -94h282v-77h-282v77z" />
    <glyph glyph-name="uni1E60" unicode="&#x1e60;" horiz-adv-x="612" 
d="M40 195h104q29 -123 171 -123q74 0 109 30t35 80q0 52 -35.5 82.5t-133.5 53.5q-124 30 -173.5 75.5t-49.5 120.5q0 84 61 137.5t174 53.5q117 0 178 -55.5t70 -134.5h-105q-20 108 -146 108q-60 0 -93 -25.5t-33 -72.5q0 -46 33 -70t124 -46q138 -33 187 -85.5
t49 -129.5q0 -90 -66.5 -146.5t-191.5 -56.5q-123 0 -189.5 57t-78.5 147zM355 768h-100v112h100v-112z" />
    <glyph glyph-name="uni1E61" unicode="&#x1e61;" horiz-adv-x="481" 
d="M30 147h98q20 -83 119 -83q97 0 97 72q0 34 -23.5 52.5t-91.5 35.5q-106 25 -142.5 60t-36.5 92q0 60 47 102.5t141 42.5t142 -43.5t53 -104.5h-94q-17 74 -105 74q-46 0 -66.5 -18t-20.5 -45q0 -28 22 -43.5t89 -31.5q111 -26 149 -64.5t38 -100.5q0 -69 -52.5 -112.5
t-149.5 -43.5t-150 43t-63 116zM290 620h-98v113h98v-113z" />
    <glyph glyph-name="uni1E62" unicode="&#x1e62;" horiz-adv-x="612" 
d="M40 195h104q29 -123 171 -123q74 0 109 30t35 80q0 52 -35.5 82.5t-133.5 53.5q-124 30 -173.5 75.5t-49.5 120.5q0 84 61 137.5t174 53.5q117 0 178 -55.5t70 -134.5h-105q-20 108 -146 108q-60 0 -93 -25.5t-33 -72.5q0 -46 33 -70t124 -46q138 -33 187 -85.5
t49 -129.5q0 -90 -66.5 -146.5t-191.5 -56.5q-123 0 -189.5 57t-78.5 147zM357 -187h-104v114h104v-114z" />
    <glyph glyph-name="uni1E63" unicode="&#x1e63;" horiz-adv-x="481" 
d="M30 147h98q20 -83 119 -83q97 0 97 72q0 34 -23.5 52.5t-91.5 35.5q-106 25 -142.5 60t-36.5 92q0 60 47 102.5t141 42.5t142 -43.5t53 -104.5h-94q-17 74 -105 74q-46 0 -66.5 -18t-20.5 -45q0 -28 22 -43.5t89 -31.5q111 -26 149 -64.5t38 -100.5q0 -69 -52.5 -112.5
t-149.5 -43.5t-150 43t-63 116zM293 -187h-104v114h104v-114z" />
    <glyph glyph-name="uni1E6C" unicode="&#x1e6c;" horiz-adv-x="564" 
d="M230 0v607h-222v88h548v-88h-222v-607h-104zM334 -187h-104v114h104v-114z" />
    <glyph glyph-name="uni1E6D" unicode="&#x1e6d;" horiz-adv-x="327" 
d="M11 431v78h86v148h98v-148h110v-78h-110v-289q0 -38 12 -54.5t45 -16.5q29 0 42 4v-73q-26 -9 -79 -9q-62 0 -90 31.5t-28 97.5v309h-86zM235 -187h-104v114h104v-114z" />
    <glyph glyph-name="uni1E6E" unicode="&#x1e6e;" horiz-adv-x="564" 
d="M230 0v607h-222v88h548v-88h-222v-607h-104zM141 -94h282v-77h-282v77z" />
    <glyph glyph-name="uni1E6F" unicode="&#x1e6f;" horiz-adv-x="327" 
d="M11 431v78h86v148h98v-148h110v-78h-110v-289q0 -38 12 -54.5t45 -16.5q29 0 42 4v-73q-26 -9 -79 -9q-62 0 -90 31.5t-28 97.5v309h-86zM38 -94h282v-77h-282v77z" />
    <glyph glyph-name="Wgrave" unicode="&#x1e80;" horiz-adv-x="939" 
d="M315 0h-109l-185 695h110q20 -89 54.5 -232.5t54.5 -230t25 -121.5h1q11 53 73 281.5t81 302.5h99q132 -497 147 -580h1q10 57 37.5 164t66 246t46.5 170h101l-200 -695h-109q-13 49 -49 185t-61.5 235t-33.5 139h-1q-7 -37 -27 -115t-37.5 -141.5t-47 -169t-37.5 -133.5
zM259 894h128l134 -138h-97z" />
    <glyph glyph-name="wgrave" unicode="&#x1e81;" horiz-adv-x="774" 
d="M23 509h104q94 -363 103 -419h1q16 78 112 419h95q98 -367 106 -410h1q19 87 107 410h99l-156 -509h-106q-102 396 -103 403h-1q-8 -50 -106 -403h-109zM191 743h121l125 -152h-91z" />
    <glyph glyph-name="Wacute" unicode="&#x1e82;" horiz-adv-x="939" 
d="M315 0h-109l-185 695h110q20 -89 54.5 -232.5t54.5 -230t25 -121.5h1q11 53 73 281.5t81 302.5h99q132 -497 147 -580h1q10 57 37.5 164t66 246t46.5 170h101l-200 -695h-109q-13 49 -49 185t-61.5 235t-33.5 139h-1q-7 -37 -27 -115t-37.5 -141.5t-47 -169t-37.5 -133.5
zM560 893h127l-173 -138h-99z" />
    <glyph glyph-name="wacute" unicode="&#x1e83;" horiz-adv-x="774" 
d="M23 509h104q94 -363 103 -419h1q16 78 112 419h95q98 -367 106 -410h1q19 87 107 410h99l-156 -509h-106q-102 396 -103 403h-1q-8 -50 -106 -403h-109zM463 743h120l-155 -152h-91z" />
    <glyph glyph-name="Wdieresis" unicode="&#x1e84;" horiz-adv-x="939" 
d="M315 0h-109l-185 695h110q20 -89 54.5 -232.5t54.5 -230t25 -121.5h1q11 53 73 281.5t81 302.5h99q132 -497 147 -580h1q10 57 37.5 164t66 246t46.5 170h101l-200 -695h-109q-13 49 -49 185t-61.5 235t-33.5 139h-1q-7 -37 -27 -115t-37.5 -141.5t-47 -169t-37.5 -133.5
zM413 766h-84v113h84v-113zM609 766h-83v113h83v-113z" />
    <glyph glyph-name="wdieresis" unicode="&#x1e85;" horiz-adv-x="774" 
d="M23 509h104q94 -363 103 -419h1q16 78 112 419h95q98 -367 106 -410h1q19 87 107 410h99l-156 -509h-106q-102 396 -103 403h-1q-8 -50 -106 -403h-109zM336 620h-84v113h84v-113zM521 620h-83v113h83v-113z" />
    <glyph glyph-name="uni1E8E" unicode="&#x1e8e;" horiz-adv-x="596" 
d="M347 0h-104v253q0 11 -5 19l-244 423h118q177 -325 188 -347q29 59 192 347h110l-251 -424q-4 -8 -4 -18v-253zM348 763h-100v112h100v-112z" />
    <glyph glyph-name="uni1E8F" unicode="&#x1e8f;" horiz-adv-x="488" 
d="M9 509h106q116 -347 135 -421h1q24 92 129 421h99l-181 -531q-38 -112 -77.5 -149.5t-120.5 -37.5q-26 0 -57 3v84q20 -3 41 -3q46 0 70 23t45 83zM293 620h-98v113h98v-113z" />
    <glyph glyph-name="uni1E92" unicode="&#x1e92;" horiz-adv-x="601" 
d="M30 0v78l415 529h-395v88h514v-86l-407 -522h421l-14 -87h-534zM352 -187h-104v114h104v-114z" />
    <glyph glyph-name="uni1E93" unicode="&#x1e93;" horiz-adv-x="459" 
d="M26 0v78l285 350h-271v81h383v-81l-281 -347h295l-14 -81h-397zM281 -187h-104v114h104v-114z" />
    <glyph glyph-name="uni1E97" unicode="&#x1e97;" horiz-adv-x="327" 
d="M11 431v78h86v148h98v-148h110v-78h-110v-289q0 -38 12 -54.5t45 -16.5q29 0 42 4v-73q-26 -9 -79 -9q-62 0 -90 31.5t-28 97.5v309h-86zM96 705h-84v113h84v-113zM281 705h-83v113h83v-113z" />
    <glyph glyph-name="uni1E9E" unicode="&#x1e9e;" horiz-adv-x="652" 
d="M193 484v-484h-104v509q0 98 63.5 147t181.5 49q133 0 193 -54.5t60 -123.5q0 -17 -2 -31l-164 -102v-5l69 -41q77 -46 106 -88t29 -95q0 -79 -54 -127t-155 -48q-105 0 -163 52v99q30 -32 74 -51.5t89 -19.5q55 0 82 25t27 61q0 34 -19.5 58t-77.5 58l-104 60
q-28 16 -27.5 44.5t29.5 47.5l152 98q1 39 -31 71.5t-111 32.5q-72 0 -107.5 -29.5t-35.5 -112.5z" />
    <glyph glyph-name="uni1EA0" unicode="&#x1ea0;" horiz-adv-x="665" 
d="M464 199h-273l-70 -199h-103l245 695h128l256 -695h-110zM217 287h222q-103 285 -114 326h-1q-9 -33 -107 -326zM384 -187h-104v114h104v-114z" />
    <glyph glyph-name="uni1EA1" unicode="&#x1ea1;" horiz-adv-x="534" 
d="M460 353v-238q0 -82 7 -115h-93q-5 15 -9 63q-39 -75 -154 -75q-85 0 -128.5 46t-43.5 110q0 84 62.5 125.5t178.5 41.5h84v41q0 94 -103 94q-55 0 -75 -20.5t-28 -57.5h-95q6 66 53 110t148 43q196 0 196 -168zM365 229v16h-78q-148 0 -148 -95q0 -39 25 -63t69 -24
q42 0 69.5 13t40.5 38t17.5 51.5t4.5 63.5zM320 -187h-104v114h104v-114z" />
    <glyph glyph-name="uni1EA2" unicode="&#x1ea2;" horiz-adv-x="665" 
d="M464 199h-273l-70 -199h-103l245 695h128l256 -695h-110zM217 287h222q-103 285 -114 326h-1q-9 -33 -107 -326zM373 755h-87q31 27 44 45.5t13 38.5q0 35 -41 35q-28 0 -58 -16l-22 57q46 30 102 30q49 0 76.5 -25.5t27.5 -63.5q0 -53 -55 -101z" />
    <glyph glyph-name="uni1EA3" unicode="&#x1ea3;" horiz-adv-x="534" 
d="M460 353v-238q0 -82 7 -115h-93q-5 15 -9 63q-39 -75 -154 -75q-85 0 -128.5 46t-43.5 110q0 84 62.5 125.5t178.5 41.5h84v41q0 94 -103 94q-55 0 -75 -20.5t-28 -57.5h-95q6 66 53 110t148 43q196 0 196 -168zM365 229v16h-78q-148 0 -148 -95q0 -39 25 -63t69 -24
q42 0 69.5 13t40.5 38t17.5 51.5t4.5 63.5zM311 583h-87q31 27 44 45.5t13 38.5q0 35 -41 35q-28 0 -58 -16l-22 57q46 30 102 30q49 0 76.5 -25.5t27.5 -63.5q0 -53 -55 -101z" />
    <glyph glyph-name="uni1EA4" unicode="&#x1ea4;" horiz-adv-x="665" 
d="M464 199h-273l-70 -199h-103l245 695h128l256 -695h-110zM217 287h222q-103 285 -114 326h-1q-9 -33 -107 -326zM279 879h101l133 -123h-107l-75 69l-73 -69h-106zM558 972h116l-132 -117h-87z" />
    <glyph glyph-name="uni1EA5" unicode="&#x1ea5;" horiz-adv-x="534" 
d="M460 353v-238q0 -82 7 -115h-93q-5 15 -9 63q-39 -75 -154 -75q-85 0 -128.5 46t-43.5 110q0 84 62.5 125.5t178.5 41.5h84v41q0 94 -103 94q-55 0 -75 -20.5t-28 -57.5h-95q6 66 53 110t148 43q196 0 196 -168zM365 229v16h-78q-148 0 -148 -95q0 -39 25 -63t69 -24
q42 0 69.5 13t40.5 38t17.5 51.5t4.5 63.5zM218 703h99l106 -133h-90l-66 83l-65 -83h-89zM488 815h103l-133 -131h-78z" />
    <glyph glyph-name="uni1EA6" unicode="&#x1ea6;" horiz-adv-x="665" 
d="M464 199h-273l-70 -199h-103l245 695h128l256 -695h-110zM217 287h222q-103 285 -114 326h-1q-9 -33 -107 -326zM279 879h101l133 -123h-107l-75 69l-73 -69h-106zM395 959h119l102 -112h-83z" />
    <glyph glyph-name="uni1EA7" unicode="&#x1ea7;" horiz-adv-x="534" 
d="M460 353v-238q0 -82 7 -115h-93q-5 15 -9 63q-39 -75 -154 -75q-85 0 -128.5 46t-43.5 110q0 84 62.5 125.5t178.5 41.5h84v41q0 94 -103 94q-55 0 -75 -20.5t-28 -57.5h-95q6 66 53 110t148 43q196 0 196 -168zM365 229v16h-78q-148 0 -148 -95q0 -39 25 -63t69 -24
q42 0 69.5 13t40.5 38t17.5 51.5t4.5 63.5zM218 703h99l106 -133h-90l-66 83l-65 -83h-89zM322 808h105l104 -134h-80z" />
    <glyph glyph-name="uni1EA8" unicode="&#x1ea8;" horiz-adv-x="665" 
d="M464 199h-273l-70 -199h-103l245 695h128l256 -695h-110zM217 287h222q-103 285 -114 326h-1q-9 -33 -107 -326zM550 852h-80q53 40 53 75q0 30 -37 30q-29 0 -57 -19l-21 51q43 32 96 32q44 0 69 -22.5t25 -58.5q0 -52 -48 -88zM279 879h101l133 -123h-107l-75 69
l-73 -69h-106z" />
    <glyph glyph-name="uni1EA9" unicode="&#x1ea9;" horiz-adv-x="534" 
d="M460 353v-238q0 -82 7 -115h-93q-5 15 -9 63q-39 -75 -154 -75q-85 0 -128.5 46t-43.5 110q0 84 62.5 125.5t178.5 41.5h84v41q0 94 -103 94q-55 0 -75 -20.5t-28 -57.5h-95q6 66 53 110t148 43q196 0 196 -168zM365 229v16h-78q-148 0 -148 -95q0 -39 25 -63t69 -24
q42 0 69.5 13t40.5 38t17.5 51.5t4.5 63.5zM473 674h-79q55 43 55 74q0 29 -34 29t-55 -18l-20 48q35 31 92 31q44 0 66.5 -20t22.5 -57q0 -50 -48 -87zM218 703h99l106 -133h-90l-66 83l-65 -83h-89z" />
    <glyph glyph-name="uni1EAA" unicode="&#x1eaa;" horiz-adv-x="665" 
d="M464 199h-273l-70 -199h-103l245 695h128l256 -695h-110zM217 287h222q-103 285 -114 326h-1q-9 -33 -107 -326zM230 881h-59v11q0 87 78 87q32 0 85.5 -17t72.5 -17q28 0 28 26v7h58v-12q0 -85 -77 -85q-27 0 -84 17.5t-76 17.5q-26 0 -26 -29v-6zM277 844h108l122 -98
h-103l-74 55l-71 -55h-103z" />
    <glyph glyph-name="uni1EAB" unicode="&#x1eab;" horiz-adv-x="534" 
d="M460 353v-238q0 -82 7 -115h-93q-5 15 -9 63q-39 -75 -154 -75q-85 0 -128.5 46t-43.5 110q0 84 62.5 125.5t178.5 41.5h84v41q0 94 -103 94q-55 0 -75 -20.5t-28 -57.5h-95q6 66 53 110t148 43q196 0 196 -168zM365 229v16h-78q-148 0 -148 -95q0 -39 25 -63t69 -24
q42 0 69.5 13t40.5 38t17.5 51.5t4.5 63.5zM183 718h-59v10q0 88 75 88q31 0 72 -18t53 -18q27 0 27 27v7h57v-12q0 -85 -77 -85q-26 0 -66 18t-55 18q-27 0 -27 -29v-6zM214 675h102l111 -105h-96l-67 61l-64 -61h-94z" />
    <glyph glyph-name="uni1EAC" unicode="&#x1eac;" horiz-adv-x="665" 
d="M464 199h-273l-70 -199h-103l245 695h128l256 -695h-110zM217 287h222q-103 285 -114 326h-1q-9 -33 -107 -326zM384 -187h-104v114h104v-114zM279 882h101l130 -132h-100l-81 80l-85 -80h-100z" />
    <glyph glyph-name="uni1EAD" unicode="&#x1ead;" horiz-adv-x="534" 
d="M460 353v-238q0 -82 7 -115h-93q-5 15 -9 63q-39 -75 -154 -75q-85 0 -128.5 46t-43.5 110q0 84 62.5 125.5t178.5 41.5h84v41q0 94 -103 94q-55 0 -75 -20.5t-28 -57.5h-95q6 66 53 110t148 43q196 0 196 -168zM365 229v16h-78q-148 0 -148 -95q0 -39 25 -63t69 -24
q42 0 69.5 13t40.5 38t17.5 51.5t4.5 63.5zM320 -187h-104v114h104v-114zM222 733h91l112 -151h-94l-64 96l-63 -96h-93z" />
    <glyph glyph-name="uni1EAE" unicode="&#x1eae;" horiz-adv-x="665" 
d="M464 199h-273l-70 -199h-103l245 695h128l256 -695h-110zM217 287h222q-103 285 -114 326h-1q-9 -33 -107 -326zM168 866h76q22 -52 86 -52q65 0 89 52h75q-13 -52 -52.5 -85.5t-111.5 -34.5q-77 0 -115.5 37.5t-46.5 82.5zM382 993h123l-135 -104h-88z" />
    <glyph glyph-name="uni1EAF" unicode="&#x1eaf;" horiz-adv-x="534" 
d="M460 353v-238q0 -82 7 -115h-93q-5 15 -9 63q-39 -75 -154 -75q-85 0 -128.5 46t-43.5 110q0 84 62.5 125.5t178.5 41.5h84v41q0 94 -103 94q-55 0 -75 -20.5t-28 -57.5h-95q6 66 53 110t148 43q196 0 196 -168zM365 229v16h-78q-148 0 -148 -95q0 -39 25 -63t69 -24
q42 0 69.5 13t40.5 38t17.5 51.5t4.5 63.5zM115 692h73q18 -54 79 -54q62 0 80 54h71q-25 -121 -152 -121q-67 0 -104 35.5t-47 85.5zM319 833h104l-120 -116h-84z" />
    <glyph glyph-name="uni1EB0" unicode="&#x1eb0;" horiz-adv-x="665" 
d="M464 199h-273l-70 -199h-103l245 695h128l256 -695h-110zM217 287h222q-103 285 -114 326h-1q-9 -33 -107 -326zM168 866h76q22 -52 86 -52q65 0 89 52h75q-30 -120 -164 -120q-77 0 -115.5 37.5t-46.5 82.5zM165 993h122l100 -104h-91z" />
    <glyph glyph-name="uni1EB1" unicode="&#x1eb1;" horiz-adv-x="534" 
d="M460 353v-238q0 -82 7 -115h-93q-5 15 -9 63q-39 -75 -154 -75q-85 0 -128.5 46t-43.5 110q0 84 62.5 125.5t178.5 41.5h84v41q0 94 -103 94q-55 0 -75 -20.5t-28 -57.5h-95q6 66 53 110t148 43q196 0 196 -168zM365 229v16h-78q-148 0 -148 -95q0 -39 25 -63t69 -24
q42 0 69.5 13t40.5 38t17.5 51.5t4.5 63.5zM115 693h73q18 -54 79 -54q62 0 80 54h71q-25 -121 -152 -121q-67 0 -104 35.5t-47 85.5zM111 834h108l99 -116h-84z" />
    <glyph glyph-name="uni1EB2" unicode="&#x1eb2;" horiz-adv-x="665" 
d="M464 199h-273l-70 -199h-103l245 695h128l256 -695h-110zM217 287h222q-103 285 -114 326h-1q-9 -33 -107 -326zM365 881h-78q54 43 54 72q0 28 -36 28q-28 0 -56 -17l-22 48q40 32 96 32q42 0 66 -21.5t24 -56.5q0 -47 -48 -85zM168 866h75q23 -52 88 -52q62 0 88 52h75
q-36 -120 -164 -120q-41 0 -72.5 12t-49 32t-27.5 38.5t-13 37.5z" />
    <glyph glyph-name="uni1EB3" unicode="&#x1eb3;" horiz-adv-x="534" 
d="M460 353v-238q0 -82 7 -115h-93q-5 15 -9 63q-39 -75 -154 -75q-85 0 -128.5 46t-43.5 110q0 84 62.5 125.5t178.5 41.5h84v41q0 94 -103 94q-55 0 -75 -20.5t-28 -57.5h-95q6 66 53 110t148 43q196 0 196 -168zM365 229v16h-78q-148 0 -148 -95q0 -39 25 -63t69 -24
q42 0 69.5 13t40.5 38t17.5 51.5t4.5 63.5zM296 712h-75q59 44 59 73q0 30 -34 30q-31 0 -55 -19l-20 47q38 34 92 34q43 0 66 -21t23 -57q0 -52 -56 -87zM116 693h73q18 -54 79 -54q62 0 80 54h71q-25 -121 -152 -121q-67 0 -104 35.5t-47 85.5z" />
    <glyph glyph-name="uni1EB4" unicode="&#x1eb4;" horiz-adv-x="665" 
d="M464 199h-273l-70 -199h-103l245 695h128l256 -695h-110zM217 287h222q-103 285 -114 326h-1q-9 -33 -107 -326zM229 888h-59v11q0 87 78 87q32 0 85.5 -17t72.5 -17q28 0 28 26v7h58v-12q0 -85 -77 -85q-27 0 -84 17.5t-76 17.5q-26 0 -26 -29v-6zM169 845h76
q23 -41 85 -41q68 0 86 41h75q-30 -103 -162 -103q-73 0 -111.5 31t-48.5 72z" />
    <glyph glyph-name="uni1EB5" unicode="&#x1eb5;" horiz-adv-x="534" 
d="M460 353v-238q0 -82 7 -115h-93q-5 15 -9 63q-39 -75 -154 -75q-85 0 -128.5 46t-43.5 110q0 84 62.5 125.5t178.5 41.5h84v41q0 94 -103 94q-55 0 -75 -20.5t-28 -57.5h-95q6 66 53 110t148 43q196 0 196 -168zM365 229v16h-78q-148 0 -148 -95q0 -39 25 -63t69 -24
q42 0 69.5 13t40.5 38t17.5 51.5t4.5 63.5zM185 732h-59v10q0 88 75 88q31 0 71.5 -17t52.5 -17q28 0 28 25v8h57v-12q0 -86 -77 -86q-26 0 -66 17.5t-55 17.5q-27 0 -27 -28v-6zM126 685h69q22 -47 73 -47q56 0 74 47h69q-9 -49 -45.5 -80.5t-98.5 -31.5t-98 33.5t-43 78.5
z" />
    <glyph glyph-name="uni1EB6" unicode="&#x1eb6;" horiz-adv-x="665" 
d="M464 199h-273l-70 -199h-103l245 695h128l256 -695h-110zM217 287h222q-103 285 -114 326h-1q-9 -33 -107 -326zM384 -187h-104v114h104v-114zM172 884h74q5 -29 27.5 -46.5t56.5 -17.5q72 0 85 64h73q-9 -58 -49 -95.5t-110 -37.5q-74 0 -113 39t-44 94z" />
    <glyph glyph-name="uni1EB7" unicode="&#x1eb7;" horiz-adv-x="534" 
d="M460 353v-238q0 -82 7 -115h-93q-5 15 -9 63q-39 -75 -154 -75q-85 0 -128.5 46t-43.5 110q0 84 62.5 125.5t178.5 41.5h84v41q0 94 -103 94q-55 0 -75 -20.5t-28 -57.5h-95q6 66 53 110t148 43q196 0 196 -168zM365 229v16h-78q-148 0 -148 -95q0 -39 25 -63t69 -24
q42 0 69.5 13t40.5 38t17.5 51.5t4.5 63.5zM120 724h71q16 -66 76 -66q37 0 53.5 17.5t24.5 48.5h70q-8 -61 -45.5 -100t-102.5 -39q-70 0 -106.5 40.5t-40.5 98.5zM326 -187h-104v114h104v-114z" />
    <glyph glyph-name="uni1EB8" unicode="&#x1eb8;" horiz-adv-x="601" 
d="M534 407v-87h-343v-233h377l-13 -87h-465v695h460v-88h-359v-200h343zM378 -187h-104v114h104v-114z" />
    <glyph glyph-name="uni1EB9" unicode="&#x1eb9;" horiz-adv-x="529" 
d="M491 236h-354q1 -74 36 -120.5t96 -46.5q51 0 76.5 20t39.5 54h99q-9 -28 -23 -52.5t-38.5 -49t-65 -39t-91.5 -14.5q-113 0 -170.5 76t-57.5 185q0 120 60.5 196t173.5 76q59 0 104 -22t69.5 -58t36 -77t11.5 -86q0 -28 -2 -42zM140 303h254q-1 63 -32 102.5t-91 39.5
q-117 0 -131 -142zM327 -187h-104v114h104v-114z" />
    <glyph glyph-name="uni1EBA" unicode="&#x1eba;" horiz-adv-x="601" 
d="M534 407v-87h-343v-233h377l-13 -87h-465v695h460v-88h-359v-200h343zM367 757h-87q31 27 44 45.5t13 38.5q0 35 -41 35q-28 0 -58 -16l-22 57q46 30 102 30q49 0 76.5 -25.5t27.5 -63.5q0 -53 -55 -101z" />
    <glyph glyph-name="uni1EBB" unicode="&#x1ebb;" horiz-adv-x="529" 
d="M491 236h-354q1 -74 36 -120.5t96 -46.5q51 0 76.5 20t39.5 54h99q-9 -28 -23 -52.5t-38.5 -49t-65 -39t-91.5 -14.5q-113 0 -170.5 76t-57.5 185q0 120 60.5 196t173.5 76q59 0 104 -22t69.5 -58t36 -77t11.5 -86q0 -28 -2 -42zM140 303h254q-1 63 -32 102.5t-91 39.5
q-117 0 -131 -142zM315 578h-87q31 27 44 45.5t13 38.5q0 35 -41 35q-28 0 -58 -16l-22 57q46 30 102 30q49 0 76.5 -25.5t27.5 -63.5q0 -53 -55 -101z" />
    <glyph glyph-name="uni1EBC" unicode="&#x1ebc;" horiz-adv-x="601" 
d="M534 407v-87h-343v-233h377l-13 -87h-465v695h460v-88h-359v-200h343zM217 772h-69v25q0 99 87 99q35 0 90 -25.5t70 -25.5q30 0 30 42v10h67v-21q0 -58 -22 -82.5t-66 -24.5q-31 0 -86 26t-73 26q-28 0 -28 -32v-17z" />
    <glyph glyph-name="uni1EBD" unicode="&#x1ebd;" horiz-adv-x="529" 
d="M491 236h-354q1 -74 36 -120.5t96 -46.5q51 0 76.5 20t39.5 54h99q-9 -28 -23 -52.5t-38.5 -49t-65 -39t-91.5 -14.5q-113 0 -170.5 76t-57.5 185q0 120 60.5 196t173.5 76q59 0 104 -22t69.5 -58t36 -77t11.5 -86q0 -28 -2 -42zM140 303h254q-1 63 -32 102.5t-91 39.5
q-117 0 -131 -142zM174 602h-68v25q0 99 84 99q31 0 77.5 -24t61.5 -24q28 0 28 40v10h66v-22q0 -105 -86 -105q-31 0 -75 24t-62 24q-26 0 -26 -31v-16z" />
    <glyph glyph-name="uni1EBE" unicode="&#x1ebe;" horiz-adv-x="601" 
d="M534 407v-87h-343v-233h377l-13 -87h-465v695h460v-88h-359v-200h343zM266 880h101l133 -123h-107l-75 69l-73 -69h-106zM545 973h116l-132 -117h-87z" />
    <glyph glyph-name="uni1EBF" unicode="&#x1ebf;" horiz-adv-x="529" 
d="M491 236h-354q1 -74 36 -120.5t96 -46.5q51 0 76.5 20t39.5 54h99q-9 -28 -23 -52.5t-38.5 -49t-65 -39t-91.5 -14.5q-113 0 -170.5 76t-57.5 185q0 120 60.5 196t173.5 76q59 0 104 -22t69.5 -58t36 -77t11.5 -86q0 -28 -2 -42zM140 303h254q-1 63 -32 102.5t-91 39.5
q-117 0 -131 -142zM218 703h99l106 -133h-90l-66 83l-65 -83h-89zM488 815h103l-133 -131h-78z" />
    <glyph glyph-name="uni1EC0" unicode="&#x1ec0;" horiz-adv-x="601" 
d="M534 407v-87h-343v-233h377l-13 -87h-465v695h460v-88h-359v-200h343zM266 882h101l133 -123h-107l-75 69l-73 -69h-106zM382 962h119l102 -112h-83z" />
    <glyph glyph-name="uni1EC1" unicode="&#x1ec1;" horiz-adv-x="529" 
d="M491 236h-354q1 -74 36 -120.5t96 -46.5q51 0 76.5 20t39.5 54h99q-9 -28 -23 -52.5t-38.5 -49t-65 -39t-91.5 -14.5q-113 0 -170.5 76t-57.5 185q0 120 60.5 196t173.5 76q59 0 104 -22t69.5 -58t36 -77t11.5 -86q0 -28 -2 -42zM140 303h254q-1 63 -32 102.5t-91 39.5
q-117 0 -131 -142zM218 703h99l106 -133h-90l-66 83l-65 -83h-89zM322 808h105l104 -134h-80z" />
    <glyph glyph-name="uni1EC2" unicode="&#x1ec2;" horiz-adv-x="601" 
d="M534 407v-87h-343v-233h377l-13 -87h-465v695h460v-88h-359v-200h343zM536 856h-80q53 40 53 75q0 30 -37 30q-29 0 -57 -19l-21 51q43 32 96 32q44 0 69 -22.5t25 -58.5q0 -52 -48 -88zM265 883h101l133 -123h-107l-75 69l-73 -69h-106z" />
    <glyph glyph-name="uni1EC3" unicode="&#x1ec3;" horiz-adv-x="529" 
d="M491 236h-354q1 -74 36 -120.5t96 -46.5q51 0 76.5 20t39.5 54h99q-9 -28 -23 -52.5t-38.5 -49t-65 -39t-91.5 -14.5q-113 0 -170.5 76t-57.5 185q0 120 60.5 196t173.5 76q59 0 104 -22t69.5 -58t36 -77t11.5 -86q0 -28 -2 -42zM140 303h254q-1 63 -32 102.5t-91 39.5
q-117 0 -131 -142zM470 674h-79q55 43 55 74q0 29 -34 29t-55 -18l-20 48q35 31 92 31q44 0 66.5 -20t22.5 -57q0 -50 -48 -87zM215 703h99l106 -133h-90l-66 83l-65 -83h-89z" />
    <glyph glyph-name="uni1EC4" unicode="&#x1ec4;" horiz-adv-x="601" 
d="M534 407v-87h-343v-233h377l-13 -87h-465v695h460v-88h-359v-200h343zM218 889h-59v11q0 87 78 87q32 0 85.5 -17t72.5 -17q28 0 28 26v7h58v-12q0 -85 -77 -85q-27 0 -84 17.5t-76 17.5q-26 0 -26 -29v-6zM265 852h108l122 -98h-103l-74 55l-71 -55h-103z" />
    <glyph glyph-name="uni1EC5" unicode="&#x1ec5;" horiz-adv-x="529" 
d="M491 236h-354q1 -74 36 -120.5t96 -46.5q51 0 76.5 20t39.5 54h99q-9 -28 -23 -52.5t-38.5 -49t-65 -39t-91.5 -14.5q-113 0 -170.5 76t-57.5 185q0 120 60.5 196t173.5 76q59 0 104 -22t69.5 -58t36 -77t11.5 -86q0 -28 -2 -42zM140 303h254q-1 63 -32 102.5t-91 39.5
q-117 0 -131 -142zM182 715h-59v10q0 88 75 88q31 0 72 -18t53 -18q27 0 27 27v7h57v-12q0 -85 -77 -85q-26 0 -66 18t-55 18q-27 0 -27 -29v-6zM213 672h102l111 -105h-96l-67 61l-64 -61h-94z" />
    <glyph glyph-name="uni1EC6" unicode="&#x1ec6;" horiz-adv-x="601" 
d="M534 407v-87h-343v-233h377l-13 -87h-465v695h460v-88h-359v-200h343zM377 -187h-104v114h104v-114zM269 892h101l130 -132h-100l-81 80l-85 -80h-100z" />
    <glyph glyph-name="uni1EC7" unicode="&#x1ec7;" horiz-adv-x="529" 
d="M491 236h-354q1 -74 36 -120.5t96 -46.5q51 0 76.5 20t39.5 54h99q-9 -28 -23 -52.5t-38.5 -49t-65 -39t-91.5 -14.5q-113 0 -170.5 76t-57.5 185q0 120 60.5 196t173.5 76q59 0 104 -22t69.5 -58t36 -77t11.5 -86q0 -28 -2 -42zM140 303h254q-1 63 -32 102.5t-91 39.5
q-117 0 -131 -142zM327 -187h-104v114h104v-114zM229 733h91l112 -151h-94l-64 96l-63 -96h-93z" />
    <glyph glyph-name="uni1EC8" unicode="&#x1ec8;" horiz-adv-x="283" 
d="M90 695h103v-695h-103v695zM184 755h-87q31 27 44 45.5t13 38.5q0 35 -41 35q-28 0 -58 -16l-22 57q46 30 102 30q49 0 76.5 -25.5t27.5 -63.5q0 -53 -55 -101z" />
    <glyph glyph-name="uni1EC9" unicode="&#x1ec9;" horiz-adv-x="244" 
d="M73 0v509h98v-509h-98zM165 583h-87q31 27 44 45.5t13 38.5q0 35 -41 35q-28 0 -58 -16l-22 57q46 30 102 30q49 0 76.5 -25.5t27.5 -63.5q0 -53 -55 -101z" />
    <glyph glyph-name="uni1ECA" unicode="&#x1eca;" horiz-adv-x="283" 
d="M90 695h103v-695h-103v695zM193 -187h-104v114h104v-114z" />
    <glyph glyph-name="uni1ECB" unicode="&#x1ecb;" horiz-adv-x="244" 
d="M73 0v509h98v-509h-98zM171 620h-98v113h98v-113zM174 -187h-104v114h104v-114z" />
    <glyph glyph-name="uni1ECC" unicode="&#x1ecc;" horiz-adv-x="754" 
d="M381 705q146 0 233.5 -98t87.5 -256q0 -153 -86 -257t-243 -104q-150 0 -235.5 101t-85.5 256t87.5 256.5t241.5 101.5zM377 618q-108 0 -162.5 -75.5t-54.5 -192.5t57 -195t160 -78q75 0 125 39t71 98.5t21 134.5q0 117 -55.5 193t-161.5 76zM429 -192h-104v114h104
v-114z" />
    <glyph glyph-name="uni1ECD" unicode="&#x1ecd;" horiz-adv-x="555" 
d="M281 521q107 0 171.5 -72.5t64.5 -192.5q0 -116 -64 -192t-178 -76q-109 0 -173 74.5t-64 191.5t65 192t178 75zM277 440q-67 0 -102.5 -49t-35.5 -136q0 -83 38 -134.5t102 -51.5q65 0 101.5 50t36.5 135q0 86 -36.5 136t-103.5 50zM329 -190h-104v114h104v-114z" />
    <glyph glyph-name="uni1ECE" unicode="&#x1ece;" horiz-adv-x="754" 
d="M381 705q146 0 233.5 -98t87.5 -256q0 -153 -86 -257t-243 -104q-150 0 -235.5 101t-85.5 256t87.5 256.5t241.5 101.5zM377 618q-108 0 -162.5 -75.5t-54.5 -192.5t57 -195t160 -78q75 0 125 39t71 98.5t21 134.5q0 117 -55.5 193t-161.5 76zM420 755h-87q31 27 44 45.5
t13 38.5q0 35 -41 35q-28 0 -58 -16l-22 57q46 30 102 30q49 0 76.5 -25.5t27.5 -63.5q0 -53 -55 -101z" />
    <glyph glyph-name="uni1ECF" unicode="&#x1ecf;" horiz-adv-x="555" 
d="M281 521q107 0 171.5 -72.5t64.5 -192.5q0 -116 -64 -192t-178 -76q-109 0 -173 74.5t-64 191.5t65 192t178 75zM277 440q-67 0 -102.5 -49t-35.5 -136q0 -83 38 -134.5t102 -51.5q65 0 101.5 50t36.5 135q0 86 -36.5 136t-103.5 50zM320 583h-87q31 27 44 45.5t13 38.5
q0 35 -41 35q-28 0 -58 -16l-22 57q46 30 102 30q49 0 76.5 -25.5t27.5 -63.5q0 -53 -55 -101z" />
    <glyph glyph-name="uni1ED0" unicode="&#x1ed0;" horiz-adv-x="754" 
d="M381 705q146 0 233.5 -98t87.5 -256q0 -153 -86 -257t-243 -104q-150 0 -235.5 101t-85.5 256t87.5 256.5t241.5 101.5zM377 618q-108 0 -162.5 -75.5t-54.5 -192.5t57 -195t160 -78q75 0 125 39t71 98.5t21 134.5q0 117 -55.5 193t-161.5 76zM324 879h101l133 -123h-107
l-75 69l-73 -69h-106zM603 972h116l-132 -117h-87z" />
    <glyph glyph-name="uni1ED1" unicode="&#x1ed1;" horiz-adv-x="555" 
d="M281 521q107 0 171.5 -72.5t64.5 -192.5q0 -116 -64 -192t-178 -76q-109 0 -173 74.5t-64 191.5t65 192t178 75zM277 440q-67 0 -102.5 -49t-35.5 -136q0 -83 38 -134.5t102 -51.5q65 0 101.5 50t36.5 135q0 86 -36.5 136t-103.5 50zM227 703h99l106 -133h-90l-66 83
l-65 -83h-89zM497 815h103l-133 -131h-78z" />
    <glyph glyph-name="uni1ED2" unicode="&#x1ed2;" horiz-adv-x="754" 
d="M381 705q146 0 233.5 -98t87.5 -256q0 -153 -86 -257t-243 -104q-150 0 -235.5 101t-85.5 256t87.5 256.5t241.5 101.5zM377 618q-108 0 -162.5 -75.5t-54.5 -192.5t57 -195t160 -78q75 0 125 39t71 98.5t21 134.5q0 117 -55.5 193t-161.5 76zM324 879h101l133 -123h-107
l-75 69l-73 -69h-106zM440 959h119l102 -112h-83z" />
    <glyph glyph-name="uni1ED3" unicode="&#x1ed3;" horiz-adv-x="555" 
d="M281 521q107 0 171.5 -72.5t64.5 -192.5q0 -116 -64 -192t-178 -76q-109 0 -173 74.5t-64 191.5t65 192t178 75zM277 440q-67 0 -102.5 -49t-35.5 -136q0 -83 38 -134.5t102 -51.5q65 0 101.5 50t36.5 135q0 86 -36.5 136t-103.5 50zM227 703h99l106 -133h-90l-66 83
l-65 -83h-89zM331 808h105l104 -134h-80z" />
    <glyph glyph-name="uni1ED4" unicode="&#x1ed4;" horiz-adv-x="754" 
d="M381 705q146 0 233.5 -98t87.5 -256q0 -153 -86 -257t-243 -104q-150 0 -235.5 101t-85.5 256t87.5 256.5t241.5 101.5zM377 618q-108 0 -162.5 -75.5t-54.5 -192.5t57 -195t160 -78q75 0 125 39t71 98.5t21 134.5q0 117 -55.5 193t-161.5 76zM595 852h-80q53 40 53 75
q0 30 -37 30q-29 0 -57 -19l-21 51q43 32 96 32q44 0 69 -22.5t25 -58.5q0 -52 -48 -88zM324 879h101l133 -123h-107l-75 69l-73 -69h-106z" />
    <glyph glyph-name="uni1ED5" unicode="&#x1ed5;" horiz-adv-x="555" 
d="M281 521q107 0 171.5 -72.5t64.5 -192.5q0 -116 -64 -192t-178 -76q-109 0 -173 74.5t-64 191.5t65 192t178 75zM277 440q-67 0 -102.5 -49t-35.5 -136q0 -83 38 -134.5t102 -51.5q65 0 101.5 50t36.5 135q0 86 -36.5 136t-103.5 50zM482 674h-79q55 43 55 74
q0 29 -34 29t-55 -18l-20 48q35 31 92 31q44 0 66.5 -20t22.5 -57q0 -50 -48 -87zM227 703h99l106 -133h-90l-66 83l-65 -83h-89z" />
    <glyph glyph-name="uni1ED6" unicode="&#x1ed6;" horiz-adv-x="754" 
d="M381 705q146 0 233.5 -98t87.5 -256q0 -153 -86 -257t-243 -104q-150 0 -235.5 101t-85.5 256t87.5 256.5t241.5 101.5zM377 618q-108 0 -162.5 -75.5t-54.5 -192.5t57 -195t160 -78q75 0 125 39t71 98.5t21 134.5q0 117 -55.5 193t-161.5 76zM275 885h-59v11q0 87 78 87
q32 0 85.5 -17t72.5 -17q28 0 28 26v7h58v-12q0 -85 -77 -85q-27 0 -84 17.5t-76 17.5q-26 0 -26 -29v-6zM322 848h108l122 -98h-103l-74 55l-71 -55h-103z" />
    <glyph glyph-name="uni1ED7" unicode="&#x1ed7;" horiz-adv-x="555" 
d="M281 521q107 0 171.5 -72.5t64.5 -192.5q0 -116 -64 -192t-178 -76q-109 0 -173 74.5t-64 191.5t65 192t178 75zM277 440q-67 0 -102.5 -49t-35.5 -136q0 -83 38 -134.5t102 -51.5q65 0 101.5 50t36.5 135q0 86 -36.5 136t-103.5 50zM194 714h-59v10q0 88 75 88
q31 0 72 -18t53 -18q27 0 27 27v7h57v-12q0 -85 -77 -85q-26 0 -66 18t-55 18q-27 0 -27 -29v-6zM225 671h102l111 -105h-96l-67 61l-64 -61h-94z" />
    <glyph glyph-name="uni1ED8" unicode="&#x1ed8;" horiz-adv-x="754" 
d="M381 705q146 0 233.5 -98t87.5 -256q0 -153 -86 -257t-243 -104q-150 0 -235.5 101t-85.5 256t87.5 256.5t241.5 101.5zM377 618q-108 0 -162.5 -75.5t-54.5 -192.5t57 -195t160 -78q75 0 125 39t71 98.5t21 134.5q0 117 -55.5 193t-161.5 76zM429 -191h-104v114h104
v-114zM329 886h101l130 -132h-100l-81 80l-85 -80h-100z" />
    <glyph glyph-name="uni1ED9" unicode="&#x1ed9;" horiz-adv-x="555" 
d="M281 521q107 0 171.5 -72.5t64.5 -192.5q0 -116 -64 -192t-178 -76q-109 0 -173 74.5t-64 191.5t65 192t178 75zM277 440q-67 0 -102.5 -49t-35.5 -136q0 -83 38 -134.5t102 -51.5q65 0 101.5 50t36.5 135q0 86 -36.5 136t-103.5 50zM329 -187h-104v114h104v-114z
M231 733h91l112 -151h-94l-64 96l-63 -96h-93z" />
    <glyph glyph-name="uni1EDA" unicode="&#x1eda;" horiz-adv-x="754" 
d="M381 705q115 0 194 -62q45 15 45 58q0 29 -11 60h89q8 -21 8 -57q0 -85 -74 -118q70 -95 70 -235q0 -153 -86 -257t-243 -104q-150 0 -235.5 101t-85.5 256t87.5 256.5t241.5 101.5zM377 618q-108 0 -162.5 -75.5t-54.5 -192.5t57 -195t160 -78q75 0 125 39t71 98.5
t21 134.5q0 117 -55.5 193t-161.5 76zM459 896h127l-173 -138h-99z" />
    <glyph glyph-name="uni1EDB" unicode="&#x1edb;" horiz-adv-x="555" 
d="M281 521q89 0 149 -51q52 14 52 60q0 29 -11 60h89q8 -21 8 -57q0 -43 -22.5 -76t-65.5 -47q37 -65 37 -154q0 -116 -64 -192t-178 -76q-109 0 -173 74.5t-64 191.5t65 192t178 75zM277 440q-67 0 -102.5 -49t-35.5 -136q0 -83 38 -134.5t102 -51.5q65 0 101.5 50
t36.5 135q0 86 -36.5 136t-103.5 50zM344 743h120l-155 -152h-91z" />
    <glyph glyph-name="uni1EDC" unicode="&#x1edc;" horiz-adv-x="754" 
d="M381 705q115 0 194 -62q45 15 45 58q0 29 -11 60h89q8 -21 8 -57q0 -85 -74 -118q70 -95 70 -235q0 -153 -86 -257t-243 -104q-150 0 -235.5 101t-85.5 256t87.5 256.5t241.5 101.5zM377 618q-108 0 -162.5 -75.5t-54.5 -192.5t57 -195t160 -78q75 0 125 39t71 98.5
t21 134.5q0 117 -55.5 193t-161.5 76zM181 896h128l134 -138h-97z" />
    <glyph glyph-name="uni1EDD" unicode="&#x1edd;" horiz-adv-x="555" 
d="M281 521q89 0 149 -51q52 14 52 60q0 29 -11 60h89q8 -21 8 -57q0 -43 -22.5 -76t-65.5 -47q37 -65 37 -154q0 -116 -64 -192t-178 -76q-109 0 -173 74.5t-64 191.5t65 192t178 75zM277 440q-67 0 -102.5 -49t-35.5 -136q0 -83 38 -134.5t102 -51.5q65 0 101.5 50
t36.5 135q0 86 -36.5 136t-103.5 50zM92 743h121l125 -152h-91z" />
    <glyph glyph-name="uni1EDE" unicode="&#x1ede;" horiz-adv-x="754" 
d="M381 705q115 0 194 -62q45 15 45 58q0 29 -11 60h89q8 -21 8 -57q0 -85 -74 -118q70 -95 70 -235q0 -153 -86 -257t-243 -104q-150 0 -235.5 101t-85.5 256t87.5 256.5t241.5 101.5zM377 618q-108 0 -162.5 -75.5t-54.5 -192.5t57 -195t160 -78q75 0 125 39t71 98.5
t21 134.5q0 117 -55.5 193t-161.5 76zM420 755h-87q31 27 44 45.5t13 38.5q0 35 -41 35q-28 0 -58 -16l-22 57q46 30 102 30q49 0 76.5 -25.5t27.5 -63.5q0 -53 -55 -101z" />
    <glyph glyph-name="uni1EDF" unicode="&#x1edf;" horiz-adv-x="555" 
d="M281 521q89 0 149 -51q52 14 52 60q0 29 -11 60h89q8 -21 8 -57q0 -43 -22.5 -76t-65.5 -47q37 -65 37 -154q0 -116 -64 -192t-178 -76q-109 0 -173 74.5t-64 191.5t65 192t178 75zM277 440q-67 0 -102.5 -49t-35.5 -136q0 -83 38 -134.5t102 -51.5q65 0 101.5 50
t36.5 135q0 86 -36.5 136t-103.5 50zM320 583h-87q31 27 44 45.5t13 38.5q0 35 -41 35q-28 0 -58 -16l-22 57q46 30 102 30q49 0 76.5 -25.5t27.5 -63.5q0 -53 -55 -101z" />
    <glyph glyph-name="uni1EE0" unicode="&#x1ee0;" horiz-adv-x="754" 
d="M381 705q115 0 194 -62q45 15 45 58q0 29 -11 60h89q8 -21 8 -57q0 -85 -74 -118q70 -95 70 -235q0 -153 -86 -257t-243 -104q-150 0 -235.5 101t-85.5 256t87.5 256.5t241.5 101.5zM377 618q-108 0 -162.5 -75.5t-54.5 -192.5t57 -195t160 -78q75 0 125 39t71 98.5
t21 134.5q0 117 -55.5 193t-161.5 76zM274 764h-69v25q0 99 87 99q35 0 90 -25.5t70 -25.5q30 0 30 42v10h67v-21q0 -58 -22 -82.5t-66 -24.5q-31 0 -86 26t-73 26q-28 0 -28 -32v-17z" />
    <glyph glyph-name="uni1EE1" unicode="&#x1ee1;" horiz-adv-x="555" 
d="M281 521q89 0 149 -51q52 14 52 60q0 29 -11 60h89q8 -21 8 -57q0 -43 -22.5 -76t-65.5 -47q37 -65 37 -154q0 -116 -64 -192t-178 -76q-109 0 -173 74.5t-64 191.5t65 192t178 75zM277 440q-67 0 -102.5 -49t-35.5 -136q0 -83 38 -134.5t102 -51.5q65 0 101.5 50
t36.5 135q0 86 -36.5 136t-103.5 50zM186 602h-68v25q0 99 84 99q31 0 77.5 -24t61.5 -24q28 0 28 40v10h66v-22q0 -105 -86 -105q-31 0 -75 24t-62 24q-26 0 -26 -31v-16z" />
    <glyph glyph-name="uni1EE2" unicode="&#x1ee2;" horiz-adv-x="754" 
d="M381 705q115 0 194 -62q45 15 45 58q0 29 -11 60h89q8 -21 8 -57q0 -85 -74 -118q70 -95 70 -235q0 -153 -86 -257t-243 -104q-150 0 -235.5 101t-85.5 256t87.5 256.5t241.5 101.5zM377 618q-108 0 -162.5 -75.5t-54.5 -192.5t57 -195t160 -78q75 0 125 39t71 98.5
t21 134.5q0 117 -55.5 193t-161.5 76zM429 -189h-104v114h104v-114z" />
    <glyph glyph-name="uni1EE3" unicode="&#x1ee3;" horiz-adv-x="555" 
d="M281 521q89 0 149 -51q52 14 52 60q0 29 -11 60h89q8 -21 8 -57q0 -43 -22.5 -76t-65.5 -47q37 -65 37 -154q0 -116 -64 -192t-178 -76q-109 0 -173 74.5t-64 191.5t65 192t178 75zM277 440q-67 0 -102.5 -49t-35.5 -136q0 -83 38 -134.5t102 -51.5q65 0 101.5 50
t36.5 135q0 86 -36.5 136t-103.5 50zM329 -187h-104v114h104v-114z" />
    <glyph glyph-name="uni1EE4" unicode="&#x1ee4;" horiz-adv-x="717" 
d="M83 695h104v-418q0 -109 48.5 -155t123.5 -46q82 0 126.5 46t44.5 155v418h103v-412q0 -292 -276 -292q-58 0 -105.5 14.5t-86.5 46.5t-60.5 89t-21.5 136v418zM410 -190h-104v114h104v-114z" />
    <glyph glyph-name="uni1EE5" unicode="&#x1ee5;" horiz-adv-x="562" 
d="M489 509v-361q0 -26 0.5 -79.5t0.5 -68.5h-96q-3 20 -3 73q-40 -85 -151 -85q-75 0 -122 44.5t-47 142.5v334h98v-313q0 -124 100 -124q66 0 94 39.5t28 131.5v266h98zM333 -192h-104v114h104v-114z" />
    <glyph glyph-name="uni1EE6" unicode="&#x1ee6;" horiz-adv-x="717" 
d="M83 695h104v-418q0 -109 48.5 -155t123.5 -46q82 0 126.5 46t44.5 155v418h103v-412q0 -292 -276 -292q-58 0 -105.5 14.5t-86.5 46.5t-60.5 89t-21.5 136v418zM399 750h-87q31 27 44 45.5t13 38.5q0 35 -41 35q-28 0 -58 -16l-22 57q46 30 102 30q49 0 76.5 -25.5
t27.5 -63.5q0 -53 -55 -101z" />
    <glyph glyph-name="uni1EE7" unicode="&#x1ee7;" horiz-adv-x="562" 
d="M489 509v-361q0 -26 0.5 -79.5t0.5 -68.5h-96q-3 20 -3 73q-40 -85 -151 -85q-75 0 -122 44.5t-47 142.5v334h98v-313q0 -124 100 -124q66 0 94 39.5t28 131.5v266h98zM316 583h-87q31 27 44 45.5t13 38.5q0 35 -41 35q-28 0 -58 -16l-22 57q46 30 102 30
q49 0 76.5 -25.5t27.5 -63.5q0 -53 -55 -101z" />
    <glyph glyph-name="uni1EE8" unicode="&#x1ee8;" horiz-adv-x="717" 
d="M83 695h104v-418q0 -109 48.5 -155t123.5 -46q82 0 126.5 46t44.5 155v418h57q57 13 57 61q0 29 -11 60h89q8 -21 8 -57q0 -45 -25 -79.5t-72 -46.5v-350q0 -292 -276 -292q-58 0 -105.5 14.5t-86.5 46.5t-60.5 89t-21.5 136v418zM444 894h127l-173 -138h-99z" />
    <glyph glyph-name="uni1EE9" unicode="&#x1ee9;" horiz-adv-x="562" 
d="M391 73q-40 -85 -151 -85q-75 0 -122 44.5t-47 142.5v334h98v-313q0 -124 100 -124q66 0 94 39.5t28 131.5v266h41q67 11 67 63q0 29 -11 60h89q8 -21 8 -57q0 -45 -24.5 -79t-71.5 -46v-302q0 -26 0.5 -79.5t0.5 -68.5h-96q-3 20 -3 73zM347 743h120l-155 -152h-91z" />
    <glyph glyph-name="uni1EEA" unicode="&#x1eea;" horiz-adv-x="717" 
d="M83 695h104v-418q0 -109 48.5 -155t123.5 -46q82 0 126.5 46t44.5 155v418h57q57 13 57 61q0 29 -11 60h89q8 -21 8 -57q0 -45 -25 -79.5t-72 -46.5v-350q0 -292 -276 -292q-58 0 -105.5 14.5t-86.5 46.5t-60.5 89t-21.5 136v418zM161 889h128l134 -138h-97z" />
    <glyph glyph-name="uni1EEB" unicode="&#x1eeb;" horiz-adv-x="562" 
d="M391 73q-40 -85 -151 -85q-75 0 -122 44.5t-47 142.5v334h98v-313q0 -124 100 -124q66 0 94 39.5t28 131.5v266h41q67 11 67 63q0 29 -11 60h89q8 -21 8 -57q0 -45 -24.5 -79t-71.5 -46v-302q0 -26 0.5 -79.5t0.5 -68.5h-96q-3 20 -3 73zM101 743h121l125 -152h-91z" />
    <glyph glyph-name="uni1EEC" unicode="&#x1eec;" horiz-adv-x="717" 
d="M83 695h104v-418q0 -109 48.5 -155t123.5 -46q82 0 126.5 46t44.5 155v418h57q57 13 57 61q0 29 -11 60h89q8 -21 8 -57q0 -45 -25 -79.5t-72 -46.5v-350q0 -292 -276 -292q-58 0 -105.5 14.5t-86.5 46.5t-60.5 89t-21.5 136v418zM400 751h-87q31 27 44 45.5t13 38.5
q0 35 -41 35q-28 0 -58 -16l-22 57q46 30 102 30q49 0 76.5 -25.5t27.5 -63.5q0 -53 -55 -101z" />
    <glyph glyph-name="uni1EED" unicode="&#x1eed;" horiz-adv-x="562" 
d="M391 73q-40 -85 -151 -85q-75 0 -122 44.5t-47 142.5v334h98v-313q0 -124 100 -124q66 0 94 39.5t28 131.5v266h41q67 11 67 63q0 29 -11 60h89q8 -21 8 -57q0 -45 -24.5 -79t-71.5 -46v-302q0 -26 0.5 -79.5t0.5 -68.5h-96q-3 20 -3 73zM324 583h-87q31 27 44 45.5
t13 38.5q0 35 -41 35q-28 0 -58 -16l-22 57q46 30 102 30q49 0 76.5 -25.5t27.5 -63.5q0 -53 -55 -101z" />
    <glyph glyph-name="uni1EEE" unicode="&#x1eee;" horiz-adv-x="717" 
d="M83 695h104v-418q0 -109 48.5 -155t123.5 -46q82 0 126.5 46t44.5 155v418h57q57 13 57 61q0 29 -11 60h89q8 -21 8 -57q0 -45 -25 -79.5t-72 -46.5v-350q0 -292 -276 -292q-58 0 -105.5 14.5t-86.5 46.5t-60.5 89t-21.5 136v418zM255 764h-69v25q0 99 87 99
q35 0 90 -25.5t70 -25.5q30 0 30 42v10h67v-21q0 -58 -22 -82.5t-66 -24.5q-31 0 -86 26t-73 26q-28 0 -28 -32v-17z" />
    <glyph glyph-name="uni1EEF" unicode="&#x1eef;" horiz-adv-x="562" 
d="M391 73q-40 -85 -151 -85q-75 0 -122 44.5t-47 142.5v334h98v-313q0 -124 100 -124q66 0 94 39.5t28 131.5v266h41q67 11 67 63q0 29 -11 60h89q8 -21 8 -57q0 -45 -24.5 -79t-71.5 -46v-302q0 -26 0.5 -79.5t0.5 -68.5h-96q-3 20 -3 73zM190 602h-68v25q0 99 84 99
q31 0 77.5 -24t61.5 -24q28 0 28 40v10h66v-22q0 -105 -86 -105q-31 0 -75 24t-62 24q-26 0 -26 -31v-16z" />
    <glyph glyph-name="uni1EF0" unicode="&#x1ef0;" horiz-adv-x="717" 
d="M83 695h104v-418q0 -109 48.5 -155t123.5 -46q82 0 126.5 46t44.5 155v418h57q57 13 57 61q0 29 -11 60h89q8 -21 8 -57q0 -45 -25 -79.5t-72 -46.5v-350q0 -292 -276 -292q-58 0 -105.5 14.5t-86.5 46.5t-60.5 89t-21.5 136v418zM410 -187h-104v114h104v-114z" />
    <glyph glyph-name="uni1EF1" unicode="&#x1ef1;" horiz-adv-x="562" 
d="M391 73q-40 -85 -151 -85q-75 0 -122 44.5t-47 142.5v334h98v-313q0 -124 100 -124q66 0 94 39.5t28 131.5v266h41q67 11 67 63q0 29 -11 60h89q8 -21 8 -57q0 -45 -24.5 -79t-71.5 -46v-302q0 -26 0.5 -79.5t0.5 -68.5h-96q-3 20 -3 73zM333 -187h-104v114h104v-114z
" />
    <glyph glyph-name="Ygrave" unicode="&#x1ef2;" horiz-adv-x="596" 
d="M347 0h-104v253q0 11 -5 19l-244 423h118q177 -325 188 -347q29 59 192 347h110l-251 -424q-4 -8 -4 -18v-253zM101 892h128l134 -138h-97z" />
    <glyph glyph-name="ygrave" unicode="&#x1ef3;" horiz-adv-x="488" 
d="M9 509h106q116 -347 135 -421h1q24 92 129 421h99l-181 -531q-38 -112 -77.5 -149.5t-120.5 -37.5q-26 0 -57 3v84q20 -3 41 -3q46 0 70 23t45 83zM58 743h121l125 -152h-91z" />
    <glyph glyph-name="uni1EF4" unicode="&#x1ef4;" horiz-adv-x="596" 
d="M347 0h-104v253q0 11 -5 19l-244 423h118q177 -325 188 -347q29 59 192 347h110l-251 -424q-4 -8 -4 -18v-253zM348 -187h-104v114h104v-114z" />
    <glyph glyph-name="uni1EF5" unicode="&#x1ef5;" horiz-adv-x="488" 
d="M9 509h106q116 -347 135 -421h1q24 92 129 421h99l-181 -531q-38 -112 -77.5 -149.5t-120.5 -37.5q-26 0 -57 3v84q20 -3 41 -3q46 0 70 23t45 83zM453 -187h-104v114h104v-114z" />
    <glyph glyph-name="uni1EF6" unicode="&#x1ef6;" horiz-adv-x="596" 
d="M347 0h-104v253q0 11 -5 19l-244 423h118q177 -325 188 -347q29 59 192 347h110l-251 -424q-4 -8 -4 -18v-253zM341 744h-87q31 27 44 45.5t13 38.5q0 35 -41 35q-28 0 -58 -16l-22 57q46 30 102 30q49 0 76.5 -25.5t27.5 -63.5q0 -53 -55 -101z" />
    <glyph glyph-name="uni1EF7" unicode="&#x1ef7;" horiz-adv-x="488" 
d="M9 509h106q116 -347 135 -421h1q24 92 129 421h99l-181 -531q-38 -112 -77.5 -149.5t-120.5 -37.5q-26 0 -57 3v84q20 -3 41 -3q46 0 70 23t45 83zM287 583h-87q31 27 44 45.5t13 38.5q0 35 -41 35q-28 0 -58 -16l-22 57q46 30 102 30q49 0 76.5 -25.5t27.5 -63.5
q0 -53 -55 -101z" />
    <glyph glyph-name="uni1EF8" unicode="&#x1ef8;" horiz-adv-x="596" 
d="M347 0h-104v253q0 11 -5 19l-244 423h118q177 -325 188 -347q29 59 192 347h110l-251 -424q-4 -8 -4 -18v-253zM195 764h-69v25q0 99 87 99q35 0 90 -25.5t70 -25.5q30 0 30 42v10h67v-21q0 -58 -22 -82.5t-66 -24.5q-31 0 -86 26t-73 26q-28 0 -28 -32v-17z" />
    <glyph glyph-name="uni1EF9" unicode="&#x1ef9;" horiz-adv-x="488" 
d="M9 509h106q116 -347 135 -421h1q24 92 129 421h99l-181 -531q-38 -112 -77.5 -149.5t-120.5 -37.5q-26 0 -57 3v84q20 -3 41 -3q46 0 70 23t45 83zM153 602h-68v25q0 99 84 99q31 0 77.5 -24t61.5 -24q28 0 28 40v10h66v-22q0 -105 -86 -105q-31 0 -75 24t-62 24
q-26 0 -26 -31v-16z" />
    <glyph glyph-name="uni2007" unicode="&#x2007;" horiz-adv-x="551" 
 />
    <glyph glyph-name="uni2010" unicode="&#x2010;" horiz-adv-x="379" 
d="M57 300h265v-88h-265v88z" />
    <glyph glyph-name="figuredash" unicode="&#x2012;" horiz-adv-x="551" 
d="M85 367h381v-85h-381v85z" />
    <glyph glyph-name="endash" unicode="&#x2013;" horiz-adv-x="511" 
d="M57 299h397v-85h-397v85z" />
    <glyph glyph-name="emdash" unicode="&#x2014;" horiz-adv-x="850" 
d="M57 299h736v-85h-736v85z" />
    <glyph glyph-name="uni2015" unicode="&#x2015;" horiz-adv-x="850" 
d="M57 299h736v-85h-736v85z" />
    <glyph glyph-name="quoteleft" unicode="&#x2018;" horiz-adv-x="214" 
d="M104 733h81q-42 -137 -46 -270h-102q5 65 24 142.5t43 127.5z" />
    <glyph glyph-name="quoteright" unicode="&#x2019;" horiz-adv-x="214" 
d="M110 463h-81q42 132 46 270h103q-4 -64 -24 -141.5t-44 -128.5z" />
    <glyph glyph-name="quotesinglbase" unicode="&#x201a;" horiz-adv-x="214" 
d="M110 -132h-81q42 132 46 270h103q-4 -64 -24 -141.5t-44 -128.5z" />
    <glyph glyph-name="quotedblleft" unicode="&#x201c;" 
d="M288 726h75q-41 -134 -45 -270h-99q3 65 24 144.5t45 125.5zM106 726h76q-42 -139 -46 -270h-99q4 61 24.5 141.5t44.5 128.5z" />
    <glyph glyph-name="quotedblright" unicode="&#x201d;" 
d="M113 463h-76q42 138 46 270h99q-4 -64 -25 -143.5t-44 -126.5zM295 463h-76q41 143 45 270h99q-4 -62 -24 -142t-44 -128z" />
    <glyph glyph-name="quotedblbase" unicode="&#x201e;" horiz-adv-x="378" 
d="M105 -132h-76q42 138 46 270h99q-4 -64 -25 -144t-44 -126zM287 -132h-77q42 139 46 270h99q-4 -61 -24.5 -141t-43.5 -129z" />
    <glyph glyph-name="dagger" unicode="&#x2020;" horiz-adv-x="512" 
d="M191 649h89l-6 -219l166 6v-83l-166 6l6 -491h-89l7 491l-168 -6v83l168 -6z" />
    <glyph glyph-name="daggerdbl" unicode="&#x2021;" horiz-adv-x="512" 
d="M198 157v228l-168 -6v83l168 -6l-7 193h89l-6 -193l166 6v-83l-166 6v-228l166 5v-82l-166 7l6 -219h-89l7 219l-168 -7v82z" />
    <glyph glyph-name="bullet" unicode="&#x2022;" horiz-adv-x="383" 
d="M90 360h203v-209h-203v209z" />
    <glyph glyph-name="ellipsis" unicode="&#x2026;" horiz-adv-x="857" 
d="M171 0h-104v153h104v-153zM460 0h-104v153h104v-153zM747 0h-104v153h104v-153z" />
    <glyph glyph-name="perthousand" unicode="&#x2030;" horiz-adv-x="1276" 
d="M1069 364q78 0 123.5 -50t45.5 -138q0 -82 -45 -135t-126 -54q-79 0 -123.5 51t-44.5 137q0 80 45 134.5t125 54.5zM1068 295q-40 0 -63.5 -30.5t-23.5 -88.5q0 -55 23 -87.5t66 -32.5q41 0 64.5 31.5t23.5 88.5t-24 88t-66 31zM207 670q78 0 124 -50t46 -137
q0 -84 -45 -137t-126 -53q-79 0 -123.5 50.5t-44.5 138.5q0 80 44.5 134t124.5 54zM207 601q-40 0 -63.5 -30.5t-23.5 -87.5q0 -56 22.5 -88t65.5 -32q42 0 65.5 31.5t23.5 88.5t-23.5 87.5t-66.5 30.5zM276 0h-81l424 658h81zM688 364q78 0 123.5 -50t45.5 -138
q0 -83 -44.5 -135.5t-126.5 -53.5q-78 0 -122.5 51.5t-44.5 136.5q0 81 44 135t125 54zM687 294q-39 0 -63 -31.5t-24 -86.5t23 -87.5t66 -32.5q42 0 65 31.5t23 88.5t-23.5 87.5t-66.5 30.5z" />
    <glyph glyph-name="uni2032" unicode="&#x2032;" horiz-adv-x="237" 
d="M131 460h-81l39 273h98z" />
    <glyph glyph-name="uni2033" unicode="&#x2033;" horiz-adv-x="399" 
d="M122 460h-72l38 273h91zM291 460h-72l39 273h91z" />
    <glyph glyph-name="guilsinglleft" unicode="&#x2039;" horiz-adv-x="373" 
d="M316 454l-166 -194l167 -196h-92l-169 196l169 194h91z" />
    <glyph glyph-name="guilsinglright" unicode="&#x203a;" horiz-adv-x="373" 
d="M56 64l167 194l-167 196h91l170 -196l-170 -194h-91z" />
    <glyph glyph-name="fraction" unicode="&#x2044;" horiz-adv-x="186" 
d="M-82 0h-75l429 658h74z" />
    <glyph glyph-name="zero.sups" unicode="&#x2070;" horiz-adv-x="393" 
d="M198 831q78 0 119.5 -55t41.5 -147q0 -99 -42.5 -152t-120.5 -53q-77 0 -119.5 55.5t-42.5 146.5q0 92 44 148.5t120 56.5zM197 765q-82 0 -82 -139q0 -68 22.5 -102.5t60.5 -34.5q42 0 61 33.5t19 105.5q0 137 -81 137z" />
    <glyph glyph-name="four.sups" unicode="&#x2074;" horiz-adv-x="373" 
d="M296 428h-74v101h-197v60l177 234h94v-234h60l-6 -60h-54v-101zM101 589h121v76q0 59 3 95q-7 -12 -29 -42.5t-51.5 -69.5t-43.5 -59z" />
    <glyph glyph-name="five.sups" unicode="&#x2075;" horiz-adv-x="384" 
d="M333 825l-11 -65h-186q-4 -40 -15 -92q34 27 92 27q61 0 98.5 -35t37.5 -94q0 -62 -42.5 -102t-113.5 -40t-111 35t-46 81h78q17 -54 79 -54q37 0 56 20.5t19 55.5q0 73 -76 73q-53 0 -77 -38l-70 11q29 183 33 217h255z" />
    <glyph glyph-name="six.sups" unicode="&#x2076;" horiz-adv-x="383" 
d="M340 726h-73q-16 45 -68 45q-82 0 -88 -121q35 46 107 46q62 0 98 -36t36 -95q0 -61 -43 -101t-110 -40q-76 0 -120.5 51t-44.5 148q0 86 41.5 146.5t125.5 60.5q62 0 97.5 -31t41.5 -73zM197 484q33 0 55 19t22 59q-1 37 -21 57.5t-57 20.5q-36 0 -58 -19.5t-22 -49.5
q0 -33 20.5 -60t60.5 -27z" />
    <glyph glyph-name="seven.sups" unicode="&#x2077;" horiz-adv-x="348" 
d="M30 825h290v-58q-108 -132 -157 -338h-85q16 84 61.5 177t96.5 154h-206v65z" />
    <glyph glyph-name="eight.sups" unicode="&#x2078;" horiz-adv-x="371" 
d="M184 424q-74 0 -114.5 34t-40.5 84q0 68 68 96q-51 29 -51 83q0 48 35.5 79t107.5 31q66 0 100.5 -32t34.5 -75q0 -59 -53 -82q71 -27 71 -97q0 -54 -44 -87.5t-114 -33.5zM185 479q39 0 58.5 18t19.5 46q0 67 -78 67q-77 0 -77 -65q0 -28 20.5 -47t56.5 -19zM186 775
q-32 0 -48.5 -14t-16.5 -39q0 -56 67 -56q60 0 60 56q0 53 -62 53z" />
    <glyph glyph-name="nine.sups" unicode="&#x2079;" horiz-adv-x="376" 
d="M36 528h78q16 -46 67 -46q79 0 84 128q-34 -39 -102 -39q-60 0 -97 34t-37 90q0 58 41.5 97t111.5 39q75 0 117.5 -49.5t42.5 -144.5q0 -91 -39 -152.5t-122 -61.5q-66 0 -102 31.5t-43 73.5zM181 770q-32 0 -53.5 -17.5t-21.5 -54.5q0 -33 20 -52t58 -19q76 0 76 62
q0 37 -20.5 59t-58.5 22z" />
    <glyph glyph-name="parenleft.sups" unicode="&#x207d;" horiz-adv-x="223" 
d="M117 875h74q-84 -120 -84 -254q0 -133 84 -252h-74q-31 39 -55.5 105t-24.5 147q0 147 80 254z" />
    <glyph glyph-name="parenright.sups" unicode="&#x207e;" horiz-adv-x="223" 
d="M106 384h-73q84 120 84 254q0 131 -84 251h73q31 -37 55.5 -103.5t24.5 -147.5q0 -150 -80 -254z" />
    <glyph glyph-name="n.sups" unicode="&#x207f;" horiz-adv-x="387" 
d="M45 262v226q0 90 -1 107h72q0 -1 3 -50q31 57 106 57q48 0 82.5 -29.5t34.5 -100.5v-210h-75v195q0 81 -66 81q-81 0 -81 -97v-179h-75z" />
    <glyph glyph-name="zero.subs" unicode="&#x2080;" horiz-adv-x="393" 
d="M198 230q78 0 119.5 -55t41.5 -147q0 -99 -42.5 -152t-120.5 -53q-77 0 -119.5 55.5t-42.5 146.5q0 92 44 148.5t120 56.5zM197 164q-82 0 -82 -139q0 -68 22.5 -102.5t60.5 -34.5q42 0 61 33.5t19 105.5q0 137 -81 137z" />
    <glyph glyph-name="one.subs" unicode="&#x2081;" horiz-adv-x="252" 
d="M184 -173h-80v306q-36 -18 -81 -18v60q62 10 107 55h54v-403z" />
    <glyph glyph-name="two.subs" unicode="&#x2082;" horiz-adv-x="365" 
d="M332 -172h-295v5q0 109 128 188q51 30 66 45.5t15 39.5q0 27 -16.5 43.5t-47.5 16.5q-61 0 -73 -69l-75 1q5 59 46 95.5t105 36.5q73 0 107.5 -37.5t34.5 -83.5t-23 -72t-82 -59q-79 -47 -93 -87h215z" />
    <glyph glyph-name="three.subs" unicode="&#x2083;" horiz-adv-x="375" 
d="M148 4v66h32q65 0 65 46q0 23 -15.5 38t-49.5 15q-57 0 -72 -55h-72q2 17 9 34t22.5 36.5t45.5 32t70 12.5q68 0 104 -31t36 -78q0 -31 -17 -51t-40 -28q30 -9 52 -33.5t22 -61.5q0 -51 -37.5 -87t-117.5 -36q-44 0 -76 13t-48 33.5t-23.5 38.5t-9.5 36h75
q6 -26 28 -43.5t55 -17.5q35 0 54 17t19 45q0 59 -74 59h-37z" />
    <glyph glyph-name="four.subs" unicode="&#x2084;" horiz-adv-x="373" 
d="M296 -173h-74v101h-197v60l177 234h94v-234h60l-6 -60h-54v-101zM101 -12h121v76q0 59 3 95q-7 -12 -29 -42.5t-51.5 -69.5t-43.5 -59z" />
    <glyph glyph-name="five.subs" unicode="&#x2085;" horiz-adv-x="384" 
d="M333 224l-11 -65h-186q-4 -40 -15 -92q34 27 92 27q61 0 98.5 -35t37.5 -94q0 -62 -42.5 -102t-113.5 -40t-111 35t-46 81h78q17 -54 79 -54q37 0 56 20.5t19 55.5q0 73 -76 73q-53 0 -77 -38l-70 11q29 183 33 217h255z" />
    <glyph glyph-name="six.subs" unicode="&#x2086;" horiz-adv-x="383" 
d="M340 125h-73q-16 45 -68 45q-82 0 -88 -121q35 46 107 46q62 0 98 -36.5t36 -94.5q0 -61 -43 -101t-110 -40q-76 0 -120.5 51t-44.5 148q0 86 41.5 146.5t125.5 60.5q62 0 97.5 -31t41.5 -73zM197 -117q33 0 55 19t22 59q-1 37 -21 57.5t-57 20.5q-36 0 -58 -19.5
t-22 -49.5q0 -33 20.5 -60t60.5 -27z" />
    <glyph glyph-name="seven.subs" unicode="&#x2087;" horiz-adv-x="348" 
d="M30 224h290v-58q-108 -132 -157 -338h-85q16 84 61.5 177t96.5 154h-206v65z" />
    <glyph glyph-name="eight.subs" unicode="&#x2088;" horiz-adv-x="371" 
d="M184 -177q-74 0 -114.5 34t-40.5 84q0 68 68 96q-51 29 -51 83q0 48 35.5 79t107.5 31q66 0 100.5 -32t34.5 -75q0 -59 -53 -82q71 -27 71 -97q0 -54 -44 -87.5t-114 -33.5zM185 -122q39 0 58.5 18t19.5 46q0 67 -78 67q-77 0 -77 -65q0 -28 20.5 -47t56.5 -19zM186 174
q-32 0 -48.5 -14t-16.5 -39q0 -56 67 -56q60 0 60 56q0 53 -62 53z" />
    <glyph glyph-name="nine.subs" unicode="&#x2089;" horiz-adv-x="376" 
d="M36 -73h78q16 -46 67 -46q79 0 84 128q-34 -39 -102 -39q-60 0 -97 34t-37 90q0 58 41.5 97t111.5 39q75 0 117.5 -49.5t42.5 -144.5q0 -92 -39 -153t-122 -61q-66 0 -102 31.5t-43 73.5zM181 169q-32 0 -53.5 -17.5t-21.5 -54.5q0 -33 20 -52t58 -19q76 0 76 62
q0 37 -20.5 59t-58.5 22z" />
    <glyph glyph-name="parenleft.subs" unicode="&#x208d;" horiz-adv-x="223" 
d="M117 274h74q-84 -120 -84 -254q0 -133 84 -252h-74q-31 39 -55.5 105t-24.5 147q0 147 80 254z" />
    <glyph glyph-name="parenright.subs" unicode="&#x208e;" horiz-adv-x="223" 
d="M106 -217h-73q84 120 84 254q0 131 -84 251h73q31 -37 55.5 -103.5t24.5 -147.5q0 -150 -80 -254z" />
    <glyph glyph-name="colonmonetary" unicode="&#x20a1;" horiz-adv-x="533" 
d="M279 75q12 0 17 1v508h-12q-10 0 -28 -2v-505q14 -2 23 -2zM139 327q0 -171 64 -225v456q-64 -54 -64 -231zM256 -96h-53v100q-79 28 -121.5 111.5t-42.5 209.5q0 131 42.5 214.5t121.5 112.5v78h53v-66q22 2 34 2h6v64h52v-70q68 -15 105.5 -62.5t44.5 -105.5h-98
q-13 57 -52 78v-480q35 20 54 72h98q-32 -133 -152 -163v-94h-52v86h-15q-17 0 -25 1v-88z" />
    <glyph glyph-name="franc" unicode="&#x20a3;" horiz-adv-x="507" 
d="M98 0v134h-85v72h85v452h374v-85h-274v-185h254v-84h-254v-98h126v-72h-126v-134h-100z" />
    <glyph glyph-name="lira" unicode="&#x20a4;" horiz-adv-x="520" 
d="M489 0h-454v79q39 18 55.5 55.5t18.5 98.5h-88v61h89q-1 14 -2 36.5t-1 28.5h-86v62h84v25q0 223 192 223q91 0 135.5 -50t49.5 -112h-94q-12 80 -93 80q-50 0 -71 -33t-21 -99v-34h148v-62h-146q0 -9 0.5 -30t0.5 -35h145v-61h-146q-5 -101 -47 -147h344z" />
    <glyph glyph-name="uni20A6" unicode="&#x20a6;" horiz-adv-x="549" 
d="M143 578q4 -61 6 -139h46l-47 139h-5zM385 96h7q-5 60 -7 148h-51zM149 0h-79v244h-50v61h50v71h-50v63h50v219h123l75 -219h115v219h77v-219h51v-63h-51v-71h51v-61h-51v-244h-115l-83 244h-113v-244zM383 305v71h-94l25 -71h69zM241 305l-24 71h-68v-71h92z" />
    <glyph glyph-name="peseta" unicode="&#x20a7;" horiz-adv-x="528" 
d="M66 0v414h-63v65h63v179h172q96 0 158.5 -46t72.5 -133h49v-65h-49q-10 -87 -73 -134.5t-165 -47.5h-72v-232h-93zM159 583v-104h214q-17 104 -139 104h-75zM159 308h70q129 0 144 106h-214v-106z" />
    <glyph glyph-name="dong" unicode="&#x20ab;" horiz-adv-x="542" 
d="M52 -75h416v-70h-416v70zM368 666h93v-68h63v-70h-63v-386q0 -105 1 -142h-89q-5 32 -5 65q-44 -74 -145 -74q-83 0 -138.5 62.5t-55.5 168.5q0 109 60.5 172.5t147.5 63.5q94 0 131 -54v124h-225v70h225v68zM126 224q0 -73 33.5 -114t90.5 -41q53 0 87.5 38t34.5 126
q0 77 -32 112.5t-87 35.5q-62 0 -94.5 -42t-32.5 -115z" />
    <glyph glyph-name="Euro" unicode="&#x20ac;" horiz-adv-x="547" 
d="M421 158h96q-19 -81 -71.5 -125t-132.5 -44q-97 0 -153.5 66t-71.5 187h-61v64h56v22q0 26 1 38h-57v64h64q18 115 77.5 177t149.5 62t140.5 -50.5t58.5 -117.5h-96q-25 87 -107 87q-105 0 -127 -158h180v-64h-185q-1 -11 -1 -34v-26h186v-64h-181q20 -170 129 -170
q76 0 106 86z" />
    <glyph glyph-name="uni20B1" unicode="&#x20b1;" horiz-adv-x="580" 
d="M90 0v361h-59v56h59v49h-59v56h59v136h179q82 0 140.5 -34.5t80.5 -101.5h55v-56h-44q1 -8 1 -25q0 -16 -1 -24h44v-56h-55q-24 -69 -85.5 -105.5t-147.5 -36.5h-74v-219h-93zM183 586v-64h211q-34 64 -126 64h-85zM411 440q0 18 -1 26h-227v-49h227q1 7 1 23zM183 293
h74q104 0 138 68h-212v-68z" />
    <glyph glyph-name="uni20B2" unicode="&#x20b2;" horiz-adv-x="556" 
d="M509 495h-96q-20 82 -93 92v-516q56 2 84 18v239h100v-294q-99 -43 -184 -45v-85h-59v88q-212 30 -212 342q0 145 55.5 231.5t156.5 100.5v65h59v-64q84 -6 133 -52.5t56 -119.5zM149 342q0 -112 26 -178.5t86 -85.5v507q-112 -26 -112 -243z" />
    <glyph glyph-name="uni20B4" unicode="&#x20b4;" horiz-adv-x="534" 
d="M163 506h-95q8 75 62 119.5t136 44.5q96 0 144.5 -48.5t48.5 -116.5q0 -47 -21 -82h49v-58h-104q-34 -26 -91 -58l-7 -4h192v-57h-280q-45 -38 -45 -84q0 -42 31 -69t79 -27q104 0 124 96h94q-12 -85 -69 -129.5t-155 -44.5q-86 0 -143.5 47t-57.5 122q0 51 26 89h-42v57
h98q32 24 96 62h-184v58h274q40 35 40 80q0 36 -25 63.5t-72 27.5q-89 0 -103 -88z" />
    <glyph glyph-name="uni20B5" unicode="&#x20b5;" horiz-adv-x="551" 
d="M139 327q0 -221 107 -251v507q-56 -15 -81.5 -77t-25.5 -179zM306 -96h-60v89q-100 13 -153.5 99.5t-53.5 232.5q0 152 53 237.5t154 100.5v68h60v-65q89 -5 136 -56.5t56 -122.5h-98q-21 89 -94 99v-513q37 5 59 27t37 72h98q-34 -167 -194 -180v-88z" />
    <glyph glyph-name="uni20B9" unicode="&#x20b9;" horiz-adv-x="525" 
d="M49 267v74h93q67 0 112.5 29t45.5 97v1h-251v63h236q-33 60 -135 60h-101v67h443v-64h-142q26 -26 38 -63h104v-63h-94v-2q0 -139 -146 -183l212 -283h-112l-201 267h-15h-87z" />
    <glyph glyph-name="uni20BA" unicode="&#x20ba;" horiz-adv-x="558" 
d="M221 0h-102v255l-85 -37v66l85 36v73l-85 -37v65l85 37v200h99v-158l124 54v-65l-124 -54v-72l124 53v-65l-124 -54v-216q94 0 140 44t56 135h88q-3 -51 -18 -94.5t-46 -82.5t-86.5 -61t-130.5 -22z" />
    <glyph glyph-name="uni20BD" unicode="&#x20bd;" horiz-adv-x="576" 
d="M100 0v145h-73v69h73v77h-73v79h73v288h203q106 0 166 -48t60 -132q0 -187 -226 -187h-101v-77h176v-69h-176v-145h-102zM202 578v-208h99q66 0 95 25.5t29 79.5q0 103 -125 103h-98z" />
    <glyph glyph-name="uni2113" unicode="&#x2113;" horiz-adv-x="427" 
d="M317 165h94q-17 -174 -176 -174q-153 0 -153 169v40q-7 -5 -55 -35l-23 69q28 16 77 48v245q0 110 44 161t113 51t106.5 -43.5t37.5 -120.5q0 -96 -47 -172.5t-153 -155.5v-65q0 -111 61 -111q32 0 49 20t25 74zM182 547v-201q109 98 109 227q0 88 -54 88
q-28 0 -41.5 -26t-13.5 -88z" />
    <glyph glyph-name="uni2116" unicode="&#x2116;" horiz-adv-x="1049" 
d="M176 0h-91v676h131q256 -471 290 -563h1q-6 77 -6 321v242h90v-676h-122q-150 285 -299 582h-1q7 -89 7 -331v-251zM743 435q0 -60 24.5 -93t66.5 -33q90 0 90 126q0 62 -24 93.5t-68 31.5q-40 0 -64.5 -32.5t-24.5 -92.5zM686 177h294v-71h-294v71zM832 630
q82 0 129 -53t47 -142q0 -90 -47.5 -144t-129.5 -54q-77 0 -124.5 54t-47.5 144q0 87 48 141t125 54z" />
    <glyph glyph-name="uni2117" unicode="&#x2117;" horiz-adv-x="789" 
d="M262 160v381h158q56 0 96.5 -32.5t40.5 -90.5q0 -62 -38 -94.5t-102 -32.5h-85v-131h-70zM333 482v-135h77q73 0 73 69q0 66 -74 66h-76zM391 704q147 0 244 -100.5t97 -255.5t-97 -256.5t-244 -101.5q-150 0 -247 99.5t-97 258.5q0 153 98.5 254.5t245.5 101.5zM390 650
q-123 0 -203.5 -82.5t-80.5 -222.5q0 -130 80.5 -215t203.5 -85t203 82.5t80 220.5q0 132 -80 217t-203 85z" />
    <glyph glyph-name="uni2120" unicode="&#x2120;" horiz-adv-x="476" 
d="M491 457h-51v72q0 39 4 127h-2l-66 -198h-47q-42 129 -60 198h-2q3 -66 3 -134v-65h-50v238h84q45 -139 52 -161h1q29 88 56 161h78v-238zM-14 533h53q2 -20 16.5 -31.5t34.5 -11.5q44 0 44 30q0 14 -13 22t-43 15q-46 11 -64 29t-18 45q0 32 23 51t67 19q48 0 70.5 -22
t24.5 -54h-51q-5 38 -47 38q-35 0 -35 -28q0 -21 43 -31q53 -13 75 -30t22 -48q0 -75 -100 -75q-45 0 -72 22.5t-30 59.5z" />
    <glyph glyph-name="trademark" unicode="&#x2122;" horiz-adv-x="485" 
d="M505 457h-52v72q0 72 5 127h-2l-67 -198h-46l-61 198h-2q3 -28 4 -134v-65h-51v238h84l53 -161l56 161h79v-238zM-10 695h214v-48h-79v-190h-55v190h-80v48z" />
    <glyph glyph-name="uni2126" unicode="&#x2126;" horiz-adv-x="749" 
d="M375 705q101 0 175.5 -46.5t110 -117.5t35.5 -155q0 -200 -165 -299h180v-87h-281v108q161 77 161 274q0 98 -57 167.5t-161 69.5q-101 0 -158.5 -66t-57.5 -171q0 -98 44.5 -168t117.5 -106v-108h-281v87h175q-161 101 -161 296q0 136 89 229t234 93z" />
    <glyph glyph-name="estimated" unicode="&#x212e;" horiz-adv-x="838" 
d="M797 305h-607q-4 0 -4 -4v-114q0 -9 8 -21q36 -52 94.5 -81t127.5 -29q74 0 126.5 25.5t94.5 83.5h110q-114 -176 -333 -176q-165 0 -268.5 99t-103.5 241q0 140 110 240t267 100q162 0 270 -102t108 -243v-19zM652 377v98q0 7 -9 23q-75 108 -222 108q-144 0 -226 -109
q-9 -13 -9 -23v-97q0 -5 4 -5h458q4 0 4 5z" />
    <glyph glyph-name="onethird" unicode="&#x2153;" horiz-adv-x="834" 
d="M193 1h-75l429 658h74zM194 261h-80v306q-36 -18 -81 -18v60q62 10 107 55h54v-403zM601 175v66h32q65 0 65 46q0 23 -15.5 38t-49.5 15q-57 0 -72 -55h-72q2 17 9 34t22.5 36.5t45.5 32t70 12.5q68 0 104 -31t36 -78q0 -31 -17 -51t-40 -28q30 -9 52 -33.5t22 -61.5
q0 -51 -37.5 -87t-117.5 -36q-44 0 -76 13t-48 33.5t-23.5 38.5t-9.5 36h75q6 -26 28 -43.5t55 -17.5q35 0 54 17t19 45q0 59 -74 59h-37z" />
    <glyph glyph-name="twothirds" unicode="&#x2154;" horiz-adv-x="931" 
d="M305 1h-75l429 658h74zM337 262h-295v5q0 109 128 188q51 30 66 45.5t15 39.5q0 27 -16.5 43.5t-47.5 16.5q-61 0 -73 -69l-75 1q5 59 46 95.5t105 36.5q73 0 107.5 -37.5t34.5 -83.5t-23 -72t-82 -59q-79 -47 -93 -87h215zM704 175v66h32q65 0 65 46q0 23 -15.5 38
t-49.5 15q-57 0 -72 -55h-72q2 17 9 34t22.5 36.5t45.5 32t70 12.5q68 0 104 -31t36 -78q0 -31 -17 -51t-40 -28q30 -9 52 -33.5t22 -61.5q0 -51 -37.5 -87t-117.5 -36q-44 0 -76 13t-48 33.5t-23.5 38.5t-9.5 36h75q6 -26 28 -43.5t55 -17.5q35 0 54 17t19 45q0 59 -74 59
h-37z" />
    <glyph glyph-name="oneeighth" unicode="&#x215b;" horiz-adv-x="794" 
d="M172 1h-75l429 658h74zM192 261h-80v306q-36 -18 -81 -18v60q62 10 107 55h54v-403zM598 -21q-74 0 -114.5 34t-40.5 84q0 68 68 96q-51 29 -51 83q0 48 35.5 79t107.5 31q66 0 100.5 -32t34.5 -75q0 -59 -53 -82q71 -27 71 -97q0 -54 -44 -87.5t-114 -33.5zM599 34
q39 0 58.5 18t19.5 46q0 67 -78 67q-77 0 -77 -65q0 -28 20.5 -47t56.5 -19zM600 330q-32 0 -48.5 -14t-16.5 -39q0 -56 67 -56q60 0 60 56q0 53 -62 53z" />
    <glyph glyph-name="threeeighths" unicode="&#x215c;" horiz-adv-x="907" 
d="M280 1h-75l429 658h74zM711 -5q-74 0 -114.5 34t-40.5 84q0 68 68 96q-51 29 -51 83q0 48 35.5 79t107.5 31q66 0 100.5 -32t34.5 -75q0 -59 -53 -82q71 -27 71 -97q0 -54 -44 -87.5t-114 -33.5zM712 50q39 0 58.5 18t19.5 46q0 67 -78 67q-77 0 -77 -65q0 -28 20.5 -47
t56.5 -19zM713 346q-32 0 -48.5 -14t-16.5 -39q0 -56 67 -56q60 0 60 56q0 53 -62 53zM158 438v66h32q65 0 65 46q0 23 -15.5 38t-49.5 15q-57 0 -72 -55h-72q2 17 9 34t22.5 36.5t45.5 32t70 12.5q68 0 104 -31t36 -78q0 -31 -17 -51t-40 -28q30 -9 52 -33.5t22 -61.5
q0 -51 -37.5 -87t-117.5 -36q-44 0 -76 13t-48 33.5t-23.5 38.5t-9.5 36h75q6 -26 28 -43.5t55 -17.5q35 0 54 17t19 45q0 59 -74 59h-37z" />
    <glyph glyph-name="fiveeighths" unicode="&#x215d;" horiz-adv-x="920" 
d="M290 1h-75l429 658h74zM347 658l-11 -65h-186q-4 -40 -15 -92q34 27 92 27q61 0 98.5 -35t37.5 -94q0 -62 -42.5 -102t-113.5 -40t-111 35t-46 81h78q17 -54 79 -54q37 0 56 20.5t19 55.5q0 73 -76 73q-53 0 -77 -38l-70 11q29 183 33 217h255zM721 -5q-74 0 -114.5 34
t-40.5 84q0 68 68 96q-51 29 -51 83q0 48 35.5 79t107.5 31q66 0 100.5 -32t34.5 -75q0 -59 -53 -82q71 -27 71 -97q0 -54 -44 -87.5t-114 -33.5zM722 50q39 0 58.5 18t19.5 46q0 67 -78 67q-77 0 -77 -65q0 -28 20.5 -47t56.5 -19zM723 346q-32 0 -48.5 -14t-16.5 -39
q0 -56 67 -56q60 0 60 56q0 53 -62 53z" />
    <glyph glyph-name="seveneighths" unicode="&#x215e;" horiz-adv-x="828" 
d="M192 1h-75l429 658h74zM634 -21q-74 0 -114.5 34t-40.5 84q0 68 68 96q-51 29 -51 83q0 48 35.5 79t107.5 31q66 0 100.5 -32t34.5 -75q0 -59 -53 -82q71 -27 71 -97q0 -54 -44 -87.5t-114 -33.5zM635 34q39 0 58.5 18t19.5 46q0 67 -78 67q-77 0 -77 -65q0 -28 20.5 -47
t56.5 -19zM636 330q-32 0 -48.5 -14t-16.5 -39q0 -56 67 -56q60 0 60 56q0 53 -62 53zM45 658h290v-58q-108 -132 -157 -338h-85q16 84 61.5 177t96.5 154h-206v65z" />
    <glyph glyph-name="uni2190" unicode="&#x2190;" horiz-adv-x="876" 
d="M829 317h-636q73 -64 332 -306l-53 -55l-426 400v2l426 405l53 -58q-22 -20 -152 -141t-180 -167h636v-80z" />
    <glyph glyph-name="arrowup" unicode="&#x2191;" horiz-adv-x="859" 
d="M385 -44v673q-174 -200 -284 -320l-55 56l380 416h2l385 -416l-57 -56q-49 54 -153.5 171t-133.5 149v-673h-84z" />
    <glyph glyph-name="uni2192" unicode="&#x2192;" horiz-adv-x="876" 
d="M47 402h636q-73 64 -332 306l53 55l426 -400v-2l-426 -405l-53 58q22 20 152 141t180 167h-636v80z" />
    <glyph glyph-name="arrowdown" unicode="&#x2193;" horiz-adv-x="859" 
d="M474 751v-673q174 200 284 320l55 -56l-380 -416h-2l-385 416l57 56q49 -54 153.5 -171t133.5 -149v673h84z" />
    <glyph glyph-name="partialdiff" unicode="&#x2202;" horiz-adv-x="544" 
d="M95 617v81q32 7 72 7q147 -1 239.5 -99t92.5 -287q0 -53 -6.5 -98.5t-24 -88.5t-44 -73t-69.5 -48.5t-98 -18.5q-100 -1 -159 62t-59 152q0 96 62 156t153 60q103 0 149 -62v9q-3 108 -68 180t-177 72q-35 0 -63 -4zM266 68q47 0 77.5 27t41 61t10.5 73q0 45 -35.5 81
t-94.5 36q-56 0 -91.5 -36.5t-35.5 -102.5q0 -65 37 -102t91 -37z" />
    <glyph glyph-name="uni2206" unicode="&#x2206;" horiz-adv-x="650" 
d="M627 0h-604v65l239 630h126l239 -631v-64zM130 88h382l-101 269q-69 180 -90 257h-3q-8 -38 -88 -257z" />
    <glyph glyph-name="product" unicode="&#x220f;" horiz-adv-x="704" 
d="M85 695h535v-795h-103v707h-330v-707h-102v795z" />
    <glyph glyph-name="summation" unicode="&#x2211;" horiz-adv-x="532" 
d="M518 -100h-504v65l247 335l-233 329v66h473v-88h-340l214 -296l-235 -323h391z" />
    <glyph glyph-name="minus" unicode="&#x2212;" horiz-adv-x="713" 
d="M631 238h-549v86h549v-86z" />
    <glyph glyph-name="uni2215" unicode="&#x2215;" horiz-adv-x="186" 
d="M-82 0h-75l429 658h74z" />
    <glyph glyph-name="uni2219" unicode="&#x2219;" horiz-adv-x="212" 
d="M158 200h-104v153h104v-153z" />
    <glyph glyph-name="radical" unicode="&#x221a;" horiz-adv-x="622" 
d="M608 852l-230 -1050h-75l-155 426l-94 -44l-24 66l177 85q114 -328 127 -396q6 78 193 913h81z" />
    <glyph glyph-name="infinity" unicode="&#x221e;" horiz-adv-x="810" 
d="M206 115q-68 0 -114 49.5t-46 124.5q0 72 47 123t121 51q41 0 78 -18.5t58.5 -38.5t55.5 -58q36 39 58.5 59.5t60.5 38t81 17.5q68 0 113 -49t45 -125q0 -71 -47.5 -122.5t-120.5 -51.5q-54 0 -97 30t-93 85q-37 -39 -58 -58t-60.5 -38t-81.5 -19zM214 192q42 0 74.5 24
t71.5 70q-5 5 -22.5 25t-27 29.5t-25.5 22.5t-33 19t-35 6q-43 0 -69 -29t-26 -70q0 -43 25.5 -70t66.5 -27zM593 192q44 0 69.5 28t25.5 69q0 43 -24.5 71.5t-67.5 28.5q-28 0 -55 -14t-44 -31t-49 -52q54 -60 77 -77q34 -23 68 -23z" />
    <glyph glyph-name="integral" unicode="&#x222b;" horiz-adv-x="318" 
d="M334 836l-10 -84q-24 6 -46 6q-27 0 -44 -11.5t-24.5 -37.5t-9.5 -52.5t-2 -72.5q0 -72 10 -275.5t10 -275.5q0 -44 -2.5 -76t-11.5 -66.5t-25 -55.5t-43.5 -35t-66.5 -14q-51 0 -80 12l13 87q26 -8 55 -8q21 0 35 10t21 23t10.5 37t4 38.5t0.5 41.5v10q0 71 -10.5 281.5
t-10.5 282.5q0 246 163 246q40 0 64 -11z" />
    <glyph glyph-name="approxequal" unicode="&#x2248;" horiz-adv-x="713" 
d="M161 101h-76v23q0 65 34.5 95.5t89.5 30.5q58 0 153.5 -35.5t139.5 -35.5q29 0 41 14t12 42v10h75v-25q0 -126 -121 -126q-61 0 -156.5 35t-136.5 35q-55 0 -55 -56v-7zM161 323h-76v22q0 127 125 127q56 0 151.5 -34.5t140.5 -34.5q30 0 41.5 13.5t11.5 43.5v8h75v-23
q0 -71 -32.5 -100t-90.5 -29q-59 0 -154 35.5t-137 35.5q-55 0 -55 -54v-10z" />
    <glyph glyph-name="notequal" unicode="&#x2260;" horiz-adv-x="713" 
d="M523 561l-51 -110h159v-86h-199l-76 -164h275v-86h-314l-50 -107h-78l49 107h-156v86h196l75 164h-271v86h310l51 110h80z" />
    <glyph glyph-name="lessequal" unicode="&#x2264;" horiz-adv-x="679" 
d="M82 385v85l515 231v-95l-412 -177l412 -184v-95zM597 0h-515v87h515v-87z" />
    <glyph glyph-name="greaterequal" unicode="&#x2265;" horiz-adv-x="679" 
d="M597 467v-86l-515 -231v96l412 177l-412 184v94zM597 0h-515v87h515v-87z" />
    <glyph glyph-name="uni25A0" unicode="&#x25a0;" horiz-adv-x="377" 
d="M71 138v236h236v-236h-236z" />
    <glyph glyph-name="triagup" unicode="&#x25b2;" horiz-adv-x="639" 
d="M603 0h-567l278 611h3z" />
    <glyph glyph-name="uni25B3" unicode="&#x25b3;" horiz-adv-x="639" 
d="M603 0h-567l278 611h3zM144 68h343l-173 388z" />
    <glyph glyph-name="uni25B6" unicode="&#x25b6;" horiz-adv-x="692" 
d="M51 13v567l611 -279v-2z" />
    <glyph glyph-name="uni25B7" unicode="&#x25b7;" horiz-adv-x="692" 
d="M51 13v567l611 -279v-2zM506 298l-384 170v-343z" />
    <glyph glyph-name="triagdn" unicode="&#x25bc;" horiz-adv-x="639" 
d="M36 602h567l-279 -612h-2z" />
    <glyph glyph-name="uni25BD" unicode="&#x25bd;" horiz-adv-x="639" 
d="M36 602h567l-279 -612h-2zM495 533h-343l172 -387z" />
    <glyph glyph-name="uni25C0" unicode="&#x25c0;" horiz-adv-x="692" 
d="M642 580v-567l-611 278v3z" />
    <glyph glyph-name="uni25C1" unicode="&#x25c1;" horiz-adv-x="692" 
d="M642 580v-567l-611 278v3zM570 466l-384 -173l384 -170v343z" />
    <glyph glyph-name="uni25C6" unicode="&#x25c6;" horiz-adv-x="412" 
d="M42 257l163 168l165 -173l-162 -167z" />
    <glyph glyph-name="uni25C9" unicode="&#x25c9;" horiz-adv-x="534" 
d="M267 330q33 0 54.5 -22.5t21.5 -53.5q0 -34 -21 -58t-53 -24q-34 0 -55 23.5t-21 58.5q0 31 20.5 53.5t53.5 22.5zM483 254q-1 -95 -62 -160t-152 -65q-92 0 -154.5 64.5t-62.5 160.5q0 93 62.5 158t155.5 65q90 0 151.5 -65.5t61.5 -157.5zM269 416q-66 0 -107.5 -47
t-41.5 -115q0 -71 42 -118.5t107 -47.5t107 47.5t42 118.5q0 67 -43 114.5t-106 47.5z" />
    <glyph glyph-name="lozenge" unicode="&#x25ca;" horiz-adv-x="579" 
d="M451 327l-131 240q-15 25 -30 58h-2l-8 -16l-11.5 -23l-9.5 -19l-130 -236l128 -242q27 -52 29 -60h3q2 4 29 59zM538 329l-209 -372h-86l-202 371l206 372h87z" />
    <glyph glyph-name="uni2610" unicode="&#x2610;" horiz-adv-x="1018" 
d="M161 781h753v-775l-65 -66h-745v782zM164 706v-705h671v705h-671z" />
    <glyph glyph-name="uni2611" unicode="&#x2611;" horiz-adv-x="1018" 
d="M161 781h753v-775l-65 -66h-745v782zM164 706v-705h671v705h-671zM676 643h91q-171 -216 -348 -592h-25q-91 137 -148 277l70 46q42 -135 89 -220q56 131 131 265.5t140 223.5z" />
    <glyph glyph-name="uni2713" unicode="&#x2713;" horiz-adv-x="699" 
d="M588 751h112q-216 -290 -463 -817h-30q-100 147 -178 348l86 54q41 -145 105 -268q182 423 368 683z" />
    <glyph glyph-name="uni2752" unicode="&#x2752;" horiz-adv-x="477" 
d="M64 357l79 80h269v-288l-73 -79h-275v287zM118 343v-216h204v216h-204z" />
    <glyph glyph-name="fi" unicode="&#xfb01;" horiz-adv-x="542" 
d="M187 0h-98v431h-80v78h80v58q0 79 36 127.5t115 48.5q40 0 58 -6v-82q-15 4 -42 4q-37 0 -53 -23t-16 -76v-51h100v-78h-100v-431zM371 0v509h98v-509h-98zM469 620h-98v113h98v-113z" />
    <glyph glyph-name="fl" unicode="&#xfb02;" horiz-adv-x="541" 
d="M187 0h-98v431h-80v78h80v58q0 79 36 127.5t115 48.5q40 0 58 -6v-82q-15 4 -42 4q-37 0 -53 -23t-16 -76v-51h100v-78h-100v-431zM468 0h-98v733h98v-733z" />
    <glyph glyph-name="uni00470303" horiz-adv-x="733" 
d="M661 378v-378h-78q-7 21 -10 89q-63 -99 -213 -99q-146 0 -227 98t-81 252q0 161 86 263t241 102q120 0 195.5 -59t90.5 -154h-103q-40 128 -185 128q-111 0 -164 -77t-53 -198q0 -73 21 -132t70.5 -98t122.5 -39q186 0 186 207v7h-187v88h288zM263 764h-69v25
q0 99 87 99q35 0 90 -25.5t70 -25.5q30 0 30 42v10h67v-21q0 -58 -22 -82.5t-66 -24.5q-31 0 -86 26t-73 26q-28 0 -28 -32v-17z" />
    <glyph glyph-name="uni00670303" horiz-adv-x="573" 
d="M501 362v-313q0 -127 -56.5 -192.5t-181.5 -65.5q-57 0 -99 14.5t-65 39.5t-34.5 50t-15.5 53h100q22 -81 119 -81q79 0 108 45.5t29 138.5v38q-43 -86 -156 -86q-95 0 -153 70t-58 181q0 121 63 194t158 73q64 0 100 -23.5t46 -53.5q2 46 4 65h93q0 -14 -0.5 -67
t-0.5 -80zM140 258q0 -78 36.5 -125t96.5 -47q75 0 105 45.5t30 132.5q0 88 -28.5 131.5t-103.5 43.5q-65 0 -100.5 -49t-35.5 -132zM195 602h-68v25q0 99 84 99q31 0 77.5 -24t61.5 -24q28 0 28 40v10h66v-22q0 -105 -86 -105q-31 0 -75 24t-62 24q-26 0 -26 -31v-16z" />
    <glyph glyph-name="zero.slash" horiz-adv-x="565" 
d="M285 670q63 0 109.5 -28t72.5 -76.5t38 -106t12 -125.5q0 -66 -11.5 -123.5t-36.5 -109.5t-73 -82.5t-114 -30.5q-63 0 -110 28t-73.5 77.5t-38.5 108t-12 127.5q0 68 12.5 126.5t39 108t74 78t111.5 28.5zM286 591q-140 0 -140 -262q0 -83 14 -142l208 368
q-30 36 -82 36zM283 67q135 0 135 266q0 100 -18 158l-212 -374q34 -50 95 -50z" />
    <glyph glyph-name="zero.slashtab" horiz-adv-x="551" 
d="M278 670q63 0 109.5 -28t72.5 -76.5t38 -106t12 -125.5q0 -66 -11.5 -123.5t-36.5 -109.5t-73 -82.5t-114 -30.5q-63 0 -110 28t-73.5 77.5t-38.5 108t-12 127.5q0 68 12.5 126.5t39 108t74 78t111.5 28.5zM279 591q-140 0 -140 -262q0 -83 14 -142l208 368
q-30 36 -82 36zM276 67q135 0 135 266q0 100 -18 158l-212 -374q34 -50 95 -50z" />
    <glyph glyph-name="zero.tab" horiz-adv-x="551" 
d="M278 670q64 0 111 -28t72.5 -77t37 -106t11.5 -125q0 -53 -6.5 -100t-23 -93.5t-42.5 -79t-67.5 -53t-95.5 -20.5q-66 0 -113 28.5t-72.5 78.5t-37 107.5t-11.5 126.5q0 68 12 126t38.5 108t74 78.5t112.5 28.5zM279 588q-53 0 -84 -36.5t-41 -89.5t-10 -133
q0 -259 132 -259q40 0 67 21t40 61t18 82t5 99q0 255 -127 255z" />
    <glyph glyph-name="one.tab" horiz-adv-x="551" 
d="M460 0h-397v85h153v452q-47 -26 -136 -31v73q106 16 165 79h69v-573h146v-85z" />
    <glyph glyph-name="two.tab" horiz-adv-x="551" 
d="M498 0h-442v6q0 150 198 299q82 62 106.5 93t24.5 80q0 51 -27 81t-81 30q-56 0 -85 -29t-39 -88h-96q9 88 65 143t155 55q106 0 157.5 -55.5t51.5 -133.5q0 -71 -33 -114.5t-130 -117.5q-129 -99 -150 -164h339z" />
    <glyph glyph-name="three.tab" horiz-adv-x="551" 
d="M155 499h-95q9 70 61 120.5t152 50.5q99 0 151 -50t52 -122q0 -55 -26 -88.5t-61 -47.5v-2q114 -39 114 -165q0 -87 -57 -147t-175 -60q-107 0 -163.5 54.5t-64.5 130.5h97q10 -46 44 -75.5t91 -29.5q63 0 95 36t32 91q0 122 -136 122h-49v79h42q61 0 89.5 24t28.5 74
q0 43 -28 69t-79 26q-95 0 -115 -90z" />
    <glyph glyph-name="four.tab" horiz-adv-x="551" 
d="M436 0h-94v165h-307v88l295 405h106v-410h84l-11 -83h-73v-165zM342 248v157q0 93 3 158q-22 -42 -216 -315h213z" />
    <glyph glyph-name="five.tab" horiz-adv-x="551" 
d="M484 658l-14 -84h-273q-5 -53 -27 -176q47 50 134 50q91 0 145 -59.5t54 -159.5q0 -104 -57.5 -172.5t-172.5 -68.5q-91 0 -151 47t-73 131h99q26 -98 128 -98q62 0 94.5 41t32.5 113q0 143 -122 143q-54 0 -82.5 -20.5t-46.5 -61.5l-91 16q26 117 55 359h368z" />
    <glyph glyph-name="six.tab" horiz-adv-x="551" 
d="M493 511h-97q-21 80 -106 80q-138 0 -143 -229q53 86 163 86q94 0 148.5 -61t54.5 -158q0 -104 -60 -172.5t-166 -68.5q-238 0 -238 332q0 71 12.5 131t40 111t77 79.5t116.5 28.5q92 0 141.5 -48t56.5 -111zM286 70q64 0 95.5 43t31.5 108q0 62 -29 104t-96 42
q-60 0 -95.5 -37t-35.5 -107q0 -23 6 -47t19.5 -49t40.5 -41t63 -16z" />
    <glyph glyph-name="seven.tab" horiz-adv-x="551" 
d="M57 658h437v-79q-87 -118 -157.5 -278t-93.5 -301h-101q21 136 94.5 301.5t154.5 272.5h-334v84z" />
    <glyph glyph-name="eight.tab" horiz-adv-x="551" 
d="M270 -12q-99 0 -164.5 54t-65.5 145q0 63 34.5 105t82.5 61q-89 46 -89 139q0 80 55.5 129t156.5 49q94 0 149 -48.5t55 -127.5q0 -101 -90 -136q48 -16 81.5 -61t33.5 -107q0 -94 -66 -148t-173 -54zM276 68q61 0 97 31.5t36 91.5q0 59 -35.5 90t-98.5 31
q-66 0 -100 -33.5t-34 -87.5t36.5 -88.5t98.5 -34.5zM277 590q-113 0 -113 -99q0 -42 29 -69.5t85 -27.5q110 0 110 95q0 44 -28.5 72.5t-82.5 28.5z" />
    <glyph glyph-name="nine.tab" horiz-adv-x="551" 
d="M58 148h100q14 -40 40 -59.5t72 -19.5q126 0 135 243q-43 -74 -153 -74q-93 0 -148.5 59t-55.5 151q0 95 60.5 158.5t164.5 63.5q119 0 174.5 -82.5t55.5 -221.5q0 -377 -237 -377q-94 0 -144.5 46t-63.5 113zM272 589q-61 0 -92 -38t-31 -99t32.5 -97t88.5 -36
q126 0 126 129q0 19 -4.5 40t-16.5 45.5t-38.5 40t-64.5 15.5z" />
    <glyph glyph-name="zero.slashcap" horiz-adv-x="596" 
d="M301 705q66 0 115 -30t76.5 -82t40 -112t12.5 -129q0 -54 -6.5 -103t-24.5 -98t-45 -84t-71 -57t-101 -22q-68 0 -117.5 30t-76.5 82.5t-39.5 113.5t-12.5 133q0 69 13 129.5t41 113.5t78 84t118 31zM301 624q-79 0 -114.5 -75.5t-35.5 -200.5q0 -96 20 -165l220 397
q-36 44 -90 44zM298 69q54 0 88 42.5t46 102t12 137.5q0 98 -21 165l-221 -398q38 -49 96 -49z" />
    <glyph glyph-name="zero.cap" horiz-adv-x="596" 
d="M301 705q66 0 115 -30t76.5 -82t40 -112t12.5 -129q0 -54 -6.5 -103t-24.5 -98t-45 -84t-71 -57t-101 -22q-68 0 -117.5 30t-76.5 82.5t-39.5 113.5t-12.5 133q0 69 13 129.5t41 113.5t78 84t118 31zM301 621q-146 0 -146 -273q0 -55 6.5 -100.5t22 -87t44.5 -65
t70 -23.5q142 0 142 279q0 270 -139 270z" />
    <glyph glyph-name="one.cap" horiz-adv-x="377" 
d="M282 0h-103v569q-22 -16 -68 -31t-76 -18v77q47 10 95 37.5t77 60.5h75v-695z" />
    <glyph glyph-name="two.cap" horiz-adv-x="559" 
d="M514 0h-469v7q0 82 47.5 160.5t165.5 163.5q88 64 112.5 92t24.5 80t-31 85t-86 33q-59 0 -90 -31.5t-41 -92.5h-101q9 91 68.5 149t163.5 58q112 0 166.5 -58.5t54.5 -139.5q0 -76 -36 -122.5t-140 -117.5q-136 -96 -160 -181h365z" />
    <glyph glyph-name="three.cap" horiz-adv-x="582" 
d="M158 521h-96q10 76 65.5 130t158.5 54t159 -52t56 -128q0 -104 -92 -142v-3q120 -42 120 -173q0 -91 -61 -155.5t-184 -63.5q-111 1 -171.5 58.5t-68.5 139.5h99q11 -51 46.5 -83.5t99.5 -32.5q69 0 103.5 36.5t34.5 97.5q0 132 -151 132h-40v80h36q128 0 128 102
q0 47 -29.5 76t-85.5 29q-102 0 -127 -102z" />
    <glyph glyph-name="four.cap" horiz-adv-x="573" 
d="M459 0h-96v180h-326v88l313 427h109v-433h89l-11 -82h-78v-180zM363 262v169q0 139 2 166q-12 -24 -54.5 -84.5t-98.5 -138t-80 -112.5h231z" />
    <glyph glyph-name="five.cap" horiz-adv-x="580" 
d="M514 695l-13 -85h-300q-13 -124 -25 -193q49 56 145 56q95 0 153.5 -63.5t58.5 -167.5q0 -114 -62.5 -184t-182.5 -70q-96 0 -159.5 50.5t-76.5 140.5h99q27 -108 139 -108q73 0 107.5 43.5t34.5 118.5q0 67 -33 111.5t-102 44.5q-60 0 -89 -23t-48 -64l-93 16
q29 148 50 377h397z" />
    <glyph glyph-name="six.cap" horiz-adv-x="585" 
d="M520 540h-99q-24 84 -115 85q-44 0 -75.5 -21t-47.5 -59t-23.5 -78.5t-8.5 -89.5q53 88 175 88q97 0 155.5 -62.5t58.5 -165.5q0 -107 -61 -178t-177 -71q-134 0 -192.5 91t-58.5 258q0 67 12 127t39 117t80 90.5t126 33.5q99 0 150 -48.5t62 -116.5zM302 71q65 0 101 44
t36 115q0 65 -32.5 108.5t-102.5 43.5q-66 0 -103.5 -38t-37.5 -109q0 -37 11 -71.5t44 -63.5t84 -29z" />
    <glyph glyph-name="seven.cap" horiz-adv-x="506" 
d="M21 695h459v-80q-92 -126 -162.5 -288t-99.5 -327h-111q27 160 102.5 327t163.5 282h-352v86z" />
    <glyph glyph-name="eight.cap" horiz-adv-x="588" 
d="M289 -12q-106 0 -173.5 57t-67.5 154q0 122 117 173q-87 46 -87 147q0 82 59.5 134t161.5 52q97 0 155.5 -50.5t58.5 -132.5q0 -107 -92 -145q51 -18 85.5 -62.5t34.5 -111.5q0 -102 -70 -158.5t-182 -56.5zM295 70q66 0 105 34.5t39 97.5q0 61 -38 94.5t-107 33.5
q-74 0 -109 -33.5t-35 -92.5t39.5 -96.5t105.5 -37.5zM296 624q-60 0 -91 -28t-31 -78q0 -47 32 -76t91 -29q58 0 88.5 27t30.5 76t-32 78.5t-88 29.5z" />
    <glyph glyph-name="nine.cap" horiz-adv-x="577" 
d="M56 156h101q27 -88 120 -88q45 0 75.5 24.5t45 69t20 83t7.5 89.5q-47 -78 -163 -78q-94 0 -155 58.5t-61 160.5q0 99 63 164.5t170 65.5q125 0 186 -83.5t61 -238.5q0 -395 -254 -395q-95 0 -148.5 46t-67.5 122zM281 625q-60 0 -96.5 -38.5t-36.5 -107.5
q0 -66 37 -104.5t96 -38.5q133 0 133 135q0 39 -10.5 71.5t-42 57.5t-80.5 25z" />
    <glyph glyph-name="period.sups" horiz-adv-x="157" 
d="M118 428h-79v106h79v-106z" />
    <glyph glyph-name="comma.sups" horiz-adv-x="151" 
d="M80 355h-67q33 85 38 179h77q-10 -115 -48 -179z" />
    <glyph glyph-name="dollar.sups" horiz-adv-x="392" 
d="M226 365h-67v63q-57 7 -93 37.5t-44 78.5h80q7 -28 33.5 -44t62.5 -16q82 0 82 53q0 24 -20 38t-77 24q-82 15 -115.5 43t-33.5 73q0 42 31.5 73.5t93.5 37.5v48h67v-48q57 -8 88 -39.5t35 -68.5h-75q-14 53 -86 53q-40 0 -58.5 -13.5t-18.5 -33.5q0 -22 20 -32.5
t77 -21.5q151 -29 151 -123q0 -49 -34 -80.5t-99 -38.5v-63z" />
    <glyph glyph-name="cent.sups" horiz-adv-x="392" 
d="M289 570h74q-24 -89 -119 -103v-62h-68v61q-63 9 -100 51.5t-37 104.5q0 66 37.5 108t99.5 51v52h68v-51q57 -9 86 -40.5t33 -65.5h-75q-16 52 -81 52q-42 0 -67 -27.5t-25 -75.5q0 -45 25.5 -75t67.5 -30q60 0 81 50z" />
    <glyph glyph-name="hyphen.sups" horiz-adv-x="229" 
d="M31 659h167v-67h-167v67z" />
    <glyph glyph-name="period.subs" horiz-adv-x="157" 
d="M118 -173h-79v106h79v-106z" />
    <glyph glyph-name="comma.subs" horiz-adv-x="151" 
d="M80 -246h-67q33 85 38 179h77q-10 -115 -48 -179z" />
    <glyph glyph-name="dollar.subs" horiz-adv-x="392" 
d="M226 -236h-67v63q-57 7 -93 37.5t-44 78.5h80q7 -28 33.5 -44t62.5 -16q82 0 82 53q0 24 -20 38t-77 24q-82 15 -115.5 43t-33.5 73q0 42 31.5 73.5t93.5 37.5v48h67v-48q57 -8 88 -39.5t35 -68.5h-75q-14 53 -86 53q-40 0 -58.5 -13.5t-18.5 -33.5q0 -22 20 -32.5
t77 -21.5q151 -29 151 -123q0 -49 -34 -80.5t-99 -38.5v-63z" />
    <glyph glyph-name="cent.subs" horiz-adv-x="392" 
d="M289 -31h74q-24 -89 -119 -103v-62h-68v61q-63 9 -100 51.5t-37 104.5q0 66 37.5 108t99.5 51v52h68v-51q57 -9 86 -40.5t33 -65.5h-75q-16 52 -81 52q-42 0 -67 -27.5t-25 -75.5q0 -45 25.5 -75t67.5 -30q60 0 81 50z" />
    <glyph glyph-name="hyphen.subs" horiz-adv-x="229" 
d="M31 58h167v-67h-167v67z" />
    <glyph glyph-name="zero.numr" horiz-adv-x="393" 
d="M198 664q78 0 119.5 -55t41.5 -147q0 -99 -42.5 -152t-120.5 -53q-77 0 -119.5 55.5t-42.5 146.5q0 92 44 148.5t120 56.5zM197 598q-82 0 -82 -139q0 -68 22.5 -102.5t60.5 -34.5q42 0 61 33.5t19 105.5q0 137 -81 137z" />
    <glyph glyph-name="one.numr" horiz-adv-x="252" 
d="M184 261h-80v306q-36 -18 -81 -18v60q62 10 107 55h54v-403z" />
    <glyph glyph-name="two.numr" horiz-adv-x="365" 
d="M332 262h-295v5q0 109 128 188q51 30 66 45.5t15 39.5q0 27 -16.5 43.5t-47.5 16.5q-61 0 -73 -69l-75 1q5 59 46 95.5t105 36.5q73 0 107.5 -37.5t34.5 -83.5t-23 -72t-82 -59q-79 -47 -93 -87h215z" />
    <glyph glyph-name="three.numr" horiz-adv-x="375" 
d="M148 438v66h32q65 0 65 46q0 23 -15.5 38t-49.5 15q-57 0 -72 -55h-72q2 17 9 34t22.5 36.5t45.5 32t70 12.5q68 0 104 -31t36 -78q0 -31 -17 -51t-40 -28q30 -9 52 -33.5t22 -61.5q0 -51 -37.5 -87t-117.5 -36q-44 0 -76 13t-48 33.5t-23.5 38.5t-9.5 36h75
q6 -26 28 -43.5t55 -17.5q35 0 54 17t19 45q0 59 -74 59h-37z" />
    <glyph glyph-name="four.numr" horiz-adv-x="373" 
d="M296 261h-74v101h-197v60l177 234h94v-234h60l-6 -60h-54v-101zM101 422h121v76q0 59 3 95q-7 -12 -29 -42.5t-51.5 -69.5t-43.5 -59z" />
    <glyph glyph-name="five.numr" horiz-adv-x="384" 
d="M333 658l-11 -65h-186q-4 -40 -15 -92q34 27 92 27q61 0 98.5 -35t37.5 -94q0 -62 -42.5 -102t-113.5 -40t-111 35t-46 81h78q17 -54 79 -54q37 0 56 20.5t19 55.5q0 73 -76 73q-53 0 -77 -38l-70 11q29 183 33 217h255z" />
    <glyph glyph-name="six.numr" horiz-adv-x="383" 
d="M340 559h-73q-16 45 -68 45q-82 0 -88 -121q35 46 107 46q62 0 98 -36.5t36 -94.5q0 -61 -43 -101t-110 -40q-76 0 -120.5 51t-44.5 148q0 86 41.5 146.5t125.5 60.5q62 0 97.5 -31t41.5 -73zM197 317q33 0 55 19t22 59q-1 37 -21 57.5t-57 20.5q-36 0 -58 -19.5
t-22 -49.5q0 -33 20.5 -60t60.5 -27z" />
    <glyph glyph-name="seven.numr" horiz-adv-x="348" 
d="M30 658h290v-58q-108 -132 -157 -338h-85q16 84 61.5 177t96.5 154h-206v65z" />
    <glyph glyph-name="eight.numr" horiz-adv-x="371" 
d="M184 257q-74 0 -114.5 34t-40.5 84q0 68 68 96q-51 29 -51 83q0 48 35.5 79t107.5 31q66 0 100.5 -32t34.5 -75q0 -59 -53 -82q71 -27 71 -97q0 -54 -44 -87.5t-114 -33.5zM185 312q39 0 58.5 18t19.5 46q0 67 -78 67q-77 0 -77 -65q0 -28 20.5 -47t56.5 -19zM186 608
q-32 0 -48.5 -14t-16.5 -39q0 -56 67 -56q60 0 60 56q0 53 -62 53z" />
    <glyph glyph-name="nine.numr" horiz-adv-x="376" 
d="M36 361h78q16 -46 67 -46q79 0 84 128q-34 -39 -102 -39q-60 0 -97 34t-37 90q0 58 41.5 97t111.5 39q75 0 117.5 -49.5t42.5 -144.5q0 -92 -39 -153t-122 -61q-66 0 -102 31.5t-43 73.5zM181 603q-32 0 -53.5 -17.5t-21.5 -54.5q0 -33 20 -52t58 -19q76 0 76 62
q0 37 -20.5 59t-58.5 22z" />
    <glyph glyph-name="parenleft.numr" horiz-adv-x="223" 
d="M117 708h74q-84 -120 -84 -254q0 -133 84 -252h-74q-31 39 -55.5 105t-24.5 147q0 147 80 254z" />
    <glyph glyph-name="parenright.numr" horiz-adv-x="223" 
d="M106 217h-73q84 120 84 254q0 131 -84 251h73q31 -37 55.5 -103.5t24.5 -147.5q0 -150 -80 -254z" />
    <glyph glyph-name="period.numr" horiz-adv-x="157" 
d="M118 261h-79v106h79v-106z" />
    <glyph glyph-name="comma.numr" horiz-adv-x="151" 
d="M80 188h-67q33 85 38 179h77q-10 -115 -48 -179z" />
    <glyph glyph-name="dollar.numr" horiz-adv-x="392" 
d="M226 198h-67v63q-57 7 -93 37.5t-44 78.5h80q7 -28 33.5 -44t62.5 -16q82 0 82 53q0 24 -20 38t-77 24q-82 15 -115.5 43t-33.5 73q0 42 31.5 73.5t93.5 37.5v48h67v-48q57 -8 88 -39.5t35 -68.5h-75q-14 53 -86 53q-40 0 -58.5 -13.5t-18.5 -33.5q0 -22 20 -32.5
t77 -21.5q151 -29 151 -123q0 -49 -34 -80.5t-99 -38.5v-63z" />
    <glyph glyph-name="cent.numr" horiz-adv-x="392" 
d="M289 403h74q-24 -89 -119 -103v-62h-68v61q-63 9 -100 51.5t-37 104.5q0 66 37.5 108t99.5 51v52h68v-51q57 -9 86 -40.5t33 -65.5h-75q-16 52 -81 52q-42 0 -67 -27.5t-25 -75.5q0 -45 25.5 -75t67.5 -30q60 0 81 50z" />
    <glyph glyph-name="hyphen.numr" horiz-adv-x="229" 
d="M31 492h167v-67h-167v67z" />
    <glyph glyph-name="zero.dnom" horiz-adv-x="393" 
d="M198 401q78 0 119.5 -55t41.5 -147q0 -99 -42.5 -152t-120.5 -53q-77 0 -119.5 55.5t-42.5 146.5q0 92 44 148.5t120 56.5zM197 335q-82 0 -82 -139q0 -68 22.5 -102.5t60.5 -34.5q42 0 61 33.5t19 105.5q0 137 -81 137z" />
    <glyph glyph-name="one.dnom" horiz-adv-x="252" 
d="M184 -2h-80v306q-36 -18 -81 -18v60q62 10 107 55h54v-403z" />
    <glyph glyph-name="two.dnom" horiz-adv-x="365" 
d="M332 -1h-295v5q0 109 128 188q51 30 66 45.5t15 39.5q0 27 -16.5 43.5t-47.5 16.5q-61 0 -73 -69l-75 1q5 59 46 95.5t105 36.5q73 0 107.5 -37.5t34.5 -83.5t-23 -72t-82 -59q-79 -47 -93 -87h215z" />
    <glyph glyph-name="three.dnom" horiz-adv-x="375" 
d="M148 175v66h32q65 0 65 46q0 23 -15.5 38t-49.5 15q-57 0 -72 -55h-72q2 17 9 34t22.5 36.5t45.5 32t70 12.5q68 0 104 -31t36 -78q0 -31 -17 -51t-40 -28q30 -9 52 -33.5t22 -61.5q0 -51 -37.5 -87t-117.5 -36q-44 0 -76 13t-48 33.5t-23.5 38.5t-9.5 36h75
q6 -26 28 -43.5t55 -17.5q35 0 54 17t19 45q0 59 -74 59h-37z" />
    <glyph glyph-name="four.dnom" horiz-adv-x="373" 
d="M296 -2h-74v101h-197v60l177 234h94v-234h60l-6 -60h-54v-101zM101 159h121v76q0 59 3 95q-7 -12 -29 -42.5t-51.5 -69.5t-43.5 -59z" />
    <glyph glyph-name="five.dnom" horiz-adv-x="384" 
d="M333 395l-11 -65h-186q-4 -40 -15 -92q34 27 92 27q61 0 98.5 -35t37.5 -94q0 -62 -42.5 -102t-113.5 -40t-111 35t-46 81h78q17 -54 79 -54q37 0 56 20.5t19 55.5q0 73 -76 73q-53 0 -77 -38l-70 11q29 183 33 217h255z" />
    <glyph glyph-name="six.dnom" horiz-adv-x="383" 
d="M340 296h-73q-16 45 -68 45q-82 0 -88 -121q35 46 107 46q62 0 98 -36t36 -95q0 -61 -43 -101t-110 -40q-76 0 -120.5 51t-44.5 148q0 86 41.5 146.5t125.5 60.5q62 0 97.5 -31t41.5 -73zM197 54q33 0 55 19t22 59q-1 37 -21 57.5t-57 20.5q-36 0 -58 -19.5t-22 -49.5
q0 -33 20.5 -60t60.5 -27z" />
    <glyph glyph-name="seven.dnom" horiz-adv-x="348" 
d="M30 395h290v-58q-108 -132 -157 -338h-85q16 84 61.5 177t96.5 154h-206v65z" />
    <glyph glyph-name="eight.dnom" horiz-adv-x="371" 
d="M184 -6q-74 0 -114.5 34t-40.5 84q0 68 68 96q-51 29 -51 83q0 48 35.5 79t107.5 31q66 0 100.5 -32t34.5 -75q0 -59 -53 -82q71 -27 71 -97q0 -54 -44 -87.5t-114 -33.5zM185 49q39 0 58.5 18t19.5 46q0 67 -78 67q-77 0 -77 -65q0 -28 20.5 -47t56.5 -19zM186 345
q-32 0 -48.5 -14t-16.5 -39q0 -56 67 -56q60 0 60 56q0 53 -62 53z" />
    <glyph glyph-name="nine.dnom" horiz-adv-x="376" 
d="M36 98h78q16 -46 67 -46q79 0 84 128q-34 -39 -102 -39q-60 0 -97 34t-37 90q0 58 41.5 97t111.5 39q75 0 117.5 -49.5t42.5 -144.5q0 -91 -39 -152.5t-122 -61.5q-66 0 -102 31.5t-43 73.5zM181 340q-32 0 -53.5 -17.5t-21.5 -54.5q0 -33 20 -52t58 -19q76 0 76 62
q0 37 -20.5 59t-58.5 22z" />
    <glyph glyph-name="parenleft.dnom" horiz-adv-x="223" 
d="M117 445h74q-84 -120 -84 -254q0 -133 84 -252h-74q-31 39 -55.5 105t-24.5 147q0 147 80 254z" />
    <glyph glyph-name="parenright.dnom" horiz-adv-x="223" 
d="M106 -46h-73q84 120 84 254q0 131 -84 251h73q31 -37 55.5 -103.5t24.5 -147.5q0 -150 -80 -254z" />
    <glyph glyph-name="period.dnom" horiz-adv-x="157" 
d="M118 -2h-79v106h79v-106z" />
    <glyph glyph-name="comma.dnom" horiz-adv-x="151" 
d="M80 -75h-67q33 85 38 179h77q-10 -115 -48 -179z" />
    <glyph glyph-name="dollar.dnom" horiz-adv-x="392" 
d="M226 -65h-67v63q-57 7 -93 37.5t-44 78.5h80q7 -28 33.5 -44t62.5 -16q82 0 82 53q0 24 -20 38t-77 24q-82 15 -115.5 43t-33.5 73q0 42 31.5 73.5t93.5 37.5v48h67v-48q57 -8 88 -39.5t35 -68.5h-75q-14 53 -86 53q-40 0 -58.5 -13.5t-18.5 -33.5q0 -22 20 -32.5
t77 -21.5q151 -29 151 -123q0 -49 -34 -80.5t-99 -38.5v-63z" />
    <glyph glyph-name="cent.dnom" horiz-adv-x="392" 
d="M289 140h74q-24 -89 -119 -103v-62h-68v61q-63 9 -100 51.5t-37 104.5q0 66 37.5 108t99.5 51v52h68v-51q57 -9 86 -40.5t33 -65.5h-75q-16 52 -81 52q-42 0 -67 -27.5t-25 -75.5q0 -45 25.5 -75t67.5 -30q60 0 81 50z" />
    <glyph glyph-name="hyphen.dnom" horiz-adv-x="229" 
d="M31 229h167v-67h-167v67z" />
    <glyph glyph-name="a.sups" horiz-adv-x="357" 
d="M310 488v-151q0 -39 2 -77h-72q-1 7 -2 24t-1 20q-29 -48 -101 -48q-54 0 -84 29t-30 74q0 109 152 109h60v24q0 57 -61 57q-53 0 -62 -50h-74q12 103 139 103q134 0 134 -114zM237 408v9h-57q-81 0 -81 -50q0 -51 60 -51q39 0 58.5 24.5t19.5 67.5z" />
    <glyph glyph-name="b.sups" horiz-adv-x="388" 
d="M45 395v345h75v-190q28 52 104 52q56 0 96.5 -43t40.5 -121q0 -90 -43 -135.5t-104 -45.5q-65 0 -94 44q0 -27 -1 -39h-75q1 29 1 133zM283 435q0 51 -21.5 77.5t-59.5 26.5q-44 0 -64 -26.5t-20 -83.5q0 -111 80 -111q42 0 63.5 31t21.5 86z" />
    <glyph glyph-name="c.sups" horiz-adv-x="347" 
d="M259 369h70q-25 -113 -145 -113q-74 0 -115.5 47.5t-41.5 123.5q0 79 43.5 127t114.5 48q67 0 103.5 -35.5t40.5 -81.5h-73q-15 59 -72 59q-37 0 -58.5 -29t-21.5 -85q0 -49 21 -82.5t63 -33.5q52 0 71 55z" />
    <glyph glyph-name="d.sups" horiz-adv-x="394" 
d="M270 740h75v-388q0 -68 1 -90h-70q-2 9 -2 48q-29 -54 -106 -54q-60 0 -100.5 45t-40.5 124q0 82 44 129.5t108 47.5q68 0 91 -36v174zM104 427q0 -51 23 -80t61 -29q40 0 62 25.5t22 88.5q0 62 -21 84.5t-60 22.5q-41 0 -64 -29.5t-23 -82.5z" />
    <glyph glyph-name="e.sups" horiz-adv-x="359" 
d="M335 415h-233q1 -46 23.5 -73t61.5 -27q57 0 77 44h70q-30 -103 -149 -103q-80 0 -119 49.5t-39 120.5q0 75 42.5 126t116.5 51q77 0 114 -47.5t37 -109.5q0 -15 -2 -31zM104 463h158q0 38 -19.5 61t-57.5 23q-73 0 -81 -84z" />
    <glyph glyph-name="f.sups" horiz-adv-x="183" 
d="M125 262h-74v274h-49v59h49v32q0 54 27 87t80 33q18 0 38 -4v-61q-16 4 -27 4q-24 0 -34 -13.5t-10 -44.5v-33h65v-59h-65v-274z" />
    <glyph glyph-name="g.sups" horiz-adv-x="391" 
d="M341 498v-204q0 -174 -163 -174q-71 0 -106.5 32t-41.5 78h76q15 -52 74 -52q45 0 66 26t21 80v28q-27 -47 -99 -47q-61 0 -100.5 44.5t-39.5 118.5q0 75 41 123t104 49q75 2 99 -44q0 22 2 38h69q-2 -40 -2 -96zM105 431q0 -49 22 -77t60 -28q82 0 82 110q0 58 -21 80.5
t-61 22.5q-39 0 -60.5 -29t-21.5 -79z" />
    <glyph glyph-name="h.sups" horiz-adv-x="387" 
d="M45 262v478h75v-189q36 51 105 51q48 0 82 -31.5t34 -99.5v-209h-74v194q0 39 -14.5 60.5t-52.5 21.5t-59 -25t-21 -73v-178h-75z" />
    <glyph glyph-name="i.sups" horiz-adv-x="166" 
d="M120 262h-75v333h75v-333zM120 665h-75v75h75v-75z" />
    <glyph glyph-name="j.sups" horiz-adv-x="169" 
d="M-2 120v65h3q28 0 38.5 16.5t10.5 52.5v341h74v-333q0 -70 -26 -106t-89 -36h-11zM124 665h-75v75h75v-75z" />
    <glyph glyph-name="k.sups" horiz-adv-x="353" 
d="M119 740v-296q13 15 64 71t71 80h86q-19 -20 -39.5 -41.5t-45 -47.5t-38.5 -40l136 -204h-87l-101 161q-34 -34 -46 -45v-116h-74v478h74z" />
    <glyph glyph-name="l.sups" horiz-adv-x="165" 
d="M120 262h-75v478h75v-478z" />
    <glyph glyph-name="m.sups" horiz-adv-x="583" 
d="M538 262h-72v200q0 76 -62 76q-75 0 -75 -92v-184h-75v205q0 71 -61 71q-73 0 -73 -96v-180h-75v227q0 36 -0.5 68t-0.5 38h73q3 -15 3 -48q28 55 101 55q71 0 94 -58q37 58 109 58q50 0 82 -31t32 -98v-211z" />
    <glyph glyph-name="o.sups" horiz-adv-x="382" 
d="M193 602q75 0 118.5 -47t43.5 -126q-1 -83 -47 -128t-120 -45q-72 0 -116.5 47t-44.5 125q0 80 46.5 127t119.5 47zM190 544q-41 0 -63.5 -30.5t-22.5 -84.5q0 -52 23.5 -83.5t62.5 -31.5q88 0 88 115q-2 54 -24 84.5t-64 30.5z" />
    <glyph glyph-name="p.sups" horiz-adv-x="388" 
d="M120 131h-75v369q0 53 -2 95h72q3 -18 3 -50q33 57 107 57q56 0 96 -45t40 -121q0 -86 -44.5 -132.5t-105.5 -46.5t-91 43v-169zM283 434q0 105 -82 105q-45 0 -64 -27.5t-19 -82.5q0 -111 80 -111q85 0 85 116z" />
    <glyph glyph-name="q.sups" horiz-adv-x="389" 
d="M270 131v173q-28 -48 -104 -48q-58 0 -98.5 45t-40.5 125q0 82 45.5 129t105.5 47q74 0 96 -46q-1 7 2 39h70q-2 -44 -2 -133v-331h-74zM104 428q0 -51 22.5 -80.5t61.5 -29.5q83 0 83 112q0 62 -20 85.5t-61 23.5q-40 0 -63 -29t-23 -82z" />
    <glyph glyph-name="r.sups" horiz-adv-x="246" 
d="M45 262v221q0 31 -0.5 70t-0.5 42h72q2 -18 2 -62q38 71 117 69v-76q-58 0 -86.5 -28t-28.5 -90v-146h-75z" />
    <glyph glyph-name="s.sups" horiz-adv-x="321" 
d="M24 362h70q14 -50 68 -50q61 0 61 40q0 20 -16 31t-59 21q-67 16 -90.5 40.5t-23.5 61.5q0 42 33 69.5t91 27.5q61 0 94 -28.5t36 -72.5h-65q-11 47 -66 47q-51 0 -51 -36q0 -17 12.5 -27t51.5 -19q72 -17 99.5 -42t27.5 -66q0 -46 -36 -74.5t-98 -28.5q-60 0 -97 29.5
t-42 76.5z" />
    <glyph glyph-name="t.sups" horiz-adv-x="203" 
d="M-4 595h56v94h73v-94h71v-59h-71v-175q0 -23 8.5 -32.5t30.5 -9.5q19 0 28 3v-58q-16 -7 -54 -7q-46 0 -66.5 21t-20.5 70v188h-55v59z" />
    <glyph glyph-name="u.sups" horiz-adv-x="384" 
d="M338 595v-235q0 -64 2 -98h-70q-6 21 -3 50q-34 -55 -107 -55q-52 0 -83.5 31.5t-31.5 95.5v211h75v-195q0 -78 64 -78q34 0 56.5 23.5t22.5 72.5v177h75z" />
    <glyph glyph-name="v.sups" horiz-adv-x="345" 
d="M8 595h81q67 -196 85 -275h1q9 40 89 275h75l-121 -333h-92z" />
    <glyph glyph-name="w.sups" horiz-adv-x="523" 
d="M9 595h82q57 -226 64 -260h1q8 44 71 260h74q61 -219 67 -259h1q2 15 67 259h78l-104 -333h-82q-16 64 -39.5 147.5t-27.5 100.5h-1q-1 -3 -72 -248h-83z" />
    <glyph glyph-name="x.sups" horiz-adv-x="307" 
d="M-6 595h88q16 -26 33.5 -53t27 -41.5t13.5 -22.5h1q39 63 74 117h82l-116 -160l118 -173h-87q-17 27 -34.5 54.5t-27.5 44t-15 24.5h-1q-7 -13 -77 -123h-81l117 167z" />
    <glyph glyph-name="y.sups" horiz-adv-x="339" 
d="M3 595h85q74 -198 88 -255h1q10 39 82 255h79l-126 -343q-27 -74 -58.5 -101t-81.5 -27q-26 0 -39 1v67q10 -1 28 -1q26 0 44 16t33 56z" />
    <glyph glyph-name="z.sups" horiz-adv-x="308" 
d="M16 262v53q10 11 83 97.5t102 120.5h-176v62h266v-51q-12 -17 -83 -101.5t-102 -118.5h194l-11 -62h-273z" />
    <glyph glyph-name="egrave.sups" horiz-adv-x="359" 
d="M58 736h92l82 -98h-72zM335 415h-233q1 -46 23.5 -73t61.5 -27q57 0 77 44h70q-30 -103 -149 -103q-80 0 -119 49.5t-39 120.5q0 75 42.5 126t116.5 51q77 0 114 -47.5t37 -109.5q0 -15 -2 -31zM104 463h158q0 38 -19.5 61t-57.5 23q-73 0 -81 -84z" />
    <glyph glyph-name="eacute.sups" horiz-adv-x="359" 
d="M226 734h93l-108 -96h-74zM335 415h-233q1 -46 23.5 -73t61.5 -27q57 0 77 44h70q-30 -103 -149 -103q-80 0 -119 49.5t-39 120.5q0 75 42.5 126t116.5 51q77 0 114 -47.5t37 -109.5q0 -15 -2 -31zM104 463h158q0 38 -19.5 61t-57.5 23q-73 0 -81 -84z" />
    <glyph glyph-name="dong.alt" horiz-adv-x="542" 
d="M368 666h93v-68h63v-70h-63v-386q0 -105 1 -142h-89q-5 32 -5 65q-44 -74 -145 -74q-83 0 -138.5 62.5t-55.5 168.5q0 109 60.5 172.5t147.5 63.5q94 0 131 -54v124h-225v70h225v68zM126 224q0 -73 33.5 -114t90.5 -41q53 0 87.5 38t34.5 126q0 77 -32 112.5t-87 35.5
q-62 0 -94.5 -42t-32.5 -115z" />
    <glyph glyph-name="currency.tab" horiz-adv-x="551" 
d="M273 551q68 0 119 -37l69 71l55 -58l-71 -73q28 -48 28 -113q0 -64 -28 -117l71 -73l-55 -58l-69 70q-51 -37 -120 -37q-67 0 -119 38l-67 -71l-55 58l70 71q-29 53 -29 117t30 116l-71 72l55 58l69 -71q49 36 118 37zM272 475q-56 0 -87 -37t-31 -98q0 -68 34.5 -103.5
t83.5 -35.5q53 0 85 34t32 105q0 61 -30 98t-87 37z" />
    <glyph glyph-name="dollar.tab" horiz-adv-x="551" 
d="M147 498q0 -36 20 -59t71 -41v191q-91 -10 -91 -91zM397 171q0 40 -22 66t-78 46v-213q100 11 100 101zM297 -96h-59v90q-89 7 -141.5 55.5t-60.5 122.5h98q18 -85 104 -100v229q-103 31 -145.5 74t-42.5 112q0 75 53 123t135 54v67h59v-68q92 -9 135.5 -57t49.5 -107
h-96q-19 73 -89 88v-207q110 -31 155 -79.5t45 -118.5q0 -84 -53 -132.5t-147 -55.5v-90z" />
    <glyph glyph-name="sterling.tab" horiz-adv-x="551" 
d="M499 0h-454v79q76 39 76 195v24h-89v76h85q-2 44 -2 76q0 100 47.5 159.5t142.5 59.5q91 0 135 -50t50 -117h-95q-16 85 -92 85q-49 0 -69 -32.5t-20 -95.5q0 -33 2 -85h148v-76h-146v-17q0 -133 -51 -195h345z" />
    <glyph glyph-name="yen.tab" horiz-adv-x="551" 
d="M454 162h-132v-162h-98v162h-130v65h130v62h-130v65h115l-179 304h111q126 -228 137 -258h1q12 27 139 258h103l-183 -304h116v-65h-132v-62h132v-65z" />
    <glyph glyph-name="Euro.tab" horiz-adv-x="551" 
d="M410 158h96q-19 -81 -71.5 -125t-132.5 -44q-97 0 -153.5 66t-71.5 187h-61v64h56v22q0 26 1 38h-57v64h64q18 115 77.5 177t149.5 62t140.5 -50.5t58.5 -117.5h-96q-25 87 -107 87q-105 0 -127 -158h180v-64h-185q-1 -11 -1 -34v-26h186v-64h-181q20 -170 129 -170
q76 0 106 86z" />
    <glyph glyph-name="cent.tab" horiz-adv-x="551" 
d="M413 232h97q-13 -63 -62.5 -105.5t-126.5 -49.5v-90h-60v91q-93 10 -148 77t-55 170q0 99 54 168t149 81v70h60v-69q92 -7 137.5 -55t51.5 -100h-97q-21 66 -92 75v-338q68 8 92 75zM158 328q0 -66 26.5 -112t76.5 -58v336q-103 -20 -103 -166z" />
    <glyph glyph-name="florin.tab" horiz-adv-x="551" 
d="M520 679l-20 -77q-22 12 -54 12q-43 0 -62.5 -34.5t-29.5 -97.5l-11 -69h117v-76h-128l-36 -231q-8 -52 -19.5 -89.5t-30.5 -69.5t-50 -48t-73 -16q-62 0 -94 21l20 78q25 -15 65 -15q37 0 53 31t29 112l37 227h-95v76h107l9 53q7 46 17.5 81.5t30.5 72t54.5 57
t81.5 20.5q57 0 82 -18z" />
    <glyph glyph-name="colonmonetary.tab" horiz-adv-x="551" 
d="M279 75q12 0 17 1v508h-12q-10 0 -28 -2v-505q14 -2 23 -2zM139 327q0 -171 64 -225v456q-64 -54 -64 -231zM256 -96h-53v100q-79 28 -121.5 111.5t-42.5 209.5q0 131 42.5 214.5t121.5 112.5v78h53v-66q22 2 34 2h6v64h52v-70q68 -15 105.5 -62.5t44.5 -105.5h-98
q-13 57 -52 78v-480q35 20 54 72h98q-32 -133 -152 -163v-94h-52v86h-15q-17 0 -25 1v-88z" />
    <glyph glyph-name="lira.tab" horiz-adv-x="551" 
d="M499 0h-454v79q39 18 55.5 55.5t18.5 98.5h-88v61h89q-1 14 -2 37t-1 28h-86v62h84v25q0 223 192 223q91 0 135.5 -50t49.5 -112h-94q-12 80 -93 80q-50 0 -71 -33t-21 -99v-34h148v-62h-146q0 -9 0.5 -30t0.5 -35h145v-61h-146q-5 -101 -47 -147h344z" />
    <glyph glyph-name="franc.tab" horiz-adv-x="551" 
d="M120 0v134h-85v72h85v452h374v-85h-274v-185h254v-84h-254v-98h126v-72h-126v-134h-100z" />
    <glyph glyph-name="uni20A6.tab" horiz-adv-x="551" 
d="M139 578q4 -61 6 -139h46l-47 139h-5zM381 96h7q-5 60 -7 148h-51zM145 0h-79v244h-50v61h50v71h-50v63h50v219h123l75 -219h115v219h77v-219h51v-63h-51v-71h51v-61h-51v-244h-115l-83 244h-113v-244zM379 305v71h-94l25 -71h69zM237 305l-24 71h-68v-71h92z" />
    <glyph glyph-name="peseta.tab" horiz-adv-x="551" 
d="M65 0v414h-63v65h63v179h172q96 0 158.5 -46t72.5 -133h49v-65h-49q-10 -87 -73 -134.5t-165 -47.5h-72v-232h-93zM158 583v-104h214q-17 104 -139 104h-75zM158 308h70q129 0 144 106h-214v-106z" />
    <glyph glyph-name="dong.tab" horiz-adv-x="551" 
d="M46 -75h416v-70h-416v70zM362 666h93v-68h63v-70h-63v-386q0 -105 1 -142h-89q-5 32 -5 65q-44 -74 -145 -74q-83 0 -138.5 62.5t-55.5 168.5q0 109 60.5 172.5t147.5 63.5q94 0 131 -54v124h-225v70h225v68zM120 224q0 -73 33.5 -114t90.5 -41q53 0 87.5 38t34.5 126
q0 77 -32 112.5t-87 35.5q-62 0 -94.5 -42t-32.5 -115z" />
    <glyph glyph-name="dong.alttab" horiz-adv-x="551" 
d="M362 666h93v-68h63v-70h-63v-386q0 -105 1 -142h-89q-5 32 -5 65q-44 -74 -145 -74q-83 0 -138.5 62.5t-55.5 168.5q0 109 60.5 172.5t147.5 63.5q94 0 131 -54v124h-225v70h225v68zM120 224q0 -73 33.5 -114t90.5 -41q53 0 87.5 38t34.5 126q0 77 -32 112.5t-87 35.5
q-62 0 -94.5 -42t-32.5 -115z" />
    <glyph glyph-name="uni20B1.tab" horiz-adv-x="551" 
d="M58 0v361h-59v56h59v49h-59v56h59v136h179q82 0 140.5 -34.5t80.5 -101.5h55v-56h-44q1 -8 1 -25q0 -16 -1 -24h44v-56h-55q-24 -69 -85.5 -105.5t-147.5 -36.5h-74v-219h-93zM151 586v-64h211q-34 64 -126 64h-85zM379 440q0 18 -1 26h-227v-49h227q1 7 1 23zM151 293
h74q104 0 138 68h-212v-68z" />
    <glyph glyph-name="uni20B2.tab" horiz-adv-x="551" 
d="M486 495h-96q-20 82 -93 92v-516q56 2 84 18v239h100v-294q-99 -43 -184 -45v-85h-59v88q-212 30 -212 342q0 145 55.5 231.5t156.5 100.5v65h59v-64q84 -6 133 -52.5t56 -119.5zM126 342q0 -112 26 -178.5t86 -85.5v507q-112 -26 -112 -243z" />
    <glyph glyph-name="uni20B4.tab" horiz-adv-x="551" 
d="M169 506h-95q8 75 62 119.5t136 44.5q96 0 144.5 -48.5t48.5 -116.5q0 -47 -21 -82h49v-58h-104q-34 -26 -91 -58l-7 -4h192v-57h-280q-45 -38 -45 -84q0 -42 31 -69t79 -27q104 0 124 96h94q-12 -85 -69 -129.5t-155 -44.5q-86 0 -143.5 47t-57.5 122q0 51 26 89h-42v57
h98q32 24 96 62h-184v58h274q40 35 40 80q0 36 -25 63.5t-72 27.5q-89 0 -103 -88z" />
    <glyph glyph-name="uni20B5.tab" horiz-adv-x="551" 
d="M130 327q0 -221 107 -251v507q-56 -15 -81.5 -77t-25.5 -179zM297 -96h-60v89q-100 13 -153.5 99.5t-53.5 232.5q0 152 53 237.5t154 100.5v68h60v-65q89 -5 136 -56.5t56 -122.5h-98q-21 89 -94 99v-513q37 5 59 27t37 72h98q-34 -167 -194 -180v-88z" />
    </font>
</defs>
</svg>
